<svg width="27" height="30" viewBox="0 0 27 30" fill="none" xmlns="http://www.w3.org/2000/svg">
<g clip-path="url(#clip0)">
<path d="M12.7559 2.13664L12.3392 2.55089C12.0631 2.82546 12.0631 3.27066 12.3392 3.54529L22.8576 14.0039H0.707143C0.316623 14.0039 0 14.3187 0 14.707V15.293C0 15.6813 0.316623 15.9961 0.707143 15.9961H22.8576L12.3392 26.4547C12.0631 26.7293 12.0631 27.1745 12.3392 27.4491L12.7559 27.8634C13.0321 28.138 13.4798 28.138 13.7559 27.8634L26.1929 15.4972C26.469 15.2226 26.469 14.7774 26.1929 14.5028L13.7559 2.13664C13.4798 1.86201 13.0321 1.86201 12.7559 2.13664Z" fill="black"/>
</g>
<defs>
<clipPath id="clip0">
<rect width="26.4" height="30" fill="white"/>
</clipPath>
</defs>
</svg>
