<svg width="27" height="28" viewBox="0 0 27 28" fill="none" xmlns="http://www.w3.org/2000/svg">
<path d="M12.7559 1.13664L12.3392 1.55089C12.0631 1.82546 12.0631 2.27066 12.3392 2.54529L22.8576 13.0039H0.707143C0.316623 13.0039 0 13.3187 0 13.707V14.293C0 14.6813 0.316623 14.9961 0.707143 14.9961H22.8576L12.3392 25.4547C12.0631 25.7293 12.0631 26.1745 12.3392 26.4491L12.7559 26.8634C13.0321 27.138 13.4798 27.138 13.7559 26.8634L26.1929 14.4972C26.469 14.2226 26.469 13.7774 26.1929 13.5028L13.7559 1.13664C13.4798 0.862007 13.0321 0.862007 12.7559 1.13664Z" fill="white"/>
</svg>
