<svg width="70" height="70" viewBox="0 0 70 70" fill="none" xmlns="http://www.w3.org/2000/svg">
<path d="M1.45825 1.45825V16.0416C1.45825 19.2616 4.07159 21.8749 7.29159 21.8749H13.1249C16.3449 21.8749 18.9583 19.2616 18.9583 16.0416V1.45825" stroke="black" stroke-width="2" stroke-miterlimit="10" stroke-linecap="round" stroke-linejoin="round"/>
<path d="M1.45825 11.6665V64.1665C1.45825 67.3865 4.07159 68.5415 7.29159 68.5415H13.1249C16.3449 68.5415 18.9583 67.3865 18.9583 64.1665V11.6665" stroke="black" stroke-width="2" stroke-miterlimit="10" stroke-linejoin="round"/>
<path d="M24.7915 1.45825V16.0416C24.7915 19.2616 27.4048 21.8749 30.6248 21.8749H36.4582C39.6782 21.8749 42.2915 19.2616 42.2915 16.0416V1.45825" stroke="black" stroke-width="2" stroke-miterlimit="10" stroke-linecap="round" stroke-linejoin="round"/>
<path d="M24.7915 11.6665V64.1665C24.7915 67.3865 27.4048 68.5415 30.6248 68.5415H36.4582C39.6782 68.5415 42.2915 67.3865 42.2915 64.1665V11.6665" stroke="black" stroke-width="2" stroke-miterlimit="10" stroke-linejoin="round"/>
<path d="M48.125 1.45825V16.0416C48.125 19.2616 50.7383 21.8749 53.9583 21.8749H59.7917C63.0117 21.8749 65.625 19.2616 65.625 16.0416V1.45825" stroke="black" stroke-width="2" stroke-miterlimit="10" stroke-linecap="round" stroke-linejoin="round"/>
<path d="M48.125 11.6665V64.1665C48.125 67.3865 50.7383 68.5415 53.9583 68.5415H59.7917C63.0117 68.5415 65.625 67.3865 65.625 64.1665V11.6665" stroke="black" stroke-width="2" stroke-miterlimit="10" stroke-linejoin="round"/>
<path d="M18.9583 56.875H1.45825" stroke="black" stroke-width="2" stroke-miterlimit="10" stroke-linejoin="round"/>
<path d="M18.9583 51.0415H1.45825" stroke="black" stroke-width="2" stroke-miterlimit="10" stroke-linejoin="round"/>
<path d="M42.2915 56.875H24.7915" stroke="black" stroke-width="2" stroke-miterlimit="10" stroke-linejoin="round"/>
<path d="M42.2915 51.0415H24.7915" stroke="black" stroke-width="2" stroke-miterlimit="10" stroke-linejoin="round"/>
<path d="M65.625 56.875H48.125" stroke="black" stroke-width="2" stroke-miterlimit="10" stroke-linejoin="round"/>
<path d="M65.625 51.0415H48.125" stroke="black" stroke-width="2" stroke-miterlimit="10" stroke-linejoin="round"/>
<path d="M18.9583 39.375H1.45825" stroke="black" stroke-width="2" stroke-miterlimit="10" stroke-linejoin="round"/>
<path d="M18.9583 33.5415H1.45825" stroke="black" stroke-width="2" stroke-miterlimit="10" stroke-linejoin="round"/>
<path d="M42.2915 39.375H24.7915" stroke="black" stroke-width="2" stroke-miterlimit="10" stroke-linejoin="round"/>
<path d="M42.2915 33.5415H24.7915" stroke="black" stroke-width="2" stroke-miterlimit="10" stroke-linejoin="round"/>
<path d="M65.625 39.375H48.125" stroke="black" stroke-width="2" stroke-miterlimit="10" stroke-linejoin="round"/>
<path d="M65.625 33.5415H48.125" stroke="black" stroke-width="2" stroke-miterlimit="10" stroke-linejoin="round"/>
<path d="M7.2915 16.0417V4.375" stroke="black" stroke-width="2" stroke-miterlimit="10" stroke-linecap="round" stroke-linejoin="round"/>
<path d="M13.125 16.0417V4.375" stroke="black" stroke-width="2" stroke-miterlimit="10" stroke-linecap="round" stroke-linejoin="round"/>
<path d="M30.625 16.0417V4.375" stroke="black" stroke-width="2" stroke-miterlimit="10" stroke-linecap="round" stroke-linejoin="round"/>
<path d="M36.4583 16.0417V4.375" stroke="black" stroke-width="2" stroke-miterlimit="10" stroke-linecap="round" stroke-linejoin="round"/>
<path d="M53.9583 16.0417V4.375" stroke="black" stroke-width="2" stroke-miterlimit="10" stroke-linecap="round" stroke-linejoin="round"/>
<path d="M59.7915 16.0417V4.375" stroke="black" stroke-width="2" stroke-miterlimit="10" stroke-linecap="round" stroke-linejoin="round"/>
</svg>
