<svg width="70" height="70" viewBox="0 0 70 70" fill="none" xmlns="http://www.w3.org/2000/svg">
<path d="M1.45825 42.2915V49.5832C1.45825 51.9865 1.96867 53.9582 4.37492 53.9582V68.5415H13.1249V53.9582C15.5283 53.9582 16.0387 51.9836 16.0416 49.5832V42.2915H1.45825Z" stroke="white" stroke-width="2" stroke-miterlimit="10" stroke-linejoin="round"/>
<path d="M8.75 36.4583C11.1662 36.4583 13.125 34.4995 13.125 32.0833C13.125 29.667 11.1662 27.7083 8.75 27.7083C6.33375 27.7083 4.375 29.667 4.375 32.0833C4.375 34.4995 6.33375 36.4583 8.75 36.4583Z" stroke="white" stroke-width="2" stroke-miterlimit="10" stroke-linejoin="round"/>
<path d="M24.7915 30.6249H33.5415V40.8333L43.7498 30.6249H68.5415V1.45825H24.7915V30.6249Z" stroke="white" stroke-width="2" stroke-miterlimit="10" stroke-linejoin="round"/>
<path d="M48.1772 22.5779C47.3809 22.5779 46.7363 23.2225 46.7363 24.0187C46.7363 24.812 47.3809 25.4595 48.1772 25.4595C48.9705 25.4595 49.618 24.812 49.618 24.0187C49.618 23.2225 48.9705 22.5779 48.1772 22.5779Z" fill="white"/>
<path d="M43.8518 11.614C43.8518 9.22817 45.7885 7.2915 48.1743 7.2915C50.5601 7.2915 52.4997 9.22817 52.4997 11.614C52.4997 13.9998 50.5631 15.9336 48.1772 15.9336V18.9582" stroke="white" stroke-width="2" stroke-miterlimit="10" stroke-linecap="round" stroke-linejoin="round"/>
</svg>
