<?xml version="1.0" encoding="UTF-8"?>
<svg width="12px" height="24px" viewBox="0 0 12 24" version="1.1" xmlns="http://www.w3.org/2000/svg" xmlns:xlink="http://www.w3.org/1999/xlink">
    <!-- Generator: Sketch 59.1 (86144) - https://sketch.com -->
    <title>infomation-circle</title>
    <desc>Created with Sketch.</desc>
    <g id="Page-1" stroke="none" stroke-width="1" fill="none" fill-rule="evenodd">
        <g id="infomation-circle" transform="translate(-6.000000, 0.000000)">
            <g id="Filled_Icons_1_" transform="translate(6.000000, 0.000000)" fill="#FFFFFF" fill-rule="nonzero">
                <g id="Filled_Icons">
                    <path d="M5.14285714,0 C6.08742857,0 6.85714286,0.768 6.85714286,1.71428571 C6.85714286,2.66228571 6.08742857,3.42857143 5.14285714,3.42857143 C4.19485714,3.42857143 3.42857143,2.66228571 3.42857143,1.71428571 C3.42857143,0.768 4.19485714,0 5.14285714,0 Z M11.1428571,24 L0.857142857,24 C0.384,24 0,23.616 0,23.1428571 C0,22.6697143 0.384,22.2857143 0.857142857,22.2857143 L5.14114286,22.2857143 L5.14114286,8.57142857 L2.57142857,8.57142857 C2.09828571,8.57142857 1.71428571,8.18742857 1.71428571,7.71428571 C1.71428571,7.24114286 2.09828571,6.85714286 2.57142857,6.85714286 L6,6.85714286 C6.47142857,6.85714286 6.85714286,7.24114286 6.85542857,7.71428571 L6.85542857,22.2857143 L11.1428571,22.2857143 C11.6142857,22.2857143 12,22.6697143 12,23.1428571 C12,23.616 11.6142857,24 11.1428571,24 Z" id="Shape"></path>
                </g>
            </g>
            <g id="Invisible_Shape">
                <rect id="Rectangle" x="0" y="0" width="24" height="24"></rect>
            </g>
        </g>
    </g>
</svg>