<svg height='300px' width='300px'  fill="#FFF" xmlns="http://www.w3.org/2000/svg" viewBox="0 0 64 64" x="0px" y="0px"><title>beach-nature-landscape-sun-island</title><g><rect x="24" y="52" width="28" height="2"></rect><rect x="11" y="52" width="11" height="2"></rect><rect x="35" y="43" width="2" height="2"></rect><rect x="40" y="44" width="2" height="2"></rect><rect x="30" y="44" width="2" height="2"></rect><rect x="31" y="56" width="16" height="2"></rect><rect x="16" y="56" width="13" height="2"></rect><rect x="26" y="60" width="11" height="2"></rect><path d="M38,39.51a51.49,51.49,0,0,1,2.67-19.62l3.48,6.58A1,1,0,0,0,45,27h0a1,1,0,0,0,.88-.58c.08-.17,1.88-4.16.21-7.87-.07-.15-.16-.29-.23-.44l4.75,1.82A.92.92,0,0,0,51,20a1,1,0,0,0,.62-.21,1,1,0,0,0,.37-.91,7.6,7.6,0,0,0-4.88-6,9.25,9.25,0,0,0-1-.33l5.3-2.61A1,1,0,0,0,52,9a1,1,0,0,0-.53-.9A8.83,8.83,0,0,0,40.92,9.69a8.36,8.36,0,0,0-1.34-3.78A9.86,9.86,0,0,0,33.12,2a1,1,0,0,0-.95.43,1,1,0,0,0,0,1.05l2.94,5.27a8.79,8.79,0,0,0-7.65,1.36,1,1,0,0,0-.41,1,1,1,0,0,0,.69.8l4.68,1.49-.12,0a7.62,7.62,0,0,0-2,1.57,8.78,8.78,0,0,0-7.48-.31l2.18-5.31a1,1,0,0,0-.16-1,1,1,0,0,0-1-.34,9.48,9.48,0,0,0-5.87,4.41A8.11,8.11,0,0,0,17,16.35a8.25,8.25,0,0,0-2.28-1.29,9,9,0,0,0-8.31,1.12,1,1,0,0,0-.42,1,1,1,0,0,0,.67.81l5.51,1.87a7.62,7.62,0,0,0-.91.44A7.92,7.92,0,0,0,7,27a1,1,0,0,0,.49.86,1,1,0,0,0,1,0l4.61-2.5c-.05.12-.1.24-.14.36-1.2,3.89,1.1,7.63,1.2,7.79A1,1,0,0,0,15,34h.12a1,1,0,0,0,.83-.68l2.65-8a40.07,40.07,0,0,1,3.48,15.18c-5,1.55-9,4.25-11.16,7.53H2v2H62V48H53.09C50.26,43.74,44.68,40.67,38,39.51Zm-2-.29c-.66-.07-1.32-.13-2-.16a48.36,48.36,0,0,1,5-23.58l.2.06h.06l.83.32A51.84,51.84,0,0,0,36,39.22ZM23.74,23.76l7,2.19a1,1,0,0,0,1-.22,1,1,0,0,0,.28-1,8.28,8.28,0,0,0-2.31-3.94l5.75-2.35A50.17,50.17,0,0,0,32,39a35.88,35.88,0,0,0-4.16.27A44,44,0,0,0,23.74,23.76Zm-1.62-3.05a6.92,6.92,0,0,1,4,.21,6.19,6.19,0,0,1,3.08,2.47l-6.88-2.17c-.12-.19-.22-.35-.31-.47Zm22.6,2.62-3.14-5.94.29-.67a6,6,0,0,1,2.42,2.64A7.16,7.16,0,0,1,44.72,23.33Zm1.63-8.64a6.12,6.12,0,0,1,3.08,2.64l-7.35-2.82.24-.12A6.54,6.54,0,0,1,46.35,14.69ZM44.06,9.82a6.8,6.8,0,0,1,4.36-.66l-6.74,3.32c-.15,0-.29.1-.44.15A6.44,6.44,0,0,1,44.06,9.82ZM37.92,7a7.13,7.13,0,0,1,1,4.43c-.12-.15-.24-.31-.37-.45L35.08,4.68A6.91,6.91,0,0,1,37.92,7Zm-3.2,3.72A5.71,5.71,0,0,1,37,12.17l.33.61-.51-.09-6.17-2A6.46,6.46,0,0,1,34.72,10.74Zm-1.55,4.47a5.59,5.59,0,0,1,3.21-.55l.64.2-.48,1-6.09,2.49A5.87,5.87,0,0,1,33.17,15.21Zm-5.12,4.41a7.06,7.06,0,0,0-1.21-.57,6.36,6.36,0,0,0-.66-.2l2.34-1.07A10.78,10.78,0,0,0,28.05,19.62Zm-4.74-3a6.42,6.42,0,0,1,4.06-.5l-5.89,2.7c-.17,0-.33.1-.49.15l.27-.67A5.81,5.81,0,0,1,23.31,16.61Zm-3.64-3.24a6.48,6.48,0,0,1,2.49-2.52L19.5,17.31c-.12.17-.22.35-.33.53A6.93,6.93,0,0,1,19.67,13.37ZM14,16.93a6.29,6.29,0,0,1,3,2.36c-.17,0-.34-.08-.51-.1l-7-2.36A6.89,6.89,0,0,1,14,16.93ZM12.25,22a6.74,6.74,0,0,1,3.28-.9,6.2,6.2,0,0,1,.62.06l.31.1L9.39,25.11A6.41,6.41,0,0,1,12.25,22Zm2.64,8.14a7,7,0,0,1,0-3.82,6.2,6.2,0,0,1,2.32-3.12ZM22.1,42.56c0,.78,0,1.56-.1,2.37l2,.14a40.84,40.84,0,0,0-4.79-23l.21-.12h.06l.75-.34,0,0c.06.08,5.8,7.9,5.8,22.4h2c0-.94,0-1.85-.07-2.73A32.35,32.35,0,0,1,32,41c7.82,0,15,2.76,18.59,7H13.42A19.6,19.6,0,0,1,22.1,42.56Z"></path></g></svg>