<?xml version="1.0" encoding="utf-8" standalone="yes"?>
<!DOCTYPE svg PUBLIC "-//W3C//DTD SVG 1.1//EN" "http://www.w3.org/Graphics/SVG/1.1/DTD/svg11.dtd">

<!-- Generator: Adobe Illustrator 16.0.3, SVG Export Plug-In . SVG Version: 6.00 Build 0)  -->
<svg xmlns="http://www.w3.org/2000/svg" xmlns:xlink="http://www.w3.org/1999/xlink" version="1.1" x="0px" y="0px" width="24px" height="24px" viewBox="0 0 24 24" enable-background="new 0 0 24 24" xml:space="preserve">
    <g id="Outline_Icons_1_">
        <g id="Outline_Icons">
            <g>
                <path fill="none" stroke="#77838f" stroke-linejoin="round" stroke-miterlimit="10" d="M12,23.5h11.5c0,0,0-2.057-1-4.057     c-0.746-1.492-4-2.5-8-4v-3c0,0,1.5-1,1.5-3c0.5,0,1-2,0-2.5c0-0.298,1.339-2.802,1-4.5c-0.5-2.5-7.5-2.5-8-0.5c-3,0-1,4.594-1,5     c-1,0.5-0.5,2.5,0,2.5c0,2,1.5,3,1.5,3v3c-4,1.5-7.255,2.508-8,4c-1,2-1,4.057-1,4.057H12z"></path>
            </g>
        </g>
        <g id="New_icons_1_"></g>
    </g>
    <g id="Invisible_Shape">
        <rect fill="none" width="24" height="24"></rect>
    </g>
</svg>