<?xml version="1.0" encoding="utf-8"?>
<!-- Generator: Adobe Illustrator 24.1.0, SVG Export Plug-In . SVG Version: 6.00 Build 0)  -->
<svg version="1.1" id="Layer_1" xmlns="http://www.w3.org/2000/svg" xmlns:xlink="http://www.w3.org/1999/xlink" x="0px" y="0px"
	 viewBox="0 0 960 560" style="enable-background:new 0 0 960 560;" xml:space="preserve">
<style type="text/css">
	.st0{clip-path:url(#SVGID_2_);fill:url(#SVGID_3_);}
	.st1{clip-path:url(#SVGID_2_);}
	.st2{opacity:0.39;fill:#FFFFFF;}
	.st3{opacity:0.46;fill:#FFFFFF;}
	.st4{opacity:0.72;}
</style>
<g>
	<defs>
		<rect id="SVGID_1_" width="960" height="560"/>
	</defs>
	<clipPath id="SVGID_2_">
		<use xlink:href="#SVGID_1_"  style="overflow:visible;"/>
	</clipPath>
	<linearGradient id="SVGID_3_" gradientUnits="userSpaceOnUse" x1="721.2435" y1="-137.8461" x2="238.7564" y2="697.8461">
		<stop  offset="0" style="stop-color:#FFFFFF"/>
		<stop  offset="0.4982" style="stop-color:#939598"/>
		<stop  offset="0.5968" style="stop-color:#9EA0A3"/>
		<stop  offset="0.7696" style="stop-color:#BBBDBF"/>
		<stop  offset="0.9767" style="stop-color:#E6E7E8"/>
	</linearGradient>
	<rect class="st0" width="960" height="560"/>
	<g class="st1">
		<g>
			<g>
				
					<rect x="207.7" y="114.9" transform="matrix(0.7695 -0.6386 0.6386 0.7695 -89.0375 298.0152)" class="st2" width="321.2" height="315"/>
				
					<rect x="246" y="152.4" transform="matrix(0.7695 -0.6386 0.6386 0.7695 -89.0375 298.015)" class="st3" width="244.8" height="240"/>
			</g>
			<g class="st4">
				
					<rect x="378.5" y="129.1" transform="matrix(0.7695 -0.6386 0.6386 0.7695 -58.7303 410.3628)" class="st2" width="321.2" height="315"/>
				
					<rect x="416.8" y="166.6" transform="matrix(0.7695 -0.6386 0.6386 0.7695 -58.7302 410.363)" class="st3" width="244.8" height="240"/>
			</g>
		</g>
		<g>
			<g>
				
					<rect x="90.5" y="417.2" transform="matrix(0.7695 -0.6386 0.6386 0.7695 -309.145 292.8247)" class="st2" width="321.2" height="315"/>
				
					<rect x="128.7" y="454.7" transform="matrix(0.7695 -0.6386 0.6386 0.7695 -309.1449 292.8247)" class="st3" width="244.8" height="240"/>
			</g>
			<g class="st4">
				
					<rect x="261.3" y="431.4" transform="matrix(0.7695 -0.6386 0.6386 0.7695 -278.8377 405.1721)" class="st2" width="321.2" height="315"/>
				
					<rect x="299.5" y="468.9" transform="matrix(0.7695 -0.6386 0.6386 0.7695 -278.8377 405.1721)" class="st3" width="244.8" height="240"/>
			</g>
		</g>
		<g>
			<g>
				
					<rect x="555.2" y="343" transform="matrix(0.7695 -0.6386 0.6386 0.7695 -154.6633 572.5029)" class="st2" width="321.2" height="315"/>
				
					<rect x="593.5" y="380.5" transform="matrix(0.7695 -0.6386 0.6386 0.7695 -154.6633 572.503)" class="st3" width="244.8" height="240"/>
			</g>
			<g class="st4">
				
					<rect x="726" y="357.2" transform="matrix(0.7695 -0.6386 0.6386 0.7695 -124.3561 684.8503)" class="st2" width="321.2" height="315"/>
				
					<rect x="764.3" y="394.7" transform="matrix(0.7695 -0.6386 0.6386 0.7695 -124.356 684.8509)" class="st3" width="244.8" height="240"/>
			</g>
		</g>
		<g>
			<g>
				
					<rect x="324.9" y="-186.6" transform="matrix(0.7695 -0.6386 0.6386 0.7695 130.5057 303.3462)" class="st2" width="321.2" height="315"/>
				
					<rect x="363.1" y="-149.1" transform="matrix(0.7695 -0.6386 0.6386 0.7695 130.5058 303.3462)" class="st3" width="244.8" height="240"/>
			</g>
			<g class="st4">
				
					<rect x="495.7" y="-172.4" transform="matrix(0.7695 -0.6386 0.6386 0.7695 160.813 415.6937)" class="st2" width="321.2" height="315"/>
				
					<rect x="533.9" y="-134.9" transform="matrix(0.7695 -0.6386 0.6386 0.7695 160.8129 415.6936)" class="st3" width="244.8" height="240"/>
			</g>
		</g>
		<g>
			<g>
				
					<rect x="-140.6" y="-112.4" transform="matrix(0.7695 -0.6386 0.6386 0.7695 -24.1868 23.2069)" class="st2" width="321.2" height="315"/>
				
					<rect x="-102.3" y="-74.9" transform="matrix(0.7695 -0.6386 0.6386 0.7695 -24.1868 23.2068)" class="st3" width="244.8" height="240"/>
			</g>
			<g class="st4">
				
					<rect x="30.2" y="-98.2" transform="matrix(0.7695 -0.6386 0.6386 0.7695 6.1205 135.5545)" class="st2" width="321.2" height="315"/>
				
					<rect x="68.5" y="-60.7" transform="matrix(0.7695 -0.6386 0.6386 0.7695 6.1205 135.5545)" class="st3" width="244.8" height="240"/>
			</g>
		</g>
		<g>
			<g>
				
					<rect x="-87.1" y="203.7" transform="matrix(0.7695 -0.6386 0.6386 0.7695 -213.7321 130.2351)" class="st2" width="321.2" height="315"/>
				
					<rect x="-48.8" y="241.2" transform="matrix(0.7695 -0.6386 0.6386 0.7695 -213.732 130.2351)" class="st3" width="244.8" height="240"/>
			</g>
			<g class="st4">
				
					<rect x="83.7" y="217.9" transform="matrix(0.7695 -0.6386 0.6386 0.7695 -183.4248 242.5824)" class="st2" width="321.2" height="315"/>
				
					<rect x="122" y="255.4" transform="matrix(0.7695 -0.6386 0.6386 0.7695 -183.4248 242.5824)" class="st3" width="244.8" height="240"/>
			</g>
		</g>
		<g>
			<g>
				
					<rect x="649.1" y="12.3" transform="matrix(0.7695 -0.6386 0.6386 0.7695 78.2304 556.2517)" class="st2" width="321.2" height="315"/>
				
					<rect x="687.4" y="49.7" transform="matrix(0.7695 -0.6386 0.6386 0.7695 78.2305 556.2518)" class="st3" width="244.8" height="240"/>
			</g>
			<g class="st4">
				
					<rect x="819.9" y="26.4" transform="matrix(0.7695 -0.6386 0.6386 0.7695 108.5375 668.5991)" class="st2" width="321.2" height="315"/>
				
					<rect x="858.2" y="63.9" transform="matrix(0.7695 -0.6386 0.6386 0.7695 108.5375 668.5992)" class="st3" width="244.8" height="240"/>
			</g>
		</g>
	</g>
	<g class="st1">
		<g>
			<g>
				
					<rect x="459.2" y="127.2" transform="matrix(-0.7695 0.6386 -0.6386 -0.7695 1175.0845 58.8407)" class="st2" width="235.5" height="228.5"/>
				
					<rect x="487.2" y="154.4" transform="matrix(-0.7695 0.6386 -0.6386 -0.7695 1175.0845 58.8408)" class="st3" width="179.4" height="174.1"/>
			</g>
			<g class="st4">
				
					<rect x="334.5" y="117.5" transform="matrix(-0.7695 0.6386 -0.6386 -0.7695 948.3525 121.2921)" class="st2" width="235.5" height="228.5"/>
				
					<rect x="362.6" y="144.7" transform="matrix(-0.7695 0.6386 -0.6386 -0.7695 948.3525 121.2919)" class="st3" width="179.4" height="174.1"/>
			</g>
		</g>
		<g>
			<g>
				
					<rect x="545.9" y="-93.5" transform="matrix(-0.7695 0.6386 -0.6386 -0.7695 1187.6021 -387.1435)" class="st2" width="235.5" height="228.5"/>
				
					<rect x="573.9" y="-66.3" transform="matrix(-0.7695 0.6386 -0.6386 -0.7695 1187.6021 -387.1436)" class="st3" width="179.4" height="174.1"/>
			</g>
			<g class="st4">
				
					<rect x="421.3" y="-103.2" transform="matrix(-0.7695 0.6386 -0.6386 -0.7695 960.8701 -324.6923)" class="st2" width="235.5" height="228.5"/>
				
					<rect x="449.3" y="-76" transform="matrix(-0.7695 0.6386 -0.6386 -0.7695 960.8698 -324.6926)" class="st3" width="179.4" height="174.1"/>
			</g>
		</g>
		<g>
			<g>
				
					<rect x="206.4" y="-37.7" transform="matrix(-0.7695 0.6386 -0.6386 -0.7695 622.4368 -71.5534)" class="st2" width="235.5" height="228.5"/>
				
					<rect x="234.4" y="-10.5" transform="matrix(-0.7695 0.6386 -0.6386 -0.7695 622.4369 -71.5533)" class="st3" width="179.4" height="174.1"/>
			</g>
			<g class="st4">
				
					<rect x="81.7" y="-47.4" transform="matrix(-0.7695 0.6386 -0.6386 -0.7695 395.7049 -9.102)" class="st2" width="235.5" height="228.5"/>
				
					<rect x="109.8" y="-20.2" transform="matrix(-0.7695 0.6386 -0.6386 -0.7695 395.7049 -9.102)" class="st3" width="179.4" height="174.1"/>
			</g>
		</g>
		<g>
			<g>
				
					<rect x="372.5" y="347.3" transform="matrix(-0.7695 0.6386 -0.6386 -0.7695 1162.2893 503.6835)" class="st2" width="235.5" height="228.5"/>
				
					<rect x="400.5" y="374.5" transform="matrix(-0.7695 0.6386 -0.6386 -0.7695 1162.2893 503.6832)" class="st3" width="179.4" height="174.1"/>
			</g>
			<g class="st4">
				
					<rect x="247.9" y="337.6" transform="matrix(-0.7695 0.6386 -0.6386 -0.7695 935.5574 566.1346)" class="st2" width="235.5" height="228.5"/>
				
					<rect x="275.9" y="364.8" transform="matrix(-0.7695 0.6386 -0.6386 -0.7695 935.5574 566.1343)" class="st3" width="179.4" height="174.1"/>
			</g>
		</g>
		<g>
			<g>
				
					<rect x="712.6" y="291.5" transform="matrix(-0.7695 0.6386 -0.6386 -0.7695 1728.3856 187.6613)" class="st2" width="235.5" height="228.5"/>
				
					<rect x="740.6" y="318.7" transform="matrix(-0.7695 0.6386 -0.6386 -0.7695 1728.3857 187.6614)" class="st3" width="179.4" height="174.1"/>
			</g>
			<g class="st4">
				
					<rect x="587.9" y="281.8" transform="matrix(-0.7695 0.6386 -0.6386 -0.7695 1501.6537 250.1128)" class="st2" width="235.5" height="228.5"/>
				
					<rect x="616" y="309" transform="matrix(-0.7695 0.6386 -0.6386 -0.7695 1501.6537 250.1127)" class="st3" width="179.4" height="174.1"/>
			</g>
		</g>
		<g>
			<g>
				
					<rect x="674.7" y="61.3" transform="matrix(-0.7695 0.6386 -0.6386 -0.7695 1514.4286 -195.3561)" class="st2" width="235.5" height="228.5"/>
				
					<rect x="702.7" y="88.5" transform="matrix(-0.7695 0.6386 -0.6386 -0.7695 1514.4285 -195.3562)" class="st3" width="179.4" height="174.1"/>
			</g>
			<g class="st4">
				
					<rect x="550.1" y="51.7" transform="matrix(-0.7695 0.6386 -0.6386 -0.7695 1287.6965 -132.9048)" class="st2" width="235.5" height="228.5"/>
				
					<rect x="578.1" y="78.9" transform="matrix(-0.7695 0.6386 -0.6386 -0.7695 1287.6964 -132.9049)" class="st3" width="179.4" height="174.1"/>
			</g>
		</g>
		<g>
			<g>
				
					<rect x="136.5" y="203.7" transform="matrix(-0.7695 0.6386 -0.6386 -0.7695 653.0186 400.135)" class="st2" width="235.5" height="228.5"/>
				
					<rect x="164.6" y="230.9" transform="matrix(-0.7695 0.6386 -0.6386 -0.7695 653.0186 400.1351)" class="st3" width="179.4" height="174.1"/>
			</g>
			<g class="st4">
				
					<rect x="11.9" y="194" transform="matrix(-0.7695 0.6386 -0.6386 -0.7695 426.2865 462.5866)" class="st2" width="235.5" height="228.5"/>
				
					<rect x="39.9" y="221.2" transform="matrix(-0.7695 0.6386 -0.6386 -0.7695 426.2864 462.5867)" class="st3" width="179.4" height="174.1"/>
			</g>
		</g>
	</g>
</g>
</svg>
