<svg width="140" height="19" viewBox="0 0 140 19" fill="none" xmlns="http://www.w3.org/2000/svg">
<path d="M5.7199 17.9999H9.4379V3.90795H14.4819V0.657948H0.649902V3.90795H5.7199V17.9999Z" fill="white"/>
<path d="M16.8487 17.9999H29.1207V14.8019H20.5407V10.7719H28.9387V7.59995H20.5407V3.82995H29.1207V0.657948H16.8487V17.9999Z" fill="white"/>
<path d="M31.3829 17.9999H44.5909V14.7499H36.2189L44.4089 3.62195V0.657948H31.3829V3.90795H39.5729L31.3829 15.0099V17.9999Z" fill="white"/>
<path d="M46.2062 9.34195C46.2062 14.5679 50.0282 18.3119 55.2542 18.3119C60.5062 18.3119 64.3282 14.5679 64.3282 9.34195C64.3282 4.11595 60.5062 0.371948 55.2542 0.371948C50.0282 0.371948 46.2062 4.11595 46.2062 9.34195ZM60.5322 9.34195C60.5322 12.5659 58.4522 15.0359 55.2542 15.0359C52.0562 15.0359 50.0022 12.5659 50.0022 9.34195C50.0022 6.09195 52.0562 3.64795 55.2542 3.64795C58.4522 3.64795 60.5322 6.09195 60.5322 9.34195Z" fill="white"/>
<path d="M65.723 15.5559C67.361 17.1939 69.753 18.3119 73.081 18.3119C77.761 18.3119 80.023 15.9199 80.023 12.7479C80.023 8.89995 76.383 8.04195 73.523 7.39195C71.521 6.92395 70.065 6.55995 70.065 5.38995C70.065 4.34995 70.949 3.62195 72.613 3.62195C74.303 3.62195 76.175 4.21995 77.579 5.51995L79.633 2.81595C77.917 1.22995 75.629 0.397948 72.873 0.397948C68.791 0.397948 66.295 2.73795 66.295 5.62395C66.295 9.49795 69.935 10.2779 72.769 10.9279C74.771 11.3959 76.279 11.8379 76.279 13.1379C76.279 14.1259 75.291 15.0879 73.263 15.0879C70.871 15.0879 68.973 14.0219 67.751 12.7479L65.723 15.5559Z" fill="white"/>
<path d="M87.9238 18H98.4018V15.712H90.5238V0.657959H87.9238V18Z" fill="white"/>
<path d="M101.254 18H103.854V0.657959H101.254V18Z" fill="white"/>
<path d="M119.923 18H122.445V0.657959H119.845V13.658L110.407 0.657959H107.729V18H110.329V4.68796L119.923 18Z" fill="white"/>
<path d="M136.715 18H139.939L132.217 8.87396L139.367 0.657959H136.143L128.889 9.26396V0.657959H126.289V18H128.889V12.306L130.527 10.46L136.715 18Z" fill="white"/>
</svg>
