<svg width="120" height="115" viewBox="0 0 120 115" fill="none" xmlns="http://www.w3.org/2000/svg">
<path d="M8.04224 106.957L18.7935 96.2055C19.9211 97.3386 21.2615 98.2378 22.7377 98.8513C24.2138 99.4649 25.7967 99.7807 27.3953 99.7807C28.9938 99.7807 30.5767 99.4649 32.0529 98.8513C33.529 98.2378 34.8694 97.3386 35.9971 96.2055L59.651 72.5516C60.7838 71.424 61.6827 70.0838 62.296 68.6078C62.9094 67.1318 63.2251 65.5492 63.2251 63.9508C63.2251 62.3525 62.9094 60.7699 62.296 59.2939C61.6827 57.818 60.7838 56.4777 59.651 55.3501L70.4042 44.5968C72.9527 47.1344 74.9748 50.1503 76.3547 53.4714C77.7345 56.7925 78.4448 60.3535 78.4448 63.9498C78.4448 67.5462 77.7345 71.1071 76.3547 74.4282C74.9748 77.7494 72.9527 80.7653 70.4042 83.3028L46.7503 106.957C44.213 109.506 41.1971 111.529 37.8757 112.909C34.5544 114.289 30.993 115 27.3963 115C23.7995 115 20.2382 114.289 16.9169 112.909C13.5955 111.529 10.5796 109.506 8.04224 106.957Z" fill="#324859"/>
<path d="M44.5968 70.4022C42.0484 67.8646 40.0263 64.8487 38.6464 61.5276C37.2666 58.2065 36.5563 54.6455 36.5563 51.0492C36.5563 47.4528 37.2666 43.8919 38.6464 40.5707C40.0263 37.2496 42.0484 34.2337 44.5968 31.6961L68.2508 8.04223C70.7881 5.4933 73.8039 3.47071 77.125 2.09058C80.4462 0.71046 84.0073 0 87.6038 0C91.2003 0 94.7614 0.71046 98.0825 2.09058C101.404 3.47071 104.42 5.4933 106.957 8.04223L96.2056 18.7934C95.0779 17.6603 93.7375 16.7612 92.2614 16.1477C90.7852 15.5341 89.2024 15.2183 87.6038 15.2183C86.0052 15.2183 84.4223 15.5341 82.9462 16.1477C81.47 16.7612 80.1296 17.6603 79.002 18.7934L55.3481 42.4474C54.2153 43.575 53.3164 44.9152 52.703 46.3912C52.0897 47.8672 51.7739 49.4498 51.7739 51.0481C51.7739 52.6465 52.0897 54.2291 52.703 55.7051C53.3164 57.181 54.2153 58.5213 55.3481 59.6489L44.5968 70.4022Z" fill="#F3CC4B"/>
<path d="M8.04223 106.957C5.4933 104.419 3.47071 101.404 2.09058 98.0825C0.71046 94.7613 0 91.2002 0 87.6037C0 84.0072 0.71046 80.4461 2.09058 77.125C3.47071 73.8038 5.4933 70.788 8.04223 68.2507L31.6961 44.5968C34.2337 42.0483 37.2496 40.0262 40.5707 38.6464C43.8919 37.2666 47.4528 36.5563 51.0492 36.5563C54.6455 36.5563 58.2065 37.2666 61.5276 38.6464C64.8487 40.0262 67.8646 42.0483 70.4022 44.5968L59.6489 55.3501C58.5213 54.2173 57.181 53.3184 55.7051 52.705C54.2291 52.0917 52.6465 51.7759 51.0481 51.7759C49.4498 51.7759 47.8672 52.0917 46.3912 52.705C44.9152 53.3184 43.575 54.2173 42.4474 55.3501L18.7934 79.004C17.6603 80.1316 16.7612 81.472 16.1477 82.9482C15.5341 84.4243 15.2183 86.0072 15.2183 87.6058C15.2183 89.2044 15.5341 90.7872 16.1477 92.2634C16.7612 93.7395 17.6603 95.0799 18.7934 96.2076L8.04223 106.957Z" fill="#3D586D"/>
<path d="M44.5968 70.4022L55.3501 59.6489C56.4777 60.7817 57.818 61.6806 59.2939 62.2939C60.7699 62.9073 62.3525 63.223 63.9508 63.223C65.5492 63.223 67.1318 62.9073 68.6078 62.2939C70.0837 61.6806 71.424 60.7817 72.5516 59.6489L96.2055 35.995C97.3386 34.8673 98.2378 33.5269 98.8513 32.0508C99.4649 30.5746 99.7807 28.9918 99.7807 27.3932C99.7807 25.7946 99.4649 24.2117 98.8513 22.7356C98.2378 21.2594 97.3386 19.919 96.2055 18.7914L106.957 8.04016C109.506 10.5775 111.528 13.5933 112.908 16.9144C114.289 20.2356 114.999 23.7967 114.999 27.3932C114.999 30.9897 114.289 34.5508 112.908 37.8719C111.528 41.1931 109.506 44.2089 106.957 46.7462L83.3028 70.4001C80.7654 72.9487 77.7496 74.971 74.4285 76.351C71.1075 77.731 67.5466 78.4415 63.9502 78.4417C60.3539 78.4418 56.7929 77.7317 53.4717 76.3521C50.1505 74.9725 47.1345 72.9505 44.5968 70.4022Z" fill="#FCE14C"/>
<path d="M13.4169 109.184C17.6154 109.184 21.019 105.781 21.019 101.582C21.019 97.3836 17.6154 93.98 13.4169 93.98C9.2183 93.98 5.8147 97.3836 5.8147 101.582C5.8147 105.781 9.2183 109.184 13.4169 109.184Z" fill="#3D586D"/>
<path d="M65.0256 57.5755C69.2241 57.5755 72.6277 54.1719 72.6277 49.9734C72.6277 45.7748 69.2241 42.3712 65.0256 42.3712C60.827 42.3712 57.4234 45.7748 57.4234 49.9734C57.4234 54.1719 60.827 57.5755 65.0256 57.5755Z" fill="#3D586D"/>
<path d="M49.9734 72.6278C54.1719 72.6278 57.5755 69.2242 57.5755 65.0256C57.5755 60.8271 54.1719 57.4235 49.9734 57.4235C45.7748 57.4235 42.3712 60.8271 42.3712 65.0256C42.3712 69.2242 45.7748 72.6278 49.9734 72.6278Z" fill="#FCE14C"/>
<path d="M101.582 21.019C105.781 21.019 109.184 17.6154 109.184 13.4169C109.184 9.2183 105.781 5.8147 101.582 5.8147C97.3836 5.8147 93.98 9.2183 93.98 13.4169C93.98 17.6154 97.3836 21.019 101.582 21.019Z" fill="#FCE14C"/>
</svg>
