<svg width="205" height="30" viewBox="0 0 205 30" fill="none" xmlns="http://www.w3.org/2000/svg">
<rect width="205" height="30" fill="white"/>
<path d="M2.09796 27.9018L4.90263 25.0972C5.1968 25.3928 5.54646 25.6273 5.93155 25.7874C6.31664 25.9474 6.72955 26.0298 7.14658 26.0298C7.5636 26.0298 7.97651 25.9474 8.3616 25.7874C8.74669 25.6273 9.09636 25.3928 9.39052 25.0972L15.5611 18.9266C15.8566 18.6324 16.0911 18.2828 16.2511 17.8978C16.4111 17.5127 16.4935 17.0999 16.4935 16.6829C16.4935 16.266 16.4111 15.8531 16.2511 15.4681C16.0911 15.083 15.8566 14.7334 15.5611 14.4392L18.3663 11.634C19.0311 12.296 19.5586 13.0828 19.9186 13.9491C20.2785 14.8155 20.4638 15.7445 20.4638 16.6826C20.4638 17.6208 20.2785 18.5498 19.9186 19.4161C19.5586 20.2825 19.0311 21.0693 18.3663 21.7313L12.1957 27.9018C11.5338 28.5669 10.747 29.0946 9.88061 29.4546C9.01417 29.8147 8.08513 30.0001 7.14684 30.0001C6.20856 30.0001 5.27952 29.8147 4.41308 29.4546C3.54664 29.0946 2.75987 28.5669 2.09796 27.9018Z" fill="#324859"/>
<path d="M11.634 18.3658C10.9692 17.7038 10.4416 16.9171 10.0817 16.0507C9.72173 15.1843 9.53644 14.2554 9.53644 13.3172C9.53644 12.379 9.72173 11.4501 10.0817 10.5837C10.4416 9.71729 10.9692 8.93053 11.634 8.26856L17.8046 2.09797C18.4665 1.43304 19.2532 0.905401 20.1196 0.545369C20.986 0.185337 21.9149 0 22.8532 0C23.7914 0 24.7204 0.185337 25.5867 0.545369C26.4531 0.905401 27.2399 1.43304 27.9018 2.09797L25.0971 4.90264C24.8029 4.60705 24.4533 4.37249 24.0682 4.21243C23.6831 4.05238 23.2702 3.96999 22.8532 3.96999C22.4361 3.96999 22.0232 4.05238 21.6381 4.21243C21.2531 4.37249 20.9034 4.60705 20.6092 4.90264L14.4386 11.0732C14.1431 11.3674 13.9086 11.717 13.7486 12.1021C13.5886 12.4871 13.5062 12.8999 13.5062 13.3169C13.5062 13.7339 13.5886 14.1467 13.7486 14.5318C13.9086 14.9168 14.1431 15.2664 14.4386 15.5606L11.634 18.3658Z" fill="#F3CC4B"/>
<path d="M2.09797 27.9017C1.43304 27.2398 0.905401 26.4531 0.545369 25.5867C0.185337 24.7203 0 23.7913 0 22.8531C0 21.9149 0.185337 20.9859 0.545369 20.1195C0.905401 19.2531 1.43304 18.4664 2.09797 17.8045L8.26856 11.6339C8.93053 10.9691 9.71729 10.4416 10.5837 10.0816C11.4501 9.72167 12.379 9.53638 13.3172 9.53638C14.2554 9.53638 15.1843 9.72167 16.0507 10.0816C16.9171 10.4416 17.7038 10.9691 18.3658 11.6339L15.5606 14.4391C15.2664 14.1436 14.9168 13.9091 14.5318 13.7491C14.1467 13.5891 13.7339 13.5067 13.3169 13.5067C12.8999 13.5067 12.4871 13.5891 12.1021 13.7491C11.717 13.9091 11.3674 14.1436 11.0732 14.4391L4.90264 20.6097C4.60705 20.9039 4.37249 21.2535 4.21243 21.6386C4.05238 22.0237 3.96999 22.4366 3.96999 22.8536C3.96999 23.2707 4.05238 23.6836 4.21243 24.0687C4.37249 24.4537 4.60705 24.8034 4.90264 25.0976L2.09797 27.9017Z" fill="#3D586D"/>
<path d="M11.634 18.3658L14.4392 15.5606C14.7333 15.8561 15.083 16.0906 15.468 16.2506C15.853 16.4106 16.2659 16.4929 16.6829 16.4929C17.0998 16.4929 17.5127 16.4106 17.8977 16.2506C18.2827 16.0906 18.6324 15.8561 18.9265 15.5606L25.0971 9.38997C25.3927 9.09581 25.6273 8.74614 25.7873 8.36105C25.9474 7.97596 26.0298 7.56305 26.0298 7.14603C26.0298 6.729 25.9474 6.31609 25.7873 5.931C25.6273 5.54591 25.3927 5.19624 25.0971 4.90208L27.9018 2.09741C28.5667 2.75931 29.0944 3.54605 29.4544 4.41244C29.8144 5.27883 29.9998 6.20781 29.9998 7.14603C29.9998 8.08424 29.8144 9.01322 29.4544 9.87961C29.0944 10.746 28.5667 11.5327 27.9018 12.1946L21.7312 18.3652C21.0693 19.0301 20.2825 19.5576 19.4162 19.9176C18.5498 20.2776 17.6209 20.463 16.6827 20.463C15.7445 20.4631 14.8156 20.2778 13.9492 19.9179C13.0828 19.558 12.296 19.0305 11.634 18.3658Z" fill="#FCE14C"/>
<path d="M3.50008 28.4829C4.59536 28.4829 5.48325 27.5951 5.48325 26.4998C5.48325 25.4045 4.59536 24.5166 3.50008 24.5166C2.4048 24.5166 1.51691 25.4045 1.51691 26.4998C1.51691 27.5951 2.4048 28.4829 3.50008 28.4829Z" fill="#3D586D"/>
<path d="M16.9632 15.0198C18.0585 15.0198 18.9464 14.1319 18.9464 13.0366C18.9464 11.9414 18.0585 11.0535 16.9632 11.0535C15.8679 11.0535 14.98 11.9414 14.98 13.0366C14.98 14.1319 15.8679 15.0198 16.9632 15.0198Z" fill="#3D586D"/>
<path d="M13.0365 18.9463C14.1318 18.9463 15.0197 18.0584 15.0197 16.9632C15.0197 15.8679 14.1318 14.98 13.0365 14.98C11.9412 14.98 11.0533 15.8679 11.0533 16.9632C11.0533 18.0584 11.9412 18.9463 13.0365 18.9463Z" fill="#FCE14C"/>
<path d="M26.4997 5.48319C27.595 5.48319 28.4829 4.59529 28.4829 3.50002C28.4829 2.40474 27.595 1.51685 26.4997 1.51685C25.4044 1.51685 24.5165 2.40474 24.5165 3.50002C24.5165 4.59529 25.4044 5.48319 26.4997 5.48319Z" fill="#FCE14C"/>
<path d="M53.1217 8.34024H47.4351V23.746H43.6101V8.34024H38V5.25401H53.1217V8.34024Z" fill="#3D586D"/>
<path d="M66.4839 15.732H59.1398V20.6852H67.7589V23.746H55.3147V5.25401H67.7334V8.34024H59.1398V12.7473H66.4839V15.732Z" fill="#3D586D"/>
<path d="M74.0575 20.6852H83.4161V23.746H69.2761V21.5107L78.4563 8.34024H69.2889V5.25401H83.2121V7.4385L74.0575 20.6852Z" fill="#3D586D"/>
<path d="M100.756 14.9191C100.756 16.7395 100.433 18.3356 99.7873 19.7072C99.1413 21.0789 98.2148 22.1373 97.0077 22.8824C95.8092 23.6275 94.4322 24 92.8767 24C91.3382 24 89.9654 23.6317 88.7584 22.8951C87.5514 22.1584 86.6164 21.1085 85.9534 19.7453C85.2903 18.3737 84.9546 16.7988 84.9461 15.0207V14.1063C84.9461 12.2859 85.2733 10.6856 85.9279 9.30548C86.5909 7.91689 87.5216 6.85428 88.7201 6.11765C89.9272 5.37255 91.3042 5 92.8512 5C94.3982 5 95.771 5.37255 96.9695 6.11765C98.1765 6.85428 99.1073 7.91689 99.7618 9.30548C100.425 10.6856 100.756 12.2816 100.756 14.0936V14.9191ZM96.8802 14.0809C96.8802 12.1419 96.5317 10.6687 95.8347 9.6611C95.1377 8.65352 94.1432 8.14973 92.8512 8.14973C91.5677 8.14973 90.5774 8.64929 89.8804 9.6484C89.1834 10.639 88.8306 12.0954 88.8221 14.0174V14.9191C88.8221 16.8073 89.1706 18.2721 89.8677 19.3135C90.5647 20.3549 91.5677 20.8757 92.8767 20.8757C94.1602 20.8757 95.1462 20.3761 95.8347 19.377C96.5232 18.3694 96.8717 16.9046 96.8802 14.9826V14.0809Z" fill="#3D586D"/>
<path d="M113.162 18.8944C113.162 18.1747 112.907 17.6243 112.397 17.2433C111.887 16.8538 110.969 16.4474 109.643 16.0241C108.317 15.5922 107.267 15.1689 106.494 14.754C104.386 13.6194 103.332 12.0911 103.332 10.1691C103.332 9.17001 103.612 8.28097 104.173 7.50201C104.743 6.71457 105.555 6.10071 106.609 5.66043C107.671 5.22014 108.861 5 110.179 5C111.505 5 112.686 5.24131 113.723 5.72393C114.76 6.19808 115.563 6.87121 116.133 7.74332C116.711 8.61542 117 9.60606 117 10.7152H113.175C113.175 9.86854 112.907 9.21234 112.372 8.74666C111.836 8.2725 111.084 8.03543 110.115 8.03543C109.18 8.03543 108.453 8.2344 107.935 8.63235C107.416 9.02184 107.157 9.53832 107.157 10.1818C107.157 10.783 107.459 11.2868 108.062 11.6932C108.674 12.0996 109.571 12.4806 110.752 12.8362C112.928 13.4882 114.514 14.2968 115.508 15.262C116.503 16.2273 117 17.4296 117 18.869C117 20.4693 116.392 21.7266 115.177 22.641C113.961 23.547 112.325 24 110.268 24C108.84 24 107.539 23.7418 106.366 23.2253C105.193 22.7003 104.297 21.9848 103.676 21.0789C103.064 20.1729 102.758 19.123 102.758 17.9291H106.596C106.596 19.9697 107.82 20.99 110.268 20.99C111.177 20.99 111.887 20.8079 112.397 20.4438C112.907 20.0713 113.162 19.5548 113.162 18.8944Z" fill="#3D586D"/>
<path d="M123.939 20.8551H132.303V24H120V5H123.939V20.8551Z" fill="#F3CC4B"/>
<path d="M138.764 24H134.824V5H138.764V24Z" fill="#F3CC4B"/>
<path d="M157.974 24H154.035L146.366 11.4986V24H142.427V5H146.366L154.048 17.5275V5H157.974V24Z" fill="#F3CC4B"/>
<path d="M167.402 16.3791L165.353 18.5714V24H161.414V5H165.353V13.6126L167.086 11.2507L171.958 5H176.803L170.015 13.443L177 24H172.312L167.402 16.3791Z" fill="#F3CC4B"/>
<path d="M178 13V5H180.828C181.807 5 182.55 5.18681 183.056 5.56044C183.563 5.9304 183.816 6.47436 183.816 7.19231C183.816 7.58425 183.714 7.9304 183.511 8.23077C183.308 8.52747 183.025 8.74542 182.663 8.88462C183.077 8.98718 183.402 9.19414 183.638 9.50549C183.879 9.81685 183.999 10.1978 183.999 10.6484C183.999 11.4176 183.751 12 183.256 12.3956C182.761 12.7912 182.055 12.9927 181.138 13H178ZM179.663 9.51648V11.6758H181.088C181.48 11.6758 181.785 11.5842 182.003 11.4011C182.225 11.2143 182.336 10.9579 182.336 10.6319C182.336 9.89927 181.953 9.52747 181.188 9.51648H179.663ZM179.663 8.35165H180.894C181.733 8.337 182.153 8.00549 182.153 7.35714C182.153 6.99451 182.045 6.73443 181.831 6.57692C181.62 6.41575 181.286 6.33516 180.828 6.33516H179.663V8.35165Z" fill="#3D586D"/>
<path d="M190.108 9.53297H186.915V11.6758H190.663V13H185.252V5H190.652V6.33516H186.915V8.24176H190.108V9.53297Z" fill="#3D586D"/>
<path d="M197.826 6.33516H195.353V13H193.69V6.33516H191.251V5H197.826V6.33516Z" fill="#3D586D"/>
<path d="M202.671 11.3516H199.755L199.201 13H197.432L200.437 5H201.978L205 13H203.231L202.671 11.3516ZM200.204 10.0165H202.222L201.208 7.02198L200.204 10.0165Z" fill="#3D586D"/>
</svg>
