<?xml version="1.0" standalone="no"?>
<!DOCTYPE svg PUBLIC "-//W3C//DTD SVG 20010904//EN"
 "http://www.w3.org/TR/2001/REC-SVG-20010904/DTD/svg10.dtd">
<svg version="1.0" xmlns="http://www.w3.org/2000/svg"
 width="960.000000pt" height="960.000000pt" viewBox="0 0 960.000000 960.000000"
 preserveAspectRatio="xMidYMid meet">
<metadata>
Created by potrace 1.11, written by Peter Selinger 2001-2013
</metadata>
<g transform="translate(0.000000,960.000000) scale(0.100000,-0.100000)"
fill="#000000" stroke="none">
<path d="M6829 9395 c-2 -1 -33 -6 -69 -10 -36 -4 -85 -11 -110 -16 -25 -5
-58 -11 -75 -14 -16 -2 -39 -6 -50 -9 -11 -3 -40 -10 -65 -16 -61 -14 -192
-57 -265 -87 -82 -33 -269 -126 -273 -135 -2 -5 -8 -8 -14 -8 -5 0 -29 -13
-53 -30 -24 -16 -46 -30 -49 -30 -3 0 -14 -6 -23 -14 -10 -8 -58 -44 -106 -80
-48 -37 -96 -74 -106 -84 -37 -34 -2043 -2037 -2074 -2072 -18 -19 -48 -55
-67 -80 -19 -25 -40 -49 -46 -55 -6 -5 -22 -26 -34 -45 -13 -19 -27 -37 -30
-40 -12 -12 -70 -101 -70 -110 0 -5 -6 -15 -13 -22 -7 -7 -31 -49 -54 -93 -37
-70 -47 -82 -94 -107 -29 -16 -58 -33 -64 -38 -7 -5 -15 -7 -18 -3 -4 3 -7 2
-7 -3 0 -5 -17 -18 -37 -29 -21 -11 -40 -22 -43 -25 -3 -3 -44 -31 -92 -63
-49 -33 -88 -63 -88 -68 0 -5 -5 -9 -10 -9 -25 0 -93 -66 -1188 -1163 -1086
-1087 -989 -989 -1067 -1087 -33 -41 -63 -76 -67 -78 -5 -2 -8 -7 -8 -11 0 -5
-22 -42 -50 -84 -27 -42 -50 -80 -50 -86 0 -5 -3 -11 -8 -13 -7 -3 -94 -175
-125 -248 -18 -42 -67 -179 -72 -200 -2 -8 -13 -51 -25 -95 -21 -81 -26 -104
-36 -164 -3 -18 -7 -43 -10 -55 -26 -136 -25 -517 2 -663 3 -15 7 -37 8 -48 1
-12 4 -25 7 -30 3 -6 6 -26 8 -45 2 -19 6 -37 10 -40 4 -3 6 -12 6 -20 0 -8 7
-39 17 -67 10 -29 20 -61 22 -70 1 -10 6 -25 9 -33 3 -8 16 -44 28 -80 30 -85
177 -381 200 -400 3 -3 14 -20 24 -38 11 -17 22 -32 26 -32 4 0 12 -14 19 -30
7 -17 18 -34 24 -38 6 -4 24 -25 40 -47 67 -92 231 -257 346 -348 47 -38 92
-74 102 -82 9 -7 19 -11 22 -8 3 4 6 2 6 -4 0 -5 16 -18 35 -29 19 -10 35 -22
35 -26 0 -5 6 -8 14 -8 8 0 21 -6 28 -13 33 -29 313 -167 341 -167 7 0 17 -3
21 -7 13 -14 318 -103 356 -105 8 0 38 -4 65 -9 170 -31 537 -33 675 -4 14 3
39 8 55 10 17 2 37 6 45 8 8 2 32 7 53 12 20 4 40 11 42 16 3 4 11 6 19 3 7
-3 50 8 97 23 46 15 90 27 96 26 7 0 13 3 13 8 0 5 8 9 18 9 10 0 28 7 40 16
12 8 22 13 22 10 0 -2 27 9 60 25 33 16 65 29 70 29 6 0 10 5 10 12 0 6 3 8 7
5 6 -7 116 51 121 65 2 4 8 8 14 8 15 0 188 112 188 122 0 4 4 8 10 8 10 0 44
26 82 62 10 10 20 18 23 18 11 0 1066 1050 1056 1050 -3 0 1 5 9 10 27 17 590
583 590 593 0 6 2 8 5 5 9 -8 525 516 525 533 0 3 11 19 25 35 38 43 37 43
109 152 36 56 66 106 66 111 0 5 6 16 13 23 6 7 23 35 37 62 25 49 42 60 217
151 18 9 37 23 44 31 6 8 17 14 24 14 8 0 15 3 17 8 2 4 32 28 68 54 36 25 92
69 125 98 92 80 325 311 325 323 0 6 2 8 5 5 5 -5 299 286 316 313 5 8 9 11 9
8 0 -3 57 51 128 120 70 69 126 129 124 134 -2 4 1 7 6 7 5 0 62 54 128 121
65 66 124 126 131 132 252 250 421 420 434 434 9 10 27 27 40 39 13 12 31 30
40 40 9 10 63 65 120 121 57 56 111 110 120 120 9 10 31 31 48 46 17 16 31 33
31 38 0 6 5 7 10 4 6 -3 10 -2 10 2 0 5 24 34 53 64 110 116 267 326 267 358
0 6 4 11 8 11 8 0 141 257 146 283 2 6 9 26 16 42 45 109 110 350 125 465 13
99 17 144 21 205 2 39 5 91 6 118 2 26 1 47 -2 47 -3 0 -5 30 -6 68 -1 69 -13
213 -19 222 -2 3 -6 26 -10 50 -3 25 -10 61 -15 80 -5 19 -11 46 -14 60 -21
106 -90 296 -160 440 -39 78 -123 228 -136 240 -3 3 -19 25 -35 50 -17 25 -34
50 -40 57 -5 7 -14 18 -20 25 -77 100 -222 252 -324 341 -74 64 -226 170 -327
228 -82 47 -255 129 -284 135 -8 2 -23 7 -35 13 -26 13 -235 81 -243 79 -4 -1
-20 1 -37 5 -51 12 -79 18 -110 23 -16 2 -41 7 -55 10 -14 4 -41 8 -60 10 -53
5 -437 13 -441 9z m294 -1220 c38 -3 80 -10 94 -16 14 -5 42 -12 62 -15 20 -3
45 -11 56 -17 11 -7 25 -12 30 -13 18 -1 138 -65 197 -106 75 -51 195 -170
245 -244 67 -99 134 -246 146 -321 3 -17 7 -35 10 -40 22 -37 22 -293 0 -386
-2 -12 -6 -29 -8 -37 -1 -8 -5 -22 -8 -30 -2 -8 -12 -37 -22 -65 -21 -62 -67
-153 -113 -225 -40 -63 -1642 -1674 -1653 -1662 -3 4 -23 50 -43 102 -21 52
-42 101 -48 108 -6 6 -7 12 -3 12 4 0 3 6 -3 13 -5 6 -29 48 -52 92 -23 44
-55 99 -71 123 -16 24 -29 45 -29 47 0 3 -6 13 -14 22 -8 10 -36 47 -63 83
-26 36 -59 79 -73 95 -44 53 -233 239 -285 280 -27 21 -55 44 -60 49 -19 20
-163 116 -174 116 -6 0 -11 4 -11 10 0 5 -11 12 -25 16 -14 3 -25 10 -25 15 0
5 -4 9 -9 9 -5 0 -37 16 -70 35 -34 19 -65 35 -69 36 -13 3 -57 24 -62 29 -3
3 -12 6 -20 8 -8 2 -32 11 -55 21 -22 10 -56 24 -76 30 l-35 11 799 798 c439
438 804 802 810 807 50 44 213 137 233 134 4 0 10 3 13 8 3 6 24 15 46 21 22
6 65 18 95 26 30 9 89 18 130 22 41 3 76 7 78 8 2 3 10 2 135 -9z m-2901
-2929 c8 7 173 -35 206 -52 15 -8 35 -14 44 -14 9 0 20 -5 23 -10 3 -6 26 -19
50 -30 23 -11 64 -35 89 -55 25 -19 49 -35 52 -35 13 0 153 -150 196 -210 60
-84 126 -224 143 -305 3 -11 10 -42 16 -68 6 -26 9 -51 6 -54 -3 -3 -2 -15 3
-27 4 -13 5 -27 2 -33 -9 -13 -102 -1 -192 25 -36 11 -72 21 -80 23 -31 8
-183 91 -233 127 -65 47 -180 163 -230 233 -22 30 -55 88 -74 129 -50 106 -53
113 -56 135 -2 11 -7 27 -10 35 -8 21 -18 69 -23 110 -3 19 -6 44 -8 55 -4 23
29 37 55 24 9 -5 19 -6 21 -3z m-1175 -642 c-3 -4 3 -24 13 -45 11 -21 20 -43
20 -49 0 -22 129 -277 179 -353 28 -43 51 -82 51 -87 0 -6 4 -10 8 -10 5 0 23
-22 41 -50 18 -27 37 -50 42 -50 5 0 9 -4 9 -10 0 -5 10 -22 23 -37 30 -36
223 -230 267 -268 50 -44 205 -157 240 -176 16 -9 35 -21 42 -27 46 -37 381
-192 416 -192 8 0 12 -4 10 -10 -3 -9 -365 -374 -818 -825 -122 -121 -227
-227 -234 -235 -6 -8 -137 -139 -291 -291 -251 -247 -290 -282 -377 -332 -53
-32 -103 -57 -112 -57 -9 0 -16 -5 -16 -11 0 -5 -4 -8 -8 -5 -5 3 -20 -1 -35
-9 -15 -8 -27 -12 -27 -10 0 2 -17 -2 -39 -10 -91 -32 -265 -45 -386 -29 -67
9 -70 9 -142 32 -35 11 -63 18 -63 17 0 -2 -45 19 -100 46 -55 27 -100 54
-100 59 0 6 -6 10 -13 10 -25 0 -154 119 -222 205 -53 67 -58 75 -110 181 -85
174 -116 380 -85 564 7 41 13 81 13 88 0 6 5 12 10 12 6 0 8 3 4 6 -3 3 3 29
13 58 36 104 92 208 157 291 40 50 1536 1545 1546 1545 6 0 7 3 4 6 -7 7 52
64 67 64 5 0 7 -3 3 -6z"/>
</g>
</svg>
