<svg width="334" height="88" viewBox="0 0 334 88" fill="none" xmlns="http://www.w3.org/2000/svg">
<path d="M194.404 24.5424V34.7296L227.206 21.4862V13.3364L194.404 0.0930176V9.87276L213.556 17.4113L194.404 24.5424Z" fill="#0075FF"/>
<path d="M18.572 47.7693C9.40347 47.7693 2.67989 51.8442 2.06866 60.4015H12.2559V60.1977C12.4596 57.3453 15.1083 55.3078 17.9608 55.5116C21.8319 55.5116 23.6656 57.7528 23.6656 61.6239V63.4576H18.9795C8.99598 63.4576 0.846191 66.5138 0.846191 76.0898V76.4973C0.846191 84.2396 6.55104 87.7033 13.4784 87.7033C17.757 87.907 21.6282 85.8696 24.0731 82.6097V87.092H34.4641V61.4202C34.2603 51.6404 27.5368 47.7693 18.572 47.7693ZM16.3308 80.1647C12.6634 80.1647 11.0334 78.331 11.0334 75.6823V75.2748C11.0334 71.8112 13.6821 70.385 18.9795 70.385H23.2581V74.0524C23.4619 78.1273 19.9982 80.1647 16.3308 80.1647Z" fill="white"/>
<path d="M58.9133 79.7572C53.8197 79.7572 51.171 76.2935 51.171 68.5512V67.3288C51.171 59.7902 54.2272 56.1228 58.9133 56.1228C62.5807 56.1228 64.6182 58.5678 65.2294 62.2352H75.4167C74.6017 52.2517 67.2669 47.7693 58.7096 47.7693C48.5224 47.7693 40.3726 54.6966 40.3726 67.7363V68.1438C40.3726 81.1834 48.1149 87.7032 58.7096 87.7032C69.1006 87.7032 75.0092 81.3871 75.8242 72.8299H66.0444C65.2294 77.1085 62.5807 79.7572 58.9133 79.7572Z" fill="white"/>
<path d="M98.6436 79.7572C93.5499 79.7572 90.9013 76.2935 90.9013 68.5512V67.3288C90.9013 59.7902 93.9574 56.1228 98.6436 56.1228C102.311 56.1228 104.348 58.5678 104.96 62.2352H115.147C114.332 52.2517 106.997 47.7693 98.4398 47.7693C88.2526 47.7693 80.1028 54.6966 80.1028 67.7363V68.1438C80.1028 81.1834 87.8451 87.7032 98.4398 87.7032C108.831 87.7032 114.739 81.3871 115.351 72.8299H105.775C105.163 77.1085 102.311 79.7572 98.6436 79.7572Z" fill="white"/>
<path d="M138.782 79.961C134.095 79.961 131.243 77.3123 130.835 70.385H155.692V65.9026C155.692 53.2704 147.746 47.7693 138.17 47.7693C127.779 47.7693 119.833 54.9004 119.833 67.7363V68.5513C119.833 81.3872 127.372 87.907 138.374 87.907C148.358 87.907 154.47 82.4059 155.489 75.0711H145.505C145.098 78.1273 142.041 80.3685 138.782 79.961ZM138.17 55.1041C142.449 55.1041 145.098 57.549 145.301 63.2539H131.039C131.854 57.1415 134.91 55.3078 138.17 55.1041Z" fill="white"/>
<path d="M184.624 47.7692C179.734 47.5655 175.252 50.0104 173.01 54.2891V48.5842H162.416V86.8882H173.01V62.4389C173.214 58.9752 176.27 56.1228 179.734 56.3265C183.605 56.3265 185.439 58.364 185.439 62.8464V86.8882H196.237V61.2164C196.237 51.8441 191.551 47.7692 184.624 47.7692Z" fill="white"/>
<path d="M216.204 74.6636V56.5303H223.539V48.5843H216.204V36.9708L205.61 41.4532V48.5843H200.924V56.5303H205.406V75.8861C205.406 83.6284 209.277 87.4995 217.631 87.4995C219.668 87.4995 221.706 87.2958 223.743 86.6845V78.331C222.521 78.7385 221.298 78.9422 220.076 78.9422C217.631 78.9422 216.204 77.516 216.204 74.6636Z" fill="white"/>
<path d="M253.082 72.4224V73.4411C252.878 76.9048 249.822 79.7572 246.359 79.5534C242.488 79.5534 240.858 77.516 240.858 73.0336V48.5842H230.059V74.4598C230.059 83.4246 235.153 87.7032 242.08 87.7032C246.766 87.907 251.045 85.462 253.286 81.1834V86.8883H264.084V48.5842H253.286L253.082 72.4224Z" fill="white"/>
<path d="M282.421 55.5116V48.3805H271.827V86.6846H282.421V66.9213C282.421 60.6052 286.7 58.364 294.035 58.364V47.7693C288.737 47.7693 284.051 50.8255 282.421 55.5116Z" fill="white"/>
<path d="M333.154 65.6988C333.154 53.0667 325.208 47.7693 315.632 47.7693C305.241 47.7693 297.295 54.9004 297.295 67.7363V68.5513C297.295 81.3872 304.833 87.907 315.836 87.907C325.819 87.907 331.728 82.4059 332.95 75.0711H322.967C322.152 78.331 319.095 80.3685 315.836 80.1647C311.149 80.1647 308.297 77.516 307.889 70.5887H332.746V65.6988H333.154ZM308.297 63.2539C309.112 56.9378 312.168 55.1041 315.632 55.1041C319.91 55.1041 322.559 57.549 322.763 63.2539H308.297Z" fill="white"/>
</svg>
