<svg width="477" height="477" viewBox="0 0 477 477" fill="none" xmlns="http://www.w3.org/2000/svg">
<g clip-path="url(#clip0)">
<path opacity="0.3" d="M249.205 489.001C380.536 489.001 487.001 382.536 487.001 251.205C487.001 119.874 380.536 13.4097 249.205 13.4097C117.874 13.4097 11.4097 119.874 11.4097 251.205C11.4097 382.536 117.874 489.001 249.205 489.001Z" fill="url(#paint0_radial)"/>
<path d="M229.605 228.759L229.984 228.38L207.238 204.09H142.664L118.78 180.181V82.8976H118.275V180.434V180.56L142.411 204.596H206.985L229.605 228.759Z" fill="#42E8E0"/>
<path d="M118.654 156.018L129.901 144.759V104.783H129.395V144.633L118.275 155.639L118.654 156.018Z" fill="#42E8E0"/>
<path d="M187.651 204.596L188.03 204.217L175.267 191.44H147.718L134.45 178.157L134.071 178.536L147.466 191.946H175.14L187.651 204.596Z" fill="#42E8E0"/>
<path d="M134.197 180.181C135.208 180.181 136.093 179.295 136.093 178.283C136.093 177.271 135.208 176.386 134.197 176.386C133.186 176.386 132.302 177.271 132.302 178.283C132.428 179.422 133.186 180.181 134.197 180.181Z" fill="#42E8E0"/>
<path d="M152.773 167.783C153.784 167.783 154.669 166.898 154.669 165.886C154.669 164.874 153.784 163.988 152.773 163.988C151.762 163.988 150.878 164.874 150.878 165.886C151.004 167.024 151.762 167.783 152.773 167.783Z" fill="#42E8E0"/>
<path d="M138.114 149.566C139.125 149.566 140.01 148.681 140.01 147.669C140.01 146.657 139.125 145.771 138.114 145.771C137.104 145.771 136.219 146.657 136.219 147.669C136.219 148.807 137.104 149.566 138.114 149.566Z" fill="#42E8E0"/>
<path d="M145.317 103.392C146.328 103.392 147.213 102.506 147.213 101.494C147.213 100.482 146.328 99.5964 145.317 99.5964C144.306 99.5964 143.422 100.482 143.422 101.494C143.548 102.633 144.306 103.392 145.317 103.392Z" fill="#42E8E0"/>
<path d="M129.648 106.554C130.659 106.554 131.543 105.669 131.543 104.657C131.543 103.645 130.659 102.759 129.648 102.759C128.637 102.759 127.752 103.645 127.752 104.657C127.752 105.795 128.637 106.554 129.648 106.554Z" fill="#42E8E0"/>
<path d="M118.527 84.7952C119.538 84.7952 120.423 83.9096 120.423 82.8976C120.423 81.8855 119.538 81 118.527 81C117.516 81 116.632 81.8855 116.632 82.8976C116.632 83.9096 117.516 84.7952 118.527 84.7952Z" fill="#42E8E0"/>
<path d="M206.48 161.964C207.491 161.964 208.375 161.078 208.375 160.066C208.375 159.054 207.491 158.169 206.48 158.169C205.469 158.169 204.584 159.054 204.584 160.066C204.584 161.078 205.469 161.964 206.48 161.964Z" fill="#42E8E0"/>
<path d="M241.61 229.898H242.115V219.145L216.336 192.831V155.765L216.21 155.639L194.98 134.386H153.026L145.697 126.922V101.62H145.065V127.175L145.191 127.301L152.773 134.892H194.727L215.705 155.892V193.084L241.61 219.271V229.898Z" fill="#42E8E0"/>
<path d="M215.831 184.355L216.21 183.976L206.732 174.488V160.066H206.227V174.741L206.353 174.867L215.831 184.355Z" fill="#42E8E0"/>
<path d="M237.693 225.217L238.072 224.837L179.058 165.633H153.279V166.265H178.805L237.693 225.217Z" fill="#42E8E0"/>
<path d="M189.673 177.018H190.178V158.169V158.042L179.563 147.542H138.115V148.048H179.311L189.673 158.422V177.018Z" fill="#42E8E0"/>
<g opacity="0.5">
<path opacity="0.5" d="M149.488 204.47L243.885 149.693C245.401 148.807 246.791 148.807 247.802 149.44L253.489 152.729L249.824 155.386V158.422L251.972 159.307L251.846 271.771L245.654 277.843L224.298 290.114L156.564 328.446C156.564 328.446 154.163 328.446 153.784 328.446C153.658 328.446 153.531 328.066 153.405 327.687L150.625 329.331L151.509 333.633L145.697 330.343C144.433 329.584 143.675 327.94 143.675 325.536V215.855C143.548 211.428 146.202 206.367 149.488 204.47ZM152.015 322.12L243.126 269.368C243.885 268.988 244.516 267.723 244.516 266.837V158.675L225.688 170.819L155.048 213.072L153.026 216.235L151.889 265.193L152.015 322.12Z" fill="url(#paint1_linear)"/>
<path opacity="0.6" d="M145.444 208.898L154.29 213.958L153.026 215.982L151.889 264.94L152.015 322.12L153.658 321.235C153.658 323.006 151.383 331.735 151.383 333.506L146.708 330.849L145.57 330.217C144.307 329.458 143.549 327.813 143.549 325.41V215.729C143.549 213.452 144.307 211.048 145.444 208.898Z" fill="#0F054C"/>
<path opacity="0.5" d="M155.427 207.886L249.824 153.108C253.11 151.211 255.763 153.235 255.763 157.536V267.217C255.763 271.518 253.11 276.578 249.824 278.476L155.427 333.253C152.141 335.151 149.488 333.127 149.488 328.825V219.145C149.488 214.843 152.141 209.783 155.427 207.886ZM154.922 325.536C154.922 326.548 155.553 326.928 156.312 326.548L249.066 272.783C249.824 272.404 250.456 271.139 250.456 270.253V160.952C250.456 159.94 249.824 159.56 249.066 159.94L156.312 213.705C155.553 214.084 154.922 215.349 154.922 216.235V325.536Z" fill="url(#paint2_linear)"/>
<path opacity="0.5" d="M155.427 207.886L249.824 153.108C253.11 151.211 255.763 153.235 255.763 157.536V267.217C255.763 271.518 253.11 276.578 249.824 278.476L155.427 333.253C152.141 335.151 149.488 333.127 149.488 328.825V219.145C149.488 214.843 152.141 209.783 155.427 207.886ZM154.922 325.536C154.922 326.548 155.553 326.928 156.312 326.548L249.066 272.783C249.824 272.404 250.456 271.139 250.456 270.253V160.952C250.456 159.94 249.824 159.56 249.066 159.94L156.312 213.705C155.553 214.084 154.922 215.349 154.922 216.235V325.536Z" fill="url(#paint3_linear)"/>
<path opacity="0.5" d="M243 269.368C243.758 268.988 244.39 267.723 244.39 266.837V162.596L248.939 159.94C249.698 159.56 250.329 159.94 250.329 160.952V270.253C250.329 271.265 249.698 272.404 248.939 272.783L156.185 326.548C155.427 326.928 154.795 326.548 154.795 325.536V320.476L243 269.368Z" fill="#251C72"/>
<path opacity="0.4" d="M154.922 325.536C154.922 326.548 155.553 326.928 156.312 326.548L249.066 272.783C249.824 272.404 250.456 271.139 250.456 270.253V160.952C250.456 159.94 249.824 159.56 249.066 159.94L156.312 213.705C155.553 214.084 154.922 215.349 154.922 216.235V325.536Z" fill="#42E8E0"/>
</g>
<g opacity="0.5">
<path opacity="0.5" d="M367.978 215.729V325.41C367.978 327.813 367.22 329.458 365.956 330.217L360.143 333.506L361.028 329.205L358.248 327.56C358.122 328.066 357.869 328.319 357.869 328.319C357.49 328.319 355.089 328.319 355.089 328.319L287.355 289.988L265.999 277.717L259.807 271.645L259.681 159.181L261.829 158.295V155.259L258.164 152.602L263.851 149.313C264.862 148.681 266.252 148.681 267.768 149.566L362.165 204.343C365.324 206.367 367.978 211.428 367.978 215.729ZM359.638 265.066L358.501 216.108L356.479 212.946L285.839 170.693L267.01 158.548V266.711C267.01 267.723 267.642 268.861 268.4 269.241L359.512 321.994L359.638 265.066Z" fill="url(#paint4_linear)"/>
<path opacity="0.6" d="M366.083 208.898L357.237 213.958L358.501 215.982L359.638 264.94L359.512 322.12L357.869 321.235C357.869 323.006 360.143 331.735 360.143 333.506L364.819 330.849L365.956 330.217C367.22 329.458 367.978 327.813 367.978 325.41V215.729C367.978 213.452 367.22 211.048 366.083 208.898Z" fill="#0F054C"/>
<path opacity="0.5" d="M362.039 219.145V328.825C362.039 333.126 359.385 335.151 356.1 333.253L261.703 278.476C258.417 276.578 255.763 271.518 255.763 267.217V157.536C255.763 153.235 258.417 151.211 261.703 153.108L356.1 207.885C359.385 209.783 362.039 214.843 362.039 219.145ZM356.605 216.235C356.605 215.223 355.973 214.084 355.215 213.705L262.461 159.94C261.703 159.56 261.071 159.94 261.071 160.952V270.253C261.071 271.265 261.703 272.404 262.461 272.783L355.215 326.548C355.973 326.928 356.605 326.548 356.605 325.536V216.235Z" fill="url(#paint5_linear)"/>
<path opacity="0.5" d="M362.039 219.145V328.825C362.039 333.126 359.385 335.151 356.1 333.253L261.703 278.476C258.417 276.578 255.763 271.518 255.763 267.217V157.536C255.763 153.235 258.417 151.211 261.703 153.108L356.1 207.885C359.385 209.783 362.039 214.843 362.039 219.145ZM356.605 216.235C356.605 215.223 355.973 214.084 355.215 213.705L262.461 159.94C261.703 159.56 261.071 159.94 261.071 160.952V270.253C261.071 271.265 261.703 272.404 262.461 272.783L355.215 326.548C355.973 326.928 356.605 326.548 356.605 325.536V216.235Z" fill="url(#paint6_linear)"/>
<path opacity="0.5" d="M268.4 269.367C267.642 268.988 267.01 267.723 267.01 266.837V162.596L262.461 159.94C261.703 159.56 261.071 159.94 261.071 160.952V270.253C261.071 271.265 261.703 272.404 262.461 272.783L355.215 326.548C355.973 326.928 356.605 326.548 356.605 325.536V320.476L268.4 269.367Z" fill="#251C72"/>
<path opacity="0.4" d="M356.605 325.536C356.605 326.548 355.973 326.928 355.215 326.548L262.461 272.783C261.703 272.404 261.071 271.139 261.071 270.253V160.952C261.071 159.94 261.703 159.56 262.461 159.94L355.215 213.705C355.973 214.084 356.605 215.349 356.605 216.235V325.536Z" fill="#42E8E0"/>
</g>
<path d="M255.763 278.096L281.669 263.169V293.151L255.763 308.078L229.858 293.151V263.169L255.763 278.096Z" fill="#42E8E0"/>
<path d="M255.763 308.078L281.669 293.151V263.169L255.763 278.096V308.078Z" fill="#42E8E0"/>
<path d="M229.858 293.151L255.763 308.078V278.096L229.858 263.169V293.151Z" fill="#2FD3C7"/>
<path d="M255.763 278.096L281.669 263.169L255.763 248.241L229.858 263.169L255.763 278.096Z" fill="#42E8E0"/>
<path d="M255.763 278.096L280.531 263.801L281.669 264.434L255.763 279.488L229.858 264.434L230.869 263.801L255.763 278.096Z" fill="white"/>
<path d="M222.023 297.452L247.928 282.398V312.38L222.023 327.307L196.118 312.38V282.398L222.023 297.452Z" fill="#42E8E0"/>
<path d="M222.023 327.307L247.928 312.38V282.398L222.023 297.452V327.307Z" fill="#42E8E0"/>
<path d="M196.117 312.38L222.023 327.307V297.452L196.117 282.398V312.38Z" fill="#2FD3C7"/>
<path d="M222.023 297.452L247.928 282.398L222.023 267.47L196.118 282.398L222.023 297.452Z" fill="#42E8E0"/>
<path d="M222.023 297.452L246.917 283.03L247.928 283.663L222.023 298.717L196.118 283.663L197.255 283.03L222.023 297.452Z" fill="white"/>
<path d="M188.409 316.681L214.314 301.627V331.608L188.409 346.536L162.504 331.608V301.627L188.409 316.681Z" fill="#42E8E0"/>
<path d="M188.409 346.536L214.314 331.608V301.627L188.409 316.681V346.536Z" fill="#42E8E0"/>
<path d="M162.503 331.608L188.409 346.536V316.681L162.503 301.627V331.608Z" fill="#2FD3C7"/>
<path d="M188.409 316.681L214.314 301.627L188.409 286.699L162.504 301.627L188.409 316.681Z" fill="#42E8E0"/>
<path d="M188.409 316.681L213.177 302.259L214.314 302.892L188.409 317.946L162.504 302.892V301.627L188.409 316.681Z" fill="white"/>
<path d="M289.377 298.717L315.283 283.663V313.645L289.377 328.699L263.472 313.645V283.663L289.377 298.717Z" fill="#42E8E0"/>
<path d="M289.377 328.699L315.283 313.645V283.663L289.377 298.717V328.699Z" fill="#42E8E0"/>
<path d="M263.472 313.645L289.377 328.699V298.717L263.472 283.663V313.645Z" fill="#2FD3C7"/>
<path d="M289.377 298.717L315.283 283.663L289.377 268.735L263.472 283.663L289.377 298.717Z" fill="#42E8E0"/>
<path d="M289.377 298.717L314.145 284.422L315.283 285.054L289.377 299.982L263.472 285.054L264.609 284.422L289.377 298.717Z" fill="white"/>
<path d="M255.763 317.946L281.669 302.892V332.873L255.763 347.928L229.858 332.873V302.892L255.763 317.946Z" fill="#42E8E0"/>
<path d="M255.763 347.928L281.669 332.873V302.892L255.763 317.946V347.928Z" fill="#42E8E0"/>
<path d="M229.858 332.873L255.763 347.928V317.946L229.858 302.892V332.873Z" fill="#2FD3C7"/>
<path d="M255.763 317.946L281.669 302.892L255.763 287.964L229.858 302.892L255.763 317.946Z" fill="#42E8E0"/>
<path d="M255.763 317.946L280.531 303.651L281.669 304.283L255.763 319.211L229.858 304.283L230.869 303.651L255.763 317.946Z" fill="white"/>
<path d="M222.023 337.175L247.928 322.12V352.102L222.023 367.157L196.118 352.102V322.12L222.023 337.175Z" fill="#42E8E0"/>
<path d="M222.023 367.157L247.928 352.102V322.12L222.023 337.175V367.157Z" fill="#42E8E0"/>
<path d="M196.117 352.102L222.023 367.157V337.175L196.117 322.12V352.102Z" fill="#2FD3C7"/>
<path d="M222.023 337.175L247.928 322.12L222.023 307.193L196.118 322.12L222.023 337.175Z" fill="#42E8E0"/>
<path d="M222.023 337.175L246.917 322.88L247.928 323.512L222.023 338.44L196.118 323.512V322.12L222.023 337.175Z" fill="white"/>
<path d="M323.117 319.211L349.023 304.283V334.265L323.117 349.193L297.212 334.265V304.283L323.117 319.211Z" fill="#42E8E0"/>
<path d="M323.117 349.193L349.023 334.265V304.283L323.117 319.211V349.193Z" fill="#42E8E0"/>
<path d="M297.212 334.265L323.117 349.193V319.211L297.212 304.283V334.265Z" fill="#2FD3C7"/>
<path d="M323.117 319.211L349.023 304.283L323.117 289.229L297.212 304.283L323.117 319.211Z" fill="#42E8E0"/>
<path d="M323.117 319.211L349.023 304.283V305.548L323.117 320.476L297.212 305.548L298.223 304.916L323.117 319.211Z" fill="white"/>
<path d="M289.377 338.44L315.283 323.512V353.494L289.377 368.422L263.472 353.494V323.512L289.377 338.44Z" fill="#42E8E0"/>
<path d="M289.377 368.422L315.283 353.494V323.512L289.377 338.44V368.422Z" fill="#42E8E0"/>
<path d="M263.472 353.494L289.377 368.422V338.44L263.472 323.512V353.494Z" fill="#2FD3C7"/>
<path d="M289.377 338.44L315.283 323.512L289.377 308.458L263.472 323.512L289.377 338.44Z" fill="#42E8E0"/>
<path d="M289.377 338.44L315.283 323.512V324.777L289.377 339.705L263.472 324.777L264.609 324.145L289.377 338.44Z" fill="white"/>
<path d="M255.763 357.669L281.669 342.741V372.723L255.763 387.651L229.858 372.723V342.741L255.763 357.669Z" fill="#42E8E0"/>
<path d="M255.763 387.651L281.669 372.723V342.741L255.763 357.669V387.651Z" fill="#42E8E0"/>
<path d="M229.858 372.723L255.763 387.651V357.669L229.858 342.741V372.723Z" fill="#2FD3C7"/>
<path d="M255.763 357.669L281.669 342.741L255.763 327.687L229.858 342.741L255.763 357.669Z" fill="#42E8E0"/>
<path d="M255.763 357.669L281.669 342.741V344.006L255.763 359.06L229.858 344.006V342.741L255.763 357.669Z" fill="white"/>
<path d="M255.763 238.374L281.669 223.446V253.428L255.763 268.355L229.858 253.428V223.446L255.763 238.374Z" fill="#42E8E0"/>
<path d="M255.763 268.355L281.669 253.428V223.446L255.763 238.374V268.355Z" fill="#42E8E0"/>
<path d="M229.858 253.428L255.763 268.355V238.374L229.858 223.446V253.428Z" fill="#2FD3C7"/>
<path d="M255.763 238.374L281.669 223.446L255.763 208.392L229.858 223.446L255.763 238.374Z" fill="#42E8E0"/>
<path d="M255.763 238.374L280.531 224.078L281.669 224.711L255.763 239.639L229.858 224.711L230.869 224.078L255.763 238.374Z" fill="white"/>
<path opacity="0.7" d="M255.763 352.861L273.455 342.614L255.763 332.367L238.072 342.614L255.763 352.861Z" fill="#18B2A3"/>
<path opacity="0.7" d="M289.377 333.633L307.069 323.386L289.377 313.139L271.686 323.386L289.377 333.633Z" fill="#18B2A3"/>
<path opacity="0.7" d="M222.023 332.241L239.715 322.12L222.023 311.873L204.332 322.12L222.023 332.241Z" fill="#18B2A3"/>
<path opacity="0.7" d="M188.283 312L205.974 301.753L188.283 291.506L170.591 301.753L188.283 312Z" fill="#18B2A3"/>
<path opacity="0.7" d="M323.118 314.404L340.809 304.157L323.118 293.91L305.426 304.157L323.118 314.404Z" fill="#18B2A3"/>
<path d="M222.023 257.602L247.928 242.675V272.657L222.023 287.584L196.118 272.657V242.675L222.023 257.602Z" fill="#42E8E0"/>
<path d="M222.023 287.584L247.928 272.657V242.675L222.023 257.602V287.584Z" fill="#42E8E0"/>
<path d="M196.117 272.657L222.023 287.584V257.602L196.117 242.675V272.657Z" fill="#2FD3C7"/>
<path d="M222.023 257.602L247.928 242.675L222.023 227.621L196.118 242.675L222.023 257.602Z" fill="#42E8E0"/>
<path d="M222.023 257.602L246.917 243.307L247.928 243.94L222.023 258.867L196.118 243.94L197.255 243.307L222.023 257.602Z" fill="white"/>
<path d="M188.409 276.831L214.314 261.904V291.886L188.409 306.813L162.504 291.886V261.904L188.409 276.831Z" fill="#42E8E0"/>
<path d="M188.409 306.813L214.314 291.886V261.904L188.409 276.831V306.813Z" fill="#42E8E0"/>
<path d="M162.503 291.886L188.409 306.813V276.831L162.503 261.904V291.886Z" fill="#2FD3C7"/>
<path d="M188.409 276.831L214.314 261.904L188.409 246.849L162.504 261.904L188.409 276.831Z" fill="#42E8E0"/>
<path d="M188.409 276.831L213.177 262.536L214.314 263.169L188.409 278.096L162.504 263.169V261.904L188.409 276.831Z" fill="white"/>
<path d="M289.377 258.867L315.283 243.94V273.922L289.377 288.849L263.472 273.922V243.94L289.377 258.867Z" fill="#42E8E0"/>
<path d="M289.377 288.849L315.283 273.922V243.94L289.377 258.867V288.849Z" fill="#42E8E0"/>
<path d="M263.472 273.922L289.377 288.849V258.867L263.472 243.94V273.922Z" fill="#2FD3C7"/>
<path d="M289.377 258.867L315.283 243.94L289.377 229.012L263.472 243.94L289.377 258.867Z" fill="#42E8E0"/>
<path d="M289.377 258.867L314.145 244.572L315.283 245.205L289.377 260.259L263.472 245.205L264.609 244.572L289.377 258.867Z" fill="white"/>
<path d="M255.763 278.223L281.669 263.169V293.151L255.763 308.078L229.858 293.151V263.169L255.763 278.223Z" fill="#42E8E0"/>
<path d="M255.763 308.078L281.669 293.151V263.169L255.763 278.223V308.078Z" fill="#42E8E0"/>
<path d="M229.858 293.151L255.763 308.078V278.223L229.858 263.169V293.151Z" fill="#2FD3C7"/>
<path d="M255.763 278.223L281.669 263.169L255.763 248.241L229.858 263.169L255.763 278.223Z" fill="#42E8E0"/>
<path d="M255.763 278.223L280.531 263.801L281.669 264.434L255.763 279.488L229.858 264.434L230.869 263.801L255.763 278.223Z" fill="white"/>
<path d="M222.023 297.452L247.928 282.398V312.38L222.023 327.307L196.118 312.38V282.398L222.023 297.452Z" fill="#42E8E0"/>
<path d="M222.023 327.307L247.928 312.38V282.398L222.023 297.452V327.307Z" fill="#42E8E0"/>
<path d="M196.117 312.38L222.023 327.307V297.452L196.117 282.398V312.38Z" fill="#2FD3C7"/>
<path d="M222.023 297.452L247.928 282.398L222.023 267.47L196.118 282.398L222.023 297.452Z" fill="#42E8E0"/>
<path d="M222.023 297.452L246.917 283.03L247.928 283.663L222.023 298.717L196.118 283.663V282.398L222.023 297.452Z" fill="white"/>
<path d="M323.117 279.488L349.023 264.434V294.416L323.117 309.47L297.212 294.416V264.434L323.117 279.488Z" fill="#42E8E0"/>
<path d="M323.117 309.47L349.023 294.416V264.434L323.117 279.488V309.47Z" fill="#42E8E0"/>
<path d="M297.212 294.416L323.117 309.47V279.488L297.212 264.434V294.416Z" fill="#2FD3C7"/>
<path d="M323.117 279.488L349.023 264.434L323.117 249.506L297.212 264.434L323.117 279.488Z" fill="#42E8E0"/>
<path d="M323.117 279.488L347.886 265.066L349.023 265.825L323.117 280.753L297.212 265.825L298.223 265.066L323.117 279.488Z" fill="white"/>
<path d="M289.377 298.717L315.283 283.663V313.645L289.377 328.699L263.472 313.645V283.663L289.377 298.717Z" fill="#42E8E0"/>
<path d="M289.377 328.699L315.283 313.645V283.663L289.377 298.717V328.699Z" fill="#42E8E0"/>
<path d="M263.472 313.645L289.377 328.699V298.717L263.472 283.663V313.645Z" fill="#2FD3C7"/>
<path d="M289.377 298.717L315.283 283.663L289.377 268.735L263.472 283.663L289.377 298.717Z" fill="#42E8E0"/>
<path d="M289.377 298.717L315.283 283.663V285.054L289.377 299.982L263.472 285.054L264.609 284.422L289.377 298.717Z" fill="white"/>
<path d="M255.763 317.946L281.669 302.892V332.873L255.763 347.928L229.858 332.873V302.892L255.763 317.946Z" fill="#42E8E0"/>
<path d="M255.763 347.928L281.669 332.873V302.892L255.763 317.946V347.928Z" fill="#42E8E0"/>
<path d="M229.858 332.873L255.763 347.928V317.946L229.858 302.892V332.873Z" fill="#2FD3C7"/>
<path d="M255.763 317.946L281.669 302.892L255.763 287.964L229.858 302.892L255.763 317.946Z" fill="#42E8E0"/>
<path d="M255.763 317.946L281.669 302.892V304.283L255.763 319.211L229.858 304.283V302.892L255.763 317.946Z" fill="white"/>
<path opacity="0.7" d="M188.283 272.404L205.974 262.157L188.283 251.91L170.591 262.157L188.283 272.404Z" fill="#18B2A3"/>
<path opacity="0.7" d="M323.118 274.807L340.809 264.56L323.118 254.313L305.426 264.56L323.118 274.807Z" fill="#18B2A3"/>
<path d="M255.763 198.651L281.669 183.596V213.578L255.763 228.633L229.858 213.578V183.596L255.763 198.651Z" fill="#42E8E0"/>
<path d="M255.763 228.633L281.669 213.578V183.596L255.763 198.651V228.633Z" fill="#42E8E0"/>
<path d="M229.858 213.578L255.763 228.633V198.651L229.858 183.596V213.578Z" fill="#2FD3C7"/>
<path d="M255.763 198.651L281.669 183.596L255.763 168.669L229.858 183.596L255.763 198.651Z" fill="#42E8E0"/>
<path d="M255.763 198.651L281.669 183.596V184.988L255.763 199.916L229.858 184.988V183.596L255.763 198.651Z" fill="white"/>
<path d="M222.023 217.88L247.928 202.825V232.807L222.023 247.861L196.118 232.807V202.825L222.023 217.88Z" fill="#42E8E0"/>
<path d="M222.023 247.861L247.928 232.807V202.825L222.023 217.88V247.861Z" fill="#42E8E0"/>
<path d="M196.117 232.807L222.023 247.861V217.88L196.117 202.825V232.807Z" fill="#2FD3C7"/>
<path d="M222.023 217.88L247.928 202.825L222.023 187.898L196.118 202.825L222.023 217.88Z" fill="#42E8E0"/>
<path d="M222.023 217.88L247.928 202.825V204.217L222.023 219.145L196.118 204.217V202.825L222.023 217.88Z" fill="white"/>
<path d="M188.409 237.108L214.314 222.054V252.036L188.409 267.09L162.504 252.036V222.054L188.409 237.108Z" fill="#42E8E0"/>
<path d="M188.409 267.09L214.314 252.036V222.054L188.409 237.108V267.09Z" fill="#42E8E0"/>
<path d="M162.503 252.036L188.409 267.09V237.108L162.503 222.054V252.036Z" fill="#2FD3C7"/>
<path d="M188.409 237.108L214.314 222.054L188.409 207.127L162.504 222.054L188.409 237.108Z" fill="#42E8E0"/>
<path d="M188.409 237.108L214.314 222.054V223.446L188.409 238.374L162.504 223.446V222.054L188.409 237.108Z" fill="white"/>
<path d="M289.377 219.145L315.283 204.217V234.199L289.377 249.127L263.472 234.199V204.217L289.377 219.145Z" fill="#42E8E0"/>
<path d="M289.377 249.127L315.283 234.199V204.217L289.377 219.145V249.127Z" fill="#42E8E0"/>
<path d="M263.472 234.199L289.377 249.127V219.145L263.472 204.217V234.199Z" fill="#2FD3C7"/>
<path d="M289.377 219.145L315.283 204.217L289.377 189.163L263.472 204.217L289.377 219.145Z" fill="#42E8E0"/>
<path d="M289.377 219.145L315.283 204.217V205.482L289.377 220.41L263.472 205.482V204.217L289.377 219.145Z" fill="white"/>
<path d="M323.117 239.639L349.023 224.711V254.693L323.117 269.62L297.212 254.693V224.711L323.117 239.639Z" fill="#42E8E0"/>
<path d="M323.117 269.62L349.023 254.693V224.711L323.117 239.639V269.62Z" fill="#42E8E0"/>
<path d="M297.212 254.693L323.117 269.62V239.639L297.212 224.711V254.693Z" fill="#2FD3C7"/>
<path d="M323.117 239.639L349.023 224.711L323.117 209.783L297.212 224.711L323.117 239.639Z" fill="#42E8E0"/>
<path d="M323.117 239.639L349.023 224.711V225.976L323.117 241.03L297.212 225.976V224.711L323.117 239.639Z" fill="white"/>
<path opacity="0.7" d="M255.763 313.518L273.455 303.271L255.763 293.024L238.072 303.271L255.763 313.518Z" fill="#18B2A3"/>
<path opacity="0.7" d="M289.377 294.289L307.069 284.042L289.377 273.795L271.686 284.042L289.377 294.289Z" fill="#18B2A3"/>
<path opacity="0.7" d="M222.023 293.024L239.715 282.777L222.023 272.53L204.332 282.777L222.023 293.024Z" fill="#18B2A3"/>
<path d="M255.763 238.879L281.669 223.825V253.807L255.763 268.861L229.858 253.807V223.825L255.763 238.879Z" fill="#42E8E0"/>
<path d="M255.763 268.861L281.669 253.807V223.825L255.763 238.879V268.861Z" fill="#42E8E0"/>
<path d="M229.858 253.807L255.763 268.861V238.879L229.858 223.825V253.807Z" fill="#2FD3C7"/>
<path d="M255.763 238.879L281.669 223.825L255.763 208.898L229.858 223.825L255.763 238.879Z" fill="#42E8E0"/>
<path d="M255.763 238.879L280.531 224.584L281.669 225.217L255.763 240.145L229.858 225.217L230.869 224.584L255.763 238.879Z" fill="white"/>
<path d="M222.023 258.108L247.928 243.181V273.036L222.023 288.09L196.118 273.036V243.181L222.023 258.108Z" fill="#42E8E0"/>
<path d="M222.023 288.09L247.928 273.036V243.181L222.023 258.108V288.09Z" fill="#42E8E0"/>
<path d="M196.117 273.036L222.023 288.09V258.108L196.117 243.181V273.036Z" fill="#2FD3C7"/>
<path d="M222.023 258.108L247.928 243.181L222.023 228.126L196.118 243.181L222.023 258.108Z" fill="#42E8E0"/>
<path d="M222.023 258.108L246.917 243.813L247.928 244.446L222.023 259.373L196.118 244.446V243.181L222.023 258.108Z" fill="white"/>
<path d="M289.377 259.373L315.283 244.446V274.428L289.377 289.355L263.472 274.428V244.446L289.377 259.373Z" fill="#42E8E0"/>
<path d="M289.377 289.355L315.283 274.428V244.446L289.377 259.373V289.355Z" fill="#42E8E0"/>
<path d="M263.472 274.428L289.377 289.355V259.373L263.472 244.446V274.428Z" fill="#2FD3C7"/>
<path d="M289.377 259.373L315.283 244.446L289.377 229.392L263.472 244.446L289.377 259.373Z" fill="#42E8E0"/>
<path d="M289.377 259.373L315.283 244.446V245.711L289.377 260.765L263.472 245.711L264.609 245.078L289.377 259.373Z" fill="white"/>
<path d="M255.763 278.602L281.669 263.675V293.657L255.763 308.584L229.858 293.657V263.675L255.763 278.602Z" fill="#42E8E0"/>
<path d="M255.763 308.584L281.669 293.657V263.675L255.763 278.602V308.584Z" fill="#42E8E0"/>
<path d="M229.858 293.657L255.763 308.584V278.602L229.858 263.675V293.657Z" fill="#2FD3C7"/>
<path d="M255.763 278.602L281.669 263.675L255.763 248.62L229.858 263.675L255.763 278.602Z" fill="#42E8E0"/>
<path d="M255.763 278.602L281.669 263.675V264.94L255.763 279.994L229.858 264.94V263.675L255.763 278.602Z" fill="white"/>
<path d="M262.714 265.446L357.111 210.669C358.627 209.783 360.017 209.783 361.028 210.416L366.715 213.705L363.05 216.361V219.398L365.198 220.283L365.072 332.747L358.88 338.819L337.524 351.09L269.79 389.422C269.79 389.422 267.389 389.422 267.01 389.422C266.884 389.422 266.757 389.042 266.631 388.663L263.851 390.307L264.735 394.608L258.922 391.319C257.659 390.56 256.901 388.916 256.901 386.512V276.831C256.901 272.404 259.554 267.343 262.714 265.446ZM265.241 383.096L356.352 330.343C357.111 329.964 357.742 328.699 357.742 327.813V219.651L338.914 231.795L268.274 274.048L266.252 277.211L265.115 326.169L265.241 383.096Z" fill="url(#paint7_linear)"/>
<path opacity="0.6" d="M258.796 269.873L267.642 274.934L266.378 276.958L265.241 325.916L265.367 383.096L267.01 382.211C267.01 383.982 264.735 392.711 264.735 394.482L260.06 391.825L258.922 391.193C257.659 390.434 256.901 388.789 256.901 386.386V276.705C256.901 274.428 257.532 272.024 258.796 269.873Z" fill="#0F054C"/>
<path d="M268.779 268.861L363.176 214.084C366.462 212.187 369.115 214.211 369.115 218.512V328.193C369.115 332.494 366.462 337.554 363.176 339.452L268.779 394.229C265.494 396.126 262.84 394.102 262.84 389.801V280.12C262.84 275.819 265.494 270.759 268.779 268.861ZM268.147 386.512C268.147 387.524 268.779 387.904 269.537 387.524L362.292 333.759C363.05 333.379 363.682 332.114 363.682 331.229V221.928C363.682 220.916 363.05 220.536 362.292 220.916L269.537 274.681C268.779 275.06 268.147 276.325 268.147 277.211V386.512Z" fill="url(#paint8_linear)"/>
<path d="M268.779 268.861L363.176 214.084C366.462 212.187 369.115 214.211 369.115 218.512V328.193C369.115 332.494 366.462 337.554 363.176 339.452L268.779 394.229C265.494 396.126 262.84 394.102 262.84 389.801V280.12C262.84 275.819 265.494 270.759 268.779 268.861ZM268.147 386.512C268.147 387.524 268.779 387.904 269.537 387.524L362.292 333.759C363.05 333.379 363.682 332.114 363.682 331.229V221.928C363.682 220.916 363.05 220.536 362.292 220.916L269.537 274.681C268.779 275.06 268.147 276.325 268.147 277.211V386.512Z" fill="url(#paint9_linear)"/>
<path d="M356.352 330.343C357.111 329.964 357.742 328.699 357.742 327.813V223.572L362.292 220.916C363.05 220.536 363.682 220.916 363.682 221.928V331.229C363.682 332.241 363.05 333.379 362.292 333.759L269.537 387.524C268.779 387.904 268.147 387.524 268.147 386.512V381.452L356.352 330.343Z" fill="#251C72"/>
<path opacity="0.7" d="M268.147 386.512C268.147 387.524 268.779 387.904 269.537 387.524L362.292 333.759C363.05 333.379 363.682 332.114 363.682 331.229V221.928C363.682 220.916 363.05 220.536 362.292 220.916L269.537 274.681C268.779 275.06 268.147 276.325 268.147 277.211V386.512Z" fill="#42E8E0"/>
<path d="M256.901 276.705V386.386C256.901 388.789 256.142 390.434 254.879 391.193L249.066 394.482L249.95 390.181L247.17 388.536C247.044 389.042 246.791 389.295 246.791 389.295C246.412 389.295 244.011 389.295 244.011 389.295L176.278 350.964L154.922 338.693L148.73 332.62L148.603 220.157L150.751 219.271V216.361L147.087 213.705L152.773 210.416C153.784 209.783 155.174 209.783 156.691 210.669L251.088 265.446C254.247 267.343 256.901 272.404 256.901 276.705ZM248.56 326.042L247.423 277.084L245.401 273.922L174.761 231.669L155.932 219.524V327.687C155.932 328.699 156.564 329.837 157.322 330.217L248.434 382.97L248.56 326.042Z" fill="url(#paint10_linear)"/>
<path opacity="0.6" d="M256.901 276.705V386.386C256.901 388.789 256.142 390.434 254.879 391.193L249.066 394.482L249.95 390.181L247.17 388.536C247.044 389.042 246.791 389.295 246.791 389.295C246.412 389.295 244.011 389.295 244.011 389.295L176.278 350.964L154.922 338.693L148.73 332.62L148.603 220.157L150.751 219.271V216.361L147.087 213.705L152.773 210.416C153.784 209.783 155.174 209.783 156.691 210.669L251.088 265.446C254.247 267.343 256.901 272.404 256.901 276.705ZM248.56 326.042L247.423 277.084L245.401 273.922L174.761 231.669L155.932 219.524V327.687C155.932 328.699 156.564 329.837 157.322 330.217L248.434 382.97L248.56 326.042Z" fill="#0F054C"/>
<path d="M250.961 280.12V389.801C250.961 394.102 248.307 396.126 245.022 394.229L150.625 339.452C147.339 337.554 144.686 332.494 144.686 328.193V218.512C144.686 214.211 147.339 212.187 150.625 214.084L245.022 268.861C248.307 270.759 250.961 275.819 250.961 280.12ZM245.527 277.211C245.527 276.199 244.896 275.06 244.137 274.681L151.383 220.916C150.625 220.536 149.993 220.916 149.993 221.928V331.229C149.993 332.241 150.625 333.379 151.383 333.759L244.137 387.524C244.896 387.904 245.527 387.524 245.527 386.512V277.211Z" fill="url(#paint11_linear)"/>
<path opacity="0.75" d="M250.961 280.12V389.801C250.961 394.102 248.307 396.126 245.022 394.229L150.625 339.452C147.339 337.554 144.686 332.494 144.686 328.193V218.512C144.686 214.211 147.339 212.187 150.625 214.084L245.022 268.861C248.307 270.759 250.961 275.819 250.961 280.12ZM245.527 277.211C245.527 276.199 244.896 275.06 244.137 274.681L151.383 220.916C150.625 220.536 149.993 220.916 149.993 221.928V331.229C149.993 332.241 150.625 333.379 151.383 333.759L244.137 387.524C244.896 387.904 245.527 387.524 245.527 386.512V277.211Z" fill="#0F054C"/>
<path d="M363.555 221.169C364.061 221.042 364.566 221.548 364.566 222.307V331.608C364.566 332.62 363.935 333.759 363.176 334.139L270.422 387.904C269.917 388.157 269.411 388.03 269.158 387.524C269.285 387.524 269.411 387.524 269.538 387.398L362.292 333.633C363.05 333.253 363.682 331.988 363.682 331.102V221.801C363.682 221.548 363.682 221.295 363.555 221.169Z" fill="white"/>
<path d="M268.779 268.861L363.176 214.084C364.819 213.072 366.335 213.199 367.346 213.958C366.335 213.578 365.198 213.705 363.934 214.464L269.537 269.241C266.252 271.139 263.598 276.199 263.598 280.5V390.181C263.598 392.331 264.23 393.849 265.241 394.735C263.724 394.229 262.714 392.458 262.714 389.675V279.994C262.84 275.819 265.494 270.759 268.779 268.861Z" fill="white"/>
<path d="M150.246 221.169C149.74 221.042 149.235 221.548 149.235 222.307V331.608C149.235 332.62 149.867 333.759 150.625 334.139L243.379 387.904C243.885 388.157 244.39 388.03 244.643 387.524C244.516 387.524 244.39 387.524 244.264 387.398L151.509 333.633C150.751 333.253 150.119 331.988 150.119 331.102V221.801C150.119 221.548 150.119 221.295 150.246 221.169Z" fill="#42E8E0"/>
<path d="M245.022 268.861L150.625 214.084C148.982 213.072 147.466 213.199 146.455 213.958C147.466 213.578 148.603 213.705 149.867 214.464L244.264 269.241C247.549 271.139 250.203 276.199 250.203 280.5V390.181C250.203 392.331 249.571 393.849 248.56 394.735C250.077 394.229 251.088 392.458 251.088 389.675V279.994C250.961 275.819 248.307 270.759 245.022 268.861Z" fill="#42E8E0"/>
<path d="M157.322 330.343C156.564 329.964 155.932 328.699 155.932 327.813V223.572L151.383 220.916C150.625 220.536 149.993 220.916 149.993 221.928V331.229C149.993 332.241 150.625 333.379 151.383 333.759L244.137 387.524C244.896 387.904 245.527 387.524 245.527 386.512V381.452L157.322 330.343Z" fill="#251C72"/>
<path opacity="0.2" d="M245.527 386.512C245.527 387.524 244.896 387.904 244.137 387.524L151.383 333.759C150.625 333.379 149.993 332.114 149.993 331.229V221.928C149.993 220.916 150.625 220.536 151.383 220.916L244.137 274.681C244.896 275.06 245.527 276.325 245.527 277.211V386.512Z" fill="#42E8E0"/>
<path d="M363.555 221.169C364.061 221.042 364.566 221.548 364.566 222.307V331.608C364.566 332.62 363.935 333.759 363.176 334.139L270.422 387.904C269.917 388.157 269.411 388.03 269.158 387.524C269.285 387.524 269.411 387.524 269.538 387.398L362.292 333.633C363.05 333.253 363.682 331.988 363.682 331.102V221.801C363.682 221.548 363.682 221.295 363.555 221.169Z" fill="#42E8E0"/>
<path d="M268.779 268.861L363.176 214.084C364.819 213.072 366.335 213.199 367.346 213.958C366.335 213.578 365.198 213.705 363.934 214.464L269.537 269.241C266.252 271.139 263.598 276.199 263.598 280.5V390.181C263.598 392.331 264.23 393.849 265.241 394.735C263.724 394.229 262.714 392.458 262.714 389.675V279.994C262.84 275.819 265.494 270.759 268.779 268.861Z" fill="#42E8E0"/>
<path d="M250.077 264.94L155.174 210.163C153.152 209.024 152.015 207.379 152.015 205.988V199.283L155.3 202.193L158.081 200.548C157.828 200.169 157.575 199.916 157.575 199.789C157.702 199.536 158.965 197.386 158.965 197.386L225.94 157.789L247.17 145.392L255.51 142.988L352.94 199.03L352.688 201.307L355.341 202.825L359.511 200.928V207.506C359.511 208.771 358.88 209.91 357.363 210.795L262.84 265.446C259.554 267.343 253.868 267.09 250.077 264.94ZM211.534 233.06L254.499 256.59L258.164 256.464L329.941 216.235L349.781 205.988L256.142 151.97C255.258 151.464 253.994 151.464 253.236 151.843L162.124 204.47L211.534 233.06Z" fill="url(#paint12_linear)"/>
<path opacity="0.6" d="M256.9 266.711V256.464L254.499 256.59L211.534 233.06L162.124 204.47L163.767 203.458C162.251 202.572 153.531 200.169 152.015 199.283V204.723V205.988C152.015 207.506 153.026 209.024 155.174 210.163L250.076 264.94C251.972 266.078 254.499 266.584 256.9 266.711Z" fill="#0F054C"/>
<path d="M250.076 257.982L155.174 203.205C151.383 201.054 151.004 197.765 154.289 195.867L248.686 141.343C251.972 139.446 257.658 139.699 261.45 141.849L356.352 196.626C360.143 198.777 360.522 202.066 357.237 203.964L262.713 258.614C259.554 260.386 253.741 260.259 250.076 257.982ZM255.258 254.819C256.142 255.325 257.406 255.325 258.164 254.946L351.045 201.307C351.803 200.928 351.676 200.169 350.792 199.663L256.142 145.139C255.258 144.633 253.994 144.633 253.236 145.012L160.355 198.651C159.597 199.03 159.723 199.789 160.608 200.295L255.258 254.819Z" fill="url(#paint13_linear)"/>
<path d="M250.076 257.982L155.174 203.205C151.383 201.054 151.004 197.765 154.289 195.867L248.686 141.343C251.972 139.446 257.658 139.699 261.45 141.849L356.352 196.626C360.143 198.777 360.522 202.066 357.237 203.964L262.713 258.614C259.554 260.386 253.741 260.259 250.076 257.982ZM255.258 254.819C256.142 255.325 257.406 255.325 258.164 254.946L351.045 201.307C351.803 200.928 351.676 200.169 350.792 199.663L256.142 145.139C255.258 144.633 253.994 144.633 253.236 145.012L160.355 198.651C159.597 199.03 159.723 199.789 160.608 200.295L255.258 254.819Z" fill="url(#paint14_linear)"/>
<path d="M160.481 197.639L253.362 144C254.12 143.62 255.384 143.62 256.269 144.126L350.792 198.651C351.55 199.03 351.676 199.663 351.297 200.042C351.171 199.916 351.045 199.663 350.792 199.536L256.142 145.012C255.258 144.506 253.994 144.506 253.236 144.886L160.355 198.524C160.229 198.651 160.102 198.651 159.976 198.777C159.85 198.398 159.85 197.892 160.481 197.639Z" fill="#42E8E0"/>
<path d="M155.174 202.319L250.077 257.096C253.868 259.247 259.554 259.5 262.84 257.602L357.363 202.952C358.627 202.193 359.385 201.181 359.511 200.169C359.764 201.56 359.006 202.825 357.363 203.837L262.84 258.488C259.554 260.386 253.868 260.133 250.077 257.982L155.174 203.205C152.899 201.94 151.889 200.169 152.141 198.651C152.268 200.042 153.279 201.307 155.174 202.319Z" fill="#42E8E0"/>
<path d="M253.236 151.843C253.994 151.464 255.258 151.464 256.142 151.97L346.369 203.964L350.918 201.307C351.677 200.928 351.55 200.169 350.666 199.663L256.016 145.139C255.131 144.633 253.868 144.633 253.109 145.012L160.229 198.651C159.471 199.03 159.597 199.789 160.482 200.295L164.904 202.825L253.236 151.843Z" fill="#251C72"/>
<path opacity="0.7" d="M160.608 200.295C159.723 199.789 159.597 199.03 160.355 198.651L253.236 145.012C253.994 144.633 255.258 144.633 256.142 145.139L350.792 199.663C351.676 200.169 351.803 200.928 351.045 201.307L258.164 254.946C257.406 255.325 256.142 255.325 255.258 254.819L160.608 200.295Z" fill="#42E8E0"/>
<path d="M208.058 341.749C203.561 339.074 200.284 335.897 198.226 332.139C196.167 328.382 195.172 325.14 195.172 322.216C195.172 321.185 195.34 320.371 195.731 319.886C196.067 319.367 196.559 319.086 197.174 319.06C197.789 319.034 198.561 319.233 199.456 319.765C200.351 320.297 201.123 320.952 201.738 321.775C202.353 322.533 202.846 323.4 203.181 324.318C203.517 325.235 203.74 326.269 203.74 327.314C203.74 328.606 203.461 329.484 202.957 329.955C202.454 330.438 201.794 330.62 201.067 330.449C201.682 331.781 202.678 333.091 204.009 334.34C205.34 335.589 206.671 336.577 208.013 337.375C209.904 338.5 211.571 338.904 213.07 338.634C214.568 338.364 215.676 337.273 216.403 335.434C217.13 333.596 217.454 331.204 217.454 328.28C217.454 325.107 217.063 322.211 216.291 319.546C215.508 316.809 214.401 314.466 212.902 312.543C211.403 310.554 209.792 309.074 208.013 308.016C206.85 307.324 205.463 307.086 203.74 307.158L200.608 307.044V305.229L214.77 291.618L195.172 279.959V302.843C195.172 304.723 195.508 306.476 196.223 308.142C196.951 309.802 198.058 311.048 199.501 311.907C200.664 312.599 201.727 312.774 202.778 312.499C203.83 312.211 204.725 311.647 205.497 310.879C205.608 310.684 205.72 310.555 205.832 310.556C206 310.525 206.112 310.527 206.28 310.627C206.559 310.793 206.839 311.09 207.219 311.642C207.555 312.299 207.723 312.908 207.723 313.495C207.723 313.756 207.611 314.082 207.555 314.557C206.772 316.232 205.664 317.192 204.221 317.43C202.778 317.668 201.224 317.331 199.501 316.306C195.228 313.764 192.331 311.074 190.664 308.137C189.053 305.234 188.225 302.078 188.225 298.776V275.826L178.225 269.877V265.595L188.281 271.578V261.852L185.999 257.831V255.625L192.666 259.592L195.161 262.564V275.605L221.101 290.973L223.652 295.467L207.779 304.639C208.718 304.741 209.725 305.079 210.776 305.574C212.499 306.598 214.445 308.409 216.548 310.953C218.719 313.471 220.385 316.212 221.549 319.11C222.712 322.008 223.495 324.55 223.831 326.76C224.166 328.97 224.39 330.852 224.39 332.471C224.39 336.035 223.719 338.938 222.443 341.234C221.168 343.517 219.222 344.696 216.56 344.6C213.942 344.531 211.112 343.566 208.058 341.749Z" fill="#2E3247" fill-opacity="0.4"/>
<path d="M319.063 330.499C314.532 333.115 311.239 333.795 309.186 332.46C307.132 331.125 306.151 329.054 306.175 326.13C306.183 325.099 306.36 324.088 306.76 323.142C307.104 322.229 307.605 321.368 308.228 320.619C308.851 319.869 309.631 319.159 310.533 318.638C311.435 318.118 312.211 317.864 312.827 317.963C313.444 317.997 313.935 318.285 314.267 318.808C314.6 319.33 314.818 320.101 314.809 321.145C314.799 322.438 314.508 323.645 313.995 324.708C313.481 325.784 312.811 326.742 312.076 327.426C312.688 328.034 313.686 328.173 315.023 327.855C316.361 327.538 317.701 326.959 319.054 326.178C320.959 325.078 322.643 323.521 324.163 321.487C325.683 319.454 326.813 317.06 327.565 314.366C328.316 311.671 328.664 308.898 328.688 305.974C328.714 302.802 328.341 300.366 327.582 298.609C326.811 296.794 325.709 295.754 324.207 295.595C322.706 295.37 321.087 295.785 319.294 296.82C318.122 297.497 316.719 298.891 314.975 300.99L311.804 304.561L311.819 302.747L326.27 272.473L306.521 283.875L306.334 306.758C306.318 308.638 306.644 309.996 307.355 310.82C308.078 311.624 309.189 311.567 310.643 310.728C311.815 310.051 312.89 308.976 313.957 307.463C315.024 305.938 315.935 304.32 316.722 302.644C316.837 302.318 316.952 302.057 317.065 301.927C317.235 301.699 317.348 301.568 317.517 301.471C317.799 301.308 318.08 301.276 318.46 301.381C318.795 301.643 318.96 302.054 318.955 302.642C318.953 302.903 318.837 303.359 318.776 303.901C317.97 306.497 316.84 308.76 315.377 310.696C313.914 312.632 312.343 314.125 310.607 315.127C306.301 317.613 303.389 318.332 301.726 317.357C300.118 316.349 299.306 314.168 299.333 310.865L299.521 287.916L289.444 293.734L289.479 289.453L299.613 283.602L299.693 273.877L297.415 272.542L297.433 270.335L304.151 266.457L306.653 266.494L306.546 279.534L332.686 264.377L335.232 265.87L319.084 293.719C320.035 292.716 321.051 291.869 322.112 291.127C323.848 290.124 325.804 289.645 327.913 289.714C330.089 289.678 331.755 290.458 332.909 291.987C334.063 293.516 334.835 295.136 335.157 296.951C335.478 298.766 335.689 300.385 335.676 302.004C335.647 305.568 334.943 309.261 333.633 313.057C332.323 316.841 330.343 320.31 327.648 323.347C324.998 326.358 322.14 328.723 319.063 330.499Z" fill="#2E3247" fill-opacity="0.4"/>
</g>
<defs>
<radialGradient id="paint0_radial" cx="0" cy="0" r="1" gradientUnits="userSpaceOnUse" gradientTransform="translate(249.218 251.218) rotate(-15.3968) scale(237.713)">
<stop stop-color="#42E8E0"/>
<stop offset="0.473958" stop-color="#3AC4C9" stop-opacity="0.29"/>
<stop offset="1" stop-color="#2F92A8" stop-opacity="0"/>
</radialGradient>
<linearGradient id="paint1_linear" x1="231.836" y1="241.279" x2="142.67" y2="241.279" gradientUnits="userSpaceOnUse">
<stop stop-color="#BCBEFF"/>
<stop offset="0.1659" stop-color="#B6B8FC"/>
<stop offset="0.3956" stop-color="#A4A8F5"/>
<stop offset="0.6625" stop-color="#868DEA"/>
<stop offset="0.9554" stop-color="#5E67DA"/>
<stop offset="1" stop-color="#5761D7"/>
</linearGradient>
<linearGradient id="paint2_linear" x1="255.731" y1="243.238" x2="149.472" y2="243.238" gradientUnits="userSpaceOnUse">
<stop stop-color="#BCBEFF"/>
<stop offset="0.1659" stop-color="#B6B8FC"/>
<stop offset="0.3956" stop-color="#A4A8F5"/>
<stop offset="0.6625" stop-color="#868DEA"/>
<stop offset="0.9554" stop-color="#5E67DA"/>
<stop offset="1" stop-color="#5761D7"/>
</linearGradient>
<linearGradient id="paint3_linear" x1="270.407" y1="243.238" x2="78.6985" y2="243.238" gradientUnits="userSpaceOnUse">
<stop stop-color="#706EC4"/>
<stop offset="0.0222208" stop-color="#6D6BC2"/>
<stop offset="0.2509" stop-color="#5651AC"/>
<stop offset="0.4865" stop-color="#463F9D"/>
<stop offset="0.7314" stop-color="#3C3494"/>
<stop offset="1" stop-color="#393091"/>
</linearGradient>
<linearGradient id="paint4_linear" x1="279.627" y1="241.279" x2="368.792" y2="241.279" gradientUnits="userSpaceOnUse">
<stop stop-color="#BCBEFF"/>
<stop offset="0.1659" stop-color="#B6B8FC"/>
<stop offset="0.3956" stop-color="#A4A8F5"/>
<stop offset="0.6625" stop-color="#868DEA"/>
<stop offset="0.9554" stop-color="#5E67DA"/>
<stop offset="1" stop-color="#5761D7"/>
</linearGradient>
<linearGradient id="paint5_linear" x1="255.732" y1="243.238" x2="361.991" y2="243.238" gradientUnits="userSpaceOnUse">
<stop stop-color="#BCBEFF"/>
<stop offset="0.1659" stop-color="#B6B8FC"/>
<stop offset="0.3956" stop-color="#A4A8F5"/>
<stop offset="0.6625" stop-color="#868DEA"/>
<stop offset="0.9554" stop-color="#5E67DA"/>
<stop offset="1" stop-color="#5761D7"/>
</linearGradient>
<linearGradient id="paint6_linear" x1="241.055" y1="243.238" x2="432.764" y2="243.238" gradientUnits="userSpaceOnUse">
<stop stop-color="#706EC4"/>
<stop offset="0.0222208" stop-color="#6D6BC2"/>
<stop offset="0.2509" stop-color="#5651AC"/>
<stop offset="0.4865" stop-color="#463F9D"/>
<stop offset="0.7314" stop-color="#3C3494"/>
<stop offset="1" stop-color="#393091"/>
</linearGradient>
<linearGradient id="paint7_linear" x1="345.173" y1="302.253" x2="256.008" y2="302.253" gradientUnits="userSpaceOnUse">
<stop stop-color="#BCBEFF"/>
<stop offset="0.1659" stop-color="#B6B8FC"/>
<stop offset="0.3956" stop-color="#A4A8F5"/>
<stop offset="0.6625" stop-color="#868DEA"/>
<stop offset="0.9554" stop-color="#5E67DA"/>
<stop offset="1" stop-color="#5761D7"/>
</linearGradient>
<linearGradient id="paint8_linear" x1="369.069" y1="304.213" x2="262.809" y2="304.213" gradientUnits="userSpaceOnUse">
<stop stop-color="#BCBEFF"/>
<stop offset="0.1659" stop-color="#B6B8FC"/>
<stop offset="0.3956" stop-color="#A4A8F5"/>
<stop offset="0.6625" stop-color="#868DEA"/>
<stop offset="0.9554" stop-color="#5E67DA"/>
<stop offset="1" stop-color="#5761D7"/>
</linearGradient>
<linearGradient id="paint9_linear" x1="383.745" y1="304.213" x2="192.036" y2="304.213" gradientUnits="userSpaceOnUse">
<stop stop-color="#706EC4"/>
<stop offset="0.0222208" stop-color="#6D6BC2"/>
<stop offset="0.2509" stop-color="#5651AC"/>
<stop offset="0.4865" stop-color="#463F9D"/>
<stop offset="0.7314" stop-color="#3C3494"/>
<stop offset="1" stop-color="#393091"/>
</linearGradient>
<linearGradient id="paint10_linear" x1="114.546" y1="341.105" x2="185.74" y2="309.285" gradientUnits="userSpaceOnUse">
<stop stop-color="#BCBEFF"/>
<stop offset="0.1659" stop-color="#B6B8FC"/>
<stop offset="0.3956" stop-color="#A4A8F5"/>
<stop offset="0.6625" stop-color="#868DEA"/>
<stop offset="0.9554" stop-color="#5E67DA"/>
<stop offset="1" stop-color="#5761D7"/>
</linearGradient>
<linearGradient id="paint11_linear" x1="461.826" y1="321.305" x2="119.671" y2="299.203" gradientUnits="userSpaceOnUse">
<stop stop-color="#BCBEFF"/>
<stop offset="0.1659" stop-color="#B6B8FC"/>
<stop offset="0.3956" stop-color="#A4A8F5"/>
<stop offset="0.6625" stop-color="#868DEA"/>
<stop offset="0.9554" stop-color="#5E67DA"/>
<stop offset="1" stop-color="#5761D7"/>
</linearGradient>
<linearGradient id="paint12_linear" x1="272.021" y1="175.552" x2="227.442" y2="252.863" gradientUnits="userSpaceOnUse">
<stop stop-color="#BCBEFF"/>
<stop offset="0.1659" stop-color="#B6B8FC"/>
<stop offset="0.3956" stop-color="#A4A8F5"/>
<stop offset="0.6625" stop-color="#868DEA"/>
<stop offset="0.9554" stop-color="#5E67DA"/>
<stop offset="1" stop-color="#5761D7"/>
</linearGradient>
<linearGradient id="paint13_linear" x1="282.252" y1="153.845" x2="229.126" y2="245.977" gradientUnits="userSpaceOnUse">
<stop stop-color="#BCBEFF"/>
<stop offset="0.1659" stop-color="#B6B8FC"/>
<stop offset="0.3956" stop-color="#A4A8F5"/>
<stop offset="0.6625" stop-color="#868DEA"/>
<stop offset="0.9554" stop-color="#5E67DA"/>
<stop offset="1" stop-color="#5761D7"/>
</linearGradient>
<linearGradient id="paint14_linear" x1="289.577" y1="141.113" x2="193.73" y2="307.334" gradientUnits="userSpaceOnUse">
<stop stop-color="#706EC4"/>
<stop offset="0.0222208" stop-color="#6D6BC2"/>
<stop offset="0.2509" stop-color="#5651AC"/>
<stop offset="0.4865" stop-color="#463F9D"/>
<stop offset="0.7314" stop-color="#3C3494"/>
<stop offset="1" stop-color="#393091"/>
</linearGradient>
<clipPath id="clip0">
<rect width="477" height="477" fill="white" transform="matrix(-1 0 0 1 477 0)"/>
</clipPath>
</defs>
</svg>
