<svg width="477" height="477" viewBox="0 0 477 477" fill="none" xmlns="http://www.w3.org/2000/svg">
<path opacity="0.3" d="M238.205 476.001C369.536 476.001 476.001 369.536 476.001 238.205C476.001 106.874 369.536 0.409729 238.205 0.409729C106.874 0.409729 0.409668 106.874 0.409668 238.205C0.409668 369.536 106.874 476.001 238.205 476.001Z" fill="url(#paint0_radial)"/>
<path d="M308.081 440.933H307.559V386.804L263.265 342.481V283.123H263.787V342.22L308.081 386.543V440.933Z" fill="#42E8E0"/>
<path d="M344.797 440.933H344.144V419.621L324.675 400.14V379.221L272.672 327.184V283.123H273.326V326.923L325.329 378.959V399.879L344.797 419.36V440.933Z" fill="#42E8E0"/>
<path d="M270.843 448.647H270.19V403.67L248.239 381.574V283.123H248.761V381.313L270.843 403.409V448.647Z" fill="#42E8E0"/>
<path d="M371.974 403.67L285.346 316.986V283.123H285.999V316.725L372.497 403.278L371.974 403.67Z" fill="#42E8E0"/>
<path d="M368.185 382.489L338.133 352.418H320.886V351.764H338.394L338.525 351.895L368.577 382.097L368.185 382.489Z" fill="#42E8E0"/>
<path d="M364.527 311.625H308.473L308.343 311.495L296.714 299.858V283.123H297.237V299.597L308.735 310.972H364.527V311.625Z" fill="#42E8E0"/>
<path d="M322.454 311.495L322.062 310.972L332.515 300.512H357.602V301.035H332.776L322.454 311.495Z" fill="#42E8E0"/>
<path d="M384.126 327.969H358.124L347.802 317.64H318.665L312.524 311.495L312.916 311.103L318.926 317.117H348.063H348.194L358.385 327.446H384.126V327.969Z" fill="#42E8E0"/>
<path d="M366.617 311.233C366.617 312.41 365.703 313.325 364.527 313.325C363.351 313.325 362.436 312.41 362.436 311.233C362.436 310.057 363.351 309.141 364.527 309.141C365.703 309.141 366.617 310.057 366.617 311.233Z" fill="#42E8E0"/>
<path d="M386.739 327.707C386.739 328.884 385.824 329.799 384.648 329.799C383.472 329.799 382.558 328.884 382.558 327.707C382.558 326.53 383.472 325.615 384.648 325.615C385.824 325.615 386.739 326.53 386.739 327.707Z" fill="#42E8E0"/>
<path d="M359.692 300.774C359.692 301.95 358.778 302.866 357.602 302.866C356.426 302.866 355.511 301.95 355.511 300.774C355.511 299.597 356.426 298.682 357.602 298.682C358.778 298.682 359.692 299.597 359.692 300.774Z" fill="#42E8E0"/>
<path d="M331.731 336.075C331.731 337.252 330.816 338.167 329.64 338.167C328.464 338.167 327.55 337.252 327.55 336.075C327.55 334.898 328.464 333.983 329.64 333.983C330.816 333.983 331.731 334.898 331.731 336.075Z" fill="#42E8E0"/>
<path d="M370.537 382.228C370.537 383.405 369.622 384.32 368.446 384.32C367.27 384.32 366.356 383.405 366.356 382.228C366.356 381.051 367.27 380.136 368.446 380.136C369.622 380.136 370.537 381.051 370.537 382.228Z" fill="#42E8E0"/>
<path d="M374.326 403.409C374.326 404.585 373.412 405.501 372.236 405.501C371.06 405.501 370.145 404.585 370.145 403.409C370.145 402.232 371.06 401.317 372.236 401.317C373.412 401.317 374.326 402.363 374.326 403.409Z" fill="#42E8E0"/>
<path d="M346.626 440.933C346.626 442.109 345.711 443.025 344.535 443.025C343.359 443.025 342.445 442.109 342.445 440.933C342.445 439.756 343.359 438.841 344.535 438.841C345.581 438.971 346.626 439.887 346.626 440.933Z" fill="#42E8E0"/>
<path d="M309.91 440.933C309.91 442.109 308.996 443.025 307.82 443.025C306.644 443.025 305.729 442.109 305.729 440.933C305.729 439.756 306.644 438.841 307.82 438.841C308.996 438.841 309.91 439.887 309.91 440.933Z" fill="#42E8E0"/>
<path d="M272.672 448.647C272.672 449.823 271.758 450.738 270.582 450.738C269.406 450.738 268.491 449.823 268.491 448.647C268.491 447.47 269.406 446.555 270.582 446.555C271.758 446.555 272.672 447.47 272.672 448.647Z" fill="#42E8E0"/>
<path d="M329.64 335.813H304.945V336.467H329.64V335.813Z" fill="#42E8E0"/>
<path d="M229.816 367.454C223.674 367.454 217.403 366.146 212.699 363.401L121.498 310.71C116.794 307.965 114.312 304.434 114.312 300.512C114.312 296.59 116.925 293.06 121.498 290.314L212.699 237.624C222.107 232.132 237.394 232.132 246.801 237.624L338.002 290.314C342.706 293.06 345.189 296.59 345.189 300.512C345.189 304.434 342.575 307.965 338.002 310.71L246.932 363.401C242.228 366.146 235.957 367.454 229.816 367.454ZM229.816 234.747C223.805 234.747 217.925 236.055 213.352 238.67L122.151 291.36C117.84 293.844 115.488 297.113 115.488 300.512C115.488 303.911 117.84 307.18 122.151 309.664L213.352 362.355C222.499 367.584 237.263 367.584 246.279 362.355L337.48 309.664C341.791 307.18 344.143 303.911 344.143 300.512C344.143 297.113 341.791 293.844 337.48 291.36L246.279 238.67C241.706 236.055 235.826 234.747 229.816 234.747Z" fill="#42E8E0"/>
<path opacity="0.4" d="M348.325 283.515V272.925L342.575 275.54C344.666 262.465 325.72 292.275 319.841 293.06L254.51 331.237L226.026 333.198L135.087 294.498L137.177 293.321C129.338 289.66 125.157 281.423 120.976 273.84L114.834 277.501L111.307 273.186V283.777C111.307 287.83 113.92 291.883 119.277 295.021L210.478 347.711C221.192 353.856 238.57 353.856 249.153 347.711L340.354 295.021C345.581 292.014 348.325 287.961 348.325 284.038C348.325 283.777 348.325 283.646 348.325 283.515Z" fill="#42E8E0"/>
<path d="M348.325 273.709V261.419L342.576 258.281C341.008 268.087 329.51 274.494 319.841 275.801L254.51 313.979L226.026 324.308L135.087 277.37L137.177 276.193C129.338 272.533 125.157 264.296 120.976 256.712L114.835 260.373L111.176 261.419V274.232C111.176 278.285 113.789 282.338 119.146 285.476L210.347 338.167C221.061 344.312 238.439 344.312 249.023 338.167L340.224 285.476C345.45 282.469 348.194 278.416 348.194 274.494C348.325 274.102 348.325 273.971 348.325 273.709Z" fill="url(#paint1_linear)"/>
<path d="M348.325 273.709V261.419L342.576 258.281C341.008 268.087 329.51 274.494 319.841 275.801L254.51 313.979L226.026 324.308L135.087 277.37L137.177 276.193C129.338 272.533 125.157 264.296 120.976 256.712L114.835 260.373L111.176 261.419V274.232C111.176 278.285 113.789 282.338 119.146 285.476L210.347 338.167C221.061 344.312 238.439 344.312 249.023 338.167L340.224 285.476C345.45 282.469 348.194 278.416 348.194 274.494C348.325 274.102 348.325 273.971 348.325 273.709Z" fill="url(#paint2_linear)"/>
<path opacity="0.3" d="M319.971 275.801L254.641 313.979L229.816 323V342.612C236.871 342.612 243.796 341.043 249.153 338.036L340.354 285.346C345.581 282.338 348.325 278.285 348.325 274.363C348.325 274.232 348.325 273.971 348.325 273.84V282.208V261.55L343.098 258.674H342.576C340.746 268.087 329.51 274.494 319.971 275.801Z" fill="#0F054C"/>
<path d="M210.479 325.223L119.278 272.533C108.564 266.388 108.564 256.32 119.278 250.175L210.479 197.485C221.193 191.34 238.571 191.34 249.154 197.485L340.355 250.175C351.07 256.32 351.07 266.388 340.355 272.533L249.154 325.223C238.44 331.499 221.193 331.499 210.479 325.223Z" fill="url(#paint3_linear)"/>
<path d="M219.755 294.629L172.325 267.172C166.837 263.903 166.837 258.804 172.325 255.536L219.755 228.079C225.242 224.811 234.389 224.811 239.876 228.079L287.306 255.536C292.794 258.804 292.794 263.903 287.306 267.172L239.876 294.629C234.389 297.897 225.242 297.897 219.755 294.629Z" fill="#0F054C"/>
<path d="M219.755 294.629L172.325 267.172C166.837 263.903 166.837 258.804 172.325 255.536L219.755 228.079C225.242 224.811 234.389 224.811 239.876 228.079L287.306 255.536C292.794 258.804 292.794 263.903 287.306 267.172L239.876 294.629C234.389 297.897 225.242 297.897 219.755 294.629Z" fill="url(#paint4_radial)"/>
<path d="M170.496 265.995C171.019 265.472 171.672 265.08 172.325 264.688L219.755 237.231C225.243 233.963 234.389 233.963 239.877 237.231L287.306 264.688C287.96 265.08 288.613 265.472 289.136 265.995C292.794 262.857 292.141 258.412 287.306 255.666L239.877 228.21C234.389 224.941 225.243 224.941 219.755 228.21L172.325 255.666C167.491 258.412 166.837 262.727 170.496 265.995Z" fill="url(#paint5_radial)"/>
<path d="M229.816 326.923C223.152 326.923 216.358 325.484 211.262 322.477L124.373 272.271C119.408 269.395 116.664 265.472 116.664 261.419C116.664 257.235 119.408 253.444 124.373 250.567L211.262 200.361C221.453 194.478 238.178 194.478 248.369 200.361L335.259 250.567C340.224 253.444 342.968 257.366 342.968 261.419C342.968 265.603 340.224 269.395 335.259 272.271L248.369 322.477C243.274 325.484 236.61 326.923 229.816 326.923ZM211.523 322.085C221.584 327.969 238.047 327.969 248.108 322.085L334.997 271.879C339.832 269.133 342.445 265.342 342.445 261.419C342.445 257.497 339.832 253.836 334.997 250.96L248.108 200.753C238.047 194.87 221.584 194.87 211.523 200.753L124.634 250.96C119.8 253.705 117.186 257.497 117.186 261.419C117.186 265.342 119.8 269.002 124.634 271.879L211.523 322.085Z" fill="#5351AF"/>
<path d="M229.816 312.018C224.589 312.018 219.363 310.841 215.443 308.618L148.414 269.918C144.494 267.695 142.404 264.688 142.404 261.419C142.404 258.151 144.494 255.274 148.414 252.921L215.443 214.22C223.413 209.644 236.218 209.644 244.188 214.22L311.217 252.921C315.137 255.143 317.227 258.151 317.227 261.419C317.227 264.688 315.137 267.564 311.217 269.918L244.188 308.618C240.268 310.841 235.042 312.018 229.816 312.018ZM215.704 308.095C223.544 312.541 236.087 312.541 243.927 308.095L310.956 269.395C314.614 267.303 316.705 264.426 316.705 261.419C316.705 258.412 314.614 255.536 310.956 253.444L243.927 214.743C236.087 210.298 223.544 210.298 215.704 214.743L148.676 253.444C145.017 255.536 142.926 258.412 142.926 261.419C142.926 264.426 145.017 267.303 148.676 269.395L215.704 308.095Z" fill="#5351AF"/>
<g opacity="0.4">
<path opacity="0.4" d="M219.755 294.629L172.325 267.172C166.837 263.903 166.837 258.804 172.325 255.536L219.755 228.079C225.242 224.811 234.389 224.811 239.876 228.079L287.306 255.536C292.794 258.804 292.794 263.903 287.306 267.172L239.876 294.629C234.389 297.897 225.242 297.897 219.755 294.629Z" fill="#42E8E0"/>
</g>
<path d="M340.354 272.663L249.153 325.354C238.439 331.499 221.061 331.499 210.478 325.354L119.277 272.663C114.442 269.918 111.829 266.388 111.307 262.727C110.653 267.172 113.267 271.748 119.277 275.148L210.478 327.838C221.192 333.983 238.57 333.983 249.153 327.838L340.354 275.148C346.234 271.748 348.847 267.172 348.325 262.727C347.802 266.388 345.058 269.918 340.354 272.663Z" fill="white"/>
<path opacity="0.4" d="M340.354 214.612L249.153 161.922C238.439 155.777 221.062 155.777 210.478 161.922L119.277 214.612C108.563 220.757 108.563 230.825 119.277 236.97L210.478 289.66C221.192 295.805 238.57 295.805 249.153 289.66L340.354 236.97C351.069 230.825 351.069 220.757 340.354 214.612Z" fill="#42E8E0"/>
<path d="M229.162 284.169C224.197 284.169 219.363 283.123 215.574 280.9L199.894 271.748C196.236 269.656 194.145 266.78 194.145 263.773C194.145 260.766 196.105 257.889 199.894 255.797L217.011 245.73C224.458 241.415 236.61 241.415 244.188 245.73L259.867 254.882C263.526 256.974 265.617 259.85 265.617 262.857C265.617 265.865 263.657 268.741 259.867 270.833L242.751 280.9C238.962 283.123 233.997 284.169 229.162 284.169ZM215.835 280.508C223.152 284.692 235.173 284.692 242.49 280.508L259.606 270.441C263.134 268.479 265.094 265.734 265.094 262.857C265.094 259.981 263.134 257.366 259.606 255.274L243.927 246.122C236.61 241.938 224.589 241.938 217.272 246.122L200.156 256.189C196.628 258.151 194.668 260.896 194.668 263.773C194.668 266.649 196.628 269.264 200.156 271.356L215.835 280.508Z" fill="#42E8E0"/>
<path opacity="0.4" d="M268.099 249.129V240.631L263.526 242.723C265.224 232.263 250.068 256.059 245.364 256.712L248.892 255.274L226.026 256.843L210.478 258.935L212.176 258.02C205.905 255.143 202.638 248.475 199.241 242.33L194.276 245.207L191.401 241.807V250.306C191.401 253.575 193.492 256.843 197.804 259.327L213.483 268.48C221.976 273.448 235.957 273.448 244.449 268.48L261.566 258.412C265.747 255.928 267.968 252.79 267.968 249.652C268.099 249.391 268.099 249.26 268.099 249.129Z" fill="#42E8E0"/>
<path d="M268.099 241.415V231.479L263.526 228.994C262.219 236.839 253.073 241.938 245.364 242.984L248.892 241.546L226.026 249.783L210.478 245.207L212.176 244.292C205.905 241.415 202.638 234.747 199.241 228.602L194.276 231.479L191.401 232.263V242.592C191.401 245.861 193.492 249.129 197.804 251.613L213.483 260.766C221.976 265.734 235.957 265.734 244.449 260.766L261.566 250.698C265.747 248.214 267.968 245.076 267.968 241.938C268.099 241.677 268.099 241.546 268.099 241.415Z" fill="url(#paint6_linear)"/>
<path d="M268.099 241.415V231.479L263.526 228.994C262.219 236.839 253.073 241.938 245.364 242.984L248.892 241.546L226.026 249.783L210.478 245.207L212.176 244.292C205.905 241.415 202.638 234.747 199.241 228.602L194.276 231.479L191.401 232.263V242.592C191.401 245.861 193.492 249.129 197.804 251.613L213.483 260.766C221.976 265.734 235.957 265.734 244.449 260.766L261.566 250.698C265.747 248.214 267.968 245.076 267.968 241.938C268.099 241.677 268.099 241.546 268.099 241.415Z" fill="url(#paint7_linear)"/>
<path opacity="0.3" d="M245.364 242.984L248.892 241.546L229.031 248.737V264.426C234.65 264.426 240.268 263.25 244.58 260.766L261.697 250.698C265.878 248.214 268.099 245.076 268.099 241.938C268.099 241.807 268.099 241.677 268.099 241.546V248.214V231.609L263.918 229.256H263.526C262.089 236.839 253.073 241.938 245.364 242.984Z" fill="#0F054C"/>
<path d="M213.615 250.567L197.936 241.415C189.443 236.447 189.443 228.471 197.936 223.503L215.052 213.436C223.545 208.467 237.526 208.467 246.019 213.436L261.698 222.588C270.191 227.556 270.191 235.532 261.698 240.5L244.581 250.567C236.088 255.536 222.108 255.536 213.615 250.567Z" fill="url(#paint8_linear)"/>
<path d="M229.162 251.744C224.197 251.744 219.232 250.698 215.443 248.475L201.593 240.369C197.934 238.277 195.844 235.401 195.844 232.263C195.844 229.256 197.934 226.38 201.593 224.157L216.619 215.266C224.197 210.952 236.479 210.952 244.057 215.266L257.907 223.372C261.566 225.464 263.656 228.341 263.656 231.479C263.656 234.486 261.566 237.362 257.907 239.585L242.881 248.475C239.092 250.698 234.127 251.744 229.162 251.744ZM215.704 248.083C223.152 252.398 235.303 252.398 242.751 248.083L257.777 239.193C261.305 237.101 263.265 234.355 263.265 231.479C263.265 228.602 261.305 225.857 257.777 223.765L243.927 215.658C236.479 211.344 224.328 211.344 216.88 215.658L201.854 224.549C198.326 226.641 196.366 229.387 196.366 232.263C196.366 235.139 198.326 237.885 201.854 239.977L215.704 248.083Z" fill="#5351AF"/>
<path d="M261.697 240.5L244.58 250.567C236.087 255.536 222.106 255.536 213.614 250.567L197.934 241.415C194.145 239.193 192.055 236.316 191.663 233.44C191.14 236.97 193.231 240.762 197.934 243.376L213.614 252.529C222.106 257.497 236.087 257.497 244.58 252.529L261.697 242.461C266.4 239.716 268.491 236.055 267.968 232.525C267.707 235.401 265.616 238.277 261.697 240.5Z" fill="white"/>
<path opacity="0.4" d="M210.608 250.175L212.046 250.044C211.784 249.914 211.654 249.783 211.523 249.783L210.608 250.175Z" fill="#42E8E0"/>
<path opacity="0.4" d="M246.409 247.691L245.364 248.083C245.756 248.083 246.017 247.953 246.409 247.691Z" fill="#42E8E0"/>
<path opacity="0.8" d="M268.099 240.5C268.099 240.631 268.099 240.762 268.099 240.892C267.968 244.03 265.878 247.299 261.697 249.652L244.58 259.72C236.087 264.688 222.107 264.688 213.614 259.72L197.934 250.567C193.623 248.083 191.532 244.815 191.532 241.546V242.461C191.532 245.73 193.623 248.998 197.934 251.483L213.614 260.635C222.107 265.603 236.087 265.603 244.58 260.635L261.697 250.567C265.878 248.083 268.099 244.945 268.099 241.807C268.099 241.677 268.099 241.546 268.099 241.415V240.5Z" fill="#42E8E0"/>
<path opacity="0.4" d="M268.099 233.309V224.811L263.526 226.903C265.224 216.443 250.068 240.239 245.364 240.892L248.892 239.454L226.026 241.023L210.608 243.115L212.307 242.2C206.035 239.323 202.769 232.655 199.372 226.51L194.407 229.387L191.532 225.987V234.486C191.532 237.754 193.623 241.023 197.934 243.507L213.614 252.659C222.107 257.628 236.087 257.628 244.58 252.659L261.697 242.592C265.878 240.108 268.099 236.97 268.099 233.832C268.099 233.571 268.099 233.44 268.099 233.309Z" fill="#42E8E0"/>
<path d="M268.099 225.464V215.528L263.526 213.044C262.219 220.888 253.073 225.987 245.364 227.033L248.892 225.595L226.026 233.832L210.478 229.256L212.176 228.341C205.905 225.464 202.638 218.796 199.241 212.651L194.276 215.528L191.401 216.312V226.641C191.401 229.91 193.492 233.178 197.804 235.662L213.483 244.815C221.976 249.783 235.957 249.783 244.449 244.815L261.566 234.747C265.747 232.263 267.968 229.125 267.968 225.987C268.099 225.857 268.099 225.726 268.099 225.464Z" fill="url(#paint9_linear)"/>
<path d="M268.099 225.464V215.528L263.526 213.044C262.219 220.888 253.073 225.987 245.364 227.033L248.892 225.595L226.026 233.832L210.478 229.256L212.176 228.341C205.905 225.464 202.638 218.796 199.241 212.651L194.276 215.528L191.401 216.312V226.641C191.401 229.91 193.492 233.178 197.804 235.662L213.483 244.815C221.976 249.783 235.957 249.783 244.449 244.815L261.566 234.747C265.747 232.263 267.968 229.125 267.968 225.987C268.099 225.857 268.099 225.726 268.099 225.464Z" fill="url(#paint10_linear)"/>
<path opacity="0.3" d="M245.364 227.164L248.892 225.726L229.031 232.917V248.606C234.65 248.606 240.268 247.43 244.58 244.945L261.697 234.878C265.878 232.394 268.099 229.256 268.099 226.118C268.099 225.987 268.099 225.857 268.099 225.726V232.394V215.789L263.918 213.436H263.526C262.089 221.019 253.073 226.118 245.364 227.164Z" fill="#0F054C"/>
<path d="M213.615 234.747L197.936 225.595C189.443 220.627 189.443 212.651 197.936 207.683L215.052 197.616C223.545 192.647 237.526 192.647 246.019 197.616L261.698 206.768C270.191 211.736 270.191 219.711 261.698 224.68L244.581 234.747C236.088 239.585 222.108 239.585 213.615 234.747Z" fill="url(#paint11_linear)"/>
<path d="M229.162 235.924C224.197 235.924 219.232 234.878 215.443 232.655L201.593 224.549C197.934 222.457 195.844 219.581 195.844 216.443C195.844 213.436 197.934 210.559 201.593 208.337L216.619 199.446C224.197 195.131 236.479 195.131 244.057 199.446L257.907 207.552C261.566 209.644 263.656 212.521 263.656 215.658C263.656 218.666 261.566 221.542 257.907 223.765L242.881 232.655C239.092 234.878 234.127 235.924 229.162 235.924ZM215.704 232.263C223.152 236.578 235.303 236.578 242.751 232.263L257.777 223.372C261.305 221.28 263.265 218.535 263.265 215.658C263.265 212.782 261.305 210.036 257.777 207.944L243.927 199.838C236.479 195.524 224.328 195.524 216.88 199.838L201.854 208.729C198.326 210.821 196.366 213.566 196.366 216.443C196.366 219.319 198.326 222.065 201.854 224.157L215.704 232.263Z" fill="#5351AF"/>
<path d="M261.697 224.549L244.58 234.617C236.087 239.585 222.106 239.585 213.614 234.617L197.934 225.464C194.145 223.242 192.055 220.365 191.663 217.489C191.14 221.019 193.231 224.811 197.934 227.426L213.614 236.578C222.106 241.546 236.087 241.546 244.58 236.578L261.697 226.51C266.4 223.765 268.491 220.104 267.968 216.574C267.707 219.581 265.616 222.457 261.697 224.549Z" fill="white"/>
<path opacity="0.4" d="M210.608 234.355L212.046 234.224C211.784 234.093 211.654 233.963 211.523 233.963L210.608 234.355Z" fill="#42E8E0"/>
<path opacity="0.4" d="M246.409 231.871L245.364 232.263C245.756 232.132 246.017 232.002 246.409 231.871Z" fill="#42E8E0"/>
<path opacity="0.8" d="M268.099 224.68C268.099 224.811 268.099 224.941 268.099 225.072C267.968 228.21 265.878 231.479 261.697 233.832L244.58 243.899C236.087 248.868 222.107 248.868 213.614 243.899L197.934 234.747C193.623 232.263 191.532 228.994 191.532 225.726V226.641C191.532 229.91 193.623 233.178 197.934 235.662L213.614 244.815C222.107 249.783 236.087 249.783 244.58 244.815L261.697 234.747C265.878 232.263 268.099 229.125 268.099 225.987C268.099 225.857 268.099 225.726 268.099 225.595V224.68Z" fill="#42E8E0"/>
<path opacity="0.4" d="M268.099 217.489V208.99L263.526 211.082C265.224 200.623 250.068 224.418 245.364 225.072L248.892 223.634L226.026 225.203L210.478 227.295L212.176 226.38C205.905 223.503 202.638 216.835 199.241 210.69L194.276 213.567L191.401 210.167V218.666C191.401 221.934 193.492 225.203 197.804 227.687L213.483 236.839C221.976 241.808 235.957 241.808 244.449 236.839L261.566 226.772C265.747 224.288 267.968 221.15 267.968 218.012C268.099 217.75 268.099 217.62 268.099 217.489Z" fill="#42E8E0"/>
<path d="M268.099 209.644V199.708L263.526 197.223C262.219 205.068 253.073 210.167 245.364 211.213L248.892 209.775L226.026 218.012L210.478 213.436L212.176 212.521C205.905 209.644 202.638 202.976 199.241 196.831L194.276 199.708L191.401 200.492V210.821C191.401 214.089 193.492 217.358 197.804 219.842L213.483 228.994C221.976 233.963 235.957 233.963 244.449 228.994L261.566 218.927C265.747 216.443 267.968 213.305 267.968 210.167C268.099 209.906 268.099 209.775 268.099 209.644Z" fill="url(#paint12_linear)"/>
<path d="M268.099 209.644V199.708L263.526 197.223C262.219 205.068 253.073 210.167 245.364 211.213L248.892 209.775L226.026 218.012L210.478 213.436L212.176 212.521C205.905 209.644 202.638 202.976 199.241 196.831L194.276 199.708L191.401 200.492V210.821C191.401 214.089 193.492 217.358 197.804 219.842L213.483 228.994C221.976 233.963 235.957 233.963 244.449 228.994L261.566 218.927C265.747 216.443 267.968 213.305 267.968 210.167C268.099 209.906 268.099 209.775 268.099 209.644Z" fill="url(#paint13_linear)"/>
<path opacity="0.3" d="M245.364 211.344L248.892 209.906L229.031 217.097V232.786C234.65 232.786 240.268 231.609 244.58 229.125L261.697 219.058C265.878 216.574 268.099 213.436 268.099 210.298C268.099 210.167 268.099 210.036 268.099 209.906V216.574V199.969L263.918 197.616H263.526C262.089 205.199 253.073 210.167 245.364 211.344Z" fill="#0F054C"/>
<path d="M213.615 218.796L197.936 209.644C189.443 204.676 189.443 196.7 197.936 191.732L215.052 181.665C223.545 176.696 237.526 176.696 246.019 181.665L261.698 190.817C270.191 195.785 270.191 203.761 261.698 208.729L244.581 218.796C236.088 223.765 222.108 223.765 213.615 218.796Z" fill="url(#paint14_linear)"/>
<path d="M229.162 220.104C224.197 220.104 219.232 219.058 215.443 216.835L201.593 208.729C197.934 206.637 195.844 203.761 195.844 200.623C195.844 197.485 197.934 194.739 201.593 192.516L216.619 183.626C224.197 179.311 236.479 179.311 244.057 183.626L257.907 191.732C261.566 193.824 263.656 196.7 263.656 199.838C263.656 202.845 261.566 205.722 257.907 207.944L242.881 216.835C239.092 218.927 234.127 220.104 229.162 220.104ZM215.704 216.443C223.152 220.757 235.303 220.757 242.751 216.443L257.777 207.552C261.305 205.46 263.265 202.715 263.265 199.838C263.265 196.962 261.305 194.216 257.777 192.124L243.927 184.018C236.479 179.703 224.328 179.703 216.88 184.018L201.854 192.909C198.326 195.001 196.366 197.746 196.366 200.623C196.366 203.499 198.326 206.245 201.854 208.337L215.704 216.443Z" fill="#5351AF"/>
<path d="M261.697 208.729L244.58 218.796C236.087 223.765 222.106 223.765 213.614 218.796L197.934 209.644C194.145 207.421 192.055 204.545 191.663 201.669C191.14 205.199 193.231 208.99 197.934 211.605L213.614 220.757C222.106 225.726 236.087 225.726 244.58 220.757L261.697 210.69C266.4 207.944 268.491 204.284 267.968 200.753C267.707 203.761 265.616 206.506 261.697 208.729Z" fill="white"/>
<path opacity="0.4" d="M210.608 218.535L212.046 218.404C211.784 218.273 211.654 218.143 211.523 218.143L210.608 218.535Z" fill="#42E8E0"/>
<path opacity="0.4" d="M246.409 215.92L245.364 216.312C245.756 216.312 246.017 216.181 246.409 215.92Z" fill="#42E8E0"/>
<path opacity="0.8" d="M268.099 208.729C268.099 208.86 268.099 208.99 268.099 209.121C267.968 212.259 265.878 215.528 261.697 217.881L244.58 227.948C236.087 232.917 222.107 232.917 213.614 227.948L197.934 218.796C193.623 216.312 191.532 213.043 191.532 209.775V210.69C191.532 213.959 193.623 217.227 197.934 219.711L213.614 228.864C222.107 233.832 236.087 233.832 244.58 228.864L261.697 218.796C265.878 216.312 268.099 213.174 268.099 210.036C268.099 209.906 268.099 209.775 268.099 209.644V208.729Z" fill="#42E8E0"/>
<path opacity="0.4" d="M268.099 201.538V193.039L263.526 195.131C265.224 184.672 250.068 208.467 245.364 209.121L248.892 207.683L226.026 209.252L210.478 211.344L212.176 210.429C205.905 207.552 202.638 200.884 199.241 194.739L194.276 197.616L191.401 194.216V202.715C191.401 205.983 193.492 209.252 197.804 211.736L213.483 220.888C221.976 225.857 235.957 225.857 244.449 220.888L261.566 210.821C265.747 208.337 267.968 205.199 267.968 202.061C268.099 201.93 268.099 201.799 268.099 201.538Z" fill="#42E8E0"/>
<path d="M268.099 193.824V183.887L263.526 181.403C262.219 189.248 253.073 194.347 245.364 195.393L248.892 193.955L226.026 202.192L210.478 197.616L212.176 196.7C205.905 193.824 202.638 187.156 199.241 181.011L194.276 183.887L191.401 184.672V195.001C191.401 198.269 193.492 201.538 197.804 204.022L213.483 213.174C221.976 218.143 235.957 218.143 244.449 213.174L261.566 203.107C265.747 200.623 267.968 197.485 267.968 194.347C268.099 194.085 268.099 193.955 268.099 193.824Z" fill="url(#paint15_linear)"/>
<path d="M268.099 193.824V183.887L263.526 181.403C262.219 189.248 253.073 194.347 245.364 195.393L248.892 193.955L226.026 202.192L210.478 197.616L212.176 196.7C205.905 193.824 202.638 187.156 199.241 181.011L194.276 183.887L191.401 184.672V195.001C191.401 198.269 193.492 201.538 197.804 204.022L213.483 213.174C221.976 218.143 235.957 218.143 244.449 213.174L261.566 203.107C265.747 200.623 267.968 197.485 267.968 194.347C268.099 194.085 268.099 193.955 268.099 193.824Z" fill="url(#paint16_linear)"/>
<path opacity="0.3" d="M245.364 195.393L248.892 193.955L229.031 201.146V216.835C234.65 216.835 240.268 215.658 244.58 213.174L261.697 203.107C265.878 200.623 268.099 197.485 268.099 194.347C268.099 194.216 268.099 194.085 268.099 193.955V200.623V184.018L263.918 181.665H263.526C262.089 189.248 253.073 194.347 245.364 195.393Z" fill="#0F054C"/>
<path d="M213.615 202.976L197.936 193.824C189.443 188.856 189.443 180.88 197.936 175.912L215.052 165.844C223.545 160.876 237.526 160.876 246.019 165.844L261.698 174.997C270.191 179.965 270.191 187.94 261.698 192.909L244.581 202.976C236.088 207.944 222.108 207.944 213.615 202.976Z" fill="url(#paint17_linear)"/>
<path d="M229.162 204.153C224.197 204.153 219.232 203.107 215.443 200.884L201.593 192.778C197.934 190.686 195.844 187.81 195.844 184.672C195.844 181.665 197.934 178.788 201.593 176.566L216.619 167.675C224.197 163.36 236.479 163.36 244.057 167.675L257.907 175.781C261.566 177.873 263.656 180.749 263.656 183.887C263.656 186.894 261.566 189.771 257.907 191.993L242.881 200.884C239.092 203.107 234.127 204.153 229.162 204.153ZM215.704 200.623C223.152 204.937 235.303 204.937 242.751 200.623L257.777 191.732C261.305 189.64 263.265 186.894 263.265 184.018C263.265 181.142 261.305 178.396 257.777 176.304L243.927 168.198C236.479 163.883 224.328 163.883 216.88 168.198L201.854 177.089C198.326 179.18 196.366 181.926 196.366 184.802C196.366 187.679 198.326 190.425 201.854 192.516L215.704 200.623Z" fill="#5351AF"/>
<path d="M261.697 192.909L244.58 202.976C236.087 207.944 222.106 207.944 213.614 202.976L197.934 193.824C194.145 191.601 192.055 188.725 191.663 185.848C191.14 189.379 193.231 193.17 197.934 195.785L213.614 204.937C222.106 209.906 236.087 209.906 244.58 204.937L261.697 194.87C266.4 192.124 268.491 188.463 267.968 184.933C267.707 187.81 265.616 190.686 261.697 192.909Z" fill="white"/>
<path opacity="0.4" d="M210.608 202.715L212.046 202.584C211.784 202.453 211.654 202.322 211.523 202.322L210.608 202.715Z" fill="#42E8E0"/>
<path opacity="0.4" d="M246.409 200.1L245.364 200.492C245.756 200.492 246.017 200.361 246.409 200.1Z" fill="#42E8E0"/>
<path opacity="0.8" d="M268.099 192.909C268.099 193.039 268.099 193.17 268.099 193.301C267.968 196.439 265.878 199.707 261.697 202.061L244.58 212.128C236.087 217.097 222.107 217.097 213.614 212.128L197.934 202.976C193.623 200.492 191.532 197.223 191.532 193.955V194.87C191.532 198.139 193.623 201.407 197.934 203.891L213.614 213.044C222.107 218.012 236.087 218.012 244.58 213.044L261.697 202.976C265.878 200.492 268.099 197.354 268.099 194.216C268.099 194.085 268.099 193.955 268.099 193.824V192.909Z" fill="#42E8E0"/>
<path opacity="0.4" d="M268.099 185.718V177.219L263.526 179.311C265.224 168.852 250.068 192.647 245.364 193.301L248.892 191.863L226.026 193.432L210.478 195.524L212.176 194.608C205.905 191.732 202.638 185.064 199.241 178.919L194.276 181.795L191.401 178.396V186.894C191.401 190.163 193.492 193.432 197.804 195.916L213.483 205.068C221.976 210.036 235.957 210.036 244.449 205.068L261.566 195.001C265.747 192.516 267.968 189.379 267.968 186.241C268.099 185.979 268.099 185.848 268.099 185.718Z" fill="#42E8E0"/>
<path d="M268.099 178.004V168.067L263.526 165.583C262.219 173.428 253.073 178.527 245.364 179.573L248.892 178.134L226.026 186.371L210.608 181.665L212.307 180.749C206.035 177.873 202.769 171.205 199.372 165.06L194.407 167.936L191.532 168.721V179.05C191.532 182.318 193.623 185.587 197.934 188.071L213.614 197.223C222.107 202.192 236.087 202.192 244.58 197.223L261.697 187.156C265.878 184.672 268.099 181.534 268.099 178.396C268.099 178.265 268.099 178.134 268.099 178.004Z" fill="url(#paint18_linear)"/>
<path d="M268.099 178.004V168.067L263.526 165.583C262.219 173.428 253.073 178.527 245.364 179.573L248.892 178.134L226.026 186.371L210.608 181.665L212.307 180.749C206.035 177.873 202.769 171.205 199.372 165.06L194.407 167.936L191.532 168.721V179.05C191.532 182.318 193.623 185.587 197.934 188.071L213.614 197.223C222.107 202.192 236.087 202.192 244.58 197.223L261.697 187.156C265.878 184.672 268.099 181.534 268.099 178.396C268.099 178.265 268.099 178.134 268.099 178.004Z" fill="url(#paint19_linear)"/>
<path opacity="0.3" d="M245.364 179.573L248.892 178.134L229.031 185.325V201.015C234.65 201.015 240.268 199.838 244.58 197.354L261.697 187.287C265.878 184.803 268.099 181.665 268.099 178.527C268.099 178.396 268.099 178.265 268.099 178.134V184.802V168.198L263.918 165.844H263.526C262.089 173.428 253.073 178.527 245.364 179.573Z" fill="#0F054C"/>
<path d="M213.615 187.156L197.936 178.004C189.443 173.035 189.443 165.06 197.936 160.092L215.052 150.024C223.545 145.056 237.526 145.056 246.019 150.024L261.698 159.176C270.191 164.145 270.191 172.12 261.698 177.089L244.581 187.156C236.088 192.124 222.108 192.124 213.615 187.156Z" fill="url(#paint20_linear)"/>
<path d="M229.162 188.333C224.197 188.333 219.232 187.287 215.443 185.064L201.593 176.958C197.934 174.866 195.844 171.989 195.844 168.852C195.844 165.844 197.934 162.968 201.593 160.745L216.619 151.855C224.197 147.54 236.479 147.54 244.057 151.855L257.907 159.961C261.566 162.053 263.657 164.929 263.657 168.067C263.657 171.074 261.566 173.951 257.907 176.173L242.881 185.064C239.092 187.287 234.127 188.333 229.162 188.333ZM215.704 184.672C223.152 188.986 235.303 188.986 242.751 184.672L257.777 175.781C261.305 173.689 263.265 170.943 263.265 168.067C263.265 165.191 261.305 162.445 257.777 160.353L243.927 152.247C236.479 147.932 224.328 147.932 216.88 152.247L201.854 161.138C198.326 163.23 196.366 165.975 196.366 168.852C196.366 171.728 198.326 174.474 201.854 176.566L215.704 184.672Z" fill="#5351AF"/>
<path d="M261.697 177.089L244.58 187.156C236.087 192.124 222.106 192.124 213.614 187.156L197.934 178.004C194.145 175.781 192.055 172.905 191.663 170.028C191.14 173.558 193.231 177.35 197.934 179.965L213.614 189.117C222.106 194.085 236.087 194.085 244.58 189.117L261.697 179.05C266.4 176.304 268.491 172.643 267.968 169.113C267.707 171.989 265.616 174.866 261.697 177.089Z" fill="white"/>
<path opacity="0.4" d="M210.608 186.764L212.046 186.633C211.784 186.502 211.654 186.371 211.523 186.371L210.608 186.764Z" fill="#42E8E0"/>
<path opacity="0.4" d="M246.409 184.28L245.364 184.672C245.756 184.672 246.017 184.541 246.409 184.28Z" fill="#42E8E0"/>
<path opacity="0.8" d="M268.099 177.089C268.099 177.219 268.099 177.35 268.099 177.481C267.968 180.619 265.878 183.887 261.697 186.241L244.58 196.308C236.087 201.276 222.107 201.276 213.614 196.308L197.934 187.156C193.623 184.672 191.532 181.403 191.532 178.134V179.05C191.532 182.318 193.623 185.587 197.934 188.071L213.614 197.223C222.107 202.192 236.087 202.192 244.58 197.223L261.697 187.156C265.878 184.672 268.099 181.534 268.099 178.396C268.099 178.265 268.099 178.134 268.099 178.004V177.089Z" fill="#42E8E0"/>
<path opacity="0.4" d="M268.099 169.898V161.399L263.526 163.491C265.224 153.031 250.068 176.827 245.364 177.481L248.892 176.043L226.026 177.611L210.478 179.703L212.176 178.788C205.905 175.912 202.638 169.244 199.241 163.099L194.276 165.975L191.401 162.576V171.074C191.401 174.343 193.492 177.611 197.804 180.096L213.483 189.248C221.976 194.216 235.957 194.216 244.449 189.248L261.566 179.18C265.747 176.696 267.968 173.558 267.968 170.42C268.099 170.159 268.099 170.028 268.099 169.898Z" fill="#42E8E0"/>
<path d="M268.099 162.053V152.116L263.526 149.632C262.219 157.477 253.073 162.576 245.364 163.622L248.892 162.184L226.026 170.421L210.478 165.844L212.176 164.929C205.905 162.053 202.638 155.385 199.241 149.24L194.276 152.116L191.401 152.901V163.23C191.401 166.498 193.492 169.767 197.804 172.251L213.483 181.403C221.976 186.371 235.957 186.371 244.449 181.403L261.566 171.336C265.747 168.852 267.968 165.714 267.968 162.576C268.099 162.445 268.099 162.184 268.099 162.053Z" fill="url(#paint21_linear)"/>
<path d="M268.099 162.053V152.116L263.526 149.632C262.219 157.477 253.073 162.576 245.364 163.622L248.892 162.184L226.026 170.421L210.478 165.844L212.176 164.929C205.905 162.053 202.638 155.385 199.241 149.24L194.276 152.116L191.401 152.901V163.23C191.401 166.498 193.492 169.767 197.804 172.251L213.483 181.403C221.976 186.371 235.957 186.371 244.449 181.403L261.566 171.336C265.747 168.852 267.968 165.714 267.968 162.576C268.099 162.445 268.099 162.184 268.099 162.053Z" fill="url(#paint22_linear)"/>
<path opacity="0.3" d="M245.364 163.752L248.892 162.314L229.031 169.505V185.195C234.65 185.195 240.268 184.018 244.58 181.534L261.697 171.466C265.878 168.982 268.099 165.844 268.099 162.707C268.099 162.576 268.099 162.445 268.099 162.314V168.982V152.378L263.918 150.024H263.526C262.089 157.607 253.073 162.707 245.364 163.752Z" fill="#0F054C"/>
<path d="M213.615 171.336L197.936 162.184C189.443 157.215 189.443 149.24 197.936 144.271L215.052 134.204C223.545 129.236 237.526 129.236 246.019 134.204L261.698 143.356C270.191 148.325 270.191 156.3 261.698 161.268L244.581 171.336C236.088 176.173 222.108 176.173 213.615 171.336Z" fill="url(#paint23_linear)"/>
<path d="M229.162 172.512C224.197 172.512 219.232 171.466 215.443 169.244L201.593 161.138C197.934 159.046 195.844 156.169 195.844 153.031C195.844 149.893 197.934 147.148 201.593 144.925L216.619 136.034C224.197 131.589 236.479 131.72 244.057 136.034L257.907 144.141C261.566 146.233 263.656 149.109 263.656 152.247C263.656 155.254 261.566 158.13 257.907 160.353L242.881 169.244C239.092 171.466 234.127 172.512 229.162 172.512ZM215.704 168.852C223.152 173.166 235.303 173.166 242.751 168.852L257.777 159.961C261.305 157.869 263.265 155.123 263.265 152.247C263.265 149.371 261.305 146.625 257.777 144.533L243.927 136.427C236.479 132.112 224.328 132.112 216.88 136.427L201.854 145.317C198.326 147.409 196.366 150.155 196.366 153.031C196.366 155.908 198.326 158.653 201.854 160.745L215.704 168.852Z" fill="#5351AF"/>
<path d="M261.697 161.138L244.58 171.205C236.087 176.173 222.106 176.173 213.614 171.205L197.934 162.053C194.145 159.83 192.055 156.954 191.663 154.077C191.14 157.607 193.231 161.399 197.934 164.014L213.614 173.166C222.106 178.134 236.087 178.134 244.58 173.166L261.697 163.099C266.4 160.353 268.491 156.692 267.968 153.162C267.707 156.169 265.616 159.046 261.697 161.138Z" fill="white"/>
<path opacity="0.4" d="M210.608 170.943L212.046 170.813C211.784 170.682 211.654 170.551 211.523 170.551L210.608 170.943Z" fill="#42E8E0"/>
<path opacity="0.4" d="M246.409 168.459L245.364 168.852C245.756 168.721 246.017 168.59 246.409 168.459Z" fill="#42E8E0"/>
<path opacity="0.8" d="M268.099 161.138C268.099 161.268 268.099 161.399 268.099 161.53C267.968 164.668 265.878 167.936 261.697 170.29L244.58 180.357C236.087 185.325 222.107 185.325 213.614 180.357L197.934 171.205C193.623 168.721 191.532 165.452 191.532 162.184V163.099C191.532 166.367 193.623 169.636 197.934 172.12L213.614 181.272C222.107 186.241 236.087 186.241 244.58 181.272L261.697 171.205C265.878 168.721 268.099 165.583 268.099 162.445C268.099 162.314 268.099 162.184 268.099 162.053V161.138Z" fill="#42E8E0"/>
<path opacity="0.4" d="M348.325 263.642V161.399L342.576 164.014C344.666 150.939 325.72 180.749 319.841 181.534L254.51 219.712L226.026 221.673L135.087 182.972L137.177 181.795C129.338 178.134 125.157 169.898 120.976 162.314L114.835 165.975L111.176 161.791V264.034C111.176 268.087 113.789 272.14 119.146 275.278L210.347 327.969C221.061 334.114 238.439 334.114 249.023 327.969L340.224 275.278C345.45 272.271 348.194 268.218 348.194 264.296C348.194 264.165 348.194 264.165 348.194 263.903L348.325 263.642Z" fill="#42E8E0"/>
<path opacity="0.4" d="M348.325 225.334C348.325 225.464 348.325 225.726 348.325 225.857C348.194 229.779 345.581 233.832 340.354 236.839L249.153 289.529C238.439 295.675 221.061 295.675 210.478 289.529L119.277 236.839C113.92 233.701 111.307 229.648 111.307 225.595V264.034C111.307 268.087 113.92 272.14 119.277 275.278L210.478 327.969C221.192 334.114 238.57 334.114 249.153 327.969L340.354 275.278C345.581 272.271 348.325 268.218 348.325 264.296C348.325 264.165 348.325 263.903 348.325 263.773V225.334Z" fill="#7BFFF5"/>
<path opacity="0.8" d="M348.325 225.203C348.325 225.334 348.325 225.595 348.325 225.726C348.194 229.648 345.581 233.701 340.354 236.708L249.153 289.399C238.439 295.544 221.061 295.544 210.478 289.399L119.277 236.708C113.92 233.57 111.307 229.517 111.307 225.464V227.687C111.307 231.74 113.92 235.793 119.277 238.931L210.478 291.621C221.192 297.766 238.57 297.766 249.153 291.621L340.354 238.931C345.581 235.924 348.325 231.871 348.325 227.948C348.325 227.818 348.325 227.556 348.325 227.425V225.203Z" fill="#7BFFF5"/>
<path d="M348.325 162.314V150.024L342.576 146.886C341.008 156.692 329.51 163.099 319.841 164.406L254.51 202.584L226.026 212.913L135.087 165.975L137.177 164.798C129.338 161.138 125.157 152.901 120.976 145.317L114.835 148.978L111.176 150.024V162.837C111.176 166.89 113.789 170.943 119.146 174.081L210.347 226.772C221.061 232.917 238.439 232.917 249.023 226.772L340.224 174.081C345.45 171.074 348.194 167.021 348.194 163.099C348.325 162.707 348.325 162.576 348.325 162.314Z" fill="url(#paint24_linear)"/>
<path d="M348.325 162.314V150.024L342.576 146.886C341.008 156.692 329.51 163.099 319.841 164.406L254.51 202.584L226.026 212.913L135.087 165.975L137.177 164.798C129.338 161.138 125.157 152.901 120.976 145.317L114.835 148.978L111.176 150.024V162.837C111.176 166.89 113.789 170.943 119.146 174.081L210.347 226.772C221.061 232.917 238.439 232.917 249.023 226.772L340.224 174.081C345.45 171.074 348.194 167.021 348.194 163.099C348.325 162.707 348.325 162.576 348.325 162.314Z" fill="url(#paint25_linear)"/>
<path opacity="0.3" d="M319.971 164.406L254.641 202.584L229.816 211.605V231.217C236.871 231.217 243.796 229.648 249.153 226.641L340.354 173.951C345.581 170.944 348.325 166.89 348.325 162.968C348.325 162.837 348.325 162.576 348.325 162.445V262.596V150.155L343.098 147.279H342.576C340.746 156.692 329.51 162.968 319.971 164.406Z" fill="#0F054C"/>
<path d="M170.496 154.47C171.019 153.947 171.672 153.554 172.325 153.162L219.755 125.706C225.243 122.437 234.389 122.437 239.877 125.706L287.306 153.162C287.96 153.554 288.613 153.947 289.136 154.47C292.794 151.332 292.141 146.886 287.306 144.141L239.877 116.684C234.389 113.416 225.243 113.416 219.755 116.684L172.325 144.141C167.491 147.017 166.837 151.332 170.496 154.47Z" fill="url(#paint26_radial)"/>
<path d="M340.355 138.78L249.154 86.2205C238.44 80.0755 221.062 80.0755 210.479 86.2205L119.278 138.911C108.564 145.056 108.564 155.123 119.278 161.268L210.479 213.959C221.193 220.104 238.571 220.104 249.154 213.959L340.355 161.268C351.07 154.993 351.07 145.056 340.355 138.78ZM287.307 155.777L239.878 183.234C234.39 186.502 225.244 186.502 219.756 183.234L172.326 155.777C166.838 152.508 166.838 147.409 172.326 144.141L219.756 116.684C225.244 113.416 234.39 113.416 239.878 116.684L287.307 144.141C292.795 147.409 292.795 152.639 287.307 155.777Z" fill="url(#paint27_linear)"/>
<path d="M330.163 139.826L247.455 91.9733C237.786 86.3513 221.976 86.3513 212.307 91.9733L129.468 139.826C119.8 145.448 119.8 154.47 129.468 160.092L212.176 207.944C221.845 213.567 237.655 213.567 247.324 207.944L330.032 160.092C339.832 154.6 339.832 145.448 330.163 139.826ZM300.242 157.084L242.098 190.686C235.303 194.608 224.197 194.608 217.403 190.686L159.259 157.084C152.465 153.162 152.465 146.756 159.259 142.833L217.403 109.232C224.197 105.309 235.303 105.309 242.098 109.232L300.242 142.833C307.036 146.756 307.036 153.162 300.242 157.084Z" fill="#251C72"/>
<path opacity="0.4" d="M330.163 139.826L247.455 91.9733C237.786 86.3513 221.976 86.3513 212.307 91.9733L129.468 139.826C119.8 145.448 119.8 154.47 129.468 160.092L212.176 207.944C221.845 213.567 237.655 213.567 247.324 207.944L330.032 160.092C339.832 154.6 339.832 145.448 330.163 139.826ZM300.242 157.084L242.098 190.686C235.303 194.608 224.197 194.608 217.403 190.686L159.259 157.084C152.465 153.162 152.465 146.756 159.259 142.833L217.403 109.232C224.197 105.309 235.303 105.309 242.098 109.232L300.242 142.833C307.036 146.756 307.036 153.162 300.242 157.084Z" fill="#42E8E0"/>
<path d="M340.354 161.138L249.153 213.828C238.439 219.973 221.061 219.973 210.478 213.828L119.277 161.138C114.442 158.392 111.829 154.862 111.307 151.201C110.653 155.646 113.267 160.222 119.277 163.622L210.478 216.312C221.192 222.457 238.57 222.457 249.153 216.312L340.354 163.622C346.234 160.222 348.847 155.646 348.325 151.201C347.802 154.862 345.058 158.392 340.354 161.138Z" fill="white"/>
<path d="M229.816 203.499C224.328 203.499 218.84 202.322 214.659 199.838L143.841 158.915C139.791 156.562 137.439 153.424 137.439 150.024C137.439 146.625 139.66 143.487 143.841 141.134L214.659 100.21C223.021 95.3727 236.61 95.3727 244.972 100.21L315.79 141.134C319.841 143.487 322.192 146.625 322.192 150.024C322.192 153.424 319.971 156.562 315.79 158.915L244.972 199.838C240.791 202.192 235.303 203.499 229.816 203.499ZM229.816 97.0724C224.459 97.0724 218.971 98.2491 214.92 100.602L144.102 141.526C140.183 143.748 137.961 146.756 137.961 150.024C137.961 153.162 140.183 156.169 144.102 158.523L214.92 199.446C223.152 204.153 236.479 204.153 244.711 199.446L315.529 158.523C319.449 156.3 321.67 153.293 321.67 150.024C321.67 146.886 319.449 143.879 315.529 141.526L244.711 100.602C240.66 98.2491 235.173 97.0724 229.816 97.0724Z" fill="#42E8E0"/>
<g opacity="0.4">
<path opacity="0.4" d="M219.755 183.234L172.325 155.777C166.837 152.508 166.837 147.409 172.325 144.141L219.755 116.684C225.242 113.416 234.389 113.416 239.876 116.684L287.306 144.141C292.794 147.409 292.794 152.508 287.306 155.777L239.876 183.234C234.389 186.371 225.242 186.371 219.755 183.234Z" fill="#42E8E0"/>
</g>
<path opacity="0.6" d="M268.099 221.019C268.099 221.15 268.099 221.28 268.099 221.411C267.969 224.549 265.878 227.818 261.697 230.171L244.58 240.239C236.087 245.207 222.107 245.207 213.614 240.239L197.935 231.086C193.623 228.602 191.532 225.334 191.532 222.065V225.595V225.726V226.51V232.132V234.355V241.546V241.677V242.461V250.306C191.532 253.575 193.623 256.843 197.935 259.327L213.614 268.48C222.107 273.448 236.087 273.448 244.58 268.48L261.697 258.412C265.878 255.928 268.099 252.79 268.099 249.652C268.099 249.521 268.099 249.391 268.099 249.26V248.214V241.546V240.5V233.309V232.263V231.609V225.595V224.68V221.019Z" fill="#7BFFF5"/>
<path opacity="0.5" d="M291.487 30.7845H168.144V150.024C168.144 152.116 169.581 154.208 172.325 155.777L219.755 183.234C225.243 186.502 234.389 186.502 239.877 183.234L287.306 155.777C290.05 154.208 291.487 152.116 291.487 150.024V30.7845Z" fill="url(#paint28_linear)"/>
<path d="M232.402 103C227.066 103 223.177 101.739 220.734 99.1373C218.292 96.5354 217.11 93.8128 217.11 90.8085C217.11 89.7489 217.31 88.8101 217.774 88.0724C218.172 87.3348 218.756 86.7446 219.486 86.3423C220.217 85.9399 221.132 85.6717 222.194 85.6717C223.256 85.6717 224.172 85.8729 224.902 86.3423C225.632 86.7446 226.217 87.3348 226.615 88.0724C227.013 88.8101 227.278 89.7355 227.278 90.8085C227.278 92.1363 226.947 93.2092 226.349 94.0005C225.752 94.8053 224.969 95.3954 224.106 95.6636C224.836 96.6561 226.017 97.3938 227.597 97.8632C229.177 98.3326 230.756 98.5338 232.349 98.5338C234.593 98.5338 236.57 97.9303 238.349 96.7366C240.128 95.5429 241.442 93.7457 242.305 91.412C243.168 89.0783 243.553 86.4227 243.553 83.4185C243.553 80.1593 243.088 77.4233 242.172 75.1566C241.243 72.823 239.929 71.0928 238.15 70.0333C236.371 68.9067 234.46 68.3702 232.349 68.3702C230.969 68.3702 229.323 68.9737 227.278 70.1003L223.562 71.8975V70.0333L240.367 47.3938H217.11V70.905C217.11 72.8364 217.509 74.4324 218.358 75.7065C219.221 76.9673 220.535 77.5708 222.248 77.5708C223.628 77.5708 224.889 77.1014 226.137 76.176C227.385 75.2371 228.447 74.1105 229.362 72.8498C229.495 72.5815 229.628 72.3804 229.761 72.3133C229.96 72.1792 230.093 72.1121 230.292 72.1121C230.624 72.1121 230.955 72.2462 231.407 72.5815C231.805 73.051 232.004 73.574 232.004 74.1776C232.004 74.4458 231.871 74.8482 231.805 75.3712C230.876 77.5708 229.562 79.2339 227.849 80.3605C226.137 81.4871 224.292 82.0907 222.248 82.0907C217.177 82.0907 213.739 81.0982 211.761 79.0998C209.849 77.1014 208.867 74.3653 208.867 70.9721V47.3938H197V42.9946H208.934V33.0027L206.226 30.2666V28H214.137L217.097 29.529V42.9276L247.88 42.8605L250.907 45.9185L232.07 65.044C233.185 64.5746 234.38 64.3063 235.628 64.1722C237.672 64.1722 239.982 64.8428 242.477 66.1706C245.053 67.4313 247.03 69.2285 248.411 71.4952C249.791 73.7618 250.721 75.8943 251.119 77.9598C251.517 80.0252 251.783 81.8224 251.783 83.4855C251.783 87.147 250.986 90.5402 249.473 93.6786C247.96 96.8036 245.65 99.2044 242.491 100.733C239.385 102.262 236.026 103 232.402 103Z" fill="url(#paint29_linear)"/>
<path d="M260.651 215.658L248.369 222.849C247.977 223.111 247.716 222.849 247.716 222.326C247.716 221.803 247.977 221.28 248.369 221.019L260.651 213.828C261.043 213.566 261.305 213.828 261.305 214.351C261.305 214.874 260.913 215.528 260.651 215.658Z" fill="#42E8E0"/>
<path d="M286 201.015L273.718 208.206C273.326 208.467 273.064 208.206 273.064 207.683C273.064 207.16 273.326 206.637 273.718 206.375L286 199.184C286.392 198.923 286.653 199.184 286.653 199.707C286.653 200.23 286.392 200.753 286 201.015Z" fill="#42E8E0"/>
<path d="M311.478 186.371L299.196 193.562C298.804 193.824 298.543 193.562 298.543 193.039C298.543 192.516 298.804 191.993 299.196 191.732L311.478 184.541C311.87 184.279 312.132 184.541 312.132 185.064C312.132 185.587 311.87 186.11 311.478 186.371Z" fill="#42E8E0"/>
<path d="M336.826 171.597L324.544 178.788C324.152 179.05 323.891 178.788 323.891 178.265C323.891 177.742 324.152 177.219 324.544 176.958L336.826 169.767C337.218 169.505 337.48 169.767 337.48 170.29C337.48 170.813 337.218 171.466 336.826 171.597Z" fill="#42E8E0"/>
<path d="M260.651 327.446L248.369 334.637C247.977 334.898 247.716 334.637 247.716 334.114C247.716 333.591 247.977 333.068 248.369 332.806L260.651 325.615C261.043 325.354 261.305 325.615 261.305 326.138C261.305 326.661 260.913 327.184 260.651 327.446Z" fill="#42E8E0"/>
<path d="M286 312.671L273.718 319.862C273.326 320.124 273.064 319.862 273.064 319.339C273.064 318.816 273.326 318.293 273.718 318.032L286 310.841C286.392 310.579 286.653 310.841 286.653 311.364C286.653 312.018 286.392 312.541 286 312.671Z" fill="#42E8E0"/>
<path d="M311.478 298.028L299.196 305.219C298.804 305.48 298.543 305.219 298.543 304.696C298.543 304.173 298.804 303.65 299.196 303.389L311.478 296.198C311.87 295.936 312.132 296.198 312.132 296.72C312.132 297.243 311.87 297.897 311.478 298.028Z" fill="#42E8E0"/>
<path d="M336.826 283.384L324.544 290.575C324.152 290.837 323.891 290.575 323.891 290.052C323.891 289.529 324.152 289.007 324.544 288.745L336.826 281.554C337.218 281.293 337.48 281.554 337.48 282.077C337.48 282.6 337.218 283.123 336.826 283.384Z" fill="#42E8E0"/>
<path d="M198.718 215.658L211.001 222.849C211.393 223.111 211.654 222.849 211.654 222.326C211.654 221.803 211.393 221.28 211.001 221.019L198.718 213.828C198.327 213.566 198.065 213.828 198.065 214.351C198.065 214.874 198.327 215.528 198.718 215.658Z" fill="#42E8E0"/>
<path d="M173.24 201.015L185.522 208.206C185.914 208.467 186.175 208.206 186.175 207.683C186.175 207.16 185.914 206.637 185.522 206.375L173.24 199.184C172.848 198.923 172.586 199.184 172.586 199.707C172.586 200.23 172.848 200.753 173.24 201.015Z" fill="#42E8E0"/>
<path d="M147.761 186.371L160.043 193.562C160.435 193.824 160.696 193.562 160.696 193.039C160.696 192.516 160.435 191.993 160.043 191.732L147.761 184.541C147.369 184.279 147.108 184.541 147.108 185.064C147.108 185.587 147.5 186.11 147.761 186.371Z" fill="#42E8E0"/>
<path d="M122.413 171.597L134.695 178.788C135.087 179.05 135.348 178.788 135.348 178.265C135.348 177.742 135.087 177.219 134.695 176.958L122.413 169.767C122.021 169.505 121.76 169.767 121.76 170.29C121.76 170.813 122.021 171.466 122.413 171.597Z" fill="#42E8E0"/>
<path d="M198.718 327.446L211.001 334.637C211.393 334.898 211.654 334.637 211.654 334.114C211.654 333.591 211.393 333.068 211.001 332.806L198.718 325.615C198.327 325.354 198.065 325.615 198.065 326.138C198.065 326.661 198.327 327.184 198.718 327.446Z" fill="#42E8E0"/>
<path d="M173.24 312.671L185.522 319.862C185.914 320.124 186.175 319.862 186.175 319.339C186.175 318.816 185.914 318.293 185.522 318.032L173.24 310.841C172.848 310.579 172.586 310.841 172.586 311.364C172.586 312.018 172.848 312.541 173.24 312.671Z" fill="#42E8E0"/>
<path d="M147.761 298.028L160.043 305.219C160.435 305.48 160.696 305.219 160.696 304.696C160.696 304.173 160.435 303.65 160.043 303.389L147.761 296.198C147.369 295.936 147.108 296.198 147.108 296.72C147.108 297.243 147.5 297.897 147.761 298.028Z" fill="#42E8E0"/>
<path d="M122.413 283.384L134.695 290.575C135.087 290.837 135.348 290.575 135.348 290.052C135.348 289.529 135.087 289.007 134.695 288.745L122.413 281.554C122.021 281.293 121.76 281.554 121.76 282.077C121.76 282.6 122.021 283.123 122.413 283.384Z" fill="#42E8E0"/>
<defs>
<radialGradient id="paint0_radial" cx="0" cy="0" r="1" gradientUnits="userSpaceOnUse" gradientTransform="translate(238.218 238.218) rotate(-15.3968) scale(237.713)">
<stop stop-color="#42E8E0"/>
<stop offset="0.473958" stop-color="#3AC4C9" stop-opacity="0.29"/>
<stop offset="1" stop-color="#2F92A8" stop-opacity="0"/>
</radialGradient>
<linearGradient id="paint1_linear" x1="136.675" y1="217.228" x2="321.21" y2="323.701" gradientUnits="userSpaceOnUse">
<stop stop-color="#BCBEFF"/>
<stop offset="0.2271" stop-color="#AAADF8"/>
<stop offset="0.6802" stop-color="#7C83E5"/>
<stop offset="1" stop-color="#5761D7"/>
</linearGradient>
<linearGradient id="paint2_linear" x1="136.675" y1="217.228" x2="321.21" y2="323.701" gradientUnits="userSpaceOnUse">
<stop stop-color="#706EC4"/>
<stop offset="0.0222208" stop-color="#6D6BC2"/>
<stop offset="0.2509" stop-color="#5651AC"/>
<stop offset="0.4865" stop-color="#463F9D"/>
<stop offset="0.7314" stop-color="#3C3494"/>
<stop offset="1" stop-color="#393091"/>
</linearGradient>
<linearGradient id="paint3_linear" x1="111.286" y1="261.431" x2="348.345" y2="261.431" gradientUnits="userSpaceOnUse">
<stop stop-color="#E9E9FD"/>
<stop offset="0.3601" stop-color="#D3D2F9"/>
<stop offset="0.7062" stop-color="#C5C4F7"/>
<stop offset="1" stop-color="#C0BFF6"/>
</linearGradient>
<radialGradient id="paint4_radial" cx="0" cy="0" r="1" gradientUnits="userSpaceOnUse" gradientTransform="translate(228.792 303.488) scale(107.919 107.989)">
<stop stop-color="#42E8E0"/>
<stop offset="0.0795527" stop-color="#3AC4C9"/>
<stop offset="0.2064" stop-color="#2F92A8"/>
<stop offset="0.3361" stop-color="#25678C"/>
<stop offset="0.4662" stop-color="#1D4375"/>
<stop offset="0.597" stop-color="#172863"/>
<stop offset="0.7289" stop-color="#121556"/>
<stop offset="0.8623" stop-color="#10094F"/>
<stop offset="1" stop-color="#0F054C"/>
</radialGradient>
<radialGradient id="paint5_radial" cx="0" cy="0" r="1" gradientUnits="userSpaceOnUse" gradientTransform="translate(228.792 269.582) scale(107.533 107.603)">
<stop stop-color="#42E8E0"/>
<stop offset="0.0795527" stop-color="#3AC4C9"/>
<stop offset="0.2064" stop-color="#2F92A8"/>
<stop offset="0.3361" stop-color="#25678C"/>
<stop offset="0.4662" stop-color="#1D4375"/>
<stop offset="0.597" stop-color="#172863"/>
<stop offset="0.7289" stop-color="#121556"/>
<stop offset="0.8623" stop-color="#10094F"/>
<stop offset="1" stop-color="#0F054C"/>
</radialGradient>
<linearGradient id="paint6_linear" x1="197.845" y1="221.247" x2="260.314" y2="257.29" gradientUnits="userSpaceOnUse">
<stop stop-color="#BCBEFF"/>
<stop offset="0.2271" stop-color="#AAADF8"/>
<stop offset="0.6802" stop-color="#7C83E5"/>
<stop offset="1" stop-color="#5761D7"/>
</linearGradient>
<linearGradient id="paint7_linear" x1="197.845" y1="221.247" x2="260.314" y2="257.29" gradientUnits="userSpaceOnUse">
<stop stop-color="#706EC4"/>
<stop offset="0.0222208" stop-color="#6D6BC2"/>
<stop offset="0.2509" stop-color="#5651AC"/>
<stop offset="0.4865" stop-color="#463F9D"/>
<stop offset="0.7314" stop-color="#3C3494"/>
<stop offset="1" stop-color="#393091"/>
</linearGradient>
<linearGradient id="paint8_linear" x1="191.486" y1="231.969" x2="268.146" y2="231.969" gradientUnits="userSpaceOnUse">
<stop stop-color="#E9E9FD"/>
<stop offset="0.3601" stop-color="#D3D2F9"/>
<stop offset="0.7062" stop-color="#C5C4F7"/>
<stop offset="1" stop-color="#C0BFF6"/>
</linearGradient>
<linearGradient id="paint9_linear" x1="197.845" y1="205.393" x2="260.314" y2="241.436" gradientUnits="userSpaceOnUse">
<stop stop-color="#BCBEFF"/>
<stop offset="0.2271" stop-color="#AAADF8"/>
<stop offset="0.6802" stop-color="#7C83E5"/>
<stop offset="1" stop-color="#5761D7"/>
</linearGradient>
<linearGradient id="paint10_linear" x1="197.845" y1="205.393" x2="260.314" y2="241.436" gradientUnits="userSpaceOnUse">
<stop stop-color="#706EC4"/>
<stop offset="0.0222208" stop-color="#6D6BC2"/>
<stop offset="0.2509" stop-color="#5651AC"/>
<stop offset="0.4865" stop-color="#463F9D"/>
<stop offset="0.7314" stop-color="#3C3494"/>
<stop offset="1" stop-color="#393091"/>
</linearGradient>
<linearGradient id="paint11_linear" x1="191.486" y1="216.114" x2="268.146" y2="216.114" gradientUnits="userSpaceOnUse">
<stop stop-color="#E9E9FD"/>
<stop offset="0.3601" stop-color="#D3D2F9"/>
<stop offset="0.7062" stop-color="#C5C4F7"/>
<stop offset="1" stop-color="#C0BFF6"/>
</linearGradient>
<linearGradient id="paint12_linear" x1="197.845" y1="189.538" x2="260.314" y2="225.581" gradientUnits="userSpaceOnUse">
<stop stop-color="#BCBEFF"/>
<stop offset="0.2271" stop-color="#AAADF8"/>
<stop offset="0.6802" stop-color="#7C83E5"/>
<stop offset="1" stop-color="#5761D7"/>
</linearGradient>
<linearGradient id="paint13_linear" x1="197.845" y1="189.538" x2="260.314" y2="225.581" gradientUnits="userSpaceOnUse">
<stop stop-color="#706EC4"/>
<stop offset="0.0222208" stop-color="#6D6BC2"/>
<stop offset="0.2509" stop-color="#5651AC"/>
<stop offset="0.4865" stop-color="#463F9D"/>
<stop offset="0.7314" stop-color="#3C3494"/>
<stop offset="1" stop-color="#393091"/>
</linearGradient>
<linearGradient id="paint14_linear" x1="191.486" y1="200.259" x2="268.146" y2="200.259" gradientUnits="userSpaceOnUse">
<stop stop-color="#E9E9FD"/>
<stop offset="0.3601" stop-color="#D3D2F9"/>
<stop offset="0.7062" stop-color="#C5C4F7"/>
<stop offset="1" stop-color="#C0BFF6"/>
</linearGradient>
<linearGradient id="paint15_linear" x1="197.845" y1="173.682" x2="260.314" y2="209.725" gradientUnits="userSpaceOnUse">
<stop stop-color="#BCBEFF"/>
<stop offset="0.2271" stop-color="#AAADF8"/>
<stop offset="0.6802" stop-color="#7C83E5"/>
<stop offset="1" stop-color="#5761D7"/>
</linearGradient>
<linearGradient id="paint16_linear" x1="197.845" y1="173.682" x2="260.314" y2="209.725" gradientUnits="userSpaceOnUse">
<stop stop-color="#706EC4"/>
<stop offset="0.0222208" stop-color="#6D6BC2"/>
<stop offset="0.2509" stop-color="#5651AC"/>
<stop offset="0.4865" stop-color="#463F9D"/>
<stop offset="0.7314" stop-color="#3C3494"/>
<stop offset="1" stop-color="#393091"/>
</linearGradient>
<linearGradient id="paint17_linear" x1="191.486" y1="184.404" x2="268.146" y2="184.404" gradientUnits="userSpaceOnUse">
<stop stop-color="#E9E9FD"/>
<stop offset="0.3601" stop-color="#D3D2F9"/>
<stop offset="0.7062" stop-color="#C5C4F7"/>
<stop offset="1" stop-color="#C0BFF6"/>
</linearGradient>
<linearGradient id="paint18_linear" x1="197.845" y1="157.828" x2="260.313" y2="193.871" gradientUnits="userSpaceOnUse">
<stop stop-color="#BCBEFF"/>
<stop offset="0.2271" stop-color="#AAADF8"/>
<stop offset="0.6802" stop-color="#7C83E5"/>
<stop offset="1" stop-color="#5761D7"/>
</linearGradient>
<linearGradient id="paint19_linear" x1="197.845" y1="157.828" x2="260.313" y2="193.871" gradientUnits="userSpaceOnUse">
<stop stop-color="#706EC4"/>
<stop offset="0.0222208" stop-color="#6D6BC2"/>
<stop offset="0.2509" stop-color="#5651AC"/>
<stop offset="0.4865" stop-color="#463F9D"/>
<stop offset="0.7314" stop-color="#3C3494"/>
<stop offset="1" stop-color="#393091"/>
</linearGradient>
<linearGradient id="paint20_linear" x1="191.486" y1="168.549" x2="268.146" y2="168.549" gradientUnits="userSpaceOnUse">
<stop stop-color="#E9E9FD"/>
<stop offset="0.3601" stop-color="#D3D2F9"/>
<stop offset="0.7062" stop-color="#C5C4F7"/>
<stop offset="1" stop-color="#C0BFF6"/>
</linearGradient>
<linearGradient id="paint21_linear" x1="197.845" y1="141.973" x2="260.314" y2="178.015" gradientUnits="userSpaceOnUse">
<stop stop-color="#BCBEFF"/>
<stop offset="0.2271" stop-color="#AAADF8"/>
<stop offset="0.6802" stop-color="#7C83E5"/>
<stop offset="1" stop-color="#5761D7"/>
</linearGradient>
<linearGradient id="paint22_linear" x1="197.845" y1="141.973" x2="260.314" y2="178.015" gradientUnits="userSpaceOnUse">
<stop stop-color="#706EC4"/>
<stop offset="0.0222208" stop-color="#6D6BC2"/>
<stop offset="0.2509" stop-color="#5651AC"/>
<stop offset="0.4865" stop-color="#463F9D"/>
<stop offset="0.7314" stop-color="#3C3494"/>
<stop offset="1" stop-color="#393091"/>
</linearGradient>
<linearGradient id="paint23_linear" x1="191.486" y1="152.694" x2="268.146" y2="152.694" gradientUnits="userSpaceOnUse">
<stop stop-color="#E9E9FD"/>
<stop offset="0.3601" stop-color="#D3D2F9"/>
<stop offset="0.7062" stop-color="#C5C4F7"/>
<stop offset="1" stop-color="#C0BFF6"/>
</linearGradient>
<linearGradient id="paint24_linear" x1="136.675" y1="105.811" x2="321.21" y2="212.284" gradientUnits="userSpaceOnUse">
<stop stop-color="#BCBEFF"/>
<stop offset="0.2271" stop-color="#AAADF8"/>
<stop offset="0.6802" stop-color="#7C83E5"/>
<stop offset="1" stop-color="#5761D7"/>
</linearGradient>
<linearGradient id="paint25_linear" x1="136.675" y1="105.811" x2="321.21" y2="212.284" gradientUnits="userSpaceOnUse">
<stop stop-color="#706EC4"/>
<stop offset="0.0222208" stop-color="#6D6BC2"/>
<stop offset="0.2509" stop-color="#5651AC"/>
<stop offset="0.4865" stop-color="#463F9D"/>
<stop offset="0.7314" stop-color="#3C3494"/>
<stop offset="1" stop-color="#393091"/>
</linearGradient>
<radialGradient id="paint26_radial" cx="0" cy="0" r="1" gradientUnits="userSpaceOnUse" gradientTransform="translate(228.792 158.165) scale(107.533 107.603)">
<stop stop-color="#42E8E0"/>
<stop offset="0.0795527" stop-color="#3AC4C9"/>
<stop offset="0.2064" stop-color="#2F92A8"/>
<stop offset="0.3361" stop-color="#25678C"/>
<stop offset="0.4662" stop-color="#1D4375"/>
<stop offset="0.597" stop-color="#172863"/>
<stop offset="0.7289" stop-color="#121556"/>
<stop offset="0.8623" stop-color="#10094F"/>
<stop offset="1" stop-color="#0F054C"/>
</radialGradient>
<linearGradient id="paint27_linear" x1="111.286" y1="150.014" x2="348.345" y2="150.014" gradientUnits="userSpaceOnUse">
<stop stop-color="#E9E9FD"/>
<stop offset="0.3601" stop-color="#D3D2F9"/>
<stop offset="0.7062" stop-color="#C5C4F7"/>
<stop offset="1" stop-color="#C0BFF6"/>
</linearGradient>
<linearGradient id="paint28_linear" x1="229.815" y1="185.63" x2="229.815" y2="30.7398" gradientUnits="userSpaceOnUse">
<stop stop-color="#42E8E0"/>
<stop offset="0.53125" stop-color="#38BCC3" stop-opacity="0.51"/>
<stop offset="1" stop-color="#225A84" stop-opacity="0"/>
</linearGradient>
<linearGradient id="paint29_linear" x1="224.391" y1="102.973" x2="224.391" y2="27.9784" gradientUnits="userSpaceOnUse">
<stop stop-color="#42E8E0"/>
<stop offset="0.53125" stop-color="#38BCC3" stop-opacity="0.51"/>
<stop offset="1" stop-color="#225A84" stop-opacity="0"/>
</linearGradient>
</defs>
</svg>
