<svg width="477" height="477" viewBox="0 0 477 477" fill="none" xmlns="http://www.w3.org/2000/svg">
<path opacity="0.3" d="M238.205 476.001C369.536 476.001 476.001 369.536 476.001 238.205C476.001 106.874 369.536 0.409668 238.205 0.409668C106.874 0.409668 0.409668 106.874 0.409668 238.205C0.409668 369.536 106.874 476.001 238.205 476.001Z" fill="url(#paint0_radial)"/>
<path d="M298.081 72.9289H297.559V127.057L253.265 171.38V230.739H253.787V171.642L298.081 127.319V72.9289Z" fill="#42E8E0"/>
<path d="M334.797 72.9289H334.144V94.2404L314.675 113.721V134.641L262.672 186.677V230.739H263.326V186.939L315.329 134.902V113.983L334.797 94.5019V72.9289Z" fill="#42E8E0"/>
<path d="M260.843 65.2149H260.19V110.191L238.239 132.287V230.739H238.761V132.549L260.843 110.453V65.2149Z" fill="#42E8E0"/>
<path d="M361.974 110.191L275.346 196.875V230.739H275.999V197.137L362.497 110.584L361.974 110.191Z" fill="#42E8E0"/>
<path d="M358.185 131.372L328.133 161.443H310.886V162.097H328.394L328.525 161.966L358.577 131.764L358.185 131.372Z" fill="#42E8E0"/>
<path d="M354.527 202.236H298.473L298.343 202.367L286.714 214.003V230.739H287.237V214.265L298.735 202.89H354.527V202.236Z" fill="#42E8E0"/>
<path d="M312.454 202.367L312.062 202.89L322.515 213.349H347.602V212.827H322.776L312.454 202.367Z" fill="#42E8E0"/>
<path d="M374.126 185.893H348.124L337.802 196.222H308.665L302.524 202.367L302.916 202.759L308.926 196.745H338.063H338.194L348.385 186.416H374.126V185.893Z" fill="#42E8E0"/>
<path d="M356.617 202.628C356.617 201.452 355.703 200.536 354.527 200.536C353.351 200.536 352.436 201.452 352.436 202.628C352.436 203.805 353.351 204.72 354.527 204.72C355.703 204.72 356.617 203.805 356.617 202.628Z" fill="#42E8E0"/>
<path d="M376.739 186.154C376.739 184.978 375.824 184.062 374.648 184.062C373.472 184.062 372.558 184.978 372.558 186.154C372.558 187.331 373.472 188.246 374.648 188.246C375.824 188.246 376.739 187.331 376.739 186.154Z" fill="#42E8E0"/>
<path d="M349.692 213.088C349.692 211.911 348.778 210.996 347.602 210.996C346.426 210.996 345.511 211.911 345.511 213.088C345.511 214.265 346.426 215.18 347.602 215.18C348.778 215.18 349.692 214.265 349.692 213.088Z" fill="#42E8E0"/>
<path d="M321.731 177.787C321.731 176.61 320.816 175.695 319.64 175.695C318.464 175.695 317.55 176.61 317.55 177.787C317.55 178.963 318.464 179.879 319.64 179.879C320.816 179.879 321.731 178.963 321.731 177.787Z" fill="#42E8E0"/>
<path d="M360.537 131.634C360.537 130.457 359.622 129.542 358.446 129.542C357.27 129.542 356.356 130.457 356.356 131.634C356.356 132.81 357.27 133.726 358.446 133.726C359.622 133.726 360.537 132.81 360.537 131.634Z" fill="#42E8E0"/>
<path d="M364.326 110.453C364.326 109.276 363.412 108.361 362.236 108.361C361.06 108.361 360.145 109.276 360.145 110.453C360.145 111.63 361.06 112.545 362.236 112.545C363.412 112.545 364.326 111.499 364.326 110.453Z" fill="#42E8E0"/>
<path d="M336.626 72.9289C336.626 71.7522 335.711 70.837 334.535 70.837C333.359 70.837 332.445 71.7522 332.445 72.9289C332.445 74.1056 333.359 75.0208 334.535 75.0208C335.581 74.8901 336.626 73.9749 336.626 72.9289Z" fill="#42E8E0"/>
<path d="M299.91 72.9289C299.91 71.7522 298.996 70.837 297.82 70.837C296.644 70.837 295.729 71.7522 295.729 72.9289C295.729 74.1056 296.644 75.0208 297.82 75.0208C298.996 75.0208 299.91 73.9749 299.91 72.9289Z" fill="#42E8E0"/>
<path d="M262.672 65.2149C262.672 64.0382 261.758 63.123 260.582 63.123C259.406 63.123 258.491 64.0382 258.491 65.2149C258.491 66.3916 259.406 67.3068 260.582 67.3068C261.758 67.3068 262.672 66.3916 262.672 65.2149Z" fill="#42E8E0"/>
<path d="M319.64 178.048H294.945V177.394H319.64V178.048Z" fill="#42E8E0"/>
<path d="M266.762 350.973L266.354 350.769L150.929 320.738L235.097 235.344L235.505 235.548L351.135 265.579L266.762 350.973ZM153.993 319.921L266.354 349.135L347.866 266.397L235.505 237.183L153.993 319.921Z" fill="#42E8E0"/>
<path d="M223.044 194.895L204.044 125.844L205.679 125.435L224.678 194.486L223.044 194.895Z" fill="#42E8E0"/>
<path d="M235.914 238.817L168.089 221.044L186.68 288.664L254.709 306.438L303.943 256.386L285.353 188.766L235.914 238.817Z" fill="#42E8E0"/>
<path d="M303.943 256.386L254.709 306.438L235.914 238.817L285.353 188.766L303.943 256.386Z" fill="#2FD3C7"/>
<path d="M235.914 238.817L168.089 221.044L217.324 170.992L285.353 188.766L235.914 238.817Z" fill="#42E8E0"/>
<path d="M235.914 238.817L168.089 221.044L168.906 223.904L236.731 241.677L286.17 191.626L285.353 188.766L235.914 238.817Z" fill="white"/>
<path d="M236.323 240.247L235.914 240.043L120.285 210.012L204.453 124.618L204.862 124.822L320.491 154.853L236.323 240.247ZM123.554 209.195L235.914 238.409L317.427 155.67L205.066 126.457L123.554 209.195Z" fill="#42E8E0"/>
<path d="M348.683 266.192L318.244 155.466L319.878 155.058L350.318 265.784L348.683 266.192Z" fill="#42E8E0"/>
<path d="M151.542 320.534L121.102 209.808L122.736 209.399L153.176 320.125L151.542 320.534Z" fill="#42E8E0"/>
<path d="M265.945 350.156L235.301 239.634L236.936 239.226L267.375 349.748L265.945 350.156Z" fill="#42E8E0"/>
<path d="M214.89 220.439C211.902 219.68 210.236 218.616 209.924 217.214C209.611 215.812 210.054 214.54 211.272 213.322C211.701 212.893 212.193 212.54 212.752 212.307C213.274 212.065 213.841 211.909 214.412 211.849C214.984 211.79 215.606 211.812 216.2 211.963C216.795 212.114 217.226 212.325 217.444 212.619C217.69 212.886 217.778 213.209 217.701 213.564C217.625 213.92 217.399 214.333 216.964 214.768C216.425 215.306 215.805 215.694 215.149 215.93C214.489 216.171 213.811 216.299 213.219 216.285C213.226 216.791 213.588 217.258 214.282 217.673C214.976 218.088 215.779 218.394 216.67 218.621C217.926 218.94 219.278 218.976 220.758 218.745C222.238 218.514 223.702 217.972 225.131 217.149C226.56 216.325 227.852 215.304 229.07 214.086C230.391 212.764 231.241 211.589 231.647 210.54C232.073 209.462 232.038 208.574 231.472 207.891C230.933 207.181 230.081 206.692 228.899 206.392C228.126 206.196 226.96 206.207 225.359 206.373L222.55 206.573L223.305 205.817L241.891 199.028L228.872 195.722L219.341 205.253C218.558 206.036 218.133 206.74 218.093 207.377C218.064 208.011 218.555 208.442 219.514 208.686C220.287 208.882 221.183 208.871 222.257 208.673C223.336 208.47 224.387 208.164 225.411 207.784C225.594 207.694 225.75 207.631 225.851 207.623C226.017 207.597 226.119 207.588 226.23 207.617C226.416 207.664 226.547 207.765 226.664 207.965C226.697 208.212 226.596 208.453 226.351 208.697C226.243 208.806 226.005 208.95 225.756 209.153C224.344 209.913 222.934 210.4 221.519 210.613C220.104 210.827 218.826 210.809 217.682 210.518C214.843 209.797 213.321 208.906 213.024 207.815C212.764 206.733 213.323 205.484 214.699 204.108L224.258 194.55L217.614 192.862L219.398 191.079L226.078 192.776L230.129 188.725L229.722 187.231L230.641 186.312L235.07 187.436L236.107 188.477L230.675 193.909L247.935 198.258L248.39 199.928L230.091 205.004C230.906 204.972 231.684 205.033 232.436 205.156C233.581 205.447 234.602 206.047 235.461 206.94C236.391 207.818 236.77 208.827 236.624 209.943C236.478 211.058 236.133 212.054 235.519 212.948C234.904 213.842 234.324 214.609 233.65 215.283C232.166 216.767 230.344 218.03 228.225 219.087C226.111 220.139 223.845 220.784 221.456 220.954C219.097 221.133 216.918 220.954 214.89 220.439Z" fill="#2E3247"/>
<defs>
<radialGradient id="paint0_radial" cx="0" cy="0" r="1" gradientUnits="userSpaceOnUse" gradientTransform="translate(238.218 238.218) rotate(-15.3968) scale(237.713)">
<stop stop-color="#42E8E0"/>
<stop offset="0.473958" stop-color="#3AC4C9" stop-opacity="0.29"/>
<stop offset="1" stop-color="#2F92A8" stop-opacity="0"/>
</radialGradient>
</defs>
</svg>
