<svg width="265" height="30" viewBox="0 0 265 30" fill="none" xmlns="http://www.w3.org/2000/svg">
<path d="M0.184082 21H5.32008C7.28808 21 8.40808 19.8 8.40808 18.12C8.40808 16.824 7.48008 15.672 6.34408 15.496C7.32008 15.288 8.20008 14.392 8.20008 13.048C8.20008 11.496 7.09608 10.328 5.19208 10.328H0.184082V21ZM1.78408 14.856V11.736H4.88808C5.96008 11.736 6.55208 12.424 6.55208 13.304C6.55208 14.184 5.96008 14.856 4.88808 14.856H1.78408ZM1.78408 19.592V16.264H4.96808C6.15208 16.264 6.76008 17.032 6.76008 17.912C6.76008 18.952 6.08808 19.592 4.96808 19.592H1.78408Z" fill="white"/>
<path d="M10.8352 21H12.2752V15.624C12.6112 15.048 13.5872 14.504 14.3072 14.504C14.4992 14.504 14.6592 14.52 14.8032 14.552V13.096C13.7792 13.096 12.8672 13.688 12.2752 14.456V13.272H10.8352V21Z" fill="white"/>
<path d="M20.1455 21.192C22.5615 21.192 24.0495 19.368 24.0495 17.128C24.0495 14.904 22.5615 13.08 20.1455 13.08C17.7455 13.08 16.2415 14.904 16.2415 17.128C16.2415 19.368 17.7455 21.192 20.1455 21.192ZM20.1455 19.912C18.6095 19.912 17.7455 18.6 17.7455 17.128C17.7455 15.672 18.6095 14.36 20.1455 14.36C21.6975 14.36 22.5455 15.672 22.5455 17.128C22.5455 18.6 21.6975 19.912 20.1455 19.912Z" fill="white"/>
<path d="M31.5737 21H33.0137V13.272H31.5737V18.824C31.1417 19.4 30.3257 19.912 29.4297 19.912C28.4377 19.912 27.7977 19.528 27.7977 18.248V13.272H26.3577V18.728C26.3577 20.36 27.1737 21.192 28.8217 21.192C30.0057 21.192 30.9817 20.584 31.5737 19.944V21Z" fill="white"/>
<path d="M35.7112 22.984C36.6392 23.864 37.5832 24.136 38.8792 24.136C40.7832 24.136 42.7192 23.352 42.7192 20.696V13.272H41.2792V14.392C40.6552 13.56 39.7432 13.08 38.7352 13.08C36.7352 13.08 35.2952 14.584 35.2952 17.064C35.2952 19.592 36.7352 21.064 38.7352 21.064C39.7752 21.064 40.6872 20.504 41.2792 19.736V20.744C41.2792 22.376 40.0792 22.952 38.8792 22.952C37.8232 22.952 37.0392 22.664 36.3992 21.928L35.7112 22.984ZM41.2792 18.632C40.8792 19.256 39.9992 19.784 39.1352 19.784C37.6952 19.784 36.7992 18.664 36.7992 17.064C36.7992 15.48 37.6952 14.36 39.1352 14.36C39.9992 14.36 40.8792 14.872 41.2792 15.496V18.632Z" fill="white"/>
<path d="M50.7056 21H52.1456V15.544C52.1456 13.912 51.3136 13.08 49.6656 13.08C48.4816 13.08 47.4416 13.736 46.9296 14.36V10.328H45.4896V21H46.9296V15.48C47.3456 14.904 48.1616 14.36 49.0576 14.36C50.0496 14.36 50.7056 14.744 50.7056 16.024V21Z" fill="white"/>
<path d="M57.0507 21.192C57.8027 21.192 58.2507 20.984 58.5547 20.696L58.1867 19.608C58.0427 19.768 57.7387 19.912 57.4027 19.912C56.9067 19.912 56.6507 19.512 56.6507 18.968V14.536H58.2187V13.272H56.6507V11.16H55.2107V13.272H53.9307V14.536H55.2107V19.288C55.2107 20.504 55.8347 21.192 57.0507 21.192Z" fill="white"/>
<path d="M67.0263 21.192C67.7783 21.192 68.2263 20.984 68.5303 20.696L68.1623 19.608C68.0183 19.768 67.7143 19.912 67.3783 19.912C66.8823 19.912 66.6263 19.512 66.6263 18.968V14.536H68.1943V13.272H66.6263V11.16H65.1863V13.272H63.9063V14.536H65.1863V19.288C65.1863 20.504 65.8103 21.192 67.0263 21.192Z" fill="white"/>
<path d="M73.693 21.192C76.109 21.192 77.597 19.368 77.597 17.128C77.597 14.904 76.109 13.08 73.693 13.08C71.293 13.08 69.789 14.904 69.789 17.128C69.789 19.368 71.293 21.192 73.693 21.192ZM73.693 19.912C72.157 19.912 71.293 18.6 71.293 17.128C71.293 15.672 72.157 14.36 73.693 14.36C75.245 14.36 76.093 15.672 76.093 17.128C76.093 18.6 75.245 19.912 73.693 19.912Z" fill="white"/>
<path d="M84.3502 22.728L84.1262 24.024C84.3502 24.088 84.7822 24.136 85.0222 24.136C86.1422 24.12 86.9902 23.688 87.4862 22.472L91.2942 13.272H89.7422L87.3262 19.336L84.9102 13.272H83.3742L86.5582 21.08L86.1102 22.104C85.8702 22.68 85.5182 22.856 84.9902 22.856C84.7982 22.856 84.5262 22.808 84.3502 22.728Z" fill="white"/>
<path d="M96.3673 21.192C98.7833 21.192 100.271 19.368 100.271 17.128C100.271 14.904 98.7833 13.08 96.3673 13.08C93.9673 13.08 92.4633 14.904 92.4633 17.128C92.4633 19.368 93.9673 21.192 96.3673 21.192ZM96.3673 19.912C94.8313 19.912 93.9673 18.6 93.9673 17.128C93.9673 15.672 94.8313 14.36 96.3673 14.36C97.9193 14.36 98.7673 15.672 98.7673 17.128C98.7673 18.6 97.9193 19.912 96.3673 19.912Z" fill="white"/>
<path d="M107.796 21H109.236V13.272H107.796V18.824C107.364 19.4 106.548 19.912 105.652 19.912C104.66 19.912 104.02 19.528 104.02 18.248V13.272H102.58V18.728C102.58 20.36 103.396 21.192 105.044 21.192C106.228 21.192 107.204 20.584 107.796 19.944V21Z" fill="white"/>
<path d="M116.602 21H118.042V19.896C118.618 20.664 119.53 21.192 120.57 21.192C122.57 21.192 124.01 19.672 124.01 17.144C124.01 14.664 122.586 13.08 120.57 13.08C119.562 13.08 118.65 13.56 118.042 14.392V10.328H116.602V21ZM118.042 18.792V15.512C118.426 14.888 119.306 14.36 120.186 14.36C121.626 14.36 122.522 15.528 122.522 17.144C122.522 18.76 121.626 19.912 120.186 19.912C119.306 19.912 118.426 19.416 118.042 18.792Z" fill="white"/>
<path d="M126.172 22.728L125.948 24.024C126.172 24.088 126.604 24.136 126.844 24.136C127.964 24.12 128.812 23.688 129.308 22.472L133.116 13.272H131.564L129.148 19.336L126.732 13.272H125.196L128.38 21.08L127.932 22.104C127.692 22.68 127.34 22.856 126.812 22.856C126.62 22.856 126.348 22.808 126.172 22.728Z" fill="white"/>
<path d="M262.875 4.57811C263.695 3.75802 263.695 2.42838 262.875 1.60829C262.055 0.788198 260.726 0.788198 259.906 1.60829C259.085 2.42838 259.085 3.75802 259.906 4.57811C260.726 5.3982 262.055 5.3982 262.875 4.57811Z" fill="#42E8E0"/>
<path d="M254.477 12.9443C255.297 12.1242 255.297 10.7945 254.477 9.97444C253.657 9.15435 252.327 9.15435 251.507 9.97444C250.687 10.7945 250.687 12.1242 251.507 12.9443C252.327 13.7644 253.657 13.7644 254.477 12.9443Z" fill="#42E8E0"/>
<path d="M233.01 7.32002V0.900024H205.11V7.32002H215.91V29.52H222.21V7.32002H233.01Z" fill="white"/>
<path fill-rule="evenodd" clip-rule="evenodd" d="M191.61 23.52C187.05 23.52 183.33 19.8 183.33 15.24C183.33 10.68 187.05 6.96002 191.61 6.96002C193.59 6.96002 195.39 7.62002 196.77 8.82002L201.03 4.56002C198.51 2.34002 195.21 0.960022 191.61 0.960022C183.75 0.960022 177.33 7.38002 177.33 15.3C177.33 23.22 183.75 29.64 191.61 29.64C195.21 29.64 198.51 28.32 201.03 26.1L196.77 21.84C195.33 22.86 193.53 23.52 191.61 23.52Z" fill="white"/>
<path fill-rule="evenodd" clip-rule="evenodd" d="M158.85 11.9401C156.99 11.9401 155.49 13.4401 155.49 15.3001C155.49 17.1601 156.99 18.6601 158.85 18.6601C160.71 18.6601 162.21 17.1601 162.21 15.3001C162.21 13.4401 160.71 11.9401 158.85 11.9401ZM158.85 17.8801C157.41 17.8801 156.27 16.7401 156.27 15.3001C156.27 13.8601 157.41 12.7201 158.85 12.7201C160.29 12.7201 161.43 13.8601 161.43 15.3001C161.43 16.6801 160.29 17.8801 158.85 17.8801Z" fill="white"/>
<path fill-rule="evenodd" clip-rule="evenodd" d="M167.01 15.24C167.01 19.8 163.29 23.52 158.73 23.52C154.17 23.52 150.45 19.8 150.45 15.24C150.45 10.68 154.17 6.96002 158.73 6.96002C163.29 6.96002 167.01 10.68 167.01 15.24ZM158.79 0.960022C150.87 0.960022 144.45 7.38002 144.45 15.24C144.45 23.16 150.87 29.58 158.73 29.58C166.59 29.58 173.01 23.16 173.01 15.24C173.07 7.38002 166.65 0.960022 158.79 0.960022Z" fill="white"/>
<path d="M158.91 16.9801C159.838 16.9801 160.59 16.2279 160.59 15.3001C160.59 14.3722 159.838 13.6201 158.91 13.6201C157.982 13.6201 157.23 14.3722 157.23 15.3001C157.23 16.2279 157.982 16.9801 158.91 16.9801Z" fill="white"/>
<path fill-rule="evenodd" clip-rule="evenodd" d="M249.27 0.960022C241.41 0.960022 234.99 7.38002 234.99 15.3C234.99 23.22 241.41 29.64 249.27 29.64C257.13 29.64 263.55 23.22 263.55 15.3C263.55 7.38002 257.13 0.960022 249.27 0.960022ZM249.27 23.52C244.71 23.52 240.99 19.8 240.99 15.24C240.99 10.68 244.71 6.96002 249.27 6.96002C253.83 6.96002 257.55 10.68 257.55 15.24C257.49 19.8 253.83 23.52 249.27 23.52Z" fill="white"/>
</svg>
