<svg width="191" height="50" viewBox="0 0 191 50" fill="none" xmlns="http://www.w3.org/2000/svg">
<g filter="url(#filter0_d)">
<path fill-rule="evenodd" clip-rule="evenodd" d="M22.0001 11.6781L11.4609 28.1747H4L22 0L40 28.1747H32.5393L22.0001 11.6781ZM21.9999 30.3219L32.539 32.7507H40L22 42L4 32.7507H11.4606L21.9999 30.3219Z" fill="#42E8E0"/>
</g>
<path d="M56.7199 31.0001H60.4379V16.9081H65.4819V13.6581H51.6499V16.9081H56.7199V31.0001Z" fill="white"/>
<path d="M67.8487 31.0001H80.1207V27.8021H71.5407V23.7721H79.9387V20.6001H71.5407V16.8301H80.1207V13.6581H67.8487V31.0001Z" fill="white"/>
<path d="M82.3829 31.0001H95.5909V27.7501H87.2189L95.4089 16.6221V13.6581H82.3829V16.9081H90.5729L82.3829 28.0101V31.0001Z" fill="white"/>
<path d="M97.2062 22.3421C97.2062 27.5681 101.028 31.3121 106.254 31.3121C111.506 31.3121 115.328 27.5681 115.328 22.3421C115.328 17.1161 111.506 13.3721 106.254 13.3721C101.028 13.3721 97.2062 17.1161 97.2062 22.3421ZM111.532 22.3421C111.532 25.5661 109.452 28.0361 106.254 28.0361C103.056 28.0361 101.002 25.5661 101.002 22.3421C101.002 19.0921 103.056 16.6481 106.254 16.6481C109.452 16.6481 111.532 19.0921 111.532 22.3421Z" fill="white"/>
<path d="M116.723 28.5561C118.361 30.1941 120.753 31.3121 124.081 31.3121C128.761 31.3121 131.023 28.9201 131.023 25.7481C131.023 21.9001 127.383 21.0421 124.523 20.3921C122.521 19.9241 121.065 19.5601 121.065 18.3901C121.065 17.3501 121.949 16.6221 123.613 16.6221C125.303 16.6221 127.175 17.2201 128.579 18.5201L130.633 15.8161C128.917 14.2301 126.629 13.3981 123.873 13.3981C119.791 13.3981 117.295 15.7381 117.295 18.6241C117.295 22.4981 120.935 23.2781 123.769 23.9281C125.771 24.3961 127.279 24.8381 127.279 26.1381C127.279 27.1261 126.291 28.0881 124.263 28.0881C121.871 28.0881 119.973 27.0221 118.751 25.7481L116.723 28.5561Z" fill="white"/>
<path d="M138.924 31H149.402V28.712H141.524V13.658H138.924V31Z" fill="white"/>
<path d="M152.254 31H154.854V13.658H152.254V31Z" fill="white"/>
<path d="M170.923 31H173.445V13.658H170.845V26.658L161.407 13.658H158.729V31H161.329V17.688L170.923 31Z" fill="white"/>
<path d="M187.715 31H190.939L183.217 21.874L190.367 13.658H187.143L179.889 22.264V13.658H177.289V31H179.889V25.306L181.527 23.46L187.715 31Z" fill="white"/>
<defs>
<filter id="filter0_d" x="0" y="0" width="44" height="50" filterUnits="userSpaceOnUse" color-interpolation-filters="sRGB">
<feFlood flood-opacity="0" result="BackgroundImageFix"/>
<feColorMatrix in="SourceAlpha" type="matrix" values="0 0 0 0 0 0 0 0 0 0 0 0 0 0 0 0 0 0 127 0"/>
<feOffset dy="4"/>
<feGaussianBlur stdDeviation="2"/>
<feColorMatrix type="matrix" values="0 0 0 0 0 0 0 0 0 0 0 0 0 0 0 0 0 0 0.25 0"/>
<feBlend mode="normal" in2="BackgroundImageFix" result="effect1_dropShadow"/>
<feBlend mode="normal" in="SourceGraphic" in2="effect1_dropShadow" result="shape"/>
</filter>
</defs>
</svg>
