<svg width="266" height="112" viewBox="0 0 266 112" fill="none" xmlns="http://www.w3.org/2000/svg">
<path d="M265.84 45.8448C265.733 45.9514 265.521 46.0047 265.468 46.1113C265.042 47.9238 263.819 49.0433 262.224 49.8429C254.409 53.7877 244.519 52.0818 239.628 43.4993C235.109 35.6097 236.757 25.1613 243.456 19.3508C247.763 15.6192 252.76 14.6597 258.184 15.8324C259.832 16.2056 261.48 16.8453 263.022 17.5383C264.245 18.1247 265.202 19.0842 265.468 20.5768C265.521 20.7368 265.733 20.8967 265.893 21.0566C265.893 21.2698 265.893 21.4831 265.893 21.643C265.733 21.8562 265.521 22.0162 265.468 22.2827C264.883 25.2146 262.916 26.3874 260.098 25.4812C258.981 25.108 257.865 24.6282 256.695 24.3084C253.558 23.4022 250.474 24.415 248.666 26.8672C245.902 30.5454 245.902 36.5692 248.72 40.2475C250.634 42.6996 253.558 43.7125 256.535 42.8063C257.865 42.3798 259.141 41.8467 260.523 41.4736C261.108 41.3136 261.852 41.207 262.437 41.3136C264.032 41.6335 264.989 42.7529 265.521 44.2989C265.574 44.5121 265.787 44.672 265.946 44.8853C265.84 45.2051 265.84 45.525 265.84 45.8448Z" fill="white"/>
<path d="M130.421 13.0072C130.421 16.5788 130.421 20.1504 130.421 23.7221C129.57 23.2423 128.666 22.7625 127.815 22.2294C125.901 21.0567 124.2 19.6707 122.658 18.0181C122.073 17.3784 121.435 16.7387 120.85 16.099C120.638 14.2866 120.531 12.4741 119.574 10.8749C119.149 10.1285 118.511 9.54216 117.66 9.22231C117.394 9.1157 117.129 9.00908 116.863 8.90246C116.491 7.67638 116.118 6.4503 115.799 5.22422C115.534 4.21136 115.374 3.19851 115.161 2.18566C115.161 1.49266 115.161 0.799656 115.161 0.0533447C116.012 0.0533447 116.916 0.0533447 117.767 0.0533447C118.511 0.159961 119.255 0.213269 120 0.373192C121.488 0.639732 123.03 0.906272 124.359 1.7592C124.359 1.91912 124.306 2.13235 124.359 2.29228C125.157 6.50361 127.177 10.0752 130.421 13.0072Z" fill="#E7202D"/>
<path d="M115.215 0C115.215 0.693003 115.215 1.38601 115.215 2.13232C115.161 2.23893 115.055 2.39886 115.055 2.50547C114.842 4.79772 114.258 7.03665 113.407 9.16897C111.121 10.5017 110.164 12.5807 110.164 15.1395C109.047 16.3655 107.984 17.6449 106.814 18.871C104.953 20.8434 102.667 22.2827 100.274 23.5621C100.274 21.1633 100.274 18.7111 100.221 16.3122C100.221 15.0862 100.062 13.8601 99.9553 12.634C100.168 12.4208 100.434 12.2608 100.647 12.0476C102.826 9.96859 104.262 7.4098 105.272 4.58448C105.485 4.47787 105.697 4.37125 105.857 4.21133C106.495 3.62494 107.08 2.98525 107.771 2.50547C109.366 1.43931 111.121 0.639695 113.035 0.26654C113.513 0.159924 113.939 0.106616 114.417 0.0533079C114.683 -3.97175e-09 114.949 0 115.215 0Z" fill="#48C1EA"/>
<path d="M81.772 5.81057C82.5163 4.95764 83.1543 3.94479 84.005 3.25178C85.9722 1.59924 88.3116 0.746311 90.8105 0.319848C91.5549 0.213232 92.2461 0.106616 92.9904 0C94.1601 0 95.3298 0 96.4995 0C96.7654 0.0533079 97.0312 0.106616 97.2439 0.159924C97.2439 0.373156 97.297 0.586387 97.2439 0.746311C96.7122 2.98524 95.702 4.95764 93.8411 6.34365C91.6081 8.10281 89.056 8.47596 86.3444 8.0495C84.5367 7.83627 83.1012 6.93003 81.772 5.81057Z" fill="#0A9772"/>
<path d="M0 19.9904C0.106336 19.9904 0.265841 19.9371 0.372177 19.9371C0.372177 20.5235 0.319009 21.1099 0.319009 21.643C0.319009 29.5859 0.319009 37.5821 0.319009 45.5249C0.319009 46.1113 0.372177 46.6977 0.372177 47.2841C0.265841 47.2841 0.106336 47.2308 0 47.2308C0 38.1151 0 29.0528 0 19.9904Z" fill="#4E4E4E"/>
<path d="M201.932 78.3627C202.357 78.0428 202.676 77.8296 202.995 77.5631C209.11 73.3517 217.404 74.6844 221.976 80.5483C226.389 86.2522 227.984 96.594 223.146 104.27C220.594 108.322 217.085 110.881 212.3 111.52C208.099 112.107 204.697 110.721 201.879 107.469C201.826 107.575 201.772 107.735 201.719 107.895C200.922 110.294 199.167 111.467 196.721 111.2C194.488 110.987 192.84 109.335 192.521 106.936C192.468 106.456 192.468 106.029 192.468 105.55C192.468 92.3293 192.468 79.0557 192.468 65.8353C192.468 65.3022 192.468 64.8225 192.574 64.2894C193 61.7839 194.914 60.1847 197.359 60.2913C199.805 60.3446 201.613 62.1571 201.826 64.7158C201.932 65.9419 201.879 67.168 201.879 68.3941C201.932 71.6992 201.932 74.951 201.932 78.3627ZM216.713 93.5021C216.66 91.1033 216.181 88.8643 214.852 86.8919C211.981 82.6273 206.026 82.6806 203.527 87.2118C201.188 91.4764 201.347 95.8477 203.952 99.9524C206.504 103.95 211.874 103.95 214.692 100.112C216.075 98.1932 216.606 95.901 216.713 93.5021Z" fill="white"/>
<path d="M202.57 18.6045C202.57 17.3251 202.57 16.1523 202.57 15.0328C202.57 12.0476 202.57 9.00904 202.57 6.02379C202.57 5.27748 202.676 4.47786 202.889 3.78486C203.527 1.70585 205.281 0.479768 207.461 0.586384C209.588 0.639692 211.289 2.0257 211.768 4.10471C211.927 4.6911 211.981 5.3841 211.981 5.97049C211.981 19.2975 211.981 32.6245 211.981 46.0048C211.981 46.4845 211.981 46.9643 211.874 47.4441C211.449 49.7896 209.801 51.3355 207.568 51.4422C205.228 51.6021 203.527 50.4293 202.729 48.0838C202.676 47.9238 202.623 47.8172 202.57 47.604C201.453 49.2565 199.965 50.4293 198.157 51.069C192.84 52.9348 188.055 51.6554 184.067 47.8705C179.654 43.6592 178.059 38.3284 178.485 32.3046C178.751 28.1466 179.92 24.3084 182.472 20.95C187.257 14.6597 195.924 13.5402 202.198 18.3379C202.251 18.3912 202.357 18.4445 202.57 18.6045ZM202.57 33.8505C202.57 31.1851 202.038 29.1061 201.081 27.5069C198.37 22.9224 192.362 22.8691 189.544 27.347C188.587 28.8396 188.055 30.5454 187.895 32.3046C187.576 35.5564 188.214 38.595 190.448 41.1004C193.053 43.9791 197.466 43.8724 200.018 40.9938C201.932 38.8082 202.464 36.1961 202.57 33.8505Z" fill="white"/>
<path d="M162.056 47.5507C161.95 47.6573 161.843 47.7106 161.79 47.8172C158.121 51.9752 153.549 52.7216 148.445 51.1223C144.51 49.8429 141.533 47.2308 139.832 43.4993C136.216 35.8762 136.535 28.3598 141.533 21.3765C144.032 17.8582 147.594 15.7791 152.007 15.406C155.995 15.0861 159.451 16.2589 162.056 19.564C162.109 19.4574 162.162 19.4041 162.162 19.2975C162.853 16.099 166.416 14.9262 169.127 16.3122C170.137 16.8453 170.669 17.7515 170.882 18.871C171.041 19.7772 171.148 20.7368 171.148 21.6963C171.148 29.6392 171.148 37.5821 171.148 45.525C171.148 46.5911 171.041 47.7106 170.775 48.7768C170.403 50.2694 169.393 51.1223 167.851 51.3355C164.129 51.9219 162.907 50.2694 162.056 47.5507ZM161.684 33.6373C161.63 31.3984 161.205 29.3194 160.089 27.4536C157.643 23.2956 152.167 22.8158 149.242 26.494C146.265 30.1723 146.159 36.6759 148.976 40.4607C151.794 44.2456 157.218 44.139 159.823 40.1942C161.205 38.1685 161.684 35.9296 161.684 33.6373Z" fill="white"/>
<path d="M174.816 107.309C174.603 107.522 174.444 107.682 174.284 107.895C172.53 109.814 170.403 111.094 167.798 111.52C166.947 111.68 166.043 111.947 165.193 111.84C159.185 111.094 154.612 108.162 152.166 102.511C149.242 95.7411 149.455 89.0243 153.283 82.6806C156.26 77.7763 160.62 75.0576 166.522 75.2708C169.871 75.3774 172.689 76.7101 174.763 79.3755C174.816 79.3222 174.869 79.3222 174.922 79.3222C175.401 76.4969 178.378 74.7911 181.568 76.0704C182.685 76.4969 183.323 77.4564 183.589 78.5759C183.801 79.4288 183.908 80.3351 183.908 81.2413C183.908 89.3974 183.908 97.6069 183.908 105.763C183.908 106.296 183.855 106.829 183.801 107.362C183.429 110.347 181.568 111.733 178.591 111.307C177.102 111.094 176.039 110.347 175.454 108.961C175.188 108.375 175.029 107.895 174.816 107.309ZM174.444 93.4488C174.391 91.2632 173.965 89.1842 172.902 87.2651C171.36 84.653 168.914 83.4269 166.043 83.8534C163.97 84.1733 162.375 85.2927 161.364 87.1052C159.078 91.2632 158.972 95.5278 161.364 99.6326C164.023 104.164 170.031 104.11 172.796 99.6326C173.965 97.7135 174.391 95.6345 174.444 93.4488Z" fill="white"/>
<path d="M72.4143 34.277C72.308 39.1281 70.6598 43.9258 66.5658 47.6573C58.9096 54.6407 46.681 52.7749 41.3641 43.8725C37.3234 37.1557 37.8019 28.1999 42.4807 22.0162C49.4989 12.7406 63.0567 13.2737 69.3306 23.0291C71.3509 26.2808 72.3611 29.8525 72.4143 34.277ZM62.9504 33.6907C62.8972 31.505 62.4719 29.3727 61.3553 27.5069C58.6969 23.0291 52.8485 22.8691 49.871 27.1338C47.4253 30.6521 47.4253 36.516 49.7647 40.0876C52.6358 44.3522 58.5374 44.2989 61.3022 39.8744C62.4719 37.9553 62.9504 35.8763 62.9504 33.6907Z" fill="white"/>
<path d="M0.371527 47.2842C0.371527 46.6978 0.318359 46.1114 0.318359 45.5783C0.318359 37.6354 0.318359 29.6392 0.318359 21.6964C0.318359 21.11 0.371527 20.5236 0.371527 19.9905C0.903208 17.0053 3.13627 15.3527 6.06051 15.9391C7.86823 16.2589 8.87842 17.4317 9.30377 19.2442C10.633 17.485 12.3343 16.3656 14.4079 15.8858C17.3322 15.1928 20.2564 15.2461 23.1275 16.1523C27.8063 17.6983 30.8368 21.643 31.209 26.7073C31.2622 27.2937 31.2622 27.8801 31.2622 28.4665C31.2622 34.3303 31.2622 40.1942 31.2622 46.0581C31.2622 46.5912 31.209 47.1775 31.1027 47.7106C30.571 50.1628 28.7633 51.6554 26.4239 51.5488C24.0313 51.4422 22.2768 49.7896 21.9578 47.3375C21.9046 46.8577 21.9046 46.3779 21.9046 45.8982C21.9046 40.7273 21.9046 35.5031 21.9046 30.3322C21.9046 29.6392 21.9046 28.8929 21.7451 28.1999C21.1603 25.0014 18.7677 23.189 15.3649 23.3489C12.2812 23.4555 10.1013 25.6411 9.78228 28.8396C9.72911 29.3194 9.72911 29.7459 9.72911 30.2256C9.72911 35.3965 9.72911 40.6207 9.72911 45.7915C9.72911 46.2713 9.72911 46.7511 9.62278 47.2309C9.2506 49.8429 7.44288 51.5488 4.99715 51.5488C2.60459 51.4955 0.796872 49.8429 0.371527 47.2842Z" fill="white"/>
<path d="M245.264 75.1108C248.401 75.2175 251.431 75.7505 254.143 77.4564C255.1 78.0961 255.951 78.949 256.589 79.9086C257.546 81.5078 257.28 83.2136 256.163 84.7063C255.153 86.039 253.611 86.4654 252.069 85.879C250.793 85.3993 249.624 84.8129 248.348 84.2798C247.125 83.7467 245.796 83.3203 244.413 83.4269C243.403 83.4802 242.499 83.8 241.914 84.7063C241.276 85.7724 241.436 86.9452 242.499 87.6382C243.456 88.2779 244.519 88.7577 245.583 89.2374C247.869 90.2503 250.262 91.1032 252.495 92.276C254.887 93.5021 256.748 95.3146 257.546 97.98C258.769 102.085 256.961 106.722 253.133 109.228C251.112 110.561 248.879 111.2 246.54 111.52C245.689 111.627 244.838 111.893 243.988 111.787C240.638 111.307 237.342 110.667 234.418 108.801C233.78 108.375 233.141 107.895 232.61 107.309C231.068 105.763 230.855 104.057 231.919 102.298C232.982 100.485 234.683 99.7391 236.757 100.325C237.608 100.592 238.458 101.019 239.256 101.392C240.638 101.978 242.021 102.778 243.456 103.151C244.519 103.417 245.796 103.257 246.912 103.151C247.922 103.044 248.56 102.405 248.773 101.392C248.986 100.379 248.667 99.5259 247.816 98.9928C246.859 98.4064 245.796 97.9266 244.785 97.4469C242.446 96.434 240.053 95.5278 237.82 94.4083C235.215 93.0756 233.248 90.9966 232.663 87.9581C231.653 82.8405 234.524 77.9895 239.681 76.0704C241.489 75.4307 243.35 75.1108 245.264 75.1108Z" fill="white"/>
<path d="M220.488 33.6373C220.488 29.5326 220.488 25.3746 220.488 21.2699C220.488 20.7368 220.541 20.1504 220.647 19.6173C221.126 17.2718 222.933 15.7792 225.219 15.7792C227.559 15.7792 229.367 17.3251 229.792 19.724C229.898 20.2037 229.898 20.7368 229.898 21.2166C229.898 29.4793 229.898 37.742 229.898 46.0581C229.898 46.5912 229.845 47.1776 229.739 47.7106C229.26 50.0029 227.453 51.4955 225.219 51.4955C222.933 51.4955 221.126 50.0029 220.647 47.6573C220.541 47.0709 220.488 46.4846 220.488 45.8982C220.488 41.7935 220.488 37.6887 220.488 33.6373Z" fill="white"/>
<path d="M130.58 92.1161C130.58 95.3145 130.58 98.4597 130.58 101.765C132.175 101.765 133.664 101.765 135.206 101.765C135.578 104.803 135.419 107.789 134.462 110.721C131.325 110.721 128.135 110.721 124.998 110.721C124.785 110.721 124.519 110.614 124.306 110.561C128.294 105.603 126.38 98.5663 120.797 96.2741C120.797 93.1289 120.797 89.9304 120.797 86.7853C122.339 87.265 123.881 87.6382 125.37 88.2779C127.337 89.1308 129.038 90.5701 130.58 92.1161Z" fill="#0A9772"/>
<path d="M97.1907 0.159912C97.6693 0.21322 98.1478 0.21322 98.5731 0.319836C101.285 0.959531 103.518 2.34554 105.272 4.53116C104.262 7.35648 102.827 9.91527 100.647 11.9943C100.434 12.2075 100.168 12.3674 99.9555 12.5807C99.2111 9.59542 97.4566 8.68918 94.9577 8.74249C92.2461 8.7958 90.6511 10.0219 90.0131 13.0604C89.7472 14.3931 89.7472 15.7258 89.6409 17.1118C86.2381 17.3784 82.9949 16.792 79.9111 15.2994C79.8579 12.7406 79.6984 10.1818 80.6555 7.72964C80.9213 7.08994 81.3466 6.50356 81.6657 5.86386C82.9949 6.98333 84.4304 7.88956 86.1849 8.1561C88.8965 8.58257 91.4486 8.20941 93.6816 6.45025C95.5425 5.01093 96.5527 3.09185 97.0844 0.852915C97.2439 0.586376 97.1907 0.373144 97.1907 0.159912Z" fill="#E7202D"/>
<path d="M100.274 39.3946C100.274 35.823 100.274 32.2513 100.274 28.6797C104.209 30.7054 107.505 33.4774 110.164 37.1023C110.164 42.9129 110.217 48.7235 110.164 54.5874C110.164 55.7601 110.057 56.9862 109.26 57.9991C108.143 59.3851 106.761 60.2913 104.847 60.1847C104.953 59.9715 105.06 59.8115 105.166 59.5983C106.336 56.2932 106.601 52.9348 105.963 49.4698C105.166 45.4717 103.252 42.1133 100.274 39.3946Z" fill="#E7202D"/>
<path d="M125.423 60.1847C123.828 60.1313 122.552 59.5983 121.701 58.1056C121.063 57.0395 120.851 55.92 120.851 54.7472C120.851 48.8834 120.851 43.0195 120.851 37.1023C120.851 36.7825 120.904 36.5159 120.904 36.1961C122.127 34.9167 123.243 33.584 124.572 32.4112C126.327 30.8653 128.241 29.5326 130.421 28.6263C130.421 31.1851 130.474 33.7439 130.474 36.3027C130.474 37.2089 130.474 38.1152 130.474 39.0214C129.517 40.0342 128.454 40.9405 127.656 42.0066C126.114 43.979 125.157 46.2713 124.519 48.7234C124.094 50.5359 124.36 52.3484 124.253 54.1609C124.094 56.2932 124.679 58.2656 125.423 60.1847Z" fill="#FAAC03"/>
<path d="M89.6941 43.9791C89.6941 50.0562 89.6941 56.08 89.6941 62.1571C88.0991 62.1571 86.504 62.3171 84.9622 61.7307C82.7823 60.8777 81.1872 59.4384 79.9644 57.466C79.9644 54.5874 79.9644 51.6555 79.9644 48.7768C81.0277 47.0177 82.4633 45.6317 84.3241 44.7254C86.0787 43.8725 87.8864 43.9791 89.6941 43.9791Z" fill="#0A9772"/>
<path d="M110.164 37.1024C107.558 33.5307 104.262 30.7054 100.274 28.6797C100.274 26.9739 100.274 25.2147 100.274 23.5088C102.667 22.2294 104.953 20.7901 106.814 18.8177C107.984 17.5917 109.047 16.3656 110.164 15.0862C110.164 21.2699 110.164 27.4003 110.164 33.584C110.164 34.7568 110.164 35.9296 110.164 37.1024Z" fill="#630F05"/>
<path d="M130.421 28.6797C128.241 29.5859 126.327 30.9186 124.572 32.4645C123.296 33.6373 122.127 34.97 120.904 36.2494C120.904 36.0362 120.851 35.8229 120.851 35.663C120.851 29.2661 120.851 22.8691 120.851 16.4722C120.851 16.3655 120.851 16.2056 120.851 16.099C121.435 16.7387 122.073 17.3784 122.658 18.0181C124.147 19.6706 125.902 21.0566 127.816 22.2294C128.666 22.7625 129.57 23.2423 130.421 23.722C130.421 25.3213 130.421 27.0271 130.421 28.6797Z" fill="#630F05"/>
<path d="M79.9641 57.4659C81.187 59.4383 82.782 60.931 84.9619 61.7306C86.5038 62.317 88.0988 62.157 89.6939 62.157C89.8534 63.9162 89.3217 65.4621 88.0457 66.6882C87.3013 67.3812 86.3443 67.8077 85.3341 67.8077C83.42 67.861 81.4528 67.861 79.5388 67.8077C77.8906 67.7544 76.455 67.2746 75.4448 65.8353C74.4878 64.396 74.4346 62.1037 75.6043 60.6644C76.7209 59.2784 78.2096 58.692 79.9641 58.4788C79.9641 58.1589 79.9641 57.7858 79.9641 57.4659Z" fill="#48C1EA"/>
<path d="M125.423 60.1847C124.679 58.2656 124.094 56.3465 124.2 54.2142C124.306 52.4017 124.041 50.5892 124.466 48.7768C125.051 46.3246 126.061 44.0857 127.603 42.06C128.453 40.9938 129.464 40.0876 130.421 39.0747C130.421 44.672 130.474 50.2161 130.421 55.8134C130.421 57.0928 129.73 58.2123 128.666 59.0119C127.709 59.7582 126.593 60.078 125.423 60.1847Z" fill="#0A9772"/>
<path d="M130.58 92.1162C128.985 90.5702 127.337 89.1309 125.263 88.278C123.775 87.6383 122.233 87.2651 120.691 86.7854C120.691 83.8534 120.691 80.9215 120.691 77.9362C120.904 77.9362 121.063 77.9362 121.276 77.8829C121.754 77.9896 122.233 78.0429 122.711 78.1495C125.476 78.6826 128.081 79.7487 130.58 81.0281C130.58 84.7597 130.58 88.4379 130.58 92.1162Z" fill="#FAAC03"/>
<path d="M89.6941 43.9791C87.8864 43.9258 86.0787 43.8725 84.3241 44.6721C82.4101 45.5783 81.0277 46.9643 79.9644 48.7235C79.9644 44.6721 79.9644 40.674 79.9644 36.6226C80.177 36.516 80.3897 36.4627 80.5492 36.3561C81.8784 35.9296 83.2076 35.3432 84.5368 35.13C86.2382 34.8634 87.9396 34.9701 89.641 34.9167C89.6941 38.0086 89.6941 40.9939 89.6941 43.9791Z" fill="#48C1EA"/>
<path d="M121.329 77.7763C121.169 77.7763 120.957 77.7763 120.744 77.7763C120.744 74.6844 120.744 71.6459 120.744 68.6073C122.18 68.1809 123.615 67.861 124.944 67.2746C126.327 66.6349 127.603 65.7287 128.932 64.9291C129.889 65.8886 130.368 67.0614 130.421 68.3408C130.527 70.4731 130.527 72.6054 130.58 74.7377C129.251 75.3241 127.975 75.9638 126.646 76.3903C124.891 76.9234 123.084 77.3498 121.329 77.7763Z" fill="#E7202D"/>
<path d="M100.275 39.3945C103.252 42.1132 105.166 45.4183 105.91 49.4164C106.548 52.8814 106.283 56.2398 105.113 59.5449C105.06 59.7582 104.9 59.9714 104.794 60.1313C103.039 60.0247 101.816 59.2784 100.966 57.6792C100.487 56.7729 100.275 55.7601 100.275 54.8005C100.221 49.683 100.275 44.5654 100.275 39.3945Z" fill="#48C1EA"/>
<path d="M79.9644 15.2461C83.0481 16.7387 86.2914 17.3251 89.6941 17.0586C89.6941 20.0971 89.6941 23.0824 89.6941 26.1209C87.7801 26.1209 85.866 26.1209 83.952 26.1209C82.6228 25.8011 81.2936 25.5345 79.9644 25.2147C79.9644 21.9096 79.9644 18.5512 79.9644 15.2461Z" fill="#48C1EA"/>
<path d="M83.9518 26.1208C85.8658 26.1208 87.7799 26.1208 89.6939 26.1208C89.6939 29.0528 89.6939 32.038 89.6939 34.97C87.9925 35.0233 86.238 34.9167 84.5898 35.1832C83.2074 35.3964 81.9314 35.9828 80.6022 36.4093C80.3895 36.4626 80.1768 36.5692 80.0173 36.6758C80.0173 33.4773 80.0173 30.2789 80.0173 27.0271C81.2934 26.7072 82.6226 26.4407 83.9518 26.1208Z" fill="#E7202D"/>
<path d="M230.536 6.82342C230.536 9.75536 228.09 12.2075 225.219 12.2075C222.401 12.2075 219.903 9.59543 219.903 6.77011C219.903 4.05141 222.455 1.59924 225.219 1.59924C228.037 1.59924 230.536 4.05141 230.536 6.82342Z" fill="white"/>
<path d="M134.461 110.721C135.472 107.789 135.578 104.803 135.206 101.765C137.492 101.765 139.778 101.712 142.064 101.765C142.809 101.765 143.5 102.085 144.244 102.245C144.244 104.057 144.244 105.87 144.244 107.735C144.085 108.695 143.925 109.654 143.766 110.614C143.553 110.667 143.287 110.774 143.075 110.774C140.15 110.774 137.279 110.774 134.461 110.721Z" fill="#FAAC03"/>
<path d="M120.744 96.2742C126.327 98.5664 128.294 105.603 124.253 110.561C122.18 109.974 121.01 108.588 120.904 106.509C120.744 103.151 120.797 99.6859 120.744 96.2742Z" fill="#131AB8"/>
<path d="M130.421 13.0072C127.124 10.1286 125.157 6.50365 124.36 2.23901C124.306 2.07909 124.36 1.86586 124.36 1.70593C125.051 2.07909 125.795 2.34563 126.433 2.8254C128.56 4.31802 129.676 6.50365 130.102 8.95581C130.368 10.2885 130.368 11.6212 130.421 13.0072Z" fill="#0A9772"/>
<path d="M121.329 77.7763C123.137 77.2966 124.945 76.9234 126.699 76.3903C128.028 75.9639 129.304 75.2709 130.634 74.7378C130.634 76.8701 130.634 78.9491 130.634 81.0814C128.135 79.802 125.529 78.7359 122.765 78.2028C122.286 78.0962 121.808 78.0429 121.329 77.9363C121.329 77.883 121.329 77.8296 121.329 77.7763Z" fill="#641006"/>
<path d="M128.932 64.929C127.603 65.7287 126.327 66.6882 124.944 67.2746C123.615 67.861 122.127 68.1808 120.744 68.6073C121.01 67.5411 121.169 66.475 121.808 65.5154C122.711 64.1294 124.944 63.543 126.22 63.7563C127.231 63.9162 128.188 64.1294 128.932 64.929Z" fill="#0A9772"/>
<path d="M144.244 107.735C144.244 105.923 144.244 104.11 144.244 102.245C146.158 103.044 146.903 104.537 146.903 106.349C146.903 107.895 146.265 109.388 144.67 110.134C144.51 109.335 144.351 108.535 144.244 107.735Z" fill="#48C1EA"/>
<path d="M113.407 9.16897C114.258 7.03666 114.843 4.79772 115.055 2.50548C115.055 2.34556 115.162 2.23894 115.215 2.13232C115.427 3.14518 115.587 4.15803 115.853 5.17088C116.172 6.39696 116.544 7.62304 116.916 8.84913C115.693 8.52928 114.524 8.84913 113.407 9.16897Z" fill="#630F05"/>
<path d="M83.952 26.1208C82.6228 26.4407 81.2936 26.7072 79.9644 27.0271C79.9644 26.4407 79.9644 25.801 79.9644 25.2146C81.2936 25.5344 82.6228 25.801 83.952 26.1208Z" fill="#630F05"/>
<path d="M144.245 107.735C144.404 108.535 144.51 109.335 144.67 110.134C144.351 110.294 144.032 110.454 143.713 110.561C143.872 109.654 144.085 108.695 144.245 107.735Z" fill="#641006"/>
</svg>
