<svg width="167" height="101" viewBox="0 0 167 101" fill="none" xmlns="http://www.w3.org/2000/svg">
<path opacity="0.7" d="M5.26428 100.286C3.62478 100.286 1.98528 99.376 1.25662 97.92C-0.0185506 95.736 0.710105 92.824 2.89611 91.55L159.559 1.45996C161.745 0.18596 164.66 0.91395 165.935 3.09795C167.21 5.28195 166.482 8.19396 164.296 9.46796L7.63245 99.558C6.90378 100.104 5.99295 100.286 5.26428 100.286Z" fill="url(#paint0_linear)"/>
<path opacity="0.5" d="M165.935 3.09796C167.211 5.28197 166.482 8.19398 164.296 9.46799C162.11 10.742 159.195 10.014 157.92 7.82999C156.645 5.64598 157.373 2.73397 159.559 1.45996C161.928 0.185958 164.66 0.91395 165.935 3.09796Z" fill="#73FFF5"/>
<path opacity="0.5" d="M163.385 4.554C163.932 5.28199 163.567 6.37398 162.839 6.91998C162.11 7.46597 161.017 7.10197 160.47 6.37398C159.924 5.64599 160.288 4.55399 161.017 4.008C161.928 3.46201 163.021 3.82601 163.385 4.554Z" fill="#73FFF5"/>
<defs>
<linearGradient id="paint0_linear" x1="1.38121" y1="97.048" x2="164.019" y2="1.59961" gradientUnits="userSpaceOnUse">
<stop stop-color="#42E8E0" stop-opacity="0"/>
<stop offset="0.307292" stop-color="#42E8E0" stop-opacity="0.46"/>
<stop offset="0.6386" stop-color="#42E8E0"/>
<stop offset="1" stop-color="#42E8E0"/>
</linearGradient>
</defs>
</svg>
