<svg width="1178" height="870" viewBox="0 0 1178 870" fill="none" xmlns="http://www.w3.org/2000/svg">
<g clip-path="url(#clip0)">
<g filter="url(#filter0_d)">
<path d="M291.471 538.019C287.645 540.14 284.359 540.789 281.582 539.909C278.804 539.029 276.884 537.562 275.699 535.425C275.281 534.671 275.054 533.924 275.096 533.215C275.091 532.531 275.277 531.88 275.642 531.303C276.006 530.727 276.557 530.172 277.319 529.75C278.08 529.328 278.816 529.107 279.525 529.151C280.207 529.147 280.859 529.334 281.435 529.701C282.011 530.067 282.567 530.62 282.99 531.383C283.513 532.328 283.698 533.223 283.582 534.023C283.471 534.833 283.142 535.564 282.629 536.098C283.544 536.514 284.682 536.569 286 536.275C287.318 535.981 288.53 535.496 289.672 534.863C291.28 533.972 292.461 532.756 293.265 531.2C294.07 529.644 294.304 527.843 294.002 525.84C293.701 523.837 292.93 521.795 291.745 519.658C290.46 517.34 289.048 515.578 287.497 514.33C285.911 513.039 284.286 512.33 282.593 512.284C280.873 512.189 279.291 512.567 277.778 513.406C276.788 513.955 275.846 515.038 274.824 516.652L272.868 519.408L272.133 518.082L275.256 495.298L258.58 504.541L267.851 521.266C268.612 522.64 269.527 523.617 270.639 524.186C271.755 524.74 272.935 524.647 274.163 523.966C275.153 523.417 275.872 522.582 276.401 521.428C276.926 520.264 277.243 519.041 277.403 517.78C277.392 517.536 277.408 517.34 277.477 517.24C277.567 517.065 277.635 516.965 277.778 516.886C278.016 516.754 278.307 516.717 278.763 516.777C279.233 516.952 279.582 517.245 279.82 517.675C279.926 517.865 279.99 518.204 280.148 518.603C280.349 520.537 280.063 522.242 279.279 523.724C278.496 525.206 277.411 526.369 275.945 527.181C272.309 529.197 269.452 529.857 267.246 529.222C265.088 528.56 263.304 527.004 261.966 524.59L252.669 507.818L244.16 512.534L242.426 509.405L250.982 504.662L247.042 497.554L244.022 496.684L243.128 495.072L248.801 491.927L251.526 491.838L256.809 501.369L278.855 489.087L282.231 490.059L276.267 511.151C276.881 510.374 277.632 509.708 278.474 509.117C279.939 508.304 281.86 507.863 284.173 507.816C286.517 507.689 288.643 508.182 290.527 509.245C292.411 510.309 293.918 511.457 295.018 512.768C296.118 514.079 297.017 515.252 297.673 516.435C299.116 519.039 299.883 521.77 300.036 524.604C300.183 527.428 299.473 530.054 297.811 532.397C296.187 534.719 294.069 536.579 291.471 538.019Z" fill="#42E8E0"/>
</g>
</g>
<defs>
<filter id="filter0_d" x="203.513" y="443.965" width="134.854" height="141.126" filterUnits="userSpaceOnUse" color-interpolation-filters="sRGB">
<feFlood flood-opacity="0" result="BackgroundImageFix"/>
<feColorMatrix in="SourceAlpha" type="matrix" values="0 0 0 0 0 0 0 0 0 0 0 0 0 0 0 0 0 0 127 0"/>
<feOffset/>
<feGaussianBlur stdDeviation="16.5"/>
<feColorMatrix type="matrix" values="0 0 0 0 0.258824 0 0 0 0 0.909804 0 0 0 0 0.878431 0 0 0 1 0"/>
<feBlend mode="normal" in2="BackgroundImageFix" result="effect1_dropShadow"/>
<feBlend mode="normal" in="SourceGraphic" in2="effect1_dropShadow" result="shape"/>
</filter>
<clipPath id="clip0">
<rect width="1178" height="870" fill="white"/>
</clipPath>
</defs>
</svg>
