<svg width="1178" height="870" viewBox="0 0 1178 870" fill="none" xmlns="http://www.w3.org/2000/svg">
<g clip-path="url(#clip0)">
<path d="M365.171 605.036C365.171 531.144 313.254 441.418 249.313 404.472C216.887 385.726 187.559 384.27 166.609 396.828L146.753 408.294L169.524 430.68H169.706C169.524 431.408 169.524 432.136 169.342 433.046C188.834 434.684 207.961 441.782 225.996 451.246C226.907 449.79 227.817 448.334 228.728 447.06L263.522 456.706L306.878 540.79L308.335 602.306C304.327 620.688 299.773 639.798 287.932 654.176C295.401 658.18 302.688 661.274 309.792 663.458L309.61 692.76L331.835 680.02C352.419 667.462 365.171 641.618 365.171 605.036Z" fill="url(#paint0_linear)"/>
<path opacity="0.8" d="M365.171 605.036C365.171 531.144 313.254 441.418 249.313 404.472C216.887 385.726 187.559 384.27 166.609 396.828L146.753 408.294L169.524 430.68H169.706C169.524 431.408 169.524 432.136 169.342 433.046C188.834 434.684 207.961 441.782 225.996 451.246C226.907 449.79 227.817 448.334 228.728 447.06L263.522 456.706L306.878 540.79L308.335 602.306C304.327 620.688 299.773 639.798 287.932 654.176C295.401 658.18 302.688 661.274 309.792 663.458L309.61 692.76L331.835 680.02C352.419 667.462 365.171 641.618 365.171 605.036Z" fill="url(#paint1_linear)"/>
<path d="M284.107 592.842C248.22 572.094 219.073 521.862 219.073 480.366C219.073 468.354 221.624 458.344 225.813 450.882C207.779 441.418 188.651 434.32 169.16 432.682C168.431 438.506 168.067 444.512 168.067 450.882C168.067 457.616 168.431 464.35 169.342 471.266L146.571 475.998L139.831 489.284L173.5 596L224.356 658.18C224.356 658.18 250.952 649.262 269.716 642.164C274.452 645.44 279.188 648.534 283.925 651.446C285.2 652.174 286.475 652.902 287.75 653.63C299.773 639.252 304.145 619.96 308.153 601.214C300.866 600.668 292.669 597.756 284.107 592.842Z" fill="url(#paint2_linear)"/>
<path opacity="0.7" d="M284.107 592.842C248.22 572.094 219.073 521.862 219.073 480.366C219.073 468.354 221.624 458.344 225.813 450.882C207.779 441.418 188.651 434.32 169.16 432.682C168.431 438.506 168.067 444.512 168.067 450.882C168.067 457.616 168.431 464.35 169.342 471.266L146.571 475.998L139.831 489.284L173.5 597.5L224.356 658.18C224.356 658.18 250.952 649.262 269.716 642.164C274.452 645.44 279.188 648.534 283.925 651.446C285.2 652.174 286.475 652.902 287.75 653.63C299.773 639.252 304.145 619.96 308.153 601.214C300.866 600.668 292.669 597.756 284.107 592.842Z" fill="url(#paint3_radial)"/>
<path opacity="0.7" d="M288.297 654.176L287.386 653.448C299.227 639.07 303.781 619.414 307.606 601.942C299.955 601.032 291.94 598.12 283.56 593.388C247.674 572.64 218.345 522.044 218.345 480.548C218.345 468.9 220.531 459.072 224.903 451.246C204.682 440.69 186.283 434.866 168.978 433.41V432.318C186.648 433.774 205.229 439.78 225.814 450.518L226.36 450.7L225.996 451.246C221.442 459.072 219.256 468.9 219.256 480.548C219.256 521.68 248.22 571.912 283.925 592.478C292.304 597.21 300.32 600.122 308.153 601.032H308.699L308.517 601.578C305.056 619.232 300.684 639.434 288.297 654.176Z" fill="url(#paint4_radial)"/>
<path fill-rule="evenodd" clip-rule="evenodd" d="M200.745 666.035C209.153 673.13 217.911 679.373 226.906 684.57C290.846 721.516 342.764 691.486 342.764 617.776C342.764 543.884 290.846 454.158 226.906 417.212C162.965 380.266 111.048 410.296 111.048 484.006C111.048 496.382 112.504 509.201 115.229 522.142L169.121 552.118C164.489 539.143 161.872 525.924 161.872 513.49C161.872 471.994 191.019 455.25 226.906 475.998C262.793 496.746 291.939 546.978 291.939 588.474C291.939 629.97 262.793 646.532 226.906 625.966C209.459 615.879 193.605 598.823 181.919 579.191L200.745 666.035Z" fill="#312A91"/>
<path opacity="0.7" fill-rule="evenodd" clip-rule="evenodd" d="M200.745 666.035C209.153 673.13 217.911 679.373 226.906 684.57C290.846 721.516 342.764 691.486 342.764 617.776C342.764 543.884 290.846 454.158 226.906 417.212C162.965 380.266 111.048 410.296 111.048 484.006C111.048 496.382 112.504 509.201 115.229 522.142L169.121 552.118C164.489 539.143 161.872 525.924 161.872 513.49C161.872 471.994 191.019 455.25 226.906 475.998C262.793 496.746 291.939 546.978 291.939 588.474C291.939 629.97 262.793 646.532 226.906 625.966C209.459 615.879 193.605 598.823 181.919 579.191L200.745 666.035Z" fill="url(#paint5_linear)"/>
<path opacity="0.7" d="M255.871 635.248C246.945 635.248 236.926 632.154 226.542 626.33C190.655 605.582 161.326 554.986 161.326 513.49C161.326 493.288 168.249 478.182 180.636 471.084C193.023 463.986 209.601 465.442 227.089 475.634C262.975 496.382 292.304 546.978 292.304 588.474C292.304 608.676 285.382 623.782 272.995 630.88C267.894 633.792 262.065 635.248 255.871 635.248ZM197.76 467.626C191.748 467.626 186.101 469.082 181.183 471.812C169.16 478.728 162.419 493.47 162.419 513.308C162.419 554.44 191.384 604.672 227.089 625.238C244.212 635.066 260.425 636.704 272.448 629.788C284.471 622.872 291.211 608.13 291.211 588.292C291.211 547.16 262.247 496.928 226.542 476.362C216.341 470.72 206.686 467.626 197.76 467.626Z" fill="url(#paint6_linear)"/>
<path opacity="0.7" fill-rule="evenodd" clip-rule="evenodd" d="M200.934 666.907C209.175 673.797 217.746 679.866 226.542 684.934C244.941 695.672 262.611 700.95 278.642 700.95C289.754 700.95 299.955 698.402 309.064 693.124C331.106 680.384 343.311 653.63 343.311 617.776C343.311 543.884 291.211 453.794 227.089 416.848C195.938 398.83 166.609 395.918 144.567 408.658C122.525 421.398 110.32 448.152 110.32 484.006C110.32 496.229 111.745 508.894 114.415 521.689L115.886 522.508C113.091 509.433 111.595 496.486 111.595 484.006C111.595 448.516 123.618 422.126 145.296 409.568C154.222 404.472 164.241 401.924 175.171 401.924C190.837 401.924 208.326 407.202 226.724 417.758C290.483 454.522 342.4 544.248 342.4 617.776C342.4 653.266 330.377 679.656 308.699 692.214C287.022 704.59 258.057 701.86 227.271 684.024C218.067 678.717 209.111 672.307 200.521 665.001L200.934 666.907Z" fill="url(#paint7_linear)"/>
<path d="M339.486 619.778C339.486 545.886 287.568 456.16 223.628 419.214C191.202 400.468 161.873 399.012 140.924 411.57L86.2739 443.238L109.045 465.624H109.227C109.045 466.352 109.045 467.08 108.863 467.99C128.354 469.628 147.482 476.726 165.516 486.19C166.427 484.734 167.338 483.278 168.249 482.004L203.043 491.65L246.398 575.734L247.856 637.25C243.848 655.632 239.294 674.742 227.453 689.12C234.922 693.124 242.209 696.218 249.313 698.402L249.131 727.704L306.149 694.762C326.552 682.204 339.486 656.36 339.486 619.778Z" fill="url(#paint8_linear)"/>
<path opacity="0.8" d="M339.486 619.778C339.486 545.886 287.568 456.16 223.628 419.214C191.202 400.468 161.873 399.012 140.924 411.57L86.2739 443.238L109.045 465.624H109.227C109.045 466.352 109.045 467.08 108.863 467.99C128.354 469.628 147.482 476.726 165.516 486.19C166.427 484.734 167.338 483.278 168.249 482.004L203.043 491.65L246.398 575.734L247.856 637.25C243.848 655.632 239.294 674.742 227.453 689.12C234.922 693.124 242.209 696.218 249.313 698.402L249.131 727.704L306.149 694.762C326.552 682.204 339.486 656.36 339.486 619.778Z" fill="url(#paint9_linear)"/>
<path fill-rule="evenodd" clip-rule="evenodd" d="M215.76 735.294C254.962 736.474 282.103 706.014 282.103 652.72C282.103 579.01 230.367 489.102 166.245 452.156C112.163 420.907 66.683 437.572 53.9434 488.054L108.353 518.318C119.141 500.295 141.029 496.364 166.245 510.942C202.131 531.69 231.278 581.922 231.278 623.418C231.278 649.813 219.381 666.179 201.43 669.194L215.76 735.294Z" fill="#312A91"/>
<path opacity="0.7" fill-rule="evenodd" clip-rule="evenodd" d="M215.76 735.294C254.962 736.474 282.103 706.014 282.103 652.72C282.103 579.01 230.367 489.102 166.245 452.156C112.163 420.907 66.683 437.572 53.9434 488.054L108.353 518.318C119.141 500.295 141.029 496.364 166.245 510.942C202.131 531.69 231.278 581.922 231.278 623.418C231.278 649.813 219.381 666.179 201.43 669.194L215.76 735.294Z" fill="url(#paint10_linear)"/>
<path opacity="0.7" fill-rule="evenodd" clip-rule="evenodd" d="M201.536 669.683C205.461 669.028 209.094 667.742 212.333 665.824C224.72 658.726 231.643 643.62 231.643 623.418C231.643 581.922 202.314 531.326 166.427 510.578C148.939 500.386 132.362 498.93 119.975 506.028C115.062 508.843 111.009 512.917 107.906 518.069L108.91 518.628C111.935 513.536 115.897 509.521 120.703 506.756C125.622 504.026 131.269 502.57 137.28 502.57C146.024 502.57 155.861 505.664 166.063 511.306C201.767 531.872 230.732 582.104 230.732 623.236C230.732 643.074 223.992 657.816 211.969 664.732C208.694 666.616 205.108 667.865 201.277 668.487L201.536 669.683Z" fill="url(#paint11_linear)"/>
<path opacity="0.7" fill-rule="evenodd" clip-rule="evenodd" d="M215.923 736.047C216.612 736.067 217.298 736.076 217.98 736.076C229.093 736.076 239.476 733.346 248.402 728.25C270.445 715.51 282.65 688.756 282.65 652.902C282.65 579.01 230.55 488.92 166.427 451.974C135.277 433.956 105.948 431.044 83.9058 443.784C68.9074 452.453 58.4636 467.61 53.3203 487.708L54.4252 488.322C59.4478 468.234 69.7719 453.122 84.6345 444.512C93.5606 439.416 103.58 436.868 114.51 436.868C130.358 436.868 147.846 442.146 166.063 452.702C229.821 489.466 281.739 579.192 281.739 652.72C281.739 688.21 269.716 714.6 248.038 727.158C238.494 732.607 227.538 735.128 215.635 734.72L215.923 736.047Z" fill="url(#paint12_linear)"/>
<path fill-rule="evenodd" clip-rule="evenodd" d="M189.636 722.522L182.274 711.982C191.336 698.363 195.308 681.536 198.853 665.278L197.396 603.762L154.04 519.678L119.246 510.032C118.335 511.306 117.424 512.762 116.513 514.218C98.479 504.754 79.3515 497.656 59.8597 496.018C59.9451 495.591 59.9905 495.205 60.0333 494.839C60.0819 494.425 60.1273 494.039 60.224 493.652H60.0418L37.271 471.266L57.1272 459.8C78.0763 447.242 107.405 448.698 139.831 467.444C203.771 504.39 255.689 594.116 255.689 668.008C255.689 704.59 242.937 730.434 222.352 742.992L209.201 750.531L200.24 737.702L200.31 726.43C196.797 725.35 193.239 724.047 189.636 722.522Z" fill="url(#paint13_linear)"/>
<path opacity="0.8" fill-rule="evenodd" clip-rule="evenodd" d="M189.636 722.522L182.274 711.982C191.336 698.363 195.308 681.536 198.853 665.278L197.396 603.762L154.04 519.678L119.246 510.032C118.335 511.306 117.424 512.762 116.513 514.218C98.479 504.754 79.3515 497.656 59.8597 496.018C59.9451 495.591 59.9905 495.205 60.0333 494.839C60.0819 494.425 60.1273 494.039 60.224 493.652H60.0418L37.271 471.266L57.1272 459.8C78.0763 447.242 107.405 448.698 139.831 467.444C203.771 504.39 255.689 594.116 255.689 668.008C255.689 704.59 242.937 730.434 222.352 742.992L209.201 750.531L200.24 737.702L200.31 726.43C196.797 725.35 193.239 724.047 189.636 722.522Z" fill="url(#paint14_linear)"/>
<path fill-rule="evenodd" clip-rule="evenodd" d="M208.358 749.324C223.963 735.547 233.282 712.159 233.282 680.93C233.282 607.038 181.364 517.312 117.424 480.366C78.0251 457.601 43.1912 460.265 22.2554 482.907L63.0925 541.368C74.7291 527.722 94.7286 525.849 117.424 538.97C153.311 559.718 182.457 609.95 182.457 651.446C182.457 669.7 176.817 683.164 167.445 690.754L208.358 749.324Z" fill="#312A91"/>
<path opacity="0.7" fill-rule="evenodd" clip-rule="evenodd" d="M208.358 749.324C223.963 735.547 233.282 712.159 233.282 680.93C233.282 607.038 181.364 517.312 117.424 480.366C78.0251 457.601 43.1912 460.265 22.2554 482.907L63.0925 541.368C74.7291 527.722 94.7286 525.849 117.424 538.97C153.311 559.718 182.457 609.95 182.457 651.446C182.457 669.7 176.817 683.164 167.445 690.754L208.358 749.324Z" fill="url(#paint15_linear)"/>
<path opacity="0.7" fill-rule="evenodd" clip-rule="evenodd" d="M167.72 691.148C177.457 683.25 182.822 669.414 182.822 651.628C182.822 610.132 153.493 559.536 117.606 538.788C100.118 528.596 83.5412 527.14 71.1539 534.238C68.0419 536.021 65.2748 538.31 62.8757 541.058L63.5261 541.989C65.9293 539.141 68.7236 536.783 71.8826 534.966C76.8011 532.236 82.4482 530.78 88.4597 530.78C97.2037 530.78 107.041 533.692 117.242 539.516C152.947 560.082 181.911 610.314 181.911 651.446C181.911 668.999 176.634 682.563 167.09 690.245L167.72 691.148Z" fill="url(#paint16_linear)"/>
<path opacity="0.7" fill-rule="evenodd" clip-rule="evenodd" d="M208.664 749.761C224.951 735.469 233.829 711.509 233.829 680.93C233.829 607.038 181.729 516.948 117.607 480.002C86.4561 461.984 57.1272 459.072 35.085 471.812C30.1812 474.647 25.7643 478.174 21.8604 482.342L22.5703 483.358C26.4687 479.137 30.8924 475.573 35.8137 472.722C44.7399 467.626 54.7591 465.078 65.6891 465.078C81.5376 465.078 99.0256 470.356 117.242 480.912C181.001 517.676 232.918 607.402 232.918 680.93C232.918 711.222 224.159 734.884 208.114 748.974L208.664 749.761Z" fill="url(#paint17_linear)"/>
<g opacity="0.4">
<g opacity="0.4">
<path opacity="0.4" d="M119.428 534.238C119.428 534.966 118.882 535.148 118.335 534.966C117.789 534.602 117.242 533.692 117.242 532.964C117.242 532.236 117.789 532.054 118.335 532.236C118.882 532.782 119.428 533.692 119.428 534.238Z" fill="#00CD6B"/>
<path opacity="0.4" d="M106.859 528.232C107.041 528.96 106.495 529.506 105.948 529.142C105.402 528.96 104.673 528.05 104.673 527.322C104.491 526.594 105.037 526.048 105.584 526.412C106.312 526.594 106.859 527.322 106.859 528.232Z" fill="#00CD6B"/>
<path opacity="0.4" d="M94.8357 524.774C95.0179 525.502 94.8357 526.048 94.107 526.048C93.5605 526.048 92.8319 525.32 92.6497 524.41C92.4675 523.682 92.6497 523.136 93.3783 523.136C93.9249 523.318 94.4714 524.046 94.8357 524.774Z" fill="#00CD6B"/>
<path opacity="0.4" d="M83.3593 524.228C83.7237 524.956 83.5415 525.684 82.995 525.684C82.4485 525.684 81.7199 525.138 81.5377 524.41C81.1734 523.682 81.3555 522.954 81.902 522.954C82.2663 522.954 82.995 523.5 83.3593 524.228Z" fill="#00CD6B"/>
<path opacity="0.4" d="M73.158 526.776C73.5224 527.504 73.5224 528.414 72.9759 528.596C72.4294 528.778 71.8828 528.414 71.3363 527.504C70.7898 526.594 70.972 525.866 71.5185 525.684C71.8828 525.502 72.6115 525.866 73.158 526.776Z" fill="#00CD6B"/>
<path opacity="0.4" d="M64.2318 531.872C64.7783 532.6 64.7783 533.51 64.4139 533.692C64.0496 534.056 63.3209 533.692 62.7744 532.964C62.228 532.236 62.228 531.326 62.5923 531.144C63.1388 530.962 63.6853 531.144 64.2318 531.872Z" fill="#00CD6B"/>
<path opacity="0.4" d="M176.264 693.488C175.718 692.76 175.536 691.85 175.9 691.486C176.264 691.122 176.993 691.304 177.357 692.032C177.904 692.76 178.086 693.67 177.722 694.034C177.54 694.58 176.811 694.216 176.264 693.488Z" fill="#00CD6B"/>
<path opacity="0.4" d="M182.458 684.388C181.911 683.842 181.547 682.932 181.911 682.386C182.093 681.84 182.822 682.022 183.369 682.568C183.915 683.114 184.28 684.024 183.915 684.57C183.551 685.116 183.004 685.116 182.458 684.388Z" fill="#00CD6B"/>
<path opacity="0.4" d="M186.465 673.104C185.919 672.558 185.555 671.648 185.555 671.102C185.555 670.556 186.283 670.374 186.83 670.92C187.376 671.466 187.741 672.376 187.741 672.922C187.558 673.468 187.012 673.65 186.465 673.104Z" fill="#00CD6B"/>
<path opacity="0.4" d="M188.287 659.818C187.741 659.454 187.194 658.544 187.194 657.816C187.194 657.088 187.741 656.906 188.287 657.27C188.834 657.634 189.38 658.544 189.38 659.272C189.562 660 189.016 660.182 188.287 659.818Z" fill="#00CD6B"/>
<path opacity="0.4" d="M187.923 645.076C187.376 644.894 186.83 643.984 186.648 643.256C186.648 642.528 187.012 642.164 187.559 642.346C188.105 642.528 188.652 643.438 188.834 644.166C189.016 644.894 188.652 645.44 187.923 645.076Z" fill="#00CD6B"/>
<path opacity="0.4" d="M185.373 629.424C184.826 629.242 184.097 628.514 183.915 627.786C183.733 627.058 184.097 626.512 184.644 626.512C185.19 626.694 185.919 627.422 186.101 628.15C186.283 629.06 185.919 629.606 185.373 629.424Z" fill="#00CD6B"/>
<path opacity="0.4" d="M180.636 613.226C180.09 613.226 179.361 612.68 179.179 611.77C178.815 611.042 179.179 610.314 179.543 610.314C180.09 610.314 180.818 610.86 181.001 611.77C181.365 612.68 181.183 613.226 180.636 613.226Z" fill="#00CD6B"/>
<path opacity="0.4" d="M173.896 597.21C173.35 597.392 172.803 596.846 172.257 596.118C171.892 595.39 171.892 594.662 172.439 594.48C172.985 594.298 173.532 594.844 174.078 595.572C174.625 596.3 174.26 597.028 173.896 597.21Z" fill="#00CD6B"/>
<path opacity="0.4" d="M165.334 581.558C164.97 581.922 164.241 581.558 163.695 580.83C163.148 580.102 163.148 579.192 163.513 579.01C163.877 578.646 164.606 579.01 165.152 579.738C165.699 580.466 165.699 581.376 165.334 581.558Z" fill="#00CD6B"/>
<path opacity="0.4" d="M155.315 566.998C154.951 567.362 154.404 567.18 153.858 566.634C153.311 565.906 153.129 564.996 153.494 564.632C153.858 564.268 154.404 564.45 154.951 564.996C155.497 565.724 155.497 566.634 155.315 566.998Z" fill="#00CD6B"/>
<path opacity="0.4" d="M144.021 554.076C143.839 554.622 143.11 554.622 142.563 554.076C142.017 553.53 141.653 552.62 141.835 552.074C142.017 551.528 142.746 551.528 143.292 552.074C144.021 552.62 144.203 553.53 144.021 554.076Z" fill="#00CD6B"/>
<path opacity="0.4" d="M131.998 543.156C131.816 543.702 131.269 543.884 130.723 543.52C130.176 542.974 129.63 542.064 129.812 541.518C129.994 540.972 130.541 540.79 131.087 541.154C131.634 541.518 131.998 542.428 131.998 543.156Z" fill="#00CD6B"/>
</g>
<g opacity="0.9">
<path opacity="0.9" d="M119.61 522.59C119.61 523.318 119.064 523.682 118.335 523.318C117.607 522.954 117.06 521.862 117.06 521.134C117.06 520.406 117.607 520.042 118.335 520.406C119.064 520.77 119.61 521.862 119.61 522.59Z" fill="#00CD6B"/>
<path opacity="0.9" d="M105.219 515.492C105.401 516.402 104.855 516.948 104.126 516.584C103.397 516.402 102.851 515.492 102.669 514.582C102.487 513.672 103.033 513.126 103.762 513.49C104.491 513.854 105.219 514.764 105.219 515.492Z" fill="#00CD6B"/>
<path opacity="0.9" d="M91.3745 511.67C91.5567 512.58 91.3746 513.308 90.6459 513.126C89.9172 512.944 89.1885 512.216 89.0064 511.306C88.8242 510.396 89.0064 509.668 89.735 509.85C90.2815 510.032 91.0102 510.76 91.3745 511.67Z" fill="#00CD6B"/>
<path opacity="0.9" d="M78.2585 511.124C78.6229 512.034 78.4407 512.762 77.8942 512.944C77.3477 512.944 76.4369 512.398 76.0726 511.488C75.7083 510.578 75.8904 509.85 76.4369 509.668C77.1656 509.486 77.8942 510.214 78.2585 511.124Z" fill="#00CD6B"/>
<path opacity="0.9" d="M66.4178 513.854C66.9643 514.764 66.7821 515.674 66.2356 515.856C65.6891 516.038 64.9605 515.492 64.414 514.764C63.8675 513.854 64.0496 512.944 64.5961 512.762C65.1426 512.398 66.0535 512.944 66.4178 513.854Z" fill="#00CD6B"/>
<path opacity="0.9" d="M56.3985 519.86C56.945 520.77 57.1272 521.68 56.5807 522.044C56.2164 522.408 55.3055 522.044 54.759 521.316C54.2125 520.406 54.0303 519.496 54.5768 519.132C54.9411 518.586 55.852 518.95 56.3985 519.86Z" fill="#00CD6B"/>
<path opacity="0.9" d="M184.644 705.136C184.097 704.408 183.915 703.316 184.28 702.952C184.644 702.588 185.373 702.77 186.101 703.498C186.648 704.226 186.83 705.318 186.466 705.682C186.101 706.046 185.191 705.864 184.644 705.136Z" fill="#00CD6B"/>
<path opacity="0.9" d="M191.748 694.58C191.02 693.852 190.838 692.76 191.02 692.214C191.384 691.668 192.113 691.668 192.659 692.396C193.388 693.124 193.57 694.216 193.388 694.762C193.024 695.308 192.295 695.308 191.748 694.58Z" fill="#00CD6B"/>
<path opacity="0.9" d="M196.302 681.658C195.574 681.112 195.209 680.02 195.392 679.292C195.574 678.564 196.302 678.564 196.849 679.11C197.578 679.656 197.942 680.748 197.76 681.476C197.76 682.022 197.031 682.204 196.302 681.658Z" fill="#00CD6B"/>
<path opacity="0.9" d="M198.489 666.37C197.76 666.006 197.213 664.914 197.213 664.186C197.213 663.458 197.76 663.094 198.489 663.64C199.217 664.004 199.764 665.096 199.764 665.824C199.764 666.552 199.217 666.916 198.489 666.37Z" fill="#00CD6B"/>
<path opacity="0.9" d="M198.124 649.626C197.396 649.262 196.849 648.352 196.667 647.624C196.485 646.714 197.031 646.35 197.76 646.532C198.489 646.896 199.035 647.806 199.217 648.534C199.217 649.444 198.853 649.808 198.124 649.626Z" fill="#00CD6B"/>
<path opacity="0.9" d="M195.21 631.608C194.481 631.426 193.752 630.698 193.57 629.788C193.388 628.878 193.752 628.332 194.299 628.332C195.027 628.514 195.756 629.242 195.938 630.152C196.12 631.062 195.756 631.79 195.21 631.608Z" fill="#00CD6B"/>
<path opacity="0.9" d="M189.745 613.044C189.198 613.044 188.287 612.316 188.105 611.406C187.741 610.496 187.923 609.768 188.652 609.768C189.198 609.768 190.109 610.496 190.291 611.406C190.473 612.316 190.291 613.044 189.745 613.044Z" fill="#00CD6B"/>
<path opacity="0.9" d="M181.911 594.662C181.365 594.844 180.636 594.298 180.09 593.388C179.725 592.478 179.725 591.568 180.272 591.386C180.818 591.204 181.547 591.75 182.093 592.66C182.64 593.57 182.458 594.48 181.911 594.662Z" fill="#00CD6B"/>
<path opacity="0.9" d="M172.074 576.826C171.528 577.19 170.799 576.826 170.253 575.916C169.706 575.006 169.706 574.096 170.071 573.732C170.617 573.368 171.346 573.732 171.892 574.642C172.621 575.37 172.621 576.462 172.074 576.826Z" fill="#00CD6B"/>
<path opacity="0.9" d="M160.598 560.082C160.234 560.628 159.505 560.264 158.776 559.536C158.23 558.808 158.048 557.716 158.412 557.352C158.776 556.806 159.505 557.17 160.234 557.898C160.78 558.626 160.962 559.718 160.598 560.082Z" fill="#00CD6B"/>
<path opacity="0.9" d="M147.846 545.34C147.664 545.886 146.935 545.886 146.207 545.34C145.478 544.612 145.296 543.702 145.478 542.974C145.66 542.428 146.389 542.428 147.118 542.974C147.846 543.52 148.028 544.612 147.846 545.34Z" fill="#00CD6B"/>
<path opacity="0.9" d="M134.001 532.6C133.819 533.328 133.273 533.51 132.544 532.964C131.816 532.418 131.451 531.326 131.451 530.598C131.633 529.87 132.18 529.688 132.909 530.234C133.637 530.78 134.001 531.872 134.001 532.6Z" fill="#00CD6B"/>
</g>
<g opacity="0.6">
<path opacity="0.6" d="M119.793 510.578C119.793 511.488 119.064 511.852 118.335 511.488C117.607 511.124 116.878 509.85 116.878 508.94C116.878 508.03 117.607 507.666 118.335 508.03C119.064 508.394 119.793 509.668 119.793 510.578Z" fill="#00CD6B"/>
<path opacity="0.6" d="M103.58 502.57C103.762 503.48 103.215 504.208 102.487 503.844C101.758 503.48 101.029 502.57 100.847 501.478C100.665 500.568 101.212 499.84 101.94 500.204C102.669 500.568 103.398 501.66 103.58 502.57Z" fill="#00CD6B"/>
<path opacity="0.6" d="M87.731 498.202C88.0953 499.294 87.5489 500.022 86.8202 499.84C86.0915 499.658 85.1807 498.748 84.9986 497.838C84.8164 496.928 85.1807 496.018 85.9094 496.2C86.638 496.2 87.5489 497.11 87.731 498.202Z" fill="#00CD6B"/>
<path opacity="0.6" d="M72.9757 497.474C73.34 498.566 73.1578 499.476 72.4292 499.476C71.7005 499.476 70.7897 498.748 70.4253 497.838C70.061 496.746 70.2432 495.836 70.9718 495.836C71.7005 495.654 72.6113 496.564 72.9757 497.474Z" fill="#00CD6B"/>
<path opacity="0.6" d="M59.6776 500.568C60.2241 501.478 60.2241 502.57 59.4954 502.752C58.9489 502.934 58.0381 502.388 57.4916 501.478C56.9451 500.568 56.9451 499.476 57.6738 499.294C58.2203 499.112 59.1311 499.658 59.6776 500.568Z" fill="#00CD6B"/>
<path opacity="0.6" d="M48.201 507.484C48.7475 508.394 48.9296 509.486 48.3831 510.032C47.8366 510.396 46.9258 510.032 46.3793 509.122C45.8328 508.212 45.6507 507.12 46.1972 506.574C46.7437 506.028 47.6545 506.574 48.201 507.484Z" fill="#00CD6B"/>
<path opacity="0.6" d="M193.388 716.966C192.659 716.056 192.477 714.964 193.024 714.418C193.388 713.872 194.299 714.236 195.027 715.146C195.756 716.056 195.938 717.148 195.392 717.694C194.845 718.24 194.117 717.876 193.388 716.966Z" fill="#00CD6B"/>
<path opacity="0.6" d="M201.403 705.136C200.674 704.408 200.31 703.134 200.674 702.588C201.039 701.86 201.767 702.042 202.496 702.77C203.225 703.498 203.589 704.772 203.225 705.318C202.86 706.046 202.132 705.864 201.403 705.136Z" fill="#00CD6B"/>
<path opacity="0.6" d="M206.686 690.394C205.958 689.666 205.411 688.574 205.593 687.846C205.775 687.118 206.504 686.936 207.233 687.664C207.961 688.392 208.508 689.484 208.326 690.212C208.143 690.94 207.415 690.94 206.686 690.394Z" fill="#00CD6B"/>
<path opacity="0.6" d="M209.054 673.286C208.326 672.74 207.597 671.648 207.597 670.738C207.597 669.828 208.326 669.464 209.054 670.01C209.783 670.556 210.512 671.648 210.512 672.558C210.512 673.286 209.783 673.65 209.054 673.286Z" fill="#00CD6B"/>
<path opacity="0.6" d="M208.508 654.176C207.779 653.812 207.05 652.72 206.868 651.81C206.686 650.9 207.233 650.354 208.143 650.718C208.872 651.082 209.601 652.174 209.783 653.084C209.965 653.994 209.419 654.54 208.508 654.176Z" fill="#00CD6B"/>
<path opacity="0.6" d="M205.229 633.792C204.5 633.61 203.589 632.7 203.407 631.608C203.225 630.516 203.589 629.97 204.318 629.97C205.047 630.152 205.957 631.062 206.14 632.154C206.322 633.246 205.957 633.974 205.229 633.792Z" fill="#00CD6B"/>
<path opacity="0.6" d="M199.035 612.862C198.306 612.862 197.396 612.134 197.031 611.042C196.667 609.95 196.849 609.222 197.578 609.04C198.306 609.04 199.217 609.768 199.582 610.86C199.946 611.952 199.764 612.862 199.035 612.862Z" fill="#00CD6B"/>
<path opacity="0.6" d="M190.291 591.932C189.745 592.114 188.834 591.568 188.287 590.476C187.741 589.384 187.923 588.474 188.469 588.292C189.016 588.11 189.927 588.656 190.473 589.748C191.02 590.84 190.838 591.75 190.291 591.932Z" fill="#00CD6B"/>
<path opacity="0.6" d="M179.179 571.73C178.633 572.094 177.722 571.73 177.175 570.638C176.629 569.728 176.447 568.636 176.993 568.272C177.54 567.908 178.45 568.272 178.997 569.364C179.726 570.274 179.726 571.366 179.179 571.73Z" fill="#00CD6B"/>
<path opacity="0.6" d="M166.245 552.984C165.881 553.53 164.97 553.348 164.241 552.438C163.512 551.528 163.33 550.436 163.695 549.89C164.059 549.344 164.97 549.526 165.698 550.436C166.427 551.346 166.609 552.438 166.245 552.984Z" fill="#00CD6B"/>
<path opacity="0.6" d="M151.672 536.24C151.307 536.968 150.579 536.968 149.85 536.058C149.121 535.33 148.757 534.056 148.939 533.51C149.304 532.782 150.032 532.782 150.761 533.692C151.49 534.238 151.854 535.512 151.672 536.24Z" fill="#00CD6B"/>
<path opacity="0.6" d="M136.005 521.862C135.823 522.772 135.095 522.772 134.366 522.226C133.637 521.68 133.091 520.406 133.273 519.678C133.455 518.768 134.184 518.768 134.912 519.314C135.641 519.86 136.188 521.134 136.005 521.862Z" fill="#00CD6B"/>
</g>
<g opacity="0.3">
<path opacity="0.3" d="M119.975 500.568C119.975 501.66 119.246 502.024 118.335 501.478C117.424 500.932 116.696 499.658 116.696 498.748C116.696 497.838 117.424 497.292 118.335 497.838C119.246 498.384 119.975 499.476 119.975 500.568Z" fill="#00CD6B"/>
<path opacity="0.3" d="M102.122 491.832C102.305 492.924 101.758 493.47 100.847 493.288C99.9365 492.924 99.2078 491.832 99.0256 490.74C98.8435 489.648 99.39 489.102 100.301 489.284C101.212 489.648 101.94 490.74 102.122 491.832Z" fill="#00CD6B"/>
<path opacity="0.3" d="M84.8165 486.918C85.1808 488.01 84.6343 488.92 83.9057 488.738C83.177 488.556 82.2662 487.646 81.9019 486.554C81.5375 485.462 82.084 484.552 82.8127 484.734C83.5413 484.916 84.4522 485.826 84.8165 486.918Z" fill="#00CD6B"/>
<path opacity="0.3" d="M68.6037 486.372C68.968 487.464 68.7858 488.556 68.0572 488.556C67.3285 488.556 66.4176 487.828 65.8711 486.736C65.5068 485.644 65.689 484.552 66.4176 484.552C67.1463 484.37 68.2393 485.098 68.6037 486.372Z" fill="#00CD6B"/>
<path opacity="0.3" d="M54.0304 489.648C54.5769 490.74 54.5769 491.832 53.8482 492.196C53.1196 492.56 52.2088 491.832 51.6623 490.74C51.1158 489.648 51.1157 488.556 51.8444 488.192C52.5731 487.828 53.4839 488.556 54.0304 489.648Z" fill="#00CD6B"/>
<path opacity="0.3" d="M41.4608 497.11C42.1895 498.202 42.1895 499.294 41.643 499.84C41.0965 500.386 40.1856 499.84 39.457 498.93C38.7283 497.838 38.7283 496.746 39.2748 496.2C39.8213 495.654 40.7321 496.018 41.4608 497.11Z" fill="#00CD6B"/>
<path opacity="0.3" d="M200.492 726.794C199.764 725.884 199.582 724.61 200.128 724.064C200.675 723.518 201.585 723.882 202.314 724.792C203.043 725.702 203.225 726.976 202.678 727.522C202.314 728.068 201.221 727.704 200.492 726.794Z" fill="#00CD6B"/>
<path opacity="0.3" d="M209.237 713.69C208.508 712.78 208.144 711.506 208.326 710.778C208.69 710.05 209.601 710.232 210.33 710.96C211.058 711.87 211.422 713.144 211.24 713.872C211.058 714.782 210.147 714.6 209.237 713.69Z" fill="#00CD6B"/>
<path opacity="0.3" d="M215.066 697.674C214.155 696.946 213.608 695.672 213.791 694.762C213.973 693.852 214.884 693.852 215.612 694.398C216.523 695.126 217.07 696.4 216.887 697.31C216.705 698.22 215.976 698.402 215.066 697.674Z" fill="#00CD6B"/>
<path opacity="0.3" d="M217.798 678.746C216.887 678.2 216.159 676.926 216.341 676.016C216.341 675.106 217.07 674.742 217.98 675.288C218.891 675.834 219.62 677.108 219.438 678.018C219.438 678.928 218.709 679.292 217.798 678.746Z" fill="#00CD6B"/>
<path opacity="0.3" d="M217.252 657.998C216.341 657.634 215.612 656.542 215.43 655.45C215.248 654.358 215.977 653.812 216.705 654.176C217.616 654.54 218.345 655.632 218.527 656.724C218.709 657.816 218.163 658.362 217.252 657.998Z" fill="#00CD6B"/>
<path opacity="0.3" d="M213.608 635.612C212.698 635.43 211.969 634.338 211.605 633.246C211.422 632.154 211.787 631.426 212.698 631.608C213.608 631.79 214.337 632.882 214.702 633.974C214.884 635.066 214.337 635.794 213.608 635.612Z" fill="#00CD6B"/>
<path opacity="0.3" d="M206.868 612.68C206.14 612.68 205.229 611.77 204.682 610.678C204.318 609.586 204.5 608.676 205.411 608.494C206.14 608.494 207.05 609.404 207.597 610.496C207.779 611.77 207.597 612.68 206.868 612.68Z" fill="#00CD6B"/>
<path opacity="0.3" d="M197.213 589.748C196.485 589.93 195.574 589.202 195.027 588.11C194.481 587.018 194.663 585.926 195.21 585.744C195.938 585.562 196.849 586.29 197.396 587.382C197.942 588.474 197.942 589.566 197.213 589.748Z" fill="#00CD6B"/>
<path opacity="0.3" d="M185.008 567.726C184.462 568.09 183.369 567.726 182.822 566.634C182.094 565.542 182.094 564.45 182.64 563.904C183.187 563.54 184.28 563.904 184.826 564.996C185.555 566.088 185.555 567.18 185.008 567.726Z" fill="#00CD6B"/>
<path opacity="0.3" d="M170.799 547.16C170.435 547.706 169.342 547.524 168.613 546.614C167.885 545.704 167.702 544.43 168.067 543.884C168.431 543.338 169.524 543.52 170.253 544.43C170.981 545.158 171.163 546.432 170.799 547.16Z" fill="#00CD6B"/>
<path opacity="0.3" d="M154.768 528.596C154.404 529.324 153.493 529.324 152.765 528.414C152.036 527.504 151.489 526.23 151.854 525.502C152.218 524.774 153.129 524.774 153.858 525.684C154.768 526.594 155.133 527.868 154.768 528.596Z" fill="#00CD6B"/>
<path opacity="0.3" d="M137.645 512.944C137.463 513.854 136.734 514.036 135.823 513.308C134.912 512.58 134.366 511.306 134.548 510.396C134.73 509.486 135.459 509.304 136.37 510.032C137.281 510.76 137.827 512.034 137.645 512.944Z" fill="#00CD6B"/>
</g>
<g opacity="0.1">
<path opacity="0.1" d="M120.157 489.466C120.157 490.558 119.428 491.104 118.335 490.558C117.424 490.012 116.514 488.738 116.514 487.464C116.514 486.19 117.242 485.826 118.335 486.372C119.246 486.918 120.157 488.374 120.157 489.466Z" fill="#00CD6B"/>
<path opacity="0.1" d="M100.483 479.82C100.665 481.094 100.119 481.64 99.0256 481.276C98.1148 480.912 97.204 479.638 97.0218 478.546C96.8397 477.454 97.3862 476.726 98.4791 477.09C99.39 477.272 100.301 478.546 100.483 479.82Z" fill="#00CD6B"/>
<path opacity="0.1" d="M81.5376 474.542C81.902 475.816 81.3555 476.726 80.4446 476.544C79.5338 476.362 78.623 475.27 78.2587 473.996C77.8943 472.722 78.4408 471.812 79.3517 471.994C80.2625 472.176 81.1733 473.268 81.5376 474.542Z" fill="#00CD6B"/>
<path opacity="0.1" d="M63.8675 473.814C64.414 475.088 64.0497 476.18 63.321 476.18C62.4102 476.362 61.4993 475.27 60.9528 474.178C60.4063 472.904 60.7707 471.812 61.4993 471.812C62.228 471.63 63.321 472.54 63.8675 473.814Z" fill="#00CD6B"/>
<path opacity="0.1" d="M47.8368 477.454C48.3833 478.728 48.3833 479.82 47.6547 480.184C46.926 480.548 45.833 479.82 45.2865 478.546C44.74 477.272 44.74 476.18 45.4687 475.816C46.1973 475.452 47.1082 476.362 47.8368 477.454Z" fill="#00CD6B"/>
<path opacity="0.1" d="M33.992 485.644C34.7207 486.736 34.9029 488.01 34.3564 488.556C33.8099 489.102 32.7169 488.556 31.9882 487.464C31.2596 486.372 31.0774 485.098 31.6239 484.552C32.1704 484.006 33.2634 484.552 33.992 485.644Z" fill="#00CD6B"/>
<path opacity="0.1" d="M208.69 737.714C207.961 736.622 207.597 735.348 208.144 734.62C208.69 733.892 209.783 734.438 210.512 735.53C211.24 736.622 211.605 737.896 211.058 738.624C210.512 739.352 209.419 738.806 208.69 737.714Z" fill="#00CD6B"/>
<path opacity="0.1" d="M218.163 723.518C217.252 722.608 216.888 721.152 217.252 720.424C217.616 719.696 218.709 719.696 219.62 720.606C220.531 721.516 220.895 722.972 220.531 723.7C220.167 724.428 219.074 724.428 218.163 723.518Z" fill="#00CD6B"/>
<path opacity="0.1" d="M224.538 705.682C223.628 704.954 223.081 703.498 223.263 702.588C223.445 701.678 224.356 701.496 225.267 702.224C226.178 702.952 226.724 704.408 226.542 705.318C226.36 706.228 225.449 706.592 224.538 705.682Z" fill="#00CD6B"/>
<path opacity="0.1" d="M227.453 685.116C226.542 684.57 225.813 683.114 225.813 682.022C225.813 680.93 226.724 680.566 227.635 681.112C228.546 681.658 229.275 683.114 229.275 684.206C229.275 685.298 228.364 685.662 227.453 685.116Z" fill="#00CD6B"/>
<path opacity="0.1" d="M226.906 662.184C225.996 661.82 225.085 660.546 224.903 659.272C224.72 658.18 225.449 657.452 226.36 657.816C227.271 658.18 228.182 659.454 228.364 660.728C228.546 662.002 227.817 662.548 226.906 662.184Z" fill="#00CD6B"/>
<path opacity="0.1" d="M222.899 637.614C221.988 637.432 221.077 636.34 220.713 635.066C220.349 633.792 220.895 633.064 221.806 633.246C222.717 633.428 223.628 634.52 223.992 635.794C224.174 637.068 223.81 637.796 222.899 637.614Z" fill="#00CD6B"/>
<path opacity="0.1" d="M215.43 612.498C214.519 612.498 213.608 611.588 213.062 610.314C212.698 609.04 212.88 608.13 213.791 607.948C214.701 607.948 215.612 608.858 216.159 610.132C216.523 611.406 216.341 612.498 215.43 612.498Z" fill="#00CD6B"/>
<path opacity="0.1" d="M204.864 587.382C204.136 587.564 203.043 586.836 202.496 585.744C201.95 584.47 201.95 583.378 202.861 583.014C203.589 582.832 204.682 583.56 205.229 584.652C205.775 585.926 205.593 587.018 204.864 587.382Z" fill="#00CD6B"/>
<path opacity="0.1" d="M191.566 562.994C191.02 563.54 189.927 562.994 189.198 561.72C188.47 560.446 188.47 559.354 189.016 558.808C189.563 558.262 190.655 558.808 191.384 560.082C192.113 561.356 192.295 562.63 191.566 562.994Z" fill="#00CD6B"/>
<path opacity="0.1" d="M175.9 540.426C175.353 541.154 174.26 540.79 173.532 539.698C172.621 538.606 172.439 537.332 172.985 536.604C173.532 535.876 174.625 536.24 175.353 537.332C176.082 538.424 176.446 539.88 175.9 540.426Z" fill="#00CD6B"/>
<path opacity="0.1" d="M158.412 520.224C158.048 521.134 157.137 520.952 156.226 520.042C155.315 519.132 154.951 517.676 155.133 516.948C155.497 516.038 156.408 516.22 157.319 517.13C158.23 518.04 158.776 519.314 158.412 520.224Z" fill="#00CD6B"/>
<path opacity="0.1" d="M139.649 502.934C139.467 503.844 138.556 504.208 137.645 503.298C136.734 502.57 136.006 501.114 136.188 500.204C136.37 499.294 137.281 498.93 138.192 499.84C139.102 500.568 139.831 502.024 139.649 502.934Z" fill="#00CD6B"/>
</g>
</g>
<path d="M188.287 659.818C187.741 659.454 187.194 658.544 187.194 657.816C187.194 657.088 187.741 656.906 188.287 657.27C188.834 657.634 189.38 658.544 189.38 659.272C189.563 660 189.016 660.182 188.287 659.818Z" fill="#42E8E0"/>
<path d="M185.373 629.424C184.826 629.242 184.097 628.514 183.915 627.786C183.733 627.058 184.097 626.512 184.644 626.512C185.19 626.694 185.919 627.422 186.101 628.15C186.283 629.06 185.919 629.606 185.373 629.424Z" fill="#42E8E0"/>
<path d="M147.846 545.34C147.664 545.886 146.935 545.886 146.207 545.34C145.478 544.612 145.296 543.702 145.478 542.974C145.66 542.428 146.389 542.428 147.118 542.974C147.846 543.52 148.028 544.612 147.846 545.34Z" fill="#42E8E0"/>
<path d="M72.9756 497.474C73.34 498.566 73.1578 499.476 72.4291 499.476C71.7005 499.476 70.7897 498.748 70.4253 497.838C70.061 496.746 70.2432 495.836 70.9718 495.836C71.7005 495.654 72.6113 496.564 72.9756 497.474Z" fill="#42E8E0"/>
<path d="M201.403 705.136C200.675 704.408 200.31 703.134 200.675 702.588C201.039 701.86 201.768 702.042 202.496 702.77C203.225 703.498 203.589 704.772 203.225 705.318C202.861 706.046 202.132 705.864 201.403 705.136Z" fill="#42E8E0"/>
<path d="M205.229 633.792C204.5 633.61 203.589 632.7 203.407 631.608C203.225 630.516 203.589 629.97 204.318 629.97C205.047 630.152 205.957 631.062 206.139 632.154C206.322 633.246 205.957 633.974 205.229 633.792Z" fill="#42E8E0"/>
<path d="M170.799 547.16C170.435 547.706 169.342 547.524 168.613 546.614C167.885 545.704 167.702 544.43 168.067 543.884C168.431 543.338 169.524 543.52 170.253 544.43C170.981 545.158 171.164 546.432 170.799 547.16Z" fill="#42E8E0"/>
<path opacity="0.8" d="M306.331 694.944L305.602 693.852C326.916 681.294 338.757 654.904 338.757 619.778C338.757 546.25 286.839 456.524 223.263 419.76C192.112 401.742 162.966 399.012 141.288 412.116L140.559 411.024C162.784 397.738 192.295 400.468 223.992 418.668C288.114 455.614 340.214 545.886 340.214 619.778C340.032 655.268 328.009 682.022 306.331 694.944Z" fill="url(#paint18_linear)"/>
</g>
<defs>
<linearGradient id="paint0_linear" x1="146.639" y1="540.471" x2="365.133" y2="540.471" gradientUnits="userSpaceOnUse">
<stop stop-color="#2B237C"/>
<stop offset="1" stop-color="#180D5B"/>
</linearGradient>
<linearGradient id="paint1_linear" x1="321.665" y1="585.615" x2="146.045" y2="414.82" gradientUnits="userSpaceOnUse">
<stop stop-color="#180D5B"/>
<stop offset="0.0946347" stop-color="#1A1560"/>
<stop offset="0.2452" stop-color="#1E2D6E"/>
<stop offset="0.2911" stop-color="#203573"/>
<stop offset="0.3878" stop-color="#23467E"/>
<stop offset="0.5805" stop-color="#2C7499"/>
<stop offset="0.8484" stop-color="#3ABCC5"/>
<stop offset="1" stop-color="#42E8E0"/>
</linearGradient>
<linearGradient id="paint2_linear" x1="139.986" y1="545.6" x2="308.458" y2="545.6" gradientUnits="userSpaceOnUse">
<stop stop-color="#2B237C"/>
<stop offset="1" stop-color="#180D5B"/>
</linearGradient>
<radialGradient id="paint3_radial" cx="0" cy="0" r="1" gradientUnits="userSpaceOnUse" gradientTransform="translate(190.231 526.733) scale(218.694 218.494)">
<stop stop-color="#180D5B"/>
<stop offset="0.0949797" stop-color="#1A1660"/>
<stop offset="0.2466" stop-color="#1E2D6E"/>
<stop offset="0.436" stop-color="#255385"/>
<stop offset="0.6555" stop-color="#2F87A5"/>
<stop offset="0.8978" stop-color="#3CCACE"/>
<stop offset="1" stop-color="#42E8E0"/>
</radialGradient>
<radialGradient id="paint4_radial" cx="0" cy="0" r="1" gradientUnits="userSpaceOnUse" gradientTransform="translate(239.206 543.214) scale(92.76 92.6751)">
<stop stop-color="#180D5B"/>
<stop offset="0.0949797" stop-color="#1A1660"/>
<stop offset="0.2466" stop-color="#1E2D6E"/>
<stop offset="0.436" stop-color="#255385"/>
<stop offset="0.6555" stop-color="#2F87A5"/>
<stop offset="0.8978" stop-color="#3CCACE"/>
<stop offset="1" stop-color="#42E8E0"/>
</radialGradient>
<linearGradient id="paint5_linear" x1="342.761" y1="696.813" x2="77.6061" y2="362.568" gradientUnits="userSpaceOnUse">
<stop stop-color="#180D5B"/>
<stop offset="0.0949797" stop-color="#1A1660"/>
<stop offset="0.2466" stop-color="#1E2D6E"/>
<stop offset="0.436" stop-color="#255385"/>
<stop offset="0.6555" stop-color="#2F87A5"/>
<stop offset="0.8978" stop-color="#3CCACE"/>
<stop offset="1" stop-color="#42E8E0"/>
</linearGradient>
<linearGradient id="paint6_linear" x1="283.884" y1="622.729" x2="169.924" y2="479.075" gradientUnits="userSpaceOnUse">
<stop stop-color="#180D5B"/>
<stop offset="0.0949797" stop-color="#1A1660"/>
<stop offset="0.2466" stop-color="#1E2D6E"/>
<stop offset="0.436" stop-color="#255385"/>
<stop offset="0.6555" stop-color="#2F87A5"/>
<stop offset="0.8978" stop-color="#3CCACE"/>
<stop offset="1" stop-color="#42E8E0"/>
</linearGradient>
<linearGradient id="paint7_linear" x1="278.242" y1="638.977" x2="138.428" y2="501.378" gradientUnits="userSpaceOnUse">
<stop stop-color="#180D5B"/>
<stop offset="0.0949797" stop-color="#1A1660"/>
<stop offset="0.2466" stop-color="#1E2D6E"/>
<stop offset="0.436" stop-color="#255385"/>
<stop offset="0.6555" stop-color="#2F87A5"/>
<stop offset="0.8978" stop-color="#3CCACE"/>
<stop offset="1" stop-color="#42E8E0"/>
</linearGradient>
<linearGradient id="paint8_linear" x1="86.0785" y1="565.344" x2="339.405" y2="565.344" gradientUnits="userSpaceOnUse">
<stop stop-color="#2B237C"/>
<stop offset="1" stop-color="#180D5B"/>
</linearGradient>
<linearGradient id="paint9_linear" x1="318.38" y1="695.579" x2="147.876" y2="387.357" gradientUnits="userSpaceOnUse">
<stop stop-color="#41E3DD"/>
<stop offset="0.0121756" stop-color="#3FD8D6"/>
<stop offset="0.0632885" stop-color="#37ADBC"/>
<stop offset="0.117" stop-color="#3088A5"/>
<stop offset="0.1728" stop-color="#2A6A93"/>
<stop offset="0.2313" stop-color="#265285"/>
<stop offset="0.2939" stop-color="#22427B"/>
<stop offset="0.3631" stop-color="#213875"/>
<stop offset="0.4525" stop-color="#203573"/>
<stop offset="0.5272" stop-color="#23467E"/>
<stop offset="0.676" stop-color="#2C7499"/>
<stop offset="0.883" stop-color="#3ABCC5"/>
<stop offset="1" stop-color="#42E8E0"/>
</linearGradient>
<linearGradient id="paint10_linear" x1="282.199" y1="731.785" x2="16.1394" y2="401.547" gradientUnits="userSpaceOnUse">
<stop stop-color="#180D5B"/>
<stop offset="0.0949797" stop-color="#1A1660"/>
<stop offset="0.2466" stop-color="#1E2D6E"/>
<stop offset="0.436" stop-color="#255385"/>
<stop offset="0.6555" stop-color="#2F87A5"/>
<stop offset="0.8978" stop-color="#3CCACE"/>
<stop offset="1" stop-color="#42E8E0"/>
</linearGradient>
<linearGradient id="paint11_linear" x1="167.846" y1="627.085" x2="123.952" y2="586.117" gradientUnits="userSpaceOnUse">
<stop stop-color="#180D5B"/>
<stop offset="0.0949797" stop-color="#1A1660"/>
<stop offset="0.2466" stop-color="#1E2D6E"/>
<stop offset="0.436" stop-color="#255385"/>
<stop offset="0.6555" stop-color="#2F87A5"/>
<stop offset="0.8978" stop-color="#3CCACE"/>
<stop offset="1" stop-color="#42E8E0"/>
</linearGradient>
<linearGradient id="paint12_linear" x1="267.8" y1="713.664" x2="64.9864" y2="458.005" gradientUnits="userSpaceOnUse">
<stop stop-color="#180D5B"/>
<stop offset="0.0949797" stop-color="#1A1660"/>
<stop offset="0.2466" stop-color="#1E2D6E"/>
<stop offset="0.436" stop-color="#255385"/>
<stop offset="0.6555" stop-color="#2F87A5"/>
<stop offset="0.8978" stop-color="#3CCACE"/>
<stop offset="1" stop-color="#42E8E0"/>
</linearGradient>
<linearGradient id="paint13_linear" x1="37.2453" y1="603.561" x2="255.739" y2="603.561" gradientUnits="userSpaceOnUse">
<stop stop-color="#2B237C"/>
<stop offset="1" stop-color="#180D5B"/>
</linearGradient>
<linearGradient id="paint14_linear" x1="211.166" y1="647.633" x2="35.5462" y2="476.838" gradientUnits="userSpaceOnUse">
<stop stop-color="#180D5B"/>
<stop offset="0.0946347" stop-color="#1A1560"/>
<stop offset="0.2452" stop-color="#1E2D6E"/>
<stop offset="0.2911" stop-color="#203573"/>
<stop offset="0.3878" stop-color="#23467E"/>
<stop offset="0.5805" stop-color="#2C7499"/>
<stop offset="0.8484" stop-color="#3ABCC5"/>
<stop offset="1" stop-color="#42E8E0"/>
</linearGradient>
<linearGradient id="paint15_linear" x1="233.367" y1="759.904" x2="-31.7878" y2="425.658" gradientUnits="userSpaceOnUse">
<stop stop-color="#180D5B"/>
<stop offset="0.0949797" stop-color="#1A1660"/>
<stop offset="0.2466" stop-color="#1E2D6E"/>
<stop offset="0.436" stop-color="#255385"/>
<stop offset="0.6555" stop-color="#2F87A5"/>
<stop offset="0.8978" stop-color="#3CCACE"/>
<stop offset="1" stop-color="#42E8E0"/>
</linearGradient>
<linearGradient id="paint16_linear" x1="174.489" y1="685.82" x2="60.5301" y2="542.166" gradientUnits="userSpaceOnUse">
<stop stop-color="#180D5B"/>
<stop offset="0.0949797" stop-color="#1A1660"/>
<stop offset="0.2466" stop-color="#1E2D6E"/>
<stop offset="0.436" stop-color="#255385"/>
<stop offset="0.6555" stop-color="#2F87A5"/>
<stop offset="0.8978" stop-color="#3CCACE"/>
<stop offset="1" stop-color="#42E8E0"/>
</linearGradient>
<linearGradient id="paint17_linear" x1="218.967" y1="741.783" x2="16.1532" y2="486.123" gradientUnits="userSpaceOnUse">
<stop stop-color="#180D5B"/>
<stop offset="0.0949797" stop-color="#1A1660"/>
<stop offset="0.2466" stop-color="#1E2D6E"/>
<stop offset="0.436" stop-color="#255385"/>
<stop offset="0.6555" stop-color="#2F87A5"/>
<stop offset="0.8978" stop-color="#3CCACE"/>
<stop offset="1" stop-color="#42E8E0"/>
</linearGradient>
<linearGradient id="paint18_linear" x1="343.18" y1="674.535" x2="184.037" y2="386.851" gradientUnits="userSpaceOnUse">
<stop stop-color="#203573"/>
<stop offset="0.0676442" stop-color="#23467E"/>
<stop offset="0.2024" stop-color="#2C7499"/>
<stop offset="0.3898" stop-color="#3ABCC5"/>
<stop offset="0.4958" stop-color="#42E8E0"/>
<stop offset="1" stop-color="#203573"/>
</linearGradient>
<clipPath id="clip0">
<rect width="1178" height="870" fill="white"/>
</clipPath>
</defs>
</svg>
