<svg width="1178" height="870" viewBox="0 0 1178 870" fill="none" xmlns="http://www.w3.org/2000/svg">
<g clip-path="url(#clip0)">
<path d="M365.171 605.036C365.171 531.144 313.254 441.418 249.313 404.472C216.887 385.726 187.559 384.27 166.609 396.828L146.753 408.294L169.524 430.68H169.706C169.524 431.408 169.524 432.136 169.342 433.046C188.834 434.684 207.961 441.782 225.996 451.246C226.907 449.79 227.817 448.334 228.728 447.06L263.522 456.706L306.878 540.79L308.335 602.306C304.327 620.688 299.773 639.798 287.932 654.176C295.401 658.18 302.688 661.274 309.792 663.458L309.61 692.76L331.835 680.02C352.419 667.462 365.171 641.618 365.171 605.036Z" fill="url(#paint0_linear)"/>
<path opacity="0.8" d="M365.171 605.036C365.171 531.144 313.254 441.418 249.313 404.472C216.887 385.726 187.559 384.27 166.609 396.828L146.753 408.294L169.524 430.68H169.706C169.524 431.408 169.524 432.136 169.342 433.046C188.834 434.684 207.961 441.782 225.996 451.246C226.907 449.79 227.817 448.334 228.728 447.06L263.522 456.706L306.878 540.79L308.335 602.306C304.327 620.688 299.773 639.798 287.932 654.176C295.401 658.18 302.688 661.274 309.792 663.458L309.61 692.76L331.835 680.02C352.419 667.462 365.171 641.618 365.171 605.036Z" fill="url(#paint1_linear)"/>
<path d="M284.107 592.842C248.22 572.094 219.073 521.862 219.073 480.366C219.073 468.354 221.624 458.344 225.814 450.882C207.779 441.418 188.651 434.32 169.16 432.682C168.431 438.506 168.067 444.512 168.067 450.882C168.067 457.616 168.431 464.35 169.342 471.266L146.571 475.998L139.831 489.284L168.067 599.576L224.356 658.18C224.356 658.18 250.952 649.262 269.716 642.164C274.452 645.44 279.188 648.534 283.925 651.446C285.2 652.174 286.475 652.902 287.75 653.63C299.773 639.252 304.145 619.96 308.153 601.214C300.866 600.668 292.669 597.756 284.107 592.842Z" fill="url(#paint2_linear)"/>
<path opacity="0.7" d="M284.107 592.842C248.22 572.094 219.073 521.862 219.073 480.366C219.073 468.354 221.624 458.344 225.814 450.882C207.779 441.418 188.651 434.32 169.16 432.682C168.431 438.506 168.067 444.512 168.067 450.882C168.067 457.616 168.431 464.35 169.342 471.266L146.571 475.998L139.831 489.284L168.067 599.576L224.356 658.18C224.356 658.18 250.952 649.262 269.716 642.164C274.452 645.44 279.188 648.534 283.925 651.446C285.2 652.174 286.475 652.902 287.75 653.63C299.773 639.252 304.145 619.96 308.153 601.214C300.866 600.668 292.669 597.756 284.107 592.842Z" fill="url(#paint3_radial)"/>
<path opacity="0.7" d="M288.297 654.176L287.386 653.448C299.227 639.07 303.781 619.414 307.606 601.942C299.955 601.032 291.94 598.12 283.56 593.388C247.674 572.64 218.345 522.044 218.345 480.548C218.345 468.9 220.531 459.072 224.903 451.246C204.682 440.69 186.283 434.866 168.978 433.41V432.318C186.648 433.774 205.229 439.78 225.814 450.518L226.36 450.7L225.996 451.246C221.442 459.072 219.256 468.9 219.256 480.548C219.256 521.68 248.22 571.912 283.925 592.478C292.304 597.21 300.32 600.122 308.153 601.032H308.699L308.517 601.578C305.056 619.232 300.684 639.434 288.297 654.176Z" fill="url(#paint4_radial)"/>
<path d="M226.906 417.212C162.965 380.266 111.048 410.296 111.048 484.006C111.048 557.898 162.965 647.624 226.906 684.57C290.846 721.516 342.764 691.486 342.764 617.776C342.764 543.884 290.846 454.158 226.906 417.212ZM226.906 625.966C191.019 605.218 161.872 554.986 161.872 513.49C161.872 471.994 191.019 455.25 226.906 475.998C262.793 496.746 291.939 546.978 291.939 588.474C291.939 629.97 262.793 646.532 226.906 625.966Z" fill="#312A91"/>
<path opacity="0.7" d="M226.906 417.212C162.965 380.266 111.048 410.296 111.048 484.006C111.048 557.898 162.965 647.624 226.906 684.57C290.846 721.516 342.764 691.486 342.764 617.776C342.764 543.884 290.846 454.158 226.906 417.212ZM226.906 625.966C191.019 605.218 161.872 554.986 161.872 513.49C161.872 471.994 191.019 455.25 226.906 475.998C262.793 496.746 291.939 546.978 291.939 588.474C291.939 629.97 262.793 646.532 226.906 625.966Z" fill="url(#paint5_linear)"/>
<path opacity="0.7" d="M255.871 635.248C246.945 635.248 236.926 632.154 226.542 626.33C190.655 605.582 161.326 554.986 161.326 513.49C161.326 493.288 168.249 478.182 180.636 471.084C193.023 463.986 209.601 465.442 227.089 475.634C262.975 496.382 292.304 546.978 292.304 588.474C292.304 608.676 285.382 623.782 272.995 630.88C267.894 633.792 262.065 635.248 255.871 635.248ZM197.76 467.626C191.748 467.626 186.101 469.082 181.183 471.812C169.16 478.728 162.419 493.47 162.419 513.308C162.419 554.44 191.384 604.672 227.089 625.238C244.212 635.066 260.425 636.704 272.448 629.788C284.471 622.872 291.211 608.13 291.211 588.292C291.211 547.16 262.247 496.928 226.542 476.362C216.341 470.72 206.686 467.626 197.76 467.626Z" fill="url(#paint6_linear)"/>
<path opacity="0.7" d="M278.642 700.95C262.611 700.95 244.941 695.672 226.542 684.934C162.42 647.988 110.32 557.898 110.32 484.006C110.32 448.152 122.525 421.398 144.567 408.658C166.609 395.918 195.938 398.83 227.089 416.848C291.211 453.794 343.311 543.884 343.311 617.776C343.311 653.63 331.106 680.384 309.064 693.124C299.955 698.402 289.754 700.95 278.642 700.95ZM175.171 401.924C164.241 401.924 154.222 404.472 145.296 409.568C123.618 422.126 111.595 448.516 111.595 484.006C111.595 557.534 163.512 647.26 227.271 684.024C258.057 701.86 287.022 704.59 308.699 692.214C330.377 679.656 342.4 653.266 342.4 617.776C342.4 544.248 290.483 454.522 226.724 417.758C208.326 407.202 190.837 401.924 175.171 401.924Z" fill="url(#paint7_linear)"/>
<path d="M339.486 619.778C339.486 545.886 287.568 456.16 223.628 419.214C191.202 400.468 161.873 399.012 140.924 411.57L86.2739 443.238L109.045 465.624H109.227C109.045 466.352 109.045 467.08 108.863 467.99C128.354 469.628 147.482 476.726 165.516 486.19C166.427 484.734 167.338 483.278 168.249 482.004L203.043 491.65L246.398 575.734L247.856 637.25C243.848 655.632 239.294 674.742 227.453 689.12C234.922 693.124 242.209 696.218 249.313 698.402L249.131 727.704L306.149 694.762C326.552 682.204 339.486 656.36 339.486 619.778Z" fill="url(#paint8_linear)"/>
<path opacity="0.8" d="M339.486 619.778C339.486 545.886 287.568 456.16 223.628 419.214C191.202 400.468 161.873 399.012 140.924 411.57L86.2739 443.238L109.045 465.624H109.227C109.045 466.352 109.045 467.08 108.863 467.99C128.354 469.628 147.482 476.726 165.516 486.19C166.427 484.734 167.338 483.278 168.249 482.004L203.043 491.65L246.398 575.734L247.856 637.25C243.848 655.632 239.294 674.742 227.453 689.12C234.922 693.124 242.209 696.218 249.313 698.402L249.131 727.704L306.149 694.762C326.552 682.204 339.486 656.36 339.486 619.778Z" fill="url(#paint9_linear)"/>
<path d="M223.445 627.786C187.559 607.038 158.412 556.806 158.412 515.31C158.412 503.298 160.962 493.288 165.152 485.826C147.118 476.362 127.99 469.264 108.498 467.626C107.77 473.45 107.405 479.456 107.405 485.826C107.405 492.56 107.77 499.294 108.68 506.21L85.9096 510.942L79.1694 524.228L107.405 634.52L163.695 693.124C163.695 693.124 190.291 684.206 209.054 677.108C213.791 680.384 218.527 683.478 223.263 686.39C224.538 687.118 225.814 687.846 227.089 688.574C239.112 674.196 243.484 654.904 247.491 636.158C240.387 635.612 232.189 632.7 223.445 627.786Z" fill="url(#paint10_linear)"/>
<path opacity="0.7" d="M223.445 627.786C187.559 607.038 158.412 556.806 158.412 515.31C158.412 503.298 160.962 493.288 165.152 485.826C147.118 476.362 127.99 469.264 108.498 467.626C107.77 473.45 107.405 479.456 107.405 485.826C107.405 492.56 107.77 499.294 108.68 506.21L85.9096 510.942L79.1694 524.228L107.405 634.52L163.695 693.124C163.695 693.124 190.291 684.206 209.054 677.108C213.791 680.384 218.527 683.478 223.263 686.39C224.538 687.118 225.814 687.846 227.089 688.574C239.112 674.196 243.484 654.904 247.491 636.158C240.387 635.612 232.189 632.7 223.445 627.786Z" fill="url(#paint11_radial)"/>
<path opacity="0.7" d="M227.817 689.12L226.907 688.392C238.747 674.014 243.302 654.358 247.127 636.886C239.476 635.976 231.461 633.064 223.081 628.332C187.194 607.584 157.865 556.988 157.865 515.492C157.865 503.844 160.051 494.016 164.423 486.19C144.203 475.634 125.804 469.81 108.498 468.354V467.262C126.168 468.718 144.749 474.724 165.334 485.462L165.881 485.644L165.516 486.19C160.962 494.016 158.776 503.844 158.776 515.492C158.776 556.624 187.741 606.856 223.445 627.422C231.825 632.154 239.84 635.066 247.674 635.976H248.22L248.038 636.522C244.577 654.358 240.023 674.378 227.817 689.12Z" fill="url(#paint12_radial)"/>
<path d="M166.244 452.156C102.304 415.21 50.3865 445.24 50.3865 518.95C50.3865 592.66 102.304 682.568 166.244 719.514C230.185 756.46 282.102 726.43 282.102 652.72C282.102 579.01 230.367 489.102 166.244 452.156ZM166.244 660.91C130.358 640.162 101.211 589.93 101.211 548.434C101.211 506.938 130.358 490.194 166.244 510.942C202.131 531.69 231.278 581.922 231.278 623.418C231.278 664.732 202.131 681.476 166.244 660.91Z" fill="#312A91"/>
<path opacity="0.7" d="M166.244 452.156C102.304 415.21 50.3865 445.24 50.3865 518.95C50.3865 592.66 102.304 682.568 166.244 719.514C230.185 756.46 282.102 726.43 282.102 652.72C282.102 579.01 230.367 489.102 166.244 452.156ZM166.244 660.91C130.358 640.162 101.211 589.93 101.211 548.434C101.211 506.938 130.358 490.194 166.244 510.942C202.131 531.69 231.278 581.922 231.278 623.418C231.278 664.732 202.131 681.476 166.244 660.91Z" fill="url(#paint13_linear)"/>
<path opacity="0.7" d="M195.21 670.192C186.283 670.192 176.264 667.098 165.881 661.274C129.994 640.526 100.665 589.93 100.665 548.434C100.665 528.232 107.587 513.126 119.975 506.028C132.362 498.93 148.939 500.386 166.427 510.578C202.314 531.326 231.643 581.922 231.643 623.418C231.643 643.62 224.721 658.726 212.333 665.824C207.415 668.736 201.585 670.192 195.21 670.192ZM137.281 502.57C131.269 502.57 125.622 504.026 120.703 506.756C108.68 513.672 101.94 528.414 101.94 548.252C101.94 589.384 130.905 639.616 166.609 660.182C183.733 670.01 199.946 671.648 211.969 664.732C223.992 657.816 230.732 643.074 230.732 623.236C230.732 582.104 201.768 531.872 166.063 511.306C155.862 505.664 146.025 502.57 137.281 502.57Z" fill="url(#paint14_linear)"/>
<path opacity="0.7" d="M217.98 736.076C201.95 736.076 184.28 730.798 165.881 720.06C101.758 683.114 49.6584 593.024 49.6584 519.132C49.6584 483.278 61.8636 456.524 83.9058 443.784C105.948 431.044 135.277 433.956 166.427 451.974C230.55 488.92 282.65 579.01 282.65 652.902C282.65 688.756 270.444 715.51 248.402 728.25C239.476 733.346 229.093 736.076 217.98 736.076ZM114.51 436.868C103.58 436.868 93.5606 439.416 84.6344 444.512C62.9566 457.07 50.9336 483.46 50.9336 518.95C50.9336 592.478 102.851 682.204 166.609 718.968C197.396 736.804 226.36 739.534 248.038 727.158C269.716 714.6 281.739 688.21 281.739 652.72C281.739 579.192 229.821 489.466 166.063 452.702C147.846 442.146 130.358 436.868 114.51 436.868Z" fill="url(#paint15_linear)"/>
<path d="M174.625 655.996C138.738 635.248 109.591 585.016 109.591 543.52C109.591 531.508 112.141 521.498 116.331 514.036C98.2968 504.572 79.1693 497.474 59.6775 495.836C58.9488 501.66 58.5845 507.666 58.5845 514.036C58.5845 520.77 58.9488 527.504 59.8597 534.42L37.0888 539.152L30.3486 552.438L58.5845 662.73L114.874 721.334C114.874 721.334 141.47 712.416 160.234 705.318C164.97 708.594 169.706 711.688 174.442 714.6C175.718 715.328 176.993 716.056 178.268 716.784C190.291 702.406 194.663 683.114 198.671 664.368C191.566 663.64 183.369 660.91 174.625 655.996Z" fill="url(#paint16_linear)"/>
<path opacity="0.7" d="M174.26 655.45C138.373 634.702 109.227 584.47 109.227 542.974C109.227 501.66 138.373 484.734 174.26 505.482C210.147 526.23 239.294 576.462 239.294 617.958C239.294 659.454 210.147 676.198 174.26 655.45Z" fill="url(#paint17_linear)"/>
<path opacity="0.7" d="M174.26 655.45C138.373 634.702 109.227 584.47 109.227 542.974C109.227 501.66 138.373 484.734 174.26 505.482C210.147 526.23 239.294 576.462 239.294 617.958C239.294 659.454 210.147 676.198 174.26 655.45Z" fill="url(#paint18_linear)"/>
<path opacity="0.7" d="M174.625 655.996C138.738 635.248 109.591 585.016 109.591 543.52C109.591 531.508 112.141 521.498 116.331 514.036C98.2968 504.572 79.1693 497.474 59.6775 495.836C58.9488 501.66 58.5845 507.666 58.5845 514.036C58.5845 520.77 58.9488 527.504 59.8597 534.42L37.0888 539.152L30.3486 552.438L58.5845 662.73L114.874 721.334C114.874 721.334 141.47 712.416 160.234 705.318C164.97 708.594 169.706 711.688 174.442 714.6C175.718 715.328 176.993 716.056 178.268 716.784C190.291 702.406 194.663 683.114 198.671 664.368C191.566 663.64 183.369 660.91 174.625 655.996Z" fill="url(#paint19_radial)"/>
<path opacity="0.1" d="M155.497 666.916C119.61 646.168 90.4635 595.936 90.4635 554.44C90.4635 539.516 94.2891 527.868 100.665 519.86C82.6304 522.772 70.7896 539.152 70.7896 565.724C70.7896 607.038 99.9362 657.452 135.823 678.2C158.776 691.486 178.997 689.302 190.473 675.288C180.454 676.926 168.431 674.378 155.497 666.916Z" fill="#73FFF5"/>
<path d="M255.689 668.008C255.689 594.116 203.771 504.39 139.831 467.444C107.405 448.698 78.0763 447.242 57.1272 459.8L37.271 471.266L60.0418 493.652H60.224C60.0418 494.38 60.0418 495.108 59.8597 496.018C79.3515 497.656 98.479 504.754 116.513 514.218C117.424 512.762 118.335 511.306 119.246 510.032L154.04 519.678L197.396 603.762L198.853 665.278C194.845 683.66 190.291 702.77 178.45 717.148C185.919 721.152 193.206 724.246 200.31 726.43L200.128 755.732L222.352 742.992C242.937 730.434 255.689 704.59 255.689 668.008Z" fill="url(#paint20_linear)"/>
<path opacity="0.8" d="M255.689 668.008C255.689 594.116 203.771 504.39 139.831 467.444C107.405 448.698 78.0763 447.242 57.1272 459.8L37.271 471.266L60.0418 493.652H60.224C60.0418 494.38 60.0418 495.108 59.8597 496.018C79.3515 497.656 98.479 504.754 116.513 514.218C117.424 512.762 118.335 511.306 119.246 510.032L154.04 519.678L197.396 603.762L198.853 665.278C194.845 683.66 190.291 702.77 178.45 717.148C185.919 721.152 193.206 724.246 200.31 726.43L200.128 755.732L222.352 742.992C242.937 730.434 255.689 704.59 255.689 668.008Z" fill="url(#paint21_linear)"/>
<path d="M117.424 480.366C53.4832 443.42 1.56567 473.45 1.56567 547.16C1.56567 621.052 53.4832 710.778 117.424 747.724C181.364 784.67 233.282 754.64 233.282 680.93C233.282 607.038 181.364 517.312 117.424 480.366ZM117.424 688.938C81.5368 668.19 52.3902 617.958 52.3902 576.462C52.3902 534.966 81.5368 518.222 117.424 538.97C153.311 559.718 182.457 609.95 182.457 651.446C182.457 692.942 153.311 709.686 117.424 688.938Z" fill="#312A91"/>
<path opacity="0.7" d="M117.424 480.366C53.4832 443.42 1.56567 473.45 1.56567 547.16C1.56567 621.052 53.4832 710.778 117.424 747.724C181.364 784.67 233.282 754.64 233.282 680.93C233.282 607.038 181.364 517.312 117.424 480.366ZM117.424 688.938C81.5368 668.19 52.3902 617.958 52.3902 576.462C52.3902 534.966 81.5368 518.222 117.424 538.97C153.311 559.718 182.457 609.95 182.457 651.446C182.457 692.942 153.311 709.686 117.424 688.938Z" fill="url(#paint22_linear)"/>
<path opacity="0.7" d="M146.389 698.402C137.463 698.402 127.443 695.308 117.06 689.484C81.1731 668.736 51.8442 618.14 51.8442 576.644C51.8442 556.442 58.7666 541.336 71.1539 534.238C83.5412 527.14 100.118 528.596 117.606 538.788C153.493 559.536 182.822 610.132 182.822 651.628C182.822 671.83 175.9 686.936 163.512 694.034C158.594 696.946 152.765 698.402 146.389 698.402ZM88.4597 530.78C82.4482 530.78 76.8011 532.236 71.8826 534.966C59.8596 541.882 53.1194 556.624 53.1194 576.462C53.1194 617.594 82.0839 667.826 117.789 688.392C134.912 698.22 151.125 699.858 163.148 692.942C175.171 686.026 181.911 671.284 181.911 651.446C181.911 610.314 152.947 560.082 117.242 539.516C107.041 533.692 97.2037 530.78 88.4597 530.78Z" fill="url(#paint23_linear)"/>
<path opacity="0.7" d="M169.16 764.104C153.129 764.104 135.459 758.826 117.06 748.088C52.9373 711.142 0.837646 621.052 0.837646 547.16C0.837646 511.306 13.0428 484.552 35.085 471.812C57.1272 459.072 86.456 461.984 117.607 480.002C181.729 516.948 233.829 607.038 233.829 680.93C233.829 716.784 221.624 743.538 199.581 756.278C190.655 761.556 180.272 764.104 169.16 764.104ZM65.689 465.078C54.759 465.078 44.7398 467.626 35.8136 472.722C14.1358 485.28 2.11281 511.67 2.11281 547.16C2.11281 620.688 54.0303 710.414 117.789 747.178C148.575 765.014 177.539 767.744 199.217 755.368C220.895 742.81 232.918 716.42 232.918 680.93C232.918 607.402 181.001 517.676 117.242 480.912C99.0255 470.356 81.5375 465.078 65.689 465.078Z" fill="url(#paint24_linear)"/>
<g opacity="0.4">
<g opacity="0.4">
<path opacity="0.4" d="M119.428 534.238C119.428 534.966 118.882 535.148 118.335 534.966C117.789 534.602 117.242 533.692 117.242 532.964C117.242 532.236 117.789 532.054 118.335 532.236C118.882 532.782 119.428 533.692 119.428 534.238Z" fill="#00CD6B"/>
<path opacity="0.4" d="M106.859 528.232C107.041 528.96 106.495 529.506 105.948 529.142C105.402 528.96 104.673 528.05 104.673 527.322C104.491 526.594 105.037 526.048 105.584 526.412C106.312 526.594 106.859 527.322 106.859 528.232Z" fill="#00CD6B"/>
<path opacity="0.4" d="M94.8357 524.774C95.0179 525.502 94.8357 526.048 94.107 526.048C93.5605 526.048 92.8319 525.32 92.6497 524.41C92.4675 523.682 92.6497 523.136 93.3783 523.136C93.9249 523.318 94.4714 524.046 94.8357 524.774Z" fill="#00CD6B"/>
<path opacity="0.4" d="M83.3593 524.228C83.7237 524.956 83.5415 525.684 82.995 525.684C82.4485 525.684 81.7199 525.138 81.5377 524.41C81.1734 523.682 81.3555 522.954 81.902 522.954C82.2663 522.954 82.995 523.5 83.3593 524.228Z" fill="#00CD6B"/>
<path opacity="0.4" d="M73.158 526.776C73.5224 527.504 73.5224 528.414 72.9759 528.596C72.4294 528.778 71.8828 528.414 71.3363 527.504C70.7898 526.594 70.972 525.866 71.5185 525.684C71.8828 525.502 72.6115 525.866 73.158 526.776Z" fill="#00CD6B"/>
<path opacity="0.4" d="M64.2318 531.872C64.7783 532.6 64.7783 533.51 64.4139 533.692C64.0496 534.056 63.3209 533.692 62.7744 532.964C62.228 532.236 62.228 531.326 62.5923 531.144C63.1388 530.962 63.6853 531.144 64.2318 531.872Z" fill="#00CD6B"/>
<path opacity="0.4" d="M57.1273 539.88C57.6738 540.608 57.856 541.336 57.4916 541.882C57.1273 542.428 56.5808 542.246 56.0343 541.518C55.4878 540.79 55.3057 540.062 55.67 539.516C55.8522 538.97 56.5808 539.152 57.1273 539.88Z" fill="#00CD6B"/>
<path opacity="0.4" d="M52.0267 550.072C52.5732 550.618 52.9375 551.528 52.7553 552.074C52.5732 552.62 52.0267 552.62 51.298 552.074C50.7515 551.528 50.3872 550.618 50.5694 550.072C50.7515 549.526 51.4802 549.526 52.0267 550.072Z" fill="#00CD6B"/>
<path opacity="0.4" d="M49.1114 562.448C49.6579 562.812 50.2044 563.722 50.0223 564.45C50.0223 565.178 49.2936 565.36 48.7471 564.814C48.2006 564.45 47.6541 563.54 47.8363 562.812C47.8363 562.084 48.3828 562.084 49.1114 562.448Z" fill="#00CD6B"/>
<path opacity="0.4" d="M48.2011 576.462C48.7476 576.826 49.2941 577.554 49.2941 578.282C49.2941 579.01 48.9298 579.374 48.2011 579.01C47.6546 578.646 47.1082 577.918 47.1082 577.19C47.1082 576.462 47.6546 576.098 48.2011 576.462Z" fill="#00CD6B"/>
<path opacity="0.4" d="M49.8406 591.75C50.3871 591.932 51.1158 592.66 51.1158 593.57C51.2979 594.298 50.9336 594.844 50.2049 594.662C49.6584 594.48 48.9297 593.752 48.9297 592.842C48.7476 591.932 49.1119 591.568 49.8406 591.75Z" fill="#00CD6B"/>
<path opacity="0.4" d="M53.4839 607.766C54.0305 607.766 54.7591 608.494 54.9413 609.222C55.1235 609.95 54.9413 610.678 54.3948 610.496C53.8483 610.496 53.1196 609.768 52.9374 609.04C52.5731 608.312 52.9374 607.584 53.4839 607.766Z" fill="#00CD6B"/>
<path opacity="0.4" d="M59.3134 623.964C59.8599 623.782 60.5886 624.51 60.7708 625.238C61.1351 625.966 60.9529 626.694 60.4064 626.876C59.8599 627.058 59.1312 626.33 58.9491 625.602C58.5847 624.692 58.7669 623.964 59.3134 623.964Z" fill="#00CD6B"/>
<path opacity="0.4" d="M66.9643 639.798C67.3286 639.616 68.0573 639.98 68.6038 640.708C68.9681 641.436 68.9681 642.346 68.6038 642.528C68.2395 642.71 67.5108 642.346 66.9643 641.618C66.4178 640.89 66.4178 640.162 66.9643 639.798Z" fill="#00CD6B"/>
<path opacity="0.4" d="M76.2547 654.904C76.6191 654.54 77.3477 654.904 77.8942 655.45C78.4407 656.178 78.4407 657.088 78.0764 657.452C77.7121 657.816 76.9834 657.634 76.4369 656.906C76.0726 656.178 75.8904 655.268 76.2547 654.904Z" fill="#00CD6B"/>
<path opacity="0.4" d="M87.0027 668.736C87.1849 668.19 87.9136 668.372 88.4601 668.918C89.0066 669.464 89.1887 670.374 89.0066 670.92C88.8244 671.466 88.0957 671.284 87.5492 670.738C86.8206 670.192 86.6384 669.282 87.0027 668.736Z" fill="#00CD6B"/>
<path opacity="0.4" d="M98.6614 680.748C98.8436 680.202 99.3901 680.02 100.119 680.566C100.665 681.112 101.03 682.022 100.847 682.568C100.665 683.114 100.119 683.296 99.3901 682.75C98.8436 682.204 98.4792 681.294 98.6614 680.748Z" fill="#00CD6B"/>
<path opacity="0.4" d="M111.048 690.758C111.048 690.03 111.595 689.848 112.324 690.212C112.87 690.576 113.417 691.486 113.417 692.214C113.417 692.942 112.87 693.124 112.142 692.76C111.413 692.214 110.866 691.304 111.048 690.758Z" fill="#00CD6B"/>
<path opacity="0.4" d="M123.618 698.22C123.618 697.492 123.983 697.128 124.711 697.492C125.258 697.856 125.804 698.584 125.986 699.312C125.986 700.04 125.622 700.404 124.893 700.04C124.165 699.858 123.618 698.948 123.618 698.22Z" fill="#00CD6B"/>
<path opacity="0.4" d="M136.005 702.952C135.823 702.224 136.188 701.678 136.734 701.86C137.281 702.042 138.009 702.77 138.191 703.498C138.374 704.226 138.009 704.772 137.463 704.59C136.734 704.59 136.005 703.68 136.005 702.952Z" fill="#00CD6B"/>
<path opacity="0.4" d="M147.846 704.954C147.664 704.226 147.846 703.498 148.393 703.498C148.939 703.498 149.668 704.226 149.85 704.954C150.032 705.682 149.85 706.41 149.304 706.41C148.757 706.41 148.029 705.682 147.846 704.954Z" fill="#00CD6B"/>
<path opacity="0.4" d="M158.594 704.044C158.23 703.316 158.412 702.588 158.776 702.406C159.323 702.224 160.051 702.77 160.416 703.498C160.78 704.226 160.598 704.954 160.234 705.136C159.687 705.318 158.958 704.772 158.594 704.044Z" fill="#00CD6B"/>
<path opacity="0.4" d="M168.249 700.222C167.885 699.494 167.702 698.584 168.249 698.402C168.613 698.22 169.342 698.584 169.888 699.312C170.253 700.04 170.435 700.95 169.888 701.132C169.342 701.314 168.613 700.95 168.249 700.222Z" fill="#00CD6B"/>
<path opacity="0.4" d="M176.264 693.488C175.718 692.76 175.536 691.85 175.9 691.486C176.264 691.122 176.993 691.304 177.357 692.032C177.904 692.76 178.086 693.67 177.722 694.034C177.54 694.58 176.811 694.216 176.264 693.488Z" fill="#00CD6B"/>
<path opacity="0.4" d="M182.458 684.388C181.911 683.842 181.547 682.932 181.911 682.386C182.093 681.84 182.822 682.022 183.369 682.568C183.915 683.114 184.28 684.024 183.915 684.57C183.551 685.116 183.004 685.116 182.458 684.388Z" fill="#00CD6B"/>
<path opacity="0.4" d="M186.465 673.104C185.919 672.558 185.555 671.648 185.555 671.102C185.555 670.556 186.283 670.374 186.83 670.92C187.376 671.466 187.741 672.376 187.741 672.922C187.558 673.468 187.012 673.65 186.465 673.104Z" fill="#00CD6B"/>
<path opacity="0.4" d="M188.287 659.818C187.741 659.454 187.194 658.544 187.194 657.816C187.194 657.088 187.741 656.906 188.287 657.27C188.834 657.634 189.38 658.544 189.38 659.272C189.562 660 189.016 660.182 188.287 659.818Z" fill="#00CD6B"/>
<path opacity="0.4" d="M187.923 645.076C187.376 644.894 186.83 643.984 186.648 643.256C186.648 642.528 187.012 642.164 187.559 642.346C188.105 642.528 188.652 643.438 188.834 644.166C189.016 644.894 188.652 645.44 187.923 645.076Z" fill="#00CD6B"/>
<path opacity="0.4" d="M185.373 629.424C184.826 629.242 184.097 628.514 183.915 627.786C183.733 627.058 184.097 626.512 184.644 626.512C185.19 626.694 185.919 627.422 186.101 628.15C186.283 629.06 185.919 629.606 185.373 629.424Z" fill="#00CD6B"/>
<path opacity="0.4" d="M180.636 613.226C180.09 613.226 179.361 612.68 179.179 611.77C178.815 611.042 179.179 610.314 179.543 610.314C180.09 610.314 180.818 610.86 181.001 611.77C181.365 612.68 181.183 613.226 180.636 613.226Z" fill="#00CD6B"/>
<path opacity="0.4" d="M173.896 597.21C173.35 597.392 172.803 596.846 172.257 596.118C171.892 595.39 171.892 594.662 172.439 594.48C172.985 594.298 173.532 594.844 174.078 595.572C174.625 596.3 174.26 597.028 173.896 597.21Z" fill="#00CD6B"/>
<path opacity="0.4" d="M165.334 581.558C164.97 581.922 164.241 581.558 163.695 580.83C163.148 580.102 163.148 579.192 163.513 579.01C163.877 578.646 164.606 579.01 165.152 579.738C165.699 580.466 165.699 581.376 165.334 581.558Z" fill="#00CD6B"/>
<path opacity="0.4" d="M155.315 566.998C154.951 567.362 154.404 567.18 153.858 566.634C153.311 565.906 153.129 564.996 153.494 564.632C153.858 564.268 154.404 564.45 154.951 564.996C155.497 565.724 155.497 566.634 155.315 566.998Z" fill="#00CD6B"/>
<path opacity="0.4" d="M144.021 554.076C143.839 554.622 143.11 554.622 142.564 554.076C142.017 553.53 141.653 552.62 141.835 552.074C142.017 551.528 142.746 551.528 143.292 552.074C144.021 552.62 144.203 553.53 144.021 554.076Z" fill="#00CD6B"/>
<path opacity="0.4" d="M131.998 543.156C131.816 543.702 131.269 543.884 130.723 543.52C130.176 542.974 129.63 542.064 129.812 541.518C129.994 540.972 130.541 540.79 131.087 541.154C131.634 541.518 131.998 542.428 131.998 543.156Z" fill="#00CD6B"/>
</g>
<g opacity="0.9">
<path opacity="0.9" d="M119.611 522.59C119.611 523.318 119.064 523.682 118.335 523.318C117.607 522.954 117.06 521.862 117.06 521.134C117.06 520.406 117.607 520.042 118.335 520.406C119.064 520.77 119.611 521.862 119.611 522.59Z" fill="#00CD6B"/>
<path opacity="0.9" d="M105.219 515.492C105.402 516.402 104.855 516.948 104.126 516.584C103.398 516.402 102.851 515.492 102.669 514.582C102.487 513.672 103.033 513.126 103.762 513.49C104.491 513.854 105.219 514.764 105.219 515.492Z" fill="#00CD6B"/>
<path opacity="0.9" d="M91.3745 511.67C91.5567 512.58 91.3746 513.308 90.6459 513.126C89.9172 512.944 89.1885 512.216 89.0064 511.306C88.8242 510.396 89.0064 509.668 89.735 509.85C90.2815 510.032 91.0102 510.76 91.3745 511.67Z" fill="#00CD6B"/>
<path opacity="0.9" d="M78.2585 511.124C78.6229 512.034 78.4407 512.762 77.8942 512.944C77.3477 512.944 76.4369 512.398 76.0726 511.488C75.7083 510.578 75.8904 509.85 76.4369 509.668C77.1656 509.486 77.8942 510.214 78.2585 511.124Z" fill="#00CD6B"/>
<path opacity="0.9" d="M66.4178 513.854C66.9643 514.764 66.7821 515.674 66.2356 515.856C65.6891 516.038 64.9605 515.492 64.414 514.764C63.8675 513.854 64.0496 512.944 64.5961 512.762C65.1426 512.398 66.0535 512.944 66.4178 513.854Z" fill="#00CD6B"/>
<path opacity="0.9" d="M56.3985 519.86C56.945 520.77 57.1272 521.68 56.5807 522.044C56.2164 522.408 55.3055 522.044 54.759 521.316C54.2125 520.406 54.0303 519.496 54.5768 519.132C54.9411 518.586 55.852 518.95 56.3985 519.86Z" fill="#00CD6B"/>
<path opacity="0.9" d="M48.2012 528.96C48.7477 529.688 49.112 530.78 48.7477 531.326C48.3834 531.872 47.6547 531.69 47.1082 530.962C46.5617 530.234 46.1974 529.142 46.5617 528.596C46.926 528.05 47.6547 528.232 48.2012 528.96Z" fill="#00CD6B"/>
<path opacity="0.9" d="M42.3718 540.608C43.1004 541.336 43.4647 542.246 43.1004 542.974C42.7361 543.702 42.1896 543.702 41.4609 542.974C40.7323 542.246 40.368 541.336 40.7323 540.608C40.9145 540.062 41.6431 540.062 42.3718 540.608Z" fill="#00CD6B"/>
<path opacity="0.9" d="M38.9101 554.804C39.6387 555.35 40.1852 556.26 40.0031 557.17C39.8209 557.898 39.2744 558.08 38.5457 557.534C37.8171 556.988 37.2706 556.078 37.4528 555.168C37.6349 554.44 38.1814 554.258 38.9101 554.804Z" fill="#00CD6B"/>
<path opacity="0.9" d="M37.9998 570.82C38.7285 571.184 39.275 572.094 39.275 573.004C39.275 573.914 38.7285 574.278 37.9998 573.914C37.2711 573.55 36.7246 572.64 36.7246 571.73C36.7246 571.002 37.2711 570.456 37.9998 570.82Z" fill="#00CD6B"/>
<path opacity="0.9" d="M39.8215 588.474C40.5502 588.656 41.2789 589.566 41.2789 590.476C41.461 591.386 41.0967 591.932 40.368 591.75C39.6393 591.568 38.9107 590.658 38.9107 589.748C38.7285 588.656 39.0929 588.11 39.8215 588.474Z" fill="#00CD6B"/>
<path opacity="0.9" d="M44.0112 606.674C44.7398 606.674 45.4685 607.584 45.6507 608.494C46.015 609.404 45.6507 610.132 44.922 609.95C44.1933 609.95 43.4647 609.04 43.2825 608.13C43.1003 607.402 43.2825 606.674 44.0112 606.674Z" fill="#00CD6B"/>
<path opacity="0.9" d="M50.5693 625.238C51.1158 625.056 52.0266 625.784 52.3909 626.694C52.7553 627.604 52.5731 628.332 52.0266 628.514C51.4801 628.696 50.5693 627.968 50.2049 627.058C49.8406 626.148 50.0228 625.42 50.5693 625.238Z" fill="#00CD6B"/>
<path opacity="0.9" d="M59.4953 643.438C60.0418 643.256 60.7705 643.62 61.317 644.53C61.8636 645.44 61.8636 646.35 61.317 646.532C60.7705 646.714 60.0418 646.35 59.4953 645.44C58.9488 644.712 58.9488 643.802 59.4953 643.438Z" fill="#00CD6B"/>
<path opacity="0.9" d="M70.0611 660.728C70.4255 660.364 71.3364 660.546 71.8829 661.456C72.4294 662.366 72.6116 663.276 72.2472 663.64C71.8829 664.004 70.972 663.822 70.4255 662.912C69.879 662.184 69.6968 661.274 70.0611 660.728Z" fill="#00CD6B"/>
<path opacity="0.9" d="M82.4485 676.562C82.8129 676.016 83.5415 676.198 84.088 676.926C84.6345 677.654 84.9989 678.746 84.6345 679.292C84.2702 679.838 83.5415 679.656 82.995 678.928C82.2664 678.2 82.0842 677.108 82.4485 676.562Z" fill="#00CD6B"/>
<path opacity="0.9" d="M95.7466 690.394C95.9288 689.666 96.6574 689.666 97.3861 690.212C98.1148 690.758 98.4791 691.85 98.2969 692.578C98.1148 693.306 97.3861 693.306 96.6574 692.76C95.9288 692.214 95.5645 691.122 95.7466 690.394Z" fill="#00CD6B"/>
<path opacity="0.9" d="M109.956 701.86C109.956 701.132 110.684 700.768 111.413 701.314C112.142 701.86 112.688 702.77 112.506 703.498C112.506 704.226 111.777 704.59 111.049 704.044C110.32 703.498 109.774 702.588 109.956 701.86Z" fill="#00CD6B"/>
<path opacity="0.9" d="M124.347 710.414C124.347 709.504 124.711 709.14 125.44 709.504C126.168 709.868 126.715 710.778 126.897 711.688C126.897 712.598 126.533 712.962 125.804 712.598C124.893 712.234 124.347 711.142 124.347 710.414Z" fill="#00CD6B"/>
<path opacity="0.9" d="M138.556 715.874C138.374 714.964 138.738 714.418 139.467 714.6C140.195 714.782 140.924 715.692 141.106 716.602C141.288 717.512 140.924 718.058 140.195 717.876C139.467 717.694 138.738 716.784 138.556 715.874Z" fill="#00CD6B"/>
<path opacity="0.9" d="M152.036 718.058C151.672 717.148 152.036 716.42 152.583 716.42C153.129 716.42 154.04 717.148 154.222 718.058C154.586 718.968 154.222 719.696 153.676 719.696C153.129 719.696 152.4 718.968 152.036 718.058Z" fill="#00CD6B"/>
<path opacity="0.9" d="M164.606 716.966C164.241 716.056 164.241 715.146 164.97 715.146C165.516 714.964 166.427 715.692 166.792 716.42C167.156 717.33 167.156 718.24 166.427 718.24C165.699 718.422 164.97 717.876 164.606 716.966Z" fill="#00CD6B"/>
<path opacity="0.9" d="M175.536 712.598C174.989 711.688 174.989 710.778 175.536 710.414C176.082 710.05 176.811 710.596 177.357 711.324C177.904 712.234 177.904 713.144 177.357 713.508C176.811 713.872 176.082 713.508 175.536 712.598Z" fill="#00CD6B"/>
<path opacity="0.9" d="M184.644 705.136C184.097 704.408 183.915 703.316 184.28 702.952C184.644 702.588 185.373 702.77 186.101 703.498C186.648 704.226 186.83 705.318 186.466 705.682C186.101 706.046 185.191 705.864 184.644 705.136Z" fill="#00CD6B"/>
<path opacity="0.9" d="M191.748 694.58C191.02 693.852 190.838 692.76 191.02 692.214C191.384 691.668 192.113 691.668 192.659 692.396C193.388 693.124 193.57 694.216 193.388 694.762C193.024 695.308 192.295 695.308 191.748 694.58Z" fill="#00CD6B"/>
<path opacity="0.9" d="M196.302 681.658C195.574 681.112 195.209 680.02 195.392 679.292C195.574 678.564 196.302 678.564 196.849 679.11C197.578 679.656 197.942 680.748 197.76 681.476C197.76 682.022 197.031 682.204 196.302 681.658Z" fill="#00CD6B"/>
<path opacity="0.9" d="M198.489 666.37C197.76 666.006 197.213 664.914 197.213 664.186C197.213 663.458 197.76 663.094 198.489 663.64C199.217 664.004 199.764 665.096 199.764 665.824C199.764 666.552 199.217 666.916 198.489 666.37Z" fill="#00CD6B"/>
<path opacity="0.9" d="M198.124 649.626C197.396 649.262 196.849 648.352 196.667 647.624C196.485 646.714 197.031 646.35 197.76 646.532C198.489 646.896 199.035 647.806 199.217 648.534C199.217 649.444 198.853 649.808 198.124 649.626Z" fill="#00CD6B"/>
<path opacity="0.9" d="M195.21 631.608C194.481 631.426 193.752 630.698 193.57 629.788C193.388 628.878 193.752 628.332 194.299 628.332C195.027 628.514 195.756 629.242 195.938 630.152C196.12 631.062 195.756 631.79 195.21 631.608Z" fill="#00CD6B"/>
<path opacity="0.9" d="M189.745 613.044C189.198 613.044 188.287 612.316 188.105 611.406C187.741 610.496 187.923 609.768 188.652 609.768C189.198 609.768 190.109 610.496 190.291 611.406C190.473 612.316 190.291 613.044 189.745 613.044Z" fill="#00CD6B"/>
<path opacity="0.9" d="M181.912 594.662C181.365 594.844 180.636 594.298 180.09 593.388C179.726 592.478 179.726 591.568 180.272 591.386C180.819 591.204 181.547 591.75 182.094 592.66C182.64 593.57 182.458 594.48 181.912 594.662Z" fill="#00CD6B"/>
<path opacity="0.9" d="M172.074 576.826C171.528 577.19 170.799 576.826 170.253 575.916C169.706 575.006 169.706 574.096 170.071 573.732C170.617 573.368 171.346 573.732 171.892 574.642C172.621 575.37 172.621 576.462 172.074 576.826Z" fill="#00CD6B"/>
<path opacity="0.9" d="M160.598 560.082C160.234 560.628 159.505 560.264 158.776 559.536C158.23 558.808 158.048 557.716 158.412 557.352C158.776 556.806 159.505 557.17 160.234 557.898C160.78 558.626 160.962 559.718 160.598 560.082Z" fill="#00CD6B"/>
<path opacity="0.9" d="M147.846 545.34C147.664 545.886 146.935 545.886 146.207 545.34C145.478 544.612 145.296 543.702 145.478 542.974C145.66 542.428 146.389 542.428 147.118 542.974C147.846 543.52 148.028 544.612 147.846 545.34Z" fill="#00CD6B"/>
<path opacity="0.9" d="M134.001 532.6C133.819 533.328 133.273 533.51 132.544 532.964C131.816 532.418 131.451 531.326 131.451 530.598C131.633 529.87 132.18 529.688 132.909 530.234C133.637 530.78 134.001 531.872 134.001 532.6Z" fill="#00CD6B"/>
</g>
<g opacity="0.6">
<path opacity="0.6" d="M119.793 510.578C119.793 511.488 119.064 511.852 118.335 511.488C117.607 511.124 116.878 509.85 116.878 508.94C116.878 508.03 117.607 507.666 118.335 508.03C119.064 508.394 119.793 509.668 119.793 510.578Z" fill="#00CD6B"/>
<path opacity="0.6" d="M103.58 502.57C103.762 503.48 103.215 504.208 102.487 503.844C101.758 503.48 101.029 502.57 100.847 501.478C100.665 500.568 101.212 499.84 101.94 500.204C102.669 500.568 103.398 501.66 103.58 502.57Z" fill="#00CD6B"/>
<path opacity="0.6" d="M87.731 498.202C88.0953 499.294 87.5489 500.022 86.8202 499.84C86.0915 499.658 85.1807 498.748 84.9986 497.838C84.8164 496.928 85.1807 496.018 85.9094 496.2C86.638 496.2 87.5489 497.11 87.731 498.202Z" fill="#00CD6B"/>
<path opacity="0.6" d="M72.9757 497.474C73.34 498.566 73.1578 499.476 72.4292 499.476C71.7005 499.476 70.7897 498.748 70.4253 497.838C70.061 496.746 70.2432 495.836 70.9718 495.836C71.7005 495.654 72.6113 496.564 72.9757 497.474Z" fill="#00CD6B"/>
<path opacity="0.6" d="M59.6776 500.568C60.2241 501.478 60.2241 502.57 59.4954 502.752C58.9489 502.934 58.0381 502.388 57.4916 501.478C56.9451 500.568 56.9451 499.476 57.6738 499.294C58.2203 499.112 59.1311 499.658 59.6776 500.568Z" fill="#00CD6B"/>
<path opacity="0.6" d="M48.201 507.484C48.7475 508.394 48.9296 509.486 48.3831 510.032C47.8366 510.396 46.9258 510.032 46.3793 509.122C45.8328 508.212 45.6507 507.12 46.1972 506.574C46.7437 506.028 47.6545 506.574 48.201 507.484Z" fill="#00CD6B"/>
<path opacity="0.6" d="M39.0927 517.676C39.8214 518.586 40.0035 519.678 39.6392 520.224C39.2749 520.77 38.364 520.588 37.6354 519.86C36.9067 518.95 36.7246 517.858 37.0889 517.312C37.4532 516.584 38.3641 516.766 39.0927 517.676Z" fill="#00CD6B"/>
<path opacity="0.6" d="M32.3525 530.962C33.0811 531.69 33.4455 532.782 33.2633 533.51C33.0811 534.238 32.1703 534.238 31.4416 533.51C30.713 532.782 30.3486 531.69 30.5308 530.962C30.8951 530.234 31.6238 530.234 32.3525 530.962Z" fill="#00CD6B"/>
<path opacity="0.6" d="M28.5262 546.978C29.2549 547.524 29.8015 548.798 29.8015 549.526C29.6193 550.436 28.8906 550.618 28.1619 550.072C27.4332 549.526 26.8867 548.252 26.8867 547.524C27.0689 546.614 27.7976 546.432 28.5262 546.978Z" fill="#00CD6B"/>
<path opacity="0.6" d="M27.6163 565.178C28.3449 565.542 29.0736 566.634 29.0736 567.726C29.0736 568.636 28.5271 569 27.6163 568.636C26.8876 568.272 26.1589 567.18 26.1589 566.088C26.1589 565.178 26.7054 564.814 27.6163 565.178Z" fill="#00CD6B"/>
<path opacity="0.6" d="M29.4379 585.016C30.1666 585.198 31.0774 586.29 31.0774 587.2C31.2596 588.11 30.7131 588.838 29.9844 588.656C29.2557 588.474 28.3449 587.382 28.3449 586.472C28.1627 585.38 28.7092 584.652 29.4379 585.016Z" fill="#00CD6B"/>
<path opacity="0.6" d="M34.1743 605.582C34.9029 605.582 35.8138 606.492 35.996 607.584C36.3603 608.676 35.996 609.404 35.2673 609.404C34.5386 609.404 33.6278 608.494 33.4456 607.402C33.2634 606.31 33.4456 605.582 34.1743 605.582Z" fill="#00CD6B"/>
<path opacity="0.6" d="M41.8252 626.694C42.5538 626.512 43.4647 627.24 43.829 628.332C44.1933 629.424 44.0112 630.334 43.4647 630.334C42.736 630.516 41.8252 629.788 41.4608 628.696C40.9143 627.786 41.0965 626.876 41.8252 626.694Z" fill="#00CD6B"/>
<path opacity="0.6" d="M51.6623 647.26C52.2088 646.896 53.1197 647.442 53.6662 648.534C54.2127 649.444 54.2127 650.536 53.6662 650.9C53.1197 651.264 52.2088 650.718 51.6623 649.626C51.1158 648.716 51.1158 647.624 51.6623 647.26Z" fill="#00CD6B"/>
<path opacity="0.6" d="M63.8676 666.916C64.4141 666.37 65.3249 666.734 65.8714 667.644C66.6 668.554 66.6 669.646 66.2357 670.192C65.6892 670.738 64.7784 670.374 64.2319 669.464C63.5032 668.372 63.3211 667.28 63.8676 666.916Z" fill="#00CD6B"/>
<path opacity="0.6" d="M77.7121 684.752C78.0764 684.206 78.9873 684.206 79.7159 685.116C80.4446 685.844 80.8089 687.118 80.4446 687.664C80.0803 688.21 79.1694 688.21 78.4407 687.3C77.5299 686.572 77.3477 685.298 77.7121 684.752Z" fill="#00CD6B"/>
<path opacity="0.6" d="M92.8319 700.404C93.0141 699.676 93.9249 699.494 94.6536 700.222C95.3822 700.95 95.9288 702.042 95.7466 702.77C95.5644 703.498 94.6536 703.68 93.9249 702.952C93.0141 702.224 92.6498 701.132 92.8319 700.404Z" fill="#00CD6B"/>
<path opacity="0.6" d="M108.863 713.144C108.863 712.234 109.591 712.052 110.502 712.598C111.231 713.144 111.959 714.236 111.777 715.146C111.777 716.056 111.049 716.238 110.138 715.692C109.227 715.328 108.68 714.054 108.863 713.144Z" fill="#00CD6B"/>
<path opacity="0.6" d="M125.075 722.972C125.075 722.062 125.622 721.516 126.351 721.88C127.079 722.244 127.808 723.336 127.99 724.246C127.99 725.156 127.444 725.702 126.715 725.338C125.804 724.974 125.075 723.882 125.075 722.972Z" fill="#00CD6B"/>
<path opacity="0.6" d="M141.106 729.16C140.924 728.068 141.288 727.522 142.199 727.704C142.928 727.886 143.839 728.796 144.021 729.888C144.203 730.98 143.839 731.526 142.928 731.344C142.199 731.162 141.288 730.07 141.106 729.16Z" fill="#00CD6B"/>
<path opacity="0.6" d="M156.408 731.708C156.044 730.616 156.408 729.888 157.137 729.888C157.865 729.888 158.776 730.798 159.141 731.708C159.505 732.8 159.141 733.528 158.412 733.528C157.683 733.528 156.772 732.618 156.408 731.708Z" fill="#00CD6B"/>
<path opacity="0.6" d="M170.617 730.434C170.071 729.342 170.253 728.432 170.981 728.25C171.71 728.068 172.439 728.796 172.985 729.706C173.532 730.798 173.35 731.708 172.621 731.89C171.892 732.072 170.981 731.344 170.617 730.434Z" fill="#00CD6B"/>
<path opacity="0.6" d="M183.004 725.52C182.458 724.61 182.458 723.518 183.004 723.154C183.551 722.79 184.462 723.336 185.008 724.246C185.555 725.156 185.555 726.248 185.008 726.612C184.462 726.976 183.551 726.43 183.004 725.52Z" fill="#00CD6B"/>
<path opacity="0.6" d="M193.388 716.966C192.659 716.056 192.477 714.964 193.024 714.418C193.388 713.872 194.299 714.236 195.027 715.146C195.756 716.056 195.938 717.148 195.392 717.694C194.845 718.24 194.117 717.876 193.388 716.966Z" fill="#00CD6B"/>
<path opacity="0.6" d="M201.403 705.136C200.674 704.408 200.31 703.134 200.674 702.588C201.039 701.86 201.767 702.042 202.496 702.77C203.225 703.498 203.589 704.772 203.225 705.318C202.86 706.046 202.132 705.864 201.403 705.136Z" fill="#00CD6B"/>
<path opacity="0.6" d="M206.686 690.394C205.958 689.666 205.411 688.574 205.593 687.846C205.775 687.118 206.504 686.936 207.233 687.664C207.961 688.392 208.508 689.484 208.326 690.212C208.143 690.94 207.415 690.94 206.686 690.394Z" fill="#00CD6B"/>
<path opacity="0.6" d="M209.054 673.286C208.326 672.74 207.597 671.648 207.597 670.738C207.597 669.828 208.326 669.464 209.054 670.01C209.783 670.556 210.512 671.648 210.512 672.558C210.512 673.286 209.783 673.65 209.054 673.286Z" fill="#00CD6B"/>
<path opacity="0.6" d="M208.508 654.176C207.779 653.812 207.05 652.72 206.868 651.81C206.686 650.9 207.233 650.354 208.143 650.718C208.872 651.082 209.601 652.174 209.783 653.084C209.965 653.994 209.419 654.54 208.508 654.176Z" fill="#00CD6B"/>
<path opacity="0.6" d="M205.229 633.792C204.5 633.61 203.589 632.7 203.407 631.608C203.225 630.516 203.589 629.97 204.318 629.97C205.047 630.152 205.957 631.062 206.14 632.154C206.322 633.246 205.957 633.974 205.229 633.792Z" fill="#00CD6B"/>
<path opacity="0.6" d="M199.035 612.862C198.306 612.862 197.396 612.134 197.031 611.042C196.667 609.95 196.849 609.222 197.578 609.04C198.306 609.04 199.217 609.768 199.582 610.86C199.946 611.952 199.764 612.862 199.035 612.862Z" fill="#00CD6B"/>
<path opacity="0.6" d="M190.291 591.932C189.745 592.114 188.834 591.568 188.287 590.476C187.741 589.384 187.923 588.474 188.469 588.292C189.016 588.11 189.927 588.656 190.473 589.748C191.02 590.84 190.838 591.75 190.291 591.932Z" fill="#00CD6B"/>
<path opacity="0.6" d="M179.179 571.73C178.633 572.094 177.722 571.73 177.175 570.638C176.629 569.728 176.447 568.636 176.993 568.272C177.54 567.908 178.45 568.272 178.997 569.364C179.726 570.274 179.726 571.366 179.179 571.73Z" fill="#00CD6B"/>
<path opacity="0.6" d="M166.245 552.984C165.881 553.53 164.97 553.348 164.241 552.438C163.512 551.528 163.33 550.436 163.695 549.89C164.059 549.344 164.97 549.526 165.698 550.436C166.427 551.346 166.609 552.438 166.245 552.984Z" fill="#00CD6B"/>
<path opacity="0.6" d="M151.672 536.24C151.307 536.968 150.579 536.968 149.85 536.058C149.121 535.33 148.757 534.056 148.939 533.51C149.304 532.782 150.032 532.782 150.761 533.692C151.49 534.238 151.854 535.512 151.672 536.24Z" fill="#00CD6B"/>
<path opacity="0.6" d="M136.005 521.862C135.823 522.772 135.095 522.772 134.366 522.226C133.637 521.68 133.091 520.406 133.273 519.678C133.455 518.768 134.184 518.768 134.912 519.314C135.641 519.86 136.188 521.134 136.005 521.862Z" fill="#00CD6B"/>
</g>
<g opacity="0.3">
<path opacity="0.3" d="M119.975 500.568C119.975 501.66 119.246 502.024 118.335 501.478C117.424 500.932 116.696 499.658 116.696 498.748C116.696 497.838 117.424 497.292 118.335 497.838C119.246 498.384 119.975 499.476 119.975 500.568Z" fill="#00CD6B"/>
<path opacity="0.3" d="M102.122 491.832C102.305 492.924 101.758 493.47 100.847 493.288C99.9365 492.924 99.2078 491.832 99.0256 490.74C98.8435 489.648 99.39 489.102 100.301 489.284C101.212 489.648 101.94 490.74 102.122 491.832Z" fill="#00CD6B"/>
<path opacity="0.3" d="M84.8165 486.918C85.1808 488.01 84.6343 488.92 83.9057 488.738C83.177 488.556 82.2662 487.646 81.9019 486.554C81.5375 485.462 82.084 484.552 82.8127 484.734C83.5413 484.916 84.4522 485.826 84.8165 486.918Z" fill="#00CD6B"/>
<path opacity="0.3" d="M68.6037 486.372C68.968 487.464 68.7858 488.556 68.0572 488.556C67.3285 488.556 66.4176 487.828 65.8711 486.736C65.5068 485.644 65.689 484.552 66.4176 484.552C67.1463 484.37 68.2393 485.098 68.6037 486.372Z" fill="#00CD6B"/>
<path opacity="0.3" d="M54.0304 489.648C54.5769 490.74 54.5769 491.832 53.8482 492.196C53.1196 492.56 52.2088 491.832 51.6623 490.74C51.1158 489.648 51.1157 488.556 51.8444 488.192C52.5731 487.828 53.4839 488.556 54.0304 489.648Z" fill="#00CD6B"/>
<path opacity="0.3" d="M41.4608 497.11C42.1895 498.202 42.1895 499.294 41.643 499.84C41.0965 500.386 40.1856 499.84 39.457 498.93C38.7283 497.838 38.7283 496.746 39.2748 496.2C39.8213 495.654 40.7321 496.018 41.4608 497.11Z" fill="#00CD6B"/>
<path opacity="0.3" d="M31.4418 508.394C32.1704 509.304 32.5348 510.578 32.1704 511.306C31.8061 512.034 30.7131 511.67 29.9844 510.76C29.2557 509.85 28.8914 508.576 29.2557 507.848C29.6201 507.12 30.7131 507.484 31.4418 508.394Z" fill="#00CD6B"/>
<path opacity="0.3" d="M24.1548 522.954C25.0657 523.682 25.43 524.956 25.2479 525.866C25.0657 526.594 24.1548 526.594 23.244 525.866C22.3332 525.138 21.9688 523.864 22.151 522.954C22.3332 522.226 23.244 522.226 24.1548 522.954Z" fill="#00CD6B"/>
<path opacity="0.3" d="M19.9645 540.426C20.8753 540.972 21.4218 542.246 21.2396 543.338C21.0574 544.248 20.3288 544.43 19.418 543.884C18.5071 543.338 17.9606 542.064 18.1428 540.972C18.325 540.062 19.0536 539.88 19.9645 540.426Z" fill="#00CD6B"/>
<path opacity="0.3" d="M18.8722 560.446C19.783 560.992 20.5117 562.084 20.5117 563.176C20.5117 564.268 19.9652 564.632 19.0543 564.268C18.1435 563.722 17.4148 562.63 17.4148 561.538C17.2327 560.446 17.9613 559.9 18.8722 560.446Z" fill="#00CD6B"/>
<path opacity="0.3" d="M20.876 582.104C21.7868 582.286 22.5155 583.56 22.6976 584.652C22.8798 585.744 22.3333 586.472 21.4225 586.108C20.5117 585.926 19.783 584.652 19.6008 583.56C19.6008 582.468 20.1473 581.74 20.876 582.104Z" fill="#00CD6B"/>
<path opacity="0.3" d="M26.1589 604.854C26.8876 604.854 27.9806 605.946 28.1627 607.038C28.5271 608.13 28.1627 609.04 27.2519 609.04C26.5232 609.04 25.4302 607.948 25.2481 606.856C25.0659 605.582 25.4302 604.672 26.1589 604.854Z" fill="#00CD6B"/>
<path opacity="0.3" d="M34.3564 627.786C35.0851 627.604 35.9959 628.514 36.5424 629.606C37.0889 630.698 36.9068 631.79 36.1781 631.79C35.4494 631.972 34.5386 631.062 33.9921 629.97C33.4456 628.878 33.6278 627.968 34.3564 627.786Z" fill="#00CD6B"/>
<path opacity="0.3" d="M45.2863 650.354C45.8328 649.99 46.9257 650.536 47.4722 651.628C48.0187 652.72 48.0187 653.812 47.4722 654.176C46.9257 654.54 45.8328 653.994 45.2863 652.902C44.5576 651.81 44.7398 650.718 45.2863 650.354Z" fill="#00CD6B"/>
<path opacity="0.3" d="M58.5844 671.83C59.1309 671.284 60.0417 671.648 60.7704 672.74C61.4991 673.65 61.6813 674.924 61.1347 675.47C60.5882 676.016 59.6774 675.652 58.9487 674.56C58.22 673.65 58.0378 672.376 58.5844 671.83Z" fill="#00CD6B"/>
<path opacity="0.3" d="M73.7045 691.486C74.0688 690.758 74.9796 690.94 75.8904 691.85C76.6191 692.76 76.9835 694.034 76.6191 694.762C76.2548 695.49 75.344 695.308 74.4331 694.398C73.7045 693.488 73.3401 692.214 73.7045 691.486Z" fill="#00CD6B"/>
<path opacity="0.3" d="M90.2814 708.594C90.4636 707.684 91.3744 707.684 92.2852 708.412C93.196 709.14 93.5604 710.414 93.3782 711.324C93.196 712.234 92.2852 712.234 91.3744 711.506C90.6457 710.778 90.0992 709.504 90.2814 708.594Z" fill="#00CD6B"/>
<path opacity="0.3" d="M107.77 722.608C107.77 721.698 108.68 721.334 109.409 721.88C110.32 722.426 110.866 723.7 110.866 724.61C110.866 725.52 109.956 725.884 109.227 725.338C108.498 724.974 107.77 723.7 107.77 722.608Z" fill="#00CD6B"/>
<path opacity="0.3" d="M125.622 733.346C125.622 732.254 126.168 731.708 127.079 732.254C127.99 732.618 128.719 733.892 128.719 734.984C128.719 736.076 128.172 736.622 127.261 736.076C126.533 735.53 125.804 734.438 125.622 733.346Z" fill="#00CD6B"/>
<path opacity="0.3" d="M143.292 740.08C143.11 738.988 143.474 738.26 144.385 738.442C145.296 738.624 146.025 739.716 146.389 740.808C146.571 741.9 146.207 742.628 145.296 742.446C144.385 742.264 143.474 741.172 143.292 740.08Z" fill="#00CD6B"/>
<path opacity="0.3" d="M160.051 742.81C159.687 741.718 160.051 740.808 160.78 740.808C161.509 740.808 162.602 741.718 162.966 742.81C163.33 743.902 162.966 744.812 162.237 744.812C161.509 744.994 160.598 744.084 160.051 742.81Z" fill="#00CD6B"/>
<path opacity="0.3" d="M175.536 741.536C174.989 740.444 175.171 739.352 175.9 739.17C176.628 738.988 177.539 739.716 178.086 740.808C178.632 741.9 178.45 742.992 177.721 743.174C177.175 743.356 176.082 742.628 175.536 741.536Z" fill="#00CD6B"/>
<path opacity="0.3" d="M189.198 736.076C188.651 734.984 188.469 733.892 189.198 733.528C189.744 733.164 190.837 733.71 191.384 734.802C191.93 735.894 192.113 736.986 191.384 737.35C190.837 737.714 189.927 737.168 189.198 736.076Z" fill="#00CD6B"/>
<path opacity="0.3" d="M200.492 726.794C199.764 725.884 199.582 724.61 200.128 724.064C200.675 723.518 201.585 723.882 202.314 724.792C203.043 725.702 203.225 726.976 202.678 727.522C202.314 728.068 201.221 727.704 200.492 726.794Z" fill="#00CD6B"/>
<path opacity="0.3" d="M209.237 713.69C208.508 712.78 208.144 711.506 208.326 710.778C208.69 710.05 209.601 710.232 210.33 710.96C211.058 711.87 211.422 713.144 211.24 713.872C211.058 714.782 210.147 714.6 209.237 713.69Z" fill="#00CD6B"/>
<path opacity="0.3" d="M215.066 697.674C214.155 696.946 213.608 695.672 213.791 694.762C213.973 693.852 214.884 693.852 215.612 694.398C216.523 695.126 217.07 696.4 216.887 697.31C216.705 698.22 215.976 698.402 215.066 697.674Z" fill="#00CD6B"/>
<path opacity="0.3" d="M217.798 678.746C216.887 678.2 216.159 676.926 216.341 676.016C216.341 675.106 217.07 674.742 217.98 675.288C218.891 675.834 219.62 677.108 219.438 678.018C219.438 678.928 218.709 679.292 217.798 678.746Z" fill="#00CD6B"/>
<path opacity="0.3" d="M217.252 657.998C216.341 657.634 215.612 656.542 215.43 655.45C215.248 654.358 215.977 653.812 216.705 654.176C217.616 654.54 218.345 655.632 218.527 656.724C218.709 657.816 218.163 658.362 217.252 657.998Z" fill="#00CD6B"/>
<path opacity="0.3" d="M213.608 635.612C212.698 635.43 211.969 634.338 211.605 633.246C211.422 632.154 211.787 631.426 212.698 631.608C213.608 631.79 214.337 632.882 214.702 633.974C214.884 635.066 214.337 635.794 213.608 635.612Z" fill="#00CD6B"/>
<path opacity="0.3" d="M206.868 612.68C206.14 612.68 205.229 611.77 204.682 610.678C204.318 609.586 204.5 608.676 205.411 608.494C206.14 608.494 207.05 609.404 207.597 610.496C207.779 611.77 207.597 612.68 206.868 612.68Z" fill="#00CD6B"/>
<path opacity="0.3" d="M197.213 589.748C196.485 589.93 195.574 589.202 195.027 588.11C194.481 587.018 194.663 585.926 195.209 585.744C195.938 585.562 196.849 586.29 197.395 587.382C197.942 588.474 197.942 589.566 197.213 589.748Z" fill="#00CD6B"/>
<path opacity="0.3" d="M185.008 567.726C184.462 568.09 183.369 567.726 182.822 566.634C182.094 565.542 182.094 564.45 182.64 563.904C183.187 563.54 184.28 563.904 184.826 564.996C185.555 566.088 185.555 567.18 185.008 567.726Z" fill="#00CD6B"/>
<path opacity="0.3" d="M170.799 547.16C170.435 547.706 169.342 547.524 168.613 546.614C167.885 545.704 167.702 544.43 168.067 543.884C168.431 543.338 169.524 543.52 170.253 544.43C170.981 545.158 171.163 546.432 170.799 547.16Z" fill="#00CD6B"/>
<path opacity="0.3" d="M154.768 528.596C154.404 529.324 153.493 529.324 152.765 528.414C152.036 527.504 151.489 526.23 151.854 525.502C152.218 524.774 153.129 524.774 153.858 525.684C154.768 526.594 155.133 527.868 154.768 528.596Z" fill="#00CD6B"/>
<path opacity="0.3" d="M137.645 512.944C137.463 513.854 136.734 514.036 135.823 513.308C134.912 512.58 134.366 511.306 134.548 510.396C134.73 509.486 135.459 509.304 136.37 510.032C137.281 510.76 137.827 512.034 137.645 512.944Z" fill="#00CD6B"/>
</g>
<g opacity="0.1">
<path opacity="0.1" d="M120.157 489.466C120.157 490.558 119.428 491.104 118.335 490.558C117.424 490.012 116.513 488.738 116.513 487.464C116.513 486.19 117.242 485.826 118.335 486.372C119.246 486.918 120.157 488.374 120.157 489.466Z" fill="#00CD6B"/>
<path opacity="0.1" d="M100.483 479.82C100.665 481.094 100.119 481.64 99.0256 481.276C98.1148 480.912 97.204 479.638 97.0218 478.546C96.8397 477.454 97.3862 476.726 98.4791 477.09C99.39 477.272 100.301 478.546 100.483 479.82Z" fill="#00CD6B"/>
<path opacity="0.1" d="M81.5376 474.542C81.902 475.816 81.3555 476.726 80.4446 476.544C79.5338 476.362 78.623 475.27 78.2587 473.996C77.8943 472.722 78.4408 471.812 79.3517 471.994C80.2625 472.176 81.1733 473.268 81.5376 474.542Z" fill="#00CD6B"/>
<path opacity="0.1" d="M63.8675 473.814C64.414 475.088 64.0497 476.18 63.321 476.18C62.4102 476.362 61.4993 475.27 60.9528 474.178C60.4063 472.904 60.7707 471.812 61.4993 471.812C62.228 471.63 63.321 472.54 63.8675 473.814Z" fill="#00CD6B"/>
<path opacity="0.1" d="M47.8368 477.454C48.3833 478.728 48.3833 479.82 47.6547 480.184C46.926 480.548 45.833 479.82 45.2865 478.546C44.74 477.272 44.74 476.18 45.4687 475.816C46.1973 475.452 47.1082 476.362 47.8368 477.454Z" fill="#00CD6B"/>
<path opacity="0.1" d="M33.992 485.644C34.7207 486.736 34.9029 488.01 34.3564 488.556C33.8099 489.102 32.7169 488.556 31.9882 487.464C31.2596 486.372 31.0774 485.098 31.6239 484.552C32.1704 484.006 33.2634 484.552 33.992 485.644Z" fill="#00CD6B"/>
<path opacity="0.1" d="M22.8801 497.838C23.7909 498.93 23.9731 500.204 23.6087 500.932C23.2444 501.66 22.1514 501.478 21.2405 500.386C20.3297 499.294 20.1475 498.02 20.5119 497.292C21.0584 496.746 22.1514 496.928 22.8801 497.838Z" fill="#00CD6B"/>
<path opacity="0.1" d="M14.8646 514.036C15.7754 514.946 16.3219 516.402 15.9576 517.13C15.5933 518.04 14.6824 518.04 13.7716 517.13C12.8608 516.22 12.3142 514.764 12.6786 514.036C13.0429 513.126 13.9537 513.126 14.8646 514.036Z" fill="#00CD6B"/>
<path opacity="0.1" d="M10.3098 533.146C11.2206 533.874 11.9493 535.148 11.7671 536.24C11.5849 537.332 10.6741 537.514 9.76327 536.786C8.85244 536.058 8.12377 534.784 8.30593 533.692C8.4881 532.782 9.39892 532.6 10.3098 533.146Z" fill="#00CD6B"/>
<path opacity="0.1" d="M9.03522 555.168C9.94605 555.714 10.8569 556.988 10.8569 558.08C10.8569 559.172 10.1282 559.718 9.2174 559.172C8.30658 558.626 7.39575 557.352 7.39575 556.26C7.39575 555.168 8.1244 554.622 9.03522 555.168Z" fill="#00CD6B"/>
<path opacity="0.1" d="M11.4033 578.828C12.3141 579.192 13.225 580.284 13.4071 581.558C13.5893 582.832 13.0428 583.56 12.132 583.196C11.2211 582.832 10.3103 581.74 10.1282 580.466C9.946 579.374 10.4925 578.646 11.4033 578.828Z" fill="#00CD6B"/>
<path opacity="0.1" d="M17.2326 603.762C18.1434 603.762 19.0542 604.854 19.6007 606.128C19.9651 607.402 19.6007 608.312 18.6899 608.312C17.7791 608.312 16.8682 607.22 16.3217 605.946C15.9574 604.672 16.3217 603.762 17.2326 603.762Z" fill="#00CD6B"/>
<path opacity="0.1" d="M26.1587 629.06C26.8874 628.878 27.9804 629.788 28.5269 631.062C29.0734 632.336 28.8912 633.428 27.9804 633.61C27.2517 633.792 26.1587 632.882 25.6122 631.608C25.0658 630.334 25.4301 629.242 26.1587 629.06Z" fill="#00CD6B"/>
<path opacity="0.1" d="M38.182 653.994C38.9107 653.63 40.0037 654.358 40.5502 655.45C41.2788 656.542 41.2788 657.816 40.5502 658.18C39.8215 658.544 38.7285 657.816 38.182 656.724C37.4533 655.45 37.4533 654.358 38.182 653.994Z" fill="#00CD6B"/>
<path opacity="0.1" d="M52.7553 677.472C53.3018 676.926 54.3948 677.29 55.1235 678.382C55.8522 679.474 56.0343 680.748 55.4878 681.476C54.9413 682.022 53.8483 681.658 53.1196 680.566C52.3909 679.474 52.2088 678.018 52.7553 677.472Z" fill="#00CD6B"/>
<path opacity="0.1" d="M69.3324 698.948C69.6967 698.22 70.7897 698.402 71.7006 699.312C72.6114 700.222 72.9757 701.678 72.4292 702.406C72.0649 703.134 70.9719 702.952 70.061 702.042C69.3324 701.132 68.9681 699.676 69.3324 698.948Z" fill="#00CD6B"/>
<path opacity="0.1" d="M87.5491 717.694C87.7312 716.784 88.8242 716.784 89.7351 717.512C90.6459 718.422 91.1924 719.696 91.0103 720.606C90.8281 721.516 89.7351 721.516 88.8242 720.788C87.9134 720.06 87.3669 718.604 87.5491 717.694Z" fill="#00CD6B"/>
<path opacity="0.1" d="M106.859 733.164C106.859 732.072 107.77 731.708 108.68 732.436C109.591 733.164 110.32 734.438 110.32 735.53C110.32 736.622 109.409 736.986 108.498 736.258C107.405 735.712 106.677 734.256 106.859 733.164Z" fill="#00CD6B"/>
<path opacity="0.1" d="M126.351 744.994C126.351 743.902 126.897 743.356 127.99 743.72C128.901 744.084 129.812 745.54 129.812 746.632C129.812 747.724 129.265 748.27 128.172 747.906C127.444 747.36 126.533 746.086 126.351 744.994Z" fill="#00CD6B"/>
<path opacity="0.1" d="M145.842 752.456C145.66 751.182 146.207 750.454 147.117 750.636C148.028 750.818 148.939 752.092 149.303 753.184C149.486 754.458 148.939 755.186 148.028 755.004C146.935 754.822 146.024 753.548 145.842 752.456Z" fill="#00CD6B"/>
<path opacity="0.1" d="M164.241 755.368C163.877 754.094 164.241 753.184 164.97 753.184C165.881 753.184 166.791 754.276 167.338 755.368C167.702 756.642 167.338 757.552 166.609 757.552C165.698 757.734 164.605 756.642 164.241 755.368Z" fill="#00CD6B"/>
<path opacity="0.1" d="M181.183 753.912C180.636 752.638 180.818 751.546 181.547 751.364C182.276 751.182 183.369 751.91 183.915 753.184C184.462 754.458 184.279 755.55 183.551 755.732C182.822 755.914 181.729 755.186 181.183 753.912Z" fill="#00CD6B"/>
<path opacity="0.1" d="M196.12 747.906C195.392 746.814 195.392 745.54 196.12 744.994C196.849 744.63 197.942 745.176 198.489 746.268C199.217 747.36 199.217 748.634 198.489 749.18C197.942 749.726 196.849 749.18 196.12 747.906Z" fill="#00CD6B"/>
<path opacity="0.1" d="M208.69 737.714C207.961 736.622 207.597 735.348 208.144 734.62C208.69 733.892 209.783 734.438 210.512 735.53C211.24 736.622 211.605 737.896 211.058 738.624C210.512 739.352 209.419 738.806 208.69 737.714Z" fill="#00CD6B"/>
<path opacity="0.1" d="M218.163 723.518C217.252 722.608 216.887 721.152 217.252 720.424C217.616 719.696 218.709 719.696 219.62 720.606C220.531 721.516 220.895 722.972 220.531 723.7C220.166 724.428 219.073 724.428 218.163 723.518Z" fill="#00CD6B"/>
<path opacity="0.1" d="M224.538 705.682C223.628 704.954 223.081 703.498 223.263 702.588C223.445 701.678 224.356 701.496 225.267 702.224C226.178 702.952 226.724 704.408 226.542 705.318C226.36 706.228 225.449 706.592 224.538 705.682Z" fill="#00CD6B"/>
<path opacity="0.1" d="M227.453 685.116C226.542 684.57 225.813 683.114 225.813 682.022C225.813 680.93 226.724 680.566 227.635 681.112C228.546 681.658 229.275 683.114 229.275 684.206C229.275 685.298 228.364 685.662 227.453 685.116Z" fill="#00CD6B"/>
<path opacity="0.1" d="M226.906 662.184C225.996 661.82 225.085 660.546 224.903 659.272C224.72 658.18 225.449 657.452 226.36 657.816C227.271 658.18 228.182 659.454 228.364 660.728C228.546 662.002 227.817 662.548 226.906 662.184Z" fill="#00CD6B"/>
<path opacity="0.1" d="M222.899 637.614C221.988 637.432 221.077 636.34 220.713 635.066C220.348 633.792 220.895 633.064 221.806 633.246C222.717 633.428 223.628 634.52 223.992 635.794C224.174 637.068 223.81 637.796 222.899 637.614Z" fill="#00CD6B"/>
<path opacity="0.1" d="M215.43 612.498C214.519 612.498 213.608 611.588 213.062 610.314C212.698 609.04 212.88 608.13 213.791 607.948C214.701 607.948 215.612 608.858 216.159 610.132C216.523 611.406 216.341 612.498 215.43 612.498Z" fill="#00CD6B"/>
<path opacity="0.1" d="M204.864 587.382C204.136 587.564 203.043 586.836 202.496 585.744C201.95 584.47 201.95 583.378 202.861 583.014C203.589 582.832 204.682 583.56 205.229 584.652C205.775 585.926 205.593 587.018 204.864 587.382Z" fill="#00CD6B"/>
<path opacity="0.1" d="M191.566 562.994C191.02 563.54 189.927 562.994 189.198 561.72C188.47 560.446 188.47 559.354 189.016 558.808C189.563 558.262 190.655 558.808 191.384 560.082C192.113 561.356 192.295 562.63 191.566 562.994Z" fill="#00CD6B"/>
<path opacity="0.1" d="M175.9 540.426C175.353 541.154 174.26 540.79 173.532 539.698C172.621 538.606 172.439 537.332 172.985 536.604C173.532 535.876 174.625 536.24 175.353 537.332C176.082 538.424 176.446 539.88 175.9 540.426Z" fill="#00CD6B"/>
<path opacity="0.1" d="M158.412 520.224C158.048 521.134 157.137 520.952 156.226 520.042C155.315 519.132 154.951 517.676 155.133 516.948C155.497 516.038 156.408 516.22 157.319 517.13C158.23 518.04 158.776 519.314 158.412 520.224Z" fill="#00CD6B"/>
<path opacity="0.1" d="M139.649 502.934C139.466 503.844 138.556 504.208 137.645 503.298C136.734 502.57 136.005 501.114 136.188 500.204C136.37 499.294 137.281 498.93 138.191 499.84C139.102 500.568 139.831 502.024 139.649 502.934Z" fill="#00CD6B"/>
</g>
</g>
<path d="M49.1117 562.448C49.6582 562.812 50.2047 563.722 50.0225 564.45C50.0225 565.178 49.2939 565.36 48.7474 564.814C48.2009 564.45 47.6543 563.54 47.8365 562.812C47.8365 562.084 48.383 562.084 49.1117 562.448Z" fill="#42E8E0"/>
<path d="M188.287 659.818C187.741 659.454 187.194 658.544 187.194 657.816C187.194 657.088 187.741 656.906 188.287 657.27C188.834 657.634 189.38 658.544 189.38 659.272C189.562 660 189.016 660.182 188.287 659.818Z" fill="#42E8E0"/>
<path d="M185.372 629.424C184.826 629.242 184.097 628.514 183.915 627.786C183.733 627.058 184.097 626.512 184.644 626.512C185.19 626.694 185.919 627.422 186.101 628.15C186.283 629.06 185.919 629.606 185.372 629.424Z" fill="#42E8E0"/>
<path d="M175.535 712.598C174.989 711.688 174.989 710.778 175.535 710.414C176.082 710.05 176.811 710.596 177.357 711.324C177.904 712.234 177.904 713.144 177.357 713.508C176.811 713.872 176.082 713.508 175.535 712.598Z" fill="#42E8E0"/>
<path d="M147.846 545.34C147.664 545.886 146.935 545.886 146.206 545.34C145.478 544.612 145.296 543.702 145.478 542.974C145.66 542.428 146.389 542.428 147.117 542.974C147.846 543.52 148.028 544.612 147.846 545.34Z" fill="#42E8E0"/>
<path d="M72.9754 497.474C73.3397 498.566 73.1576 499.476 72.4289 499.476C71.7002 499.476 70.7894 498.748 70.4251 497.838C70.0608 496.746 70.2429 495.836 70.9716 495.836C71.7002 495.654 72.6111 496.564 72.9754 497.474Z" fill="#42E8E0"/>
<path d="M27.616 565.178C28.3447 565.542 29.0734 566.634 29.0734 567.726C29.0734 568.636 28.5269 569 27.616 568.636C26.8873 568.272 26.1587 567.18 26.1587 566.088C26.1587 565.178 26.7052 564.814 27.616 565.178Z" fill="#42E8E0"/>
<path d="M51.6618 647.26C52.2083 646.896 53.1192 647.442 53.6657 648.534C54.2122 649.444 54.2122 650.536 53.6657 650.9C53.1192 651.264 52.2083 650.718 51.6618 649.626C51.1153 648.716 51.1153 647.624 51.6618 647.26Z" fill="#42E8E0"/>
<path d="M201.403 705.136C200.674 704.408 200.31 703.134 200.674 702.588C201.039 701.86 201.767 702.042 202.496 702.77C203.225 703.498 203.589 704.772 203.225 705.318C202.86 706.046 202.132 705.864 201.403 705.136Z" fill="#42E8E0"/>
<path d="M205.228 633.792C204.5 633.61 203.589 632.7 203.407 631.608C203.225 630.516 203.589 629.97 204.318 629.97C205.046 630.152 205.957 631.062 206.139 632.154C206.321 633.246 205.957 633.974 205.228 633.792Z" fill="#42E8E0"/>
<path d="M19.965 540.426C20.8758 540.972 21.4223 542.246 21.2401 543.338C21.058 544.248 20.3293 544.43 19.4185 543.884C18.5076 543.338 17.9611 542.064 18.1433 540.972C18.3255 540.062 19.0541 539.88 19.965 540.426Z" fill="#42E8E0"/>
<path d="M125.622 733.346C125.622 732.254 126.168 731.708 127.079 732.254C127.99 732.618 128.718 733.892 128.718 734.984C128.718 736.076 128.172 736.622 127.261 736.076C126.532 735.53 125.804 734.438 125.622 733.346Z" fill="#42E8E0"/>
<path d="M170.799 547.16C170.435 547.706 169.342 547.524 168.613 546.614C167.884 545.704 167.702 544.43 168.066 543.884C168.431 543.338 169.524 543.52 170.252 544.43C170.981 545.158 171.163 546.432 170.799 547.16Z" fill="#42E8E0"/>
<path d="M69.3321 698.948C69.6965 698.22 70.7894 698.402 71.7003 699.312C72.6111 700.222 72.9754 701.678 72.4289 702.406C72.0646 703.134 70.9716 702.952 70.0608 702.042C69.3321 701.132 68.9678 699.676 69.3321 698.948Z" fill="#42E8E0"/>
<path opacity="0.8" d="M306.331 694.944L305.602 693.852C326.916 681.294 338.757 654.904 338.757 619.778C338.757 546.25 286.839 456.524 223.263 419.76C192.112 401.742 162.966 399.012 141.288 412.116L140.559 411.024C162.784 397.738 192.295 400.468 223.992 418.668C288.114 455.614 340.214 545.886 340.214 619.778C340.032 655.268 328.009 682.022 306.331 694.944Z" fill="url(#paint25_linear)"/>
</g>
<defs>
<linearGradient id="paint0_linear" x1="146.639" y1="540.471" x2="365.133" y2="540.471" gradientUnits="userSpaceOnUse">
<stop stop-color="#2B237C"/>
<stop offset="1" stop-color="#180D5B"/>
</linearGradient>
<linearGradient id="paint1_linear" x1="321.665" y1="585.615" x2="146.045" y2="414.82" gradientUnits="userSpaceOnUse">
<stop stop-color="#180D5B"/>
<stop offset="0.0946347" stop-color="#1A1560"/>
<stop offset="0.2452" stop-color="#1E2D6E"/>
<stop offset="0.2911" stop-color="#203573"/>
<stop offset="0.3878" stop-color="#23467E"/>
<stop offset="0.5805" stop-color="#2C7499"/>
<stop offset="0.8484" stop-color="#3ABCC5"/>
<stop offset="1" stop-color="#42E8E0"/>
</linearGradient>
<linearGradient id="paint2_linear" x1="139.986" y1="545.6" x2="308.458" y2="545.6" gradientUnits="userSpaceOnUse">
<stop stop-color="#2B237C"/>
<stop offset="1" stop-color="#180D5B"/>
</linearGradient>
<radialGradient id="paint3_radial" cx="0" cy="0" r="1" gradientUnits="userSpaceOnUse" gradientTransform="translate(190.231 526.733) scale(218.694 218.494)">
<stop stop-color="#180D5B"/>
<stop offset="0.0949797" stop-color="#1A1660"/>
<stop offset="0.2466" stop-color="#1E2D6E"/>
<stop offset="0.436" stop-color="#255385"/>
<stop offset="0.6555" stop-color="#2F87A5"/>
<stop offset="0.8978" stop-color="#3CCACE"/>
<stop offset="1" stop-color="#42E8E0"/>
</radialGradient>
<radialGradient id="paint4_radial" cx="0" cy="0" r="1" gradientUnits="userSpaceOnUse" gradientTransform="translate(239.206 543.214) scale(92.76 92.6751)">
<stop stop-color="#180D5B"/>
<stop offset="0.0949797" stop-color="#1A1660"/>
<stop offset="0.2466" stop-color="#1E2D6E"/>
<stop offset="0.436" stop-color="#255385"/>
<stop offset="0.6555" stop-color="#2F87A5"/>
<stop offset="0.8978" stop-color="#3CCACE"/>
<stop offset="1" stop-color="#42E8E0"/>
</radialGradient>
<linearGradient id="paint5_linear" x1="342.761" y1="696.813" x2="77.6062" y2="362.567" gradientUnits="userSpaceOnUse">
<stop stop-color="#180D5B"/>
<stop offset="0.0949797" stop-color="#1A1660"/>
<stop offset="0.2466" stop-color="#1E2D6E"/>
<stop offset="0.436" stop-color="#255385"/>
<stop offset="0.6555" stop-color="#2F87A5"/>
<stop offset="0.8978" stop-color="#3CCACE"/>
<stop offset="1" stop-color="#42E8E0"/>
</linearGradient>
<linearGradient id="paint6_linear" x1="283.884" y1="622.729" x2="169.924" y2="479.075" gradientUnits="userSpaceOnUse">
<stop stop-color="#180D5B"/>
<stop offset="0.0949797" stop-color="#1A1660"/>
<stop offset="0.2466" stop-color="#1E2D6E"/>
<stop offset="0.436" stop-color="#255385"/>
<stop offset="0.6555" stop-color="#2F87A5"/>
<stop offset="0.8978" stop-color="#3CCACE"/>
<stop offset="1" stop-color="#42E8E0"/>
</linearGradient>
<linearGradient id="paint7_linear" x1="328.361" y1="678.693" x2="125.547" y2="423.033" gradientUnits="userSpaceOnUse">
<stop stop-color="#180D5B"/>
<stop offset="0.0949797" stop-color="#1A1660"/>
<stop offset="0.2466" stop-color="#1E2D6E"/>
<stop offset="0.436" stop-color="#255385"/>
<stop offset="0.6555" stop-color="#2F87A5"/>
<stop offset="0.8978" stop-color="#3CCACE"/>
<stop offset="1" stop-color="#42E8E0"/>
</linearGradient>
<linearGradient id="paint8_linear" x1="86.0785" y1="565.344" x2="339.405" y2="565.344" gradientUnits="userSpaceOnUse">
<stop stop-color="#2B237C"/>
<stop offset="1" stop-color="#180D5B"/>
</linearGradient>
<linearGradient id="paint9_linear" x1="318.38" y1="695.579" x2="147.876" y2="387.357" gradientUnits="userSpaceOnUse">
<stop stop-color="#41E3DD"/>
<stop offset="0.0121756" stop-color="#3FD8D6"/>
<stop offset="0.0632885" stop-color="#37ADBC"/>
<stop offset="0.117" stop-color="#3088A5"/>
<stop offset="0.1728" stop-color="#2A6A93"/>
<stop offset="0.2313" stop-color="#265285"/>
<stop offset="0.2939" stop-color="#22427B"/>
<stop offset="0.3631" stop-color="#213875"/>
<stop offset="0.4525" stop-color="#203573"/>
<stop offset="0.5272" stop-color="#23467E"/>
<stop offset="0.676" stop-color="#2C7499"/>
<stop offset="0.883" stop-color="#3ABCC5"/>
<stop offset="1" stop-color="#42E8E0"/>
</linearGradient>
<linearGradient id="paint10_linear" x1="79.4256" y1="580.571" x2="247.897" y2="580.571" gradientUnits="userSpaceOnUse">
<stop stop-color="#2B237C"/>
<stop offset="1" stop-color="#180D5B"/>
</linearGradient>
<radialGradient id="paint11_radial" cx="0" cy="0" r="1" gradientUnits="userSpaceOnUse" gradientTransform="translate(129.67 561.705) scale(218.694 218.494)">
<stop stop-color="#180D5B"/>
<stop offset="0.0949797" stop-color="#1A1660"/>
<stop offset="0.2466" stop-color="#1E2D6E"/>
<stop offset="0.436" stop-color="#255385"/>
<stop offset="0.6555" stop-color="#2F87A5"/>
<stop offset="0.8978" stop-color="#3CCACE"/>
<stop offset="1" stop-color="#42E8E0"/>
</radialGradient>
<radialGradient id="paint12_radial" cx="0" cy="0" r="1" gradientUnits="userSpaceOnUse" gradientTransform="translate(178.645 578.184) scale(92.76 92.6751)">
<stop stop-color="#180D5B"/>
<stop offset="0.0949797" stop-color="#1A1660"/>
<stop offset="0.2466" stop-color="#1E2D6E"/>
<stop offset="0.436" stop-color="#255385"/>
<stop offset="0.6555" stop-color="#2F87A5"/>
<stop offset="0.8978" stop-color="#3CCACE"/>
<stop offset="1" stop-color="#42E8E0"/>
</radialGradient>
<linearGradient id="paint13_linear" x1="282.2" y1="731.785" x2="17.0454" y2="397.539" gradientUnits="userSpaceOnUse">
<stop stop-color="#180D5B"/>
<stop offset="0.0949797" stop-color="#1A1660"/>
<stop offset="0.2466" stop-color="#1E2D6E"/>
<stop offset="0.436" stop-color="#255385"/>
<stop offset="0.6555" stop-color="#2F87A5"/>
<stop offset="0.8978" stop-color="#3CCACE"/>
<stop offset="1" stop-color="#42E8E0"/>
</linearGradient>
<linearGradient id="paint14_linear" x1="223.323" y1="657.7" x2="109.363" y2="514.047" gradientUnits="userSpaceOnUse">
<stop stop-color="#180D5B"/>
<stop offset="0.0949797" stop-color="#1A1660"/>
<stop offset="0.2466" stop-color="#1E2D6E"/>
<stop offset="0.436" stop-color="#255385"/>
<stop offset="0.6555" stop-color="#2F87A5"/>
<stop offset="0.8978" stop-color="#3CCACE"/>
<stop offset="1" stop-color="#42E8E0"/>
</linearGradient>
<linearGradient id="paint15_linear" x1="267.8" y1="713.664" x2="64.9864" y2="458.004" gradientUnits="userSpaceOnUse">
<stop stop-color="#180D5B"/>
<stop offset="0.0949797" stop-color="#1A1660"/>
<stop offset="0.2466" stop-color="#1E2D6E"/>
<stop offset="0.436" stop-color="#255385"/>
<stop offset="0.6555" stop-color="#2F87A5"/>
<stop offset="0.8978" stop-color="#3CCACE"/>
<stop offset="1" stop-color="#42E8E0"/>
</linearGradient>
<linearGradient id="paint16_linear" x1="30.5924" y1="608.69" x2="199.064" y2="608.69" gradientUnits="userSpaceOnUse">
<stop stop-color="#2B237C"/>
<stop offset="1" stop-color="#180D5B"/>
</linearGradient>
<linearGradient id="paint17_linear" x1="230.981" y1="651.92" x2="117.7" y2="509.121" gradientUnits="userSpaceOnUse">
<stop stop-color="#180D5B"/>
<stop offset="0.0949797" stop-color="#1A1660"/>
<stop offset="0.2466" stop-color="#1E2D6E"/>
<stop offset="0.436" stop-color="#255385"/>
<stop offset="0.6555" stop-color="#2F87A5"/>
<stop offset="0.8978" stop-color="#3CCACE"/>
<stop offset="1" stop-color="#42E8E0"/>
</linearGradient>
<linearGradient id="paint18_linear" x1="230.981" y1="651.92" x2="117.7" y2="509.121" gradientUnits="userSpaceOnUse">
<stop stop-color="#180D5B"/>
<stop offset="0.0949797" stop-color="#1A1660"/>
<stop offset="0.2466" stop-color="#1E2D6E"/>
<stop offset="0.436" stop-color="#255385"/>
<stop offset="0.6555" stop-color="#2F87A5"/>
<stop offset="0.8978" stop-color="#3CCACE"/>
<stop offset="1" stop-color="#42E8E0"/>
</linearGradient>
<radialGradient id="paint19_radial" cx="0" cy="0" r="1" gradientUnits="userSpaceOnUse" gradientTransform="translate(80.837 589.824) scale(218.694 218.494)">
<stop stop-color="#180D5B"/>
<stop offset="0.0949797" stop-color="#1A1660"/>
<stop offset="0.2466" stop-color="#1E2D6E"/>
<stop offset="0.436" stop-color="#255385"/>
<stop offset="0.6555" stop-color="#2F87A5"/>
<stop offset="0.8978" stop-color="#3CCACE"/>
<stop offset="1" stop-color="#42E8E0"/>
</radialGradient>
<linearGradient id="paint20_linear" x1="37.2453" y1="603.561" x2="255.739" y2="603.561" gradientUnits="userSpaceOnUse">
<stop stop-color="#2B237C"/>
<stop offset="1" stop-color="#180D5B"/>
</linearGradient>
<linearGradient id="paint21_linear" x1="211.166" y1="647.633" x2="35.5462" y2="476.838" gradientUnits="userSpaceOnUse">
<stop stop-color="#180D5B"/>
<stop offset="0.0946347" stop-color="#1A1560"/>
<stop offset="0.2452" stop-color="#1E2D6E"/>
<stop offset="0.2911" stop-color="#203573"/>
<stop offset="0.3878" stop-color="#23467E"/>
<stop offset="0.5805" stop-color="#2C7499"/>
<stop offset="0.8484" stop-color="#3ABCC5"/>
<stop offset="1" stop-color="#42E8E0"/>
</linearGradient>
<linearGradient id="paint22_linear" x1="233.367" y1="759.904" x2="-31.7878" y2="425.658" gradientUnits="userSpaceOnUse">
<stop stop-color="#180D5B"/>
<stop offset="0.0949797" stop-color="#1A1660"/>
<stop offset="0.2466" stop-color="#1E2D6E"/>
<stop offset="0.436" stop-color="#255385"/>
<stop offset="0.6555" stop-color="#2F87A5"/>
<stop offset="0.8978" stop-color="#3CCACE"/>
<stop offset="1" stop-color="#42E8E0"/>
</linearGradient>
<linearGradient id="paint23_linear" x1="174.489" y1="685.819" x2="60.5301" y2="542.166" gradientUnits="userSpaceOnUse">
<stop stop-color="#180D5B"/>
<stop offset="0.0949797" stop-color="#1A1660"/>
<stop offset="0.2466" stop-color="#1E2D6E"/>
<stop offset="0.436" stop-color="#255385"/>
<stop offset="0.6555" stop-color="#2F87A5"/>
<stop offset="0.8978" stop-color="#3CCACE"/>
<stop offset="1" stop-color="#42E8E0"/>
</linearGradient>
<linearGradient id="paint24_linear" x1="218.967" y1="741.783" x2="16.1532" y2="486.123" gradientUnits="userSpaceOnUse">
<stop stop-color="#180D5B"/>
<stop offset="0.0949797" stop-color="#1A1660"/>
<stop offset="0.2466" stop-color="#1E2D6E"/>
<stop offset="0.436" stop-color="#255385"/>
<stop offset="0.6555" stop-color="#2F87A5"/>
<stop offset="0.8978" stop-color="#3CCACE"/>
<stop offset="1" stop-color="#42E8E0"/>
</linearGradient>
<linearGradient id="paint25_linear" x1="343.18" y1="674.534" x2="184.037" y2="386.851" gradientUnits="userSpaceOnUse">
<stop stop-color="#203573"/>
<stop offset="0.0676442" stop-color="#23467E"/>
<stop offset="0.2024" stop-color="#2C7499"/>
<stop offset="0.3898" stop-color="#3ABCC5"/>
<stop offset="0.4958" stop-color="#42E8E0"/>
<stop offset="1" stop-color="#203573"/>
</linearGradient>
<clipPath id="clip0">
<rect width="1178" height="870" fill="white"/>
</clipPath>
</defs>
</svg>
