<svg width="320" height="66" viewBox="0 0 320 66" fill="none" xmlns="http://www.w3.org/2000/svg">
<g clip-path="url(#clip0)">
<path d="M74.0688 53.9731C69.9573 54.0509 65.9133 52.9213 62.4377 50.7242C58.962 48.5271 56.2073 45.3591 54.5148 41.6124C52.8223 37.8657 52.2663 33.705 52.9156 29.6456C53.565 25.5862 55.3912 21.8063 58.1681 18.7742C60.9449 15.742 64.5505 13.5908 68.5382 12.5869C72.5259 11.5829 76.7206 11.7705 80.6028 13.1262C84.485 14.4819 87.8841 16.9463 90.3791 20.2141C92.8742 23.4819 94.3557 27.4097 94.64 31.5108V31.9459H106.496V31.4389C106.182 23.0318 102.635 15.0702 96.594 9.21325C90.5529 3.35631 82.484 0.0559537 74.0688 0C73.2832 0 72.4976 0 71.712 0.0719791H0V10.8672H20.7136V65.2034H32.2848V10.8672H49.9984C44.1665 17.3632 41.1288 25.8943 41.5433 34.6132C41.9577 43.332 45.7909 51.5367 52.2128 57.4505C58.1686 62.9384 65.969 65.9897 74.0688 66H75.712V53.9731H74.0688Z" fill="#2E7DF2"/>
<path d="M91.7841 43.1779L85.9265 50.6397L101.927 64.1142L107.784 56.7963L91.7841 43.1779Z" fill="#2E7DF2"/>
<path d="M148.208 63.0297C146.633 63.1138 145.059 62.8453 143.6 62.2437C142.142 61.6421 140.837 60.7226 139.779 59.5523C137.623 56.8175 136.532 53.3943 136.707 49.9167V25.1383H128.781V22.0992H136.709V8.69348H139.994V22.096H154.565V25.1351H139.994V49.2641C139.771 52.1101 140.526 54.9469 142.136 57.3049C142.945 58.2107 143.953 58.9173 145.08 59.3698C146.207 59.8223 147.424 60.0085 148.635 59.9138C149.574 59.9006 150.509 59.7793 151.421 59.5523C152.468 59.2907 153.495 58.9517 154.493 58.5382L155.206 61.5085C153.011 62.5172 150.622 63.0362 148.206 63.0297H148.208ZM194.421 54.4802C193.592 57.2218 191.821 59.5826 189.421 61.1454C186.499 62.6768 183.214 63.3783 179.922 63.1736C177.925 63.2943 175.925 63.017 174.036 62.358C172.148 61.6989 170.409 60.6713 168.922 59.3348C166.35 56.7995 164.994 52.959 164.994 47.8885V37.0196C164.994 31.8036 166.35 27.9631 169.136 25.3558C172.193 22.8602 176.023 21.5031 179.97 21.5162C183.917 21.5293 187.737 22.9119 190.778 25.4278C193.498 28.0367 194.85 32.0211 194.85 37.4547V42.6708H168.35V47.8821C168.35 52.156 169.278 55.2719 171.208 57.2282C173.138 59.1844 175.994 60.1265 179.922 60.1265C182.547 60.338 185.177 59.7823 187.493 58.527C189.205 57.2101 190.496 55.4223 191.206 53.3829L194.421 54.469V54.4802ZM168.35 37.0196V39.8444H191.501V37.6051C191.501 33.1136 190.501 29.7801 188.573 27.68C186.645 25.5798 183.715 24.5641 179.859 24.5641C178.287 24.4426 176.706 24.6501 175.219 25.1734C173.731 25.6967 172.369 26.5242 171.219 27.6032C169.362 29.6314 168.362 32.7473 168.362 37.0212L168.35 37.0196ZM235.134 62.4522H207.992V59.3987L231.421 25.1383H207.992V22.0992H235.134V25.1383L211.635 59.3987H235.134V62.4522ZM263.205 63.1049C258.419 63.1049 254.706 61.8012 252.134 59.1924C249.563 56.5835 248.277 52.8167 248.277 47.8901V37.0196C248.277 32.0206 249.563 28.1817 252.134 25.503C254.706 22.8222 258.419 21.5186 263.205 21.5186C267.99 21.5186 271.634 22.8222 274.205 25.503C276.776 28.1838 278.062 32.0227 278.062 37.0196V47.8821C278.062 52.8087 276.777 56.5761 274.205 59.1844C271.704 61.798 267.99 63.1017 263.205 63.1017V63.1049ZM263.205 60.1345C267.205 60.1345 270.133 59.1204 271.99 57.1642C273.848 55.208 274.776 52.0937 274.776 47.8869V37.0196C274.776 32.7457 273.848 29.6298 271.99 27.6016C270.133 25.5734 267.205 24.5625 263.205 24.5625C259.205 24.5625 256.277 25.5766 254.419 27.6016C252.562 29.6266 251.634 32.7457 251.634 37.0196V47.8821C251.634 52.0841 252.562 55.1264 254.419 57.1594C256.277 59.1172 259.205 60.1313 263.205 60.1313V60.1345ZM305.989 63.1049C302.84 63.0946 299.711 62.606 296.709 61.6557C293.715 60.6822 290.929 59.159 288.494 57.1642L290.208 54.4114C294.593 58.135 300.168 60.1653 305.922 60.1345C308.698 60.2903 311.451 59.5544 313.779 58.0343C314.697 57.3961 315.44 56.5376 315.939 55.5375C316.438 54.5375 316.678 53.4281 316.637 52.3112C316.706 51.2811 316.504 50.2509 316.052 49.3225C315.601 48.3942 314.914 47.5999 314.061 47.0183C312.347 45.8587 309.061 44.8446 304.203 43.9024C299.131 42.9603 295.418 41.5847 293.203 39.846C292.112 39.0051 291.237 37.9152 290.652 36.6675C290.068 35.4198 289.79 34.0505 289.843 32.6737C289.787 31.1462 290.071 29.6253 290.677 28.2217C291.282 26.818 292.193 25.5669 293.342 24.5593C295.909 22.4515 299.166 21.3689 302.485 21.5201C305.293 21.5198 308.077 22.0354 310.699 23.0413C313.324 24.0695 315.78 25.486 317.984 27.2433L316.413 29.8521C314.404 28.2845 312.194 26.9933 309.842 26.0132C307.517 25.0106 305.013 24.493 302.482 24.4921C300.027 24.3327 297.596 25.0517 295.624 26.5203C294.805 27.1784 294.153 28.0194 293.719 28.9757C293.285 29.9319 293.081 30.9767 293.125 32.0259C293.04 33.1188 293.23 34.2156 293.68 35.2156C294.129 36.2156 294.822 37.0867 295.696 37.749C297.41 38.9807 300.696 39.9937 305.554 40.7881C310.696 41.6583 314.339 42.9619 316.624 44.7006C317.729 45.5457 318.612 46.6466 319.198 47.9085C319.783 49.1704 320.053 50.5556 319.984 51.9449C320.029 53.506 319.702 55.0555 319.032 56.4661C318.361 57.8766 317.365 59.1081 316.126 60.0593C313.201 62.2146 309.618 63.2897 305.989 63.1017V63.1049Z" fill="white"/>
</g>
<defs>
<clipPath id="clip0">
<rect width="320" height="66" fill="white"/>
</clipPath>
</defs>
</svg>
