<svg height='300px' width='300px'  fill="#000000" xmlns="http://www.w3.org/2000/svg" xmlns:xlink="http://www.w3.org/1999/xlink" xml:space="preserve" version="1.1" style="shape-rendering:geometricPrecision;text-rendering:geometricPrecision;image-rendering:optimizeQuality;" viewBox="0 0 18.745 18.745" x="0px" y="0px" fill-rule="evenodd" clip-rule="evenodd"><defs><style type="text/css">
   
    .fil0 {fill:#000000}
   
  </style></defs><g><path class="fil0" d="M9.373 0c5.176,0 9.372,4.196 9.372,9.373 0,5.176 -4.196,9.372 -9.372,9.372 -5.177,0 -9.373,-4.196 -9.373,-9.372 0,-5.177 4.196,-9.373 9.373,-9.373zm3.033 10.238l2.254 -2.254c0.215,-0.215 0.215,-0.564 0,-0.78l-3.119 -3.118c-0.215,-0.216 -0.565,-0.216 -0.78,0l-2.254 2.254 0.78 0.779 1.864 -1.864 2.339 2.339 -1.864 1.864 0.78 0.78zm-1.279 -3.399l-4.288 4.288 0.779 0.78 4.289 -4.289 -0.78 -0.779zm-1.669 4.787l-1.864 1.864 -2.339 -2.339 1.864 -1.864 -0.78 -0.78 -2.253 2.254c-0.216,0.216 -0.216,0.565 0,0.78l3.118 3.119c0.216,0.215 0.565,0.215 0.78,0l2.254 -2.254 -0.78 -0.78z"></path></g></svg>